# Tiled2Unity generated file. Do not modify by hand.
# Wavefront file for 'tomathensBetaMap_mesh_0065.obj'

# Vertices (Count = 64)
v -123 -24 0
v -124 -24 0
v -124 -23 0
v -123 -23 0
v -123 -25 0
v -124 -25 0
v -124 -24 0
v -123 -24 0
v -183 -77 0
v -184 -77 0
v -184 -76 0
v -183 -76 0
v -162 -77 0
v -163 -77 0
v -163 -76 0
v -162 -76 0
v -118 -77 0
v -119 -77 0
v -119 -76 0
v -118 -76 0
v -109 -77 0
v -110 -77 0
v -110 -76 0
v -109 -76 0
v -104 -77 0
v -105 -77 0
v -105 -76 0
v -104 -76 0
v -95 -77 0
v -96 -77 0
v -96 -76 0
v -95 -76 0
v -73 -77 0
v -74 -77 0
v -74 -76 0
v -73 -76 0
v -103 -97 0
v -104 -97 0
v -104 -96 0
v -103 -96 0
v -103 -98 0
v -104 -98 0
v -104 -97 0
v -103 -97 0
v -148 -135 0
v -149 -135 0
v -149 -134 0
v -148 -134 0
v -100 -147 0
v -101 -147 0
v -101 -146 0
v -100 -146 0
v -94 -147 0
v -95 -147 0
v -95 -146 0
v -94 -146 0
v -100 -148 0
v -101 -148 0
v -101 -147 0
v -100 -147 0
v -94 -148 0
v -95 -148 0
v -95 -147 0
v -94 -147 0

# Texture cooridinates (Count = 28)
vt 0.467033 0.8048781
vt 0.5549451 0.8048781
vt 0.5549451 1
vt 0.467033 1
vt 0.467033 0.597561
vt 0.5549451 0.597561
vt 0.5549451 0.7926829
vt 0.467033 0.7926829
vt 0.2802198 0.597561
vt 0.3681319 0.597561
vt 0.3681319 0.7926829
vt 0.2802198 0.7926829
vt 0.3736264 0.597561
vt 0.4615385 0.597561
vt 0.4615385 0.7926829
vt 0.3736264 0.7926829
vt 0.6538461 0.8048781
vt 0.7417582 0.8048781
vt 0.7417582 1
vt 0.6538461 1
vt 0.6538461 0.597561
vt 0.7417582 0.597561
vt 0.7417582 0.7926829
vt 0.6538461 0.7926829
vt 0.3736264 0.8048781
vt 0.4615385 0.8048781
vt 0.4615385 1
vt 0.3736264 1

# Normal
vn 0 0 -1

# Mesh description
g tomathensBetaMap_mesh_0065

# Faces
f 1/1/1 2/2/1 3/3/1 4/4/1
f 5/5/1 6/6/1 7/7/1 8/8/1
f 9/9/1 10/10/1 11/11/1 12/12/1
f 13/9/1 14/10/1 15/11/1 16/12/1
f 17/9/1 18/10/1 19/11/1 20/12/1
f 21/13/1 22/14/1 23/15/1 24/16/1
f 25/13/1 26/14/1 27/15/1 28/16/1
f 29/9/1 30/10/1 31/11/1 32/12/1
f 33/9/1 34/10/1 35/11/1 36/12/1
f 37/17/1 38/18/1 39/19/1 40/20/1
f 41/21/1 42/22/1 43/23/1 44/24/1
f 45/25/1 46/26/1 47/27/1 48/28/1
f 49/25/1 50/26/1 51/27/1 52/28/1
f 53/25/1 54/26/1 55/27/1 56/28/1
f 57/13/1 58/14/1 59/15/1 60/16/1
f 61/13/1 62/14/1 63/15/1 64/16/1

