# Tiled2Unity generated file. Do not modify by hand.
# Wavefront file for 'tomathensBetaMap_mesh_0063.obj'

# Vertices (Count = 72)
v -93 -213 0
v -94 -213 0
v -94 -212 0
v -93 -212 0
v -90 -213 0
v -91 -213 0
v -91 -212 0
v -90 -212 0
v -93 -214 0
v -94 -214 0
v -94 -213 0
v -93 -213 0
v -90 -214 0
v -91 -214 0
v -91 -213 0
v -90 -213 0
v -75 -214 0
v -76 -214 0
v -76 -213 0
v -75 -213 0
v -56 -214 0
v -57 -214 0
v -57 -213 0
v -56 -213 0
v -52 -214 0
v -53 -214 0
v -53 -213 0
v -52 -213 0
v -48 -214 0
v -49 -214 0
v -49 -213 0
v -48 -213 0
v -75 -215 0
v -76 -215 0
v -76 -214 0
v -75 -214 0
v -56 -215 0
v -57 -215 0
v -57 -214 0
v -56 -214 0
v -52 -215 0
v -53 -215 0
v -53 -214 0
v -52 -214 0
v -48 -215 0
v -49 -215 0
v -49 -214 0
v -48 -214 0
v -176 -223 0
v -177 -223 0
v -177 -222 0
v -176 -222 0
v -176 -224 0
v -177 -224 0
v -177 -223 0
v -176 -223 0
v -28 -236 0
v -29 -236 0
v -29 -235 0
v -28 -235 0
v -28 -237 0
v -29 -237 0
v -29 -236 0
v -28 -236 0
v -90 -242 0
v -91 -242 0
v -91 -241 0
v -90 -241 0
v -90 -243 0
v -91 -243 0
v -91 -242 0
v -90 -242 0

# Texture cooridinates (Count = 24)
vt 0.03744493 0.9825327
vt 0.05506608 0.9825327
vt 0.05506608 1
vt 0.03744493 1
vt 0.03744493 0.9639738
vt 0.05506608 0.9639738
vt 0.05506608 0.981441
vt 0.03744493 0.981441
vt 0.01872247 0.9825327
vt 0.03634361 0.9825327
vt 0.03634361 1
vt 0.01872247 1
vt 0.01872247 0.9639738
vt 0.03634361 0.9639738
vt 0.03634361 0.981441
vt 0.01872247 0.981441
vt 0 0.9825327
vt 0.01762114 0.9825327
vt 0.01762114 1
vt 0 1
vt 0 0.9639738
vt 0.01762114 0.9639738
vt 0.01762114 0.981441
vt 0 0.981441

# Normal
vn 0 0 -1

# Mesh description
g tomathensBetaMap_mesh_0063

# Faces
f 1/1/1 2/2/1 3/3/1 4/4/1
f 5/1/1 6/2/1 7/3/1 8/4/1
f 9/5/1 10/6/1 11/7/1 12/8/1
f 13/5/1 14/6/1 15/7/1 16/8/1
f 17/9/1 18/10/1 19/11/1 20/12/1
f 21/9/1 22/10/1 23/11/1 24/12/1
f 25/9/1 26/10/1 27/11/1 28/12/1
f 29/9/1 30/10/1 31/11/1 32/12/1
f 33/13/1 34/14/1 35/15/1 36/16/1
f 37/13/1 38/14/1 39/15/1 40/16/1
f 41/13/1 42/14/1 43/15/1 44/16/1
f 45/13/1 46/14/1 47/15/1 48/16/1
f 49/9/1 50/10/1 51/11/1 52/12/1
f 53/13/1 54/14/1 55/15/1 56/16/1
f 57/17/1 58/18/1 59/19/1 60/20/1
f 61/21/1 62/22/1 63/23/1 64/24/1
f 65/1/1 66/2/1 67/3/1 68/4/1
f 69/5/1 70/6/1 71/7/1 72/8/1

