# Tiled2Unity generated file. Do not modify by hand.
# Wavefront file for 'tomathensBetaMap_mesh_0087.obj'

# Vertices (Count = 96)
v -226 -214 0
v -227 -214 0
v -227 -213 0
v -226 -213 0
v -209 -214 0
v -210 -214 0
v -210 -213 0
v -209 -213 0
v -199 -214 0
v -200 -214 0
v -200 -213 0
v -199 -213 0
v -182 -214 0
v -183 -214 0
v -183 -213 0
v -182 -213 0
v -74 -214 0
v -75 -214 0
v -75 -213 0
v -74 -213 0
v -57 -214 0
v -58 -214 0
v -58 -213 0
v -57 -213 0
v -47 -214 0
v -48 -214 0
v -48 -213 0
v -47 -213 0
v -30 -214 0
v -31 -214 0
v -31 -213 0
v -30 -213 0
v -226 -215 0
v -227 -215 0
v -227 -214 0
v -226 -214 0
v -209 -215 0
v -210 -215 0
v -210 -214 0
v -209 -214 0
v -199 -215 0
v -200 -215 0
v -200 -214 0
v -199 -214 0
v -182 -215 0
v -183 -215 0
v -183 -214 0
v -182 -214 0
v -74 -215 0
v -75 -215 0
v -75 -214 0
v -74 -214 0
v -57 -215 0
v -58 -215 0
v -58 -214 0
v -57 -214 0
v -47 -215 0
v -48 -215 0
v -48 -214 0
v -47 -214 0
v -30 -215 0
v -31 -215 0
v -31 -214 0
v -30 -214 0
v -226 -216 0
v -227 -216 0
v -227 -215 0
v -226 -215 0
v -209 -216 0
v -210 -216 0
v -210 -215 0
v -209 -215 0
v -199 -216 0
v -200 -216 0
v -200 -215 0
v -199 -215 0
v -182 -216 0
v -183 -216 0
v -183 -215 0
v -182 -215 0
v -74 -216 0
v -75 -216 0
v -75 -215 0
v -74 -215 0
v -57 -216 0
v -58 -216 0
v -58 -215 0
v -57 -215 0
v -47 -216 0
v -48 -216 0
v -48 -215 0
v -47 -215 0
v -30 -216 0
v -31 -216 0
v -31 -215 0
v -30 -215 0

# Texture cooridinates (Count = 12)
vt 0.4390728 0.841195
vt 0.4496689 0.841195
vt 0.4496689 0.8663522
vt 0.4390728 0.8663522
vt 0.4390728 0.8144654
vt 0.4496689 0.8144654
vt 0.4496689 0.8396226
vt 0.4390728 0.8396226
vt 0.4390728 0.7877358
vt 0.4496689 0.7877358
vt 0.4496689 0.8128931
vt 0.4390728 0.8128931

# Normal
vn 0 0 -1

# Mesh description
g tomathensBetaMap_mesh_0087

# Faces
f 1/1/1 2/2/1 3/3/1 4/4/1
f 5/1/1 6/2/1 7/3/1 8/4/1
f 9/1/1 10/2/1 11/3/1 12/4/1
f 13/1/1 14/2/1 15/3/1 16/4/1
f 17/1/1 18/2/1 19/3/1 20/4/1
f 21/1/1 22/2/1 23/3/1 24/4/1
f 25/1/1 26/2/1 27/3/1 28/4/1
f 29/1/1 30/2/1 31/3/1 32/4/1
f 33/5/1 34/6/1 35/7/1 36/8/1
f 37/5/1 38/6/1 39/7/1 40/8/1
f 41/5/1 42/6/1 43/7/1 44/8/1
f 45/5/1 46/6/1 47/7/1 48/8/1
f 49/5/1 50/6/1 51/7/1 52/8/1
f 53/5/1 54/6/1 55/7/1 56/8/1
f 57/5/1 58/6/1 59/7/1 60/8/1
f 61/5/1 62/6/1 63/7/1 64/8/1
f 65/9/1 66/10/1 67/11/1 68/12/1
f 69/9/1 70/10/1 71/11/1 72/12/1
f 73/9/1 74/10/1 75/11/1 76/12/1
f 77/9/1 78/10/1 79/11/1 80/12/1
f 81/9/1 82/10/1 83/11/1 84/12/1
f 85/9/1 86/10/1 87/11/1 88/12/1
f 89/9/1 90/10/1 91/11/1 92/12/1
f 93/9/1 94/10/1 95/11/1 96/12/1

