# Tiled2Unity generated file. Do not modify by hand.
# Wavefront file for 'tomathensBetaMap_mesh_0110.obj'

# Vertices (Count = 72)
v -71 -169 0
v -72 -169 0
v -72 -168 0
v -71 -168 0
v -70 -169 0
v -71 -169 0
v -71 -168 0
v -70 -168 0
v -73 -170 0
v -74 -170 0
v -74 -169 0
v -73 -169 0
v -72 -170 0
v -73 -170 0
v -73 -169 0
v -72 -169 0
v -71 -170 0
v -72 -170 0
v -72 -169 0
v -71 -169 0
v -70 -170 0
v -71 -170 0
v -71 -169 0
v -70 -169 0
v -73 -171 0
v -74 -171 0
v -74 -170 0
v -73 -170 0
v -72 -171 0
v -73 -171 0
v -73 -170 0
v -72 -170 0
v -71 -171 0
v -72 -171 0
v -72 -170 0
v -71 -170 0
v -70 -171 0
v -71 -171 0
v -71 -170 0
v -70 -170 0
v -73 -172 0
v -74 -172 0
v -74 -171 0
v -73 -171 0
v -72 -172 0
v -73 -172 0
v -73 -171 0
v -72 -171 0
v -69 -176 0
v -70 -176 0
v -70 -175 0
v -69 -175 0
v -68 -176 0
v -69 -176 0
v -69 -175 0
v -68 -175 0
v -69 -177 0
v -70 -177 0
v -70 -176 0
v -69 -176 0
v -68 -177 0
v -69 -177 0
v -69 -176 0
v -68 -176 0
v -69 -178 0
v -70 -178 0
v -70 -177 0
v -69 -177 0
v -68 -178 0
v -69 -178 0
v -69 -177 0
v -68 -177 0

# Texture cooridinates (Count = 24)
vt 0.0720339 0.936
vt 0.1398305 0.936
vt 0.1398305 1
vt 0.0720339 1
vt 0 0.936
vt 0.06779661 0.936
vt 0.06779661 1
vt 0 1
vt 0.0720339 0.868
vt 0.1398305 0.868
vt 0.1398305 0.932
vt 0.0720339 0.932
vt 0 0.868
vt 0.06779661 0.868
vt 0.06779661 0.932
vt 0 0.932
vt 0.0720339 0.8
vt 0.1398305 0.8
vt 0.1398305 0.864
vt 0.0720339 0.864
vt 0 0.8
vt 0.06779661 0.8
vt 0.06779661 0.864
vt 0 0.864

# Normal
vn 0 0 -1

# Mesh description
g tomathensBetaMap_mesh_0110

# Faces
f 1/1/1 2/2/1 3/3/1 4/4/1
f 5/5/1 6/6/1 7/7/1 8/8/1
f 9/1/1 10/2/1 11/3/1 12/4/1
f 13/5/1 14/6/1 15/7/1 16/8/1
f 17/9/1 18/10/1 19/11/1 20/12/1
f 21/13/1 22/14/1 23/15/1 24/16/1
f 25/9/1 26/10/1 27/11/1 28/12/1
f 29/13/1 30/14/1 31/15/1 32/16/1
f 33/17/1 34/18/1 35/19/1 36/20/1
f 37/21/1 38/22/1 39/23/1 40/24/1
f 41/17/1 42/18/1 43/19/1 44/20/1
f 45/21/1 46/22/1 47/23/1 48/24/1
f 49/1/1 50/2/1 51/3/1 52/4/1
f 53/5/1 54/6/1 55/7/1 56/8/1
f 57/9/1 58/10/1 59/11/1 60/12/1
f 61/13/1 62/14/1 63/15/1 64/16/1
f 65/17/1 66/18/1 67/19/1 68/20/1
f 69/21/1 70/22/1 71/23/1 72/24/1

