# Tiled2Unity generated file. Do not modify by hand.
# Wavefront file for 'tomathensBetaMap_mesh_0040.obj'

# Vertices (Count = 716)
v -152 -85 0
v -153 -85 0
v -153 -84 0
v -152 -84 0
v -113 -85 0
v -114 -85 0
v -114 -84 0
v -113 -84 0
v -110 -85 0
v -111 -85 0
v -111 -84 0
v -110 -84 0
v -109 -85 0
v -110 -85 0
v -110 -84 0
v -109 -84 0
v -104 -85 0
v -105 -85 0
v -105 -84 0
v -104 -84 0
v -103 -85 0
v -104 -85 0
v -104 -84 0
v -103 -84 0
v -102 -85 0
v -103 -85 0
v -103 -84 0
v -102 -84 0
v -101 -85 0
v -102 -85 0
v -102 -84 0
v -101 -84 0
v -100 -85 0
v -101 -85 0
v -101 -84 0
v -100 -84 0
v -152 -86 0
v -153 -86 0
v -153 -85 0
v -152 -85 0
v -114 -87 0
v -115 -87 0
v -115 -86 0
v -114 -86 0
v -115 -89 0
v -116 -89 0
v -116 -88 0
v -115 -88 0
v -114 -89 0
v -115 -89 0
v -115 -88 0
v -114 -88 0
v -115 -90 0
v -116 -90 0
v -116 -89 0
v -115 -89 0
v -114 -90 0
v -115 -90 0
v -115 -89 0
v -114 -89 0
v -115 -91 0
v -116 -91 0
v -116 -90 0
v -115 -90 0
v -72 -94 0
v -73 -94 0
v -73 -93 0
v -72 -93 0
v -71 -94 0
v -72 -94 0
v -72 -93 0
v -71 -93 0
v -65 -94 0
v -66 -94 0
v -66 -93 0
v -65 -93 0
v -64 -94 0
v -65 -94 0
v -65 -93 0
v -64 -93 0
v -191 -96 0
v -192 -96 0
v -192 -95 0
v -191 -95 0
v -83 -100 0
v -84 -100 0
v -84 -99 0
v -83 -99 0
v -82 -100 0
v -83 -100 0
v -83 -99 0
v -82 -99 0
v -81 -100 0
v -82 -100 0
v -82 -99 0
v -81 -99 0
v -80 -100 0
v -81 -100 0
v -81 -99 0
v -80 -99 0
v -79 -100 0
v -80 -100 0
v -80 -99 0
v -79 -99 0
v -78 -100 0
v -79 -100 0
v -79 -99 0
v -78 -99 0
v -77 -100 0
v -78 -100 0
v -78 -99 0
v -77 -99 0
v -76 -100 0
v -77 -100 0
v -77 -99 0
v -76 -99 0
v -75 -100 0
v -76 -100 0
v -76 -99 0
v -75 -99 0
v -83 -101 0
v -84 -101 0
v -84 -100 0
v -83 -100 0
v -82 -101 0
v -83 -101 0
v -83 -100 0
v -82 -100 0
v -81 -101 0
v -82 -101 0
v -82 -100 0
v -81 -100 0
v -80 -101 0
v -81 -101 0
v -81 -100 0
v -80 -100 0
v -79 -101 0
v -80 -101 0
v -80 -100 0
v -79 -100 0
v -78 -101 0
v -79 -101 0
v -79 -100 0
v -78 -100 0
v -77 -101 0
v -78 -101 0
v -78 -100 0
v -77 -100 0
v -76 -101 0
v -77 -101 0
v -77 -100 0
v -76 -100 0
v -75 -101 0
v -76 -101 0
v -76 -100 0
v -75 -100 0
v -62 -102 0
v -63 -102 0
v -63 -101 0
v -62 -101 0
v -72 -105 0
v -73 -105 0
v -73 -104 0
v -72 -104 0
v -186 -106 0
v -187 -106 0
v -187 -105 0
v -186 -105 0
v -62 -106 0
v -63 -106 0
v -63 -105 0
v -62 -105 0
v -70 -107 0
v -71 -107 0
v -71 -106 0
v -70 -106 0
v -69 -107 0
v -70 -107 0
v -70 -106 0
v -69 -106 0
v -62 -107 0
v -63 -107 0
v -63 -106 0
v -62 -106 0
v -50 -112 0
v -51 -112 0
v -51 -111 0
v -50 -111 0
v -49 -112 0
v -50 -112 0
v -50 -111 0
v -49 -111 0
v -48 -112 0
v -49 -112 0
v -49 -111 0
v -48 -111 0
v -47 -112 0
v -48 -112 0
v -48 -111 0
v -47 -111 0
v -46 -112 0
v -47 -112 0
v -47 -111 0
v -46 -111 0
v -45 -112 0
v -46 -112 0
v -46 -111 0
v -45 -111 0
v -44 -112 0
v -45 -112 0
v -45 -111 0
v -44 -111 0
v -43 -112 0
v -44 -112 0
v -44 -111 0
v -43 -111 0
v -42 -112 0
v -43 -112 0
v -43 -111 0
v -42 -111 0
v -41 -112 0
v -42 -112 0
v -42 -111 0
v -41 -111 0
v -40 -112 0
v -41 -112 0
v -41 -111 0
v -40 -111 0
v -39 -112 0
v -40 -112 0
v -40 -111 0
v -39 -111 0
v -38 -112 0
v -39 -112 0
v -39 -111 0
v -38 -111 0
v -37 -112 0
v -38 -112 0
v -38 -111 0
v -37 -111 0
v -36 -112 0
v -37 -112 0
v -37 -111 0
v -36 -111 0
v -35 -112 0
v -36 -112 0
v -36 -111 0
v -35 -111 0
v -34 -112 0
v -35 -112 0
v -35 -111 0
v -34 -111 0
v -33 -112 0
v -34 -112 0
v -34 -111 0
v -33 -111 0
v -51 -113 0
v -52 -113 0
v -52 -112 0
v -51 -112 0
v -42 -113 0
v -43 -113 0
v -43 -112 0
v -42 -112 0
v -37 -113 0
v -38 -113 0
v -38 -112 0
v -37 -112 0
v -36 -113 0
v -37 -113 0
v -37 -112 0
v -36 -112 0
v -35 -113 0
v -36 -113 0
v -36 -112 0
v -35 -112 0
v -32 -113 0
v -33 -113 0
v -33 -112 0
v -32 -112 0
v -80 -119 0
v -81 -119 0
v -81 -118 0
v -80 -118 0
v -79 -119 0
v -80 -119 0
v -80 -118 0
v -79 -118 0
v -78 -119 0
v -79 -119 0
v -79 -118 0
v -78 -118 0
v -77 -119 0
v -78 -119 0
v -78 -118 0
v -77 -118 0
v -74 -121 0
v -75 -121 0
v -75 -120 0
v -74 -120 0
v -75 -122 0
v -76 -122 0
v -76 -121 0
v -75 -121 0
v -74 -122 0
v -75 -122 0
v -75 -121 0
v -74 -121 0
v -80 -124 0
v -81 -124 0
v -81 -123 0
v -80 -123 0
v -50 -124 0
v -51 -124 0
v -51 -123 0
v -50 -123 0
v -73 -125 0
v -74 -125 0
v -74 -124 0
v -73 -124 0
v -79 -126 0
v -80 -126 0
v -80 -125 0
v -79 -125 0
v -75 -126 0
v -76 -126 0
v -76 -125 0
v -75 -125 0
v -73 -126 0
v -74 -126 0
v -74 -125 0
v -73 -125 0
v -78 -127 0
v -79 -127 0
v -79 -126 0
v -78 -126 0
v -75 -127 0
v -76 -127 0
v -76 -126 0
v -75 -126 0
v -74 -127 0
v -75 -127 0
v -75 -126 0
v -74 -126 0
v -73 -127 0
v -74 -127 0
v -74 -126 0
v -73 -126 0
v -76 -128 0
v -77 -128 0
v -77 -127 0
v -76 -127 0
v -75 -128 0
v -76 -128 0
v -76 -127 0
v -75 -127 0
v -34 -139 0
v -35 -139 0
v -35 -138 0
v -34 -138 0
v -48 -161 0
v -49 -161 0
v -49 -160 0
v -48 -160 0
v -35 -165 0
v -36 -165 0
v -36 -164 0
v -35 -164 0
v -30 -165 0
v -31 -165 0
v -31 -164 0
v -30 -164 0
v -42 -169 0
v -43 -169 0
v -43 -168 0
v -42 -168 0
v -141 -173 0
v -142 -173 0
v -142 -172 0
v -141 -172 0
v -214 -174 0
v -215 -174 0
v -215 -173 0
v -214 -173 0
v -141 -174 0
v -142 -174 0
v -142 -173 0
v -141 -173 0
v -214 -175 0
v -215 -175 0
v -215 -174 0
v -214 -174 0
v -115 -176 0
v -116 -176 0
v -116 -175 0
v -115 -175 0
v -115 -177 0
v -116 -177 0
v -116 -176 0
v -115 -176 0
v -115 -178 0
v -116 -178 0
v -116 -177 0
v -115 -177 0
v -115 -179 0
v -116 -179 0
v -116 -178 0
v -115 -178 0
v -131 -180 0
v -132 -180 0
v -132 -179 0
v -131 -179 0
v -130 -180 0
v -131 -180 0
v -131 -179 0
v -130 -179 0
v -129 -180 0
v -130 -180 0
v -130 -179 0
v -129 -179 0
v -128 -180 0
v -129 -180 0
v -129 -179 0
v -128 -179 0
v -127 -180 0
v -128 -180 0
v -128 -179 0
v -127 -179 0
v -126 -180 0
v -127 -180 0
v -127 -179 0
v -126 -179 0
v -115 -180 0
v -116 -180 0
v -116 -179 0
v -115 -179 0
v -131 -181 0
v -132 -181 0
v -132 -180 0
v -131 -180 0
v -130 -181 0
v -131 -181 0
v -131 -180 0
v -130 -180 0
v -129 -181 0
v -130 -181 0
v -130 -180 0
v -129 -180 0
v -128 -181 0
v -129 -181 0
v -129 -180 0
v -128 -180 0
v -127 -181 0
v -128 -181 0
v -128 -180 0
v -127 -180 0
v -126 -181 0
v -127 -181 0
v -127 -180 0
v -126 -180 0
v -115 -181 0
v -116 -181 0
v -116 -180 0
v -115 -180 0
v -115 -182 0
v -116 -182 0
v -116 -181 0
v -115 -181 0
v -115 -183 0
v -116 -183 0
v -116 -182 0
v -115 -182 0
v -115 -184 0
v -116 -184 0
v -116 -183 0
v -115 -183 0
v -86 -184 0
v -87 -184 0
v -87 -183 0
v -86 -183 0
v -85 -184 0
v -86 -184 0
v -86 -183 0
v -85 -183 0
v -84 -184 0
v -85 -184 0
v -85 -183 0
v -84 -183 0
v -217 -185 0
v -218 -185 0
v -218 -184 0
v -217 -184 0
v -214 -185 0
v -215 -185 0
v -215 -184 0
v -214 -184 0
v -132 -185 0
v -133 -185 0
v -133 -184 0
v -132 -184 0
v -115 -185 0
v -116 -185 0
v -116 -184 0
v -115 -184 0
v -85 -185 0
v -86 -185 0
v -86 -184 0
v -85 -184 0
v -84 -185 0
v -85 -185 0
v -85 -184 0
v -84 -184 0
v -217 -186 0
v -218 -186 0
v -218 -185 0
v -217 -185 0
v -215 -186 0
v -216 -186 0
v -216 -185 0
v -215 -185 0
v -132 -186 0
v -133 -186 0
v -133 -185 0
v -132 -185 0
v -115 -186 0
v -116 -186 0
v -116 -185 0
v -115 -185 0
v -115 -187 0
v -116 -187 0
v -116 -186 0
v -115 -186 0
v -115 -188 0
v -116 -188 0
v -116 -187 0
v -115 -187 0
v -115 -191 0
v -116 -191 0
v -116 -190 0
v -115 -190 0
v -198 -192 0
v -199 -192 0
v -199 -191 0
v -198 -191 0
v -197 -192 0
v -198 -192 0
v -198 -191 0
v -197 -191 0
v -196 -192 0
v -197 -192 0
v -197 -191 0
v -196 -191 0
v -115 -192 0
v -116 -192 0
v -116 -191 0
v -115 -191 0
v -198 -193 0
v -199 -193 0
v -199 -192 0
v -198 -192 0
v -197 -193 0
v -198 -193 0
v -198 -192 0
v -197 -192 0
v -196 -193 0
v -197 -193 0
v -197 -192 0
v -196 -192 0
v -141 -193 0
v -142 -193 0
v -142 -192 0
v -141 -192 0
v -140 -193 0
v -141 -193 0
v -141 -192 0
v -140 -192 0
v -115 -193 0
v -116 -193 0
v -116 -192 0
v -115 -192 0
v -198 -194 0
v -199 -194 0
v -199 -193 0
v -198 -193 0
v -197 -194 0
v -198 -194 0
v -198 -193 0
v -197 -193 0
v -196 -194 0
v -197 -194 0
v -197 -193 0
v -196 -193 0
v -141 -194 0
v -142 -194 0
v -142 -193 0
v -141 -193 0
v -140 -194 0
v -141 -194 0
v -141 -193 0
v -140 -193 0
v -115 -194 0
v -116 -194 0
v -116 -193 0
v -115 -193 0
v -196 -195 0
v -197 -195 0
v -197 -194 0
v -196 -194 0
v -216 -197 0
v -217 -197 0
v -217 -196 0
v -216 -196 0
v -216 -198 0
v -217 -198 0
v -217 -197 0
v -216 -197 0
v -162 -200 0
v -163 -200 0
v -163 -199 0
v -162 -199 0
v -162 -201 0
v -163 -201 0
v -163 -200 0
v -162 -200 0
v -173 -210 0
v -174 -210 0
v -174 -209 0
v -173 -209 0
v -172 -210 0
v -173 -210 0
v -173 -209 0
v -172 -209 0
v -173 -211 0
v -174 -211 0
v -174 -210 0
v -173 -210 0
v -172 -211 0
v -173 -211 0
v -173 -210 0
v -172 -210 0
v -85 -220 0
v -86 -220 0
v -86 -219 0
v -85 -219 0
v -84 -220 0
v -85 -220 0
v -85 -219 0
v -84 -219 0
v -85 -221 0
v -86 -221 0
v -86 -220 0
v -85 -220 0
v -84 -221 0
v -85 -221 0
v -85 -220 0
v -84 -220 0
v -170 -222 0
v -171 -222 0
v -171 -221 0
v -170 -221 0
v -87 -222 0
v -88 -222 0
v -88 -221 0
v -87 -221 0
v -85 -222 0
v -86 -222 0
v -86 -221 0
v -85 -221 0
v -84 -222 0
v -85 -222 0
v -85 -221 0
v -84 -221 0
v -170 -223 0
v -171 -223 0
v -171 -222 0
v -170 -222 0
v -87 -223 0
v -88 -223 0
v -88 -222 0
v -87 -222 0
v -85 -223 0
v -86 -223 0
v -86 -222 0
v -85 -222 0
v -84 -223 0
v -85 -223 0
v -85 -222 0
v -84 -222 0
v -84 -224 0
v -85 -224 0
v -85 -223 0
v -84 -223 0
v -85 -226 0
v -86 -226 0
v -86 -225 0
v -85 -225 0
v -169 -227 0
v -170 -227 0
v -170 -226 0
v -169 -226 0
v -86 -227 0
v -87 -227 0
v -87 -226 0
v -86 -226 0
v -87 -228 0
v -88 -228 0
v -88 -227 0
v -87 -227 0
v -143 -237 0
v -144 -237 0
v -144 -236 0
v -143 -236 0
v -145 -241 0
v -146 -241 0
v -146 -240 0
v -145 -240 0

# Texture cooridinates (Count = 216)
vt 0.1619048 0.8965517
vt 0.1771429 0.8965517
vt 0.1771429 0.9162562
vt 0.1619048 0.9162562
vt 0.2752381 0.7918719
vt 0.2904762 0.7918719
vt 0.2904762 0.8115764
vt 0.2752381 0.8115764
vt 0.2428571 0.7918719
vt 0.2580952 0.7918719
vt 0.2580952 0.8115764
vt 0.2428571 0.8115764
vt 0.2266667 0.7918719
vt 0.2419048 0.7918719
vt 0.2419048 0.8115764
vt 0.2266667 0.8115764
vt 0.2590476 0.7918719
vt 0.2742857 0.7918719
vt 0.2742857 0.8115764
vt 0.2590476 0.8115764
vt 0.1619048 0.8756158
vt 0.1771429 0.8756158
vt 0.1771429 0.8953202
vt 0.1619048 0.8953202
vt 0.1133333 0.9802955
vt 0.1285714 0.9802955
vt 0.1285714 1
vt 0.1133333 1
vt 0.2590476 0.9174877
vt 0.2742857 0.9174877
vt 0.2742857 0.9371921
vt 0.2590476 0.9371921
vt 0.2428571 0.9174877
vt 0.2580952 0.9174877
vt 0.2580952 0.9371921
vt 0.2428571 0.9371921
vt 0.2590476 0.8965517
vt 0.2742857 0.8965517
vt 0.2742857 0.9162562
vt 0.2590476 0.9162562
vt 0.2428571 0.8965517
vt 0.2580952 0.8965517
vt 0.2580952 0.9162562
vt 0.2428571 0.9162562
vt 0.09714286 0.9802955
vt 0.112381 0.9802955
vt 0.112381 1
vt 0.09714286 1
vt 0.01619048 0.6034483
vt 0.03142857 0.6034483
vt 0.03142857 0.6231527
vt 0.01619048 0.6231527
vt 0 0.6034483
vt 0.0152381 0.6034483
vt 0.0152381 0.6231527
vt 0 0.6231527
vt 0.04857143 0.6034483
vt 0.06380952 0.6034483
vt 0.06380952 0.6231527
vt 0.04857143 0.6231527
vt 0.03238095 0.6034483
vt 0.04761905 0.6034483
vt 0.04761905 0.6231527
vt 0.03238095 0.6231527
vt 0.1295238 0.9802955
vt 0.1447619 0.9802955
vt 0.1447619 1
vt 0.1295238 1
vt 0.1780952 0.9802955
vt 0.1933333 0.9802955
vt 0.1933333 1
vt 0.1780952 1
vt 0.08095238 0.6034483
vt 0.09619047 0.6034483
vt 0.09619047 0.6231527
vt 0.08095238 0.6231527
vt 0.08095238 0.5825123
vt 0.09619047 0.5825123
vt 0.09619047 0.6022167
vt 0.08095238 0.6022167
vt 0.09714286 0.9384236
vt 0.112381 0.9384236
vt 0.112381 0.9581281
vt 0.09714286 0.9581281
vt 0.04857143 0.5825123
vt 0.06380952 0.5825123
vt 0.06380952 0.6022167
vt 0.04857143 0.6022167
vt 0.03238095 0.5825123
vt 0.04761905 0.5825123
vt 0.04761905 0.6022167
vt 0.03238095 0.6022167
vt 0.1780952 0.8128079
vt 0.1933333 0.8128079
vt 0.1933333 0.8325123
vt 0.1780952 0.8325123
vt 0.08095238 0.8965517
vt 0.09619047 0.8965517
vt 0.09619047 0.9162562
vt 0.08095238 0.9162562
vt 0.06476191 0.8965517
vt 0.08 0.8965517
vt 0.08 0.9162562
vt 0.06476191 0.9162562
vt 0.1933333 0.6231527
vt 0.1780952 0.6231527
vt 0.1780952 0.6034483
vt 0.1933333 0.6034483
vt 0.1933333 0.6440886
vt 0.1780952 0.6440886
vt 0.1780952 0.6243842
vt 0.1933333 0.6243842
vt 0.04857143 0.9174877
vt 0.06380952 0.9174877
vt 0.06380952 0.9371921
vt 0.04857143 0.9371921
vt 0.1619048 0.8128079
vt 0.1771429 0.8128079
vt 0.1771429 0.8325123
vt 0.1619048 0.8325123
vt 0.09714286 0.8756158
vt 0.112381 0.8756158
vt 0.112381 0.8953202
vt 0.09714286 0.8953202
vt 0.06476191 0.9174877
vt 0.08 0.9174877
vt 0.08 0.9371921
vt 0.06476191 0.9371921
vt 0.09714286 0.6034483
vt 0.112381 0.6034483
vt 0.112381 0.6231527
vt 0.09714286 0.6231527
vt 0.2266667 0.770936
vt 0.2419048 0.770936
vt 0.2419048 0.7906404
vt 0.2266667 0.7906404
vt 0.1780952 0.6662562
vt 0.1933333 0.6662562
vt 0.1933333 0.6859606
vt 0.1780952 0.6859606
vt 0.2266667 0.75
vt 0.2419048 0.75
vt 0.2419048 0.7697045
vt 0.2266667 0.7697045
vt 0.1780952 0.6453202
vt 0.1933333 0.6453202
vt 0.1933333 0.6650246
vt 0.1780952 0.6650246
vt 0.2590476 0.770936
vt 0.2742857 0.770936
vt 0.2742857 0.7906404
vt 0.2590476 0.7906404
vt 0.1780952 0.8965517
vt 0.1933333 0.8965517
vt 0.1933333 0.9162562
vt 0.1780952 0.9162562
vt 0.2266667 0.8128079
vt 0.2419048 0.8128079
vt 0.2419048 0.8325123
vt 0.2266667 0.8325123
vt 0.1780952 0.8756158
vt 0.1933333 0.8756158
vt 0.1933333 0.8953202
vt 0.1780952 0.8953202
vt 0.2104762 0.8128079
vt 0.2257143 0.8128079
vt 0.2257143 0.8325123
vt 0.2104762 0.8325123
vt 0.1942857 0.8128079
vt 0.2095238 0.8128079
vt 0.2095238 0.8325123
vt 0.1942857 0.8325123
vt 0.09714286 0.8965517
vt 0.112381 0.8965517
vt 0.112381 0.9162562
vt 0.09714286 0.9162562
vt 0.2104762 0.7918719
vt 0.2257143 0.7918719
vt 0.2257143 0.8115764
vt 0.2104762 0.8115764
vt 0.1942857 0.7918719
vt 0.2095238 0.7918719
vt 0.2095238 0.8115764
vt 0.1942857 0.8115764
vt 0.2590476 0.9593596
vt 0.2742857 0.9593596
vt 0.2742857 0.979064
vt 0.2590476 0.979064
vt 0.2428571 0.9593596
vt 0.2580952 0.9593596
vt 0.2580952 0.979064
vt 0.2428571 0.979064
vt 0.06476191 0.8756158
vt 0.08 0.8756158
vt 0.08 0.8953202
vt 0.06476191 0.8953202
vt 0.2590476 0.9384236
vt 0.2742857 0.9384236
vt 0.2742857 0.9581281
vt 0.2590476 0.9581281
vt 0.2428571 0.9384236
vt 0.2580952 0.9384236
vt 0.2580952 0.9581281
vt 0.2428571 0.9581281
vt 0.08095238 0.9174877
vt 0.09619047 0.9174877
vt 0.09619047 0.9371921
vt 0.08095238 0.9371921
vt 0.1457143 0.9802955
vt 0.1609524 0.9802955
vt 0.1609524 1
vt 0.1457143 1
vt 0.1133333 0.5825123
vt 0.1285714 0.5825123
vt 0.1285714 0.6022167
vt 0.1133333 0.6022167

# Normal
vn 0 0 -1

# Mesh description
g tomathensBetaMap_mesh_0040

# Faces
f 1/1/1 2/2/1 3/3/1 4/4/1
f 5/5/1 6/6/1 7/7/1 8/8/1
f 9/9/1 10/10/1 11/11/1 12/12/1
f 13/13/1 14/14/1 15/15/1 16/16/1
f 17/5/1 18/6/1 19/7/1 20/8/1
f 21/17/1 22/18/1 23/19/1 24/20/1
f 25/17/1 26/18/1 27/19/1 28/20/1
f 29/9/1 30/10/1 31/11/1 32/12/1
f 33/13/1 34/14/1 35/15/1 36/16/1
f 37/21/1 38/22/1 39/23/1 40/24/1
f 41/25/1 42/26/1 43/27/1 44/28/1
f 45/29/1 46/30/1 47/31/1 48/32/1
f 49/33/1 50/34/1 51/35/1 52/36/1
f 53/37/1 54/38/1 55/39/1 56/40/1
f 57/41/1 58/42/1 59/43/1 60/44/1
f 61/45/1 62/46/1 63/47/1 64/48/1
f 65/49/1 66/50/1 67/51/1 68/52/1
f 69/53/1 70/54/1 71/55/1 72/56/1
f 73/57/1 74/58/1 75/59/1 76/60/1
f 77/61/1 78/62/1 79/63/1 80/64/1
f 81/65/1 82/66/1 83/67/1 84/68/1
f 85/69/1 86/70/1 87/71/1 88/72/1
f 89/69/1 90/70/1 91/71/1 92/72/1
f 93/69/1 94/70/1 95/71/1 96/72/1
f 97/69/1 98/70/1 99/71/1 100/72/1
f 101/69/1 102/70/1 103/71/1 104/72/1
f 105/69/1 106/70/1 107/71/1 108/72/1
f 109/69/1 110/70/1 111/71/1 112/72/1
f 113/69/1 114/70/1 115/71/1 116/72/1
f 117/69/1 118/70/1 119/71/1 120/72/1
f 121/69/1 122/70/1 123/71/1 124/72/1
f 125/69/1 126/70/1 127/71/1 128/72/1
f 129/69/1 130/70/1 131/71/1 132/72/1
f 133/69/1 134/70/1 135/71/1 136/72/1
f 137/69/1 138/70/1 139/71/1 140/72/1
f 141/69/1 142/70/1 143/71/1 144/72/1
f 145/69/1 146/70/1 147/71/1 148/72/1
f 149/69/1 150/70/1 151/71/1 152/72/1
f 153/69/1 154/70/1 155/71/1 156/72/1
f 157/73/1 158/74/1 159/75/1 160/76/1
f 161/77/1 162/78/1 163/79/1 164/80/1
f 165/45/1 166/46/1 167/47/1 168/48/1
f 169/81/1 170/82/1 171/83/1 172/84/1
f 173/85/1 174/86/1 175/87/1 176/88/1
f 177/89/1 178/90/1 179/91/1 180/92/1
f 181/69/1 182/70/1 183/71/1 184/72/1
f 185/69/1 186/70/1 187/71/1 188/72/1
f 189/69/1 190/70/1 191/71/1 192/72/1
f 193/69/1 194/70/1 195/71/1 196/72/1
f 197/69/1 198/70/1 199/71/1 200/72/1
f 201/69/1 202/70/1 203/71/1 204/72/1
f 205/69/1 206/70/1 207/71/1 208/72/1
f 209/69/1 210/70/1 211/71/1 212/72/1
f 213/69/1 214/70/1 215/71/1 216/72/1
f 217/69/1 218/70/1 219/71/1 220/72/1
f 221/69/1 222/70/1 223/71/1 224/72/1
f 225/69/1 226/70/1 227/71/1 228/72/1
f 229/69/1 230/70/1 231/71/1 232/72/1
f 233/69/1 234/70/1 235/71/1 236/72/1
f 237/69/1 238/70/1 239/71/1 240/72/1
f 241/69/1 242/70/1 243/71/1 244/72/1
f 245/69/1 246/70/1 247/71/1 248/72/1
f 249/69/1 250/70/1 251/71/1 252/72/1
f 253/69/1 254/70/1 255/71/1 256/72/1
f 257/69/1 258/70/1 259/71/1 260/72/1
f 261/69/1 262/70/1 263/71/1 264/72/1
f 265/69/1 266/70/1 267/71/1 268/72/1
f 269/69/1 270/70/1 271/71/1 272/72/1
f 273/69/1 274/70/1 275/71/1 276/72/1
f 277/69/1 278/70/1 279/71/1 280/72/1
f 281/93/1 282/94/1 283/95/1 284/96/1
f 285/97/1 286/98/1 287/99/1 288/100/1
f 289/101/1 290/102/1 291/103/1 292/104/1
f 293/65/1 294/66/1 295/67/1 296/68/1
f 297/105/1 298/106/1 299/107/1 300/108/1
f 301/25/1 302/26/1 303/27/1 304/28/1
f 305/109/1 306/110/1 307/111/1 308/112/1
f 309/45/1 310/46/1 311/47/1 312/48/1
f 313/69/1 314/70/1 315/71/1 316/72/1
f 317/65/1 318/66/1 319/67/1 320/68/1
f 321/113/1 322/114/1 323/115/1 324/116/1
f 325/25/1 326/26/1 327/27/1 328/28/1
f 329/117/1 330/118/1 331/119/1 332/120/1
f 333/121/1 334/122/1 335/123/1 336/124/1
f 337/49/1 338/50/1 339/51/1 340/52/1
f 341/53/1 342/54/1 343/55/1 344/56/1
f 345/125/1 346/126/1 347/127/1 348/128/1
f 349/49/1 350/50/1 351/51/1 352/52/1
f 353/53/1 354/54/1 355/55/1 356/56/1
f 357/69/1 358/70/1 359/71/1 360/72/1
f 361/69/1 362/70/1 363/71/1 364/72/1
f 365/69/1 366/70/1 367/71/1 368/72/1
f 369/69/1 370/70/1 371/71/1 372/72/1
f 373/129/1 374/130/1 375/131/1 376/132/1
f 377/133/1 378/134/1 379/135/1 380/136/1
f 381/137/1 382/138/1 383/139/1 384/140/1
f 385/141/1 386/142/1 387/143/1 388/144/1
f 389/145/1 390/146/1 391/147/1 392/148/1
f 393/69/1 394/70/1 395/71/1 396/72/1
f 397/69/1 398/70/1 399/71/1 400/72/1
f 401/69/1 402/70/1 403/71/1 404/72/1
f 405/69/1 406/70/1 407/71/1 408/72/1
f 409/69/1 410/70/1 411/71/1 412/72/1
f 413/69/1 414/70/1 415/71/1 416/72/1
f 417/69/1 418/70/1 419/71/1 420/72/1
f 421/69/1 422/70/1 423/71/1 424/72/1
f 425/69/1 426/70/1 427/71/1 428/72/1
f 429/69/1 430/70/1 431/71/1 432/72/1
f 433/69/1 434/70/1 435/71/1 436/72/1
f 437/69/1 438/70/1 439/71/1 440/72/1
f 441/69/1 442/70/1 443/71/1 444/72/1
f 445/69/1 446/70/1 447/71/1 448/72/1
f 449/69/1 450/70/1 451/71/1 452/72/1
f 453/69/1 454/70/1 455/71/1 456/72/1
f 457/69/1 458/70/1 459/71/1 460/72/1
f 461/69/1 462/70/1 463/71/1 464/72/1
f 465/69/1 466/70/1 467/71/1 468/72/1
f 469/69/1 470/70/1 471/71/1 472/72/1
f 473/69/1 474/70/1 475/71/1 476/72/1
f 477/69/1 478/70/1 479/71/1 480/72/1
f 481/69/1 482/70/1 483/71/1 484/72/1
f 485/69/1 486/70/1 487/71/1 488/72/1
f 489/133/1 490/134/1 491/135/1 492/136/1
f 493/149/1 494/150/1 495/151/1 496/152/1
f 497/153/1 498/154/1 499/155/1 500/156/1
f 501/69/1 502/70/1 503/71/1 504/72/1
f 505/69/1 506/70/1 507/71/1 508/72/1
f 509/69/1 510/70/1 511/71/1 512/72/1
f 513/141/1 514/142/1 515/143/1 516/144/1
f 517/157/1 518/158/1 519/159/1 520/160/1
f 521/161/1 522/162/1 523/163/1 524/164/1
f 525/69/1 526/70/1 527/71/1 528/72/1
f 529/69/1 530/70/1 531/71/1 532/72/1
f 533/69/1 534/70/1 535/71/1 536/72/1
f 537/69/1 538/70/1 539/71/1 540/72/1
f 541/125/1 542/126/1 543/127/1 544/128/1
f 545/165/1 546/166/1 547/167/1 548/168/1
f 549/169/1 550/170/1 551/171/1 552/172/1
f 553/69/1 554/70/1 555/71/1 556/72/1
f 557/173/1 558/174/1 559/175/1 560/176/1
f 561/177/1 562/178/1 563/179/1 564/180/1
f 565/181/1 566/182/1 567/183/1 568/184/1
f 569/185/1 570/186/1 571/187/1 572/188/1
f 573/189/1 574/190/1 575/191/1 576/192/1
f 577/69/1 578/70/1 579/71/1 580/72/1
f 581/121/1 582/122/1 583/123/1 584/124/1
f 585/193/1 586/194/1 587/195/1 588/196/1
f 589/97/1 590/98/1 591/99/1 592/100/1
f 593/197/1 594/198/1 595/199/1 596/200/1
f 597/201/1 598/202/1 599/203/1 600/204/1
f 601/69/1 602/70/1 603/71/1 604/72/1
f 605/205/1 606/206/1 607/207/1 608/208/1
f 609/137/1 610/138/1 611/139/1 612/140/1
f 613/145/1 614/146/1 615/147/1 616/148/1
f 617/1/1 618/2/1 619/3/1 620/4/1
f 621/21/1 622/22/1 623/23/1 624/24/1
f 625/69/1 626/70/1 627/71/1 628/72/1
f 629/69/1 630/70/1 631/71/1 632/72/1
f 633/69/1 634/70/1 635/71/1 636/72/1
f 637/69/1 638/70/1 639/71/1 640/72/1
f 641/69/1 642/70/1 643/71/1 644/72/1
f 645/69/1 646/70/1 647/71/1 648/72/1
f 649/69/1 650/70/1 651/71/1 652/72/1
f 653/69/1 654/70/1 655/71/1 656/72/1
f 657/1/1 658/2/1 659/3/1 660/4/1
f 661/1/1 662/2/1 663/3/1 664/4/1
f 665/69/1 666/70/1 667/71/1 668/72/1
f 669/69/1 670/70/1 671/71/1 672/72/1
f 673/21/1 674/22/1 675/23/1 676/24/1
f 677/21/1 678/22/1 679/23/1 680/24/1
f 681/69/1 682/70/1 683/71/1 684/72/1
f 685/69/1 686/70/1 687/71/1 688/72/1
f 689/69/1 690/70/1 691/71/1 692/72/1
f 693/209/1 694/210/1 695/211/1 696/212/1
f 697/69/1 698/70/1 699/71/1 700/72/1
f 701/209/1 702/210/1 703/211/1 704/212/1
f 705/209/1 706/210/1 707/211/1 708/212/1
f 709/129/1 710/130/1 711/131/1 712/132/1
f 713/213/1 714/214/1 715/215/1 716/216/1

