# Tiled2Unity generated file. Do not modify by hand.
# Wavefront file for 'tomathensBetaMap_mesh_0015.obj'

# Vertices (Count = 80)
v -229 -175 0
v -230 -175 0
v -230 -174 0
v -229 -174 0
v -228 -175 0
v -229 -175 0
v -229 -174 0
v -228 -174 0
v -227 -175 0
v -228 -175 0
v -228 -174 0
v -227 -174 0
v -226 -175 0
v -227 -175 0
v -227 -174 0
v -226 -174 0
v -225 -175 0
v -226 -175 0
v -226 -174 0
v -225 -174 0
v -229 -176 0
v -230 -176 0
v -230 -175 0
v -229 -175 0
v -228 -176 0
v -229 -176 0
v -229 -175 0
v -228 -175 0
v -227 -176 0
v -228 -176 0
v -228 -175 0
v -227 -175 0
v -226 -176 0
v -227 -176 0
v -227 -175 0
v -226 -175 0
v -225 -176 0
v -226 -176 0
v -226 -175 0
v -225 -175 0
v -229 -177 0
v -230 -177 0
v -230 -176 0
v -229 -176 0
v -228 -177 0
v -229 -177 0
v -229 -176 0
v -228 -176 0
v -227 -177 0
v -228 -177 0
v -228 -176 0
v -227 -176 0
v -226 -177 0
v -227 -177 0
v -227 -176 0
v -226 -176 0
v -225 -177 0
v -226 -177 0
v -226 -176 0
v -225 -176 0
v -229 -178 0
v -230 -178 0
v -230 -177 0
v -229 -177 0
v -228 -178 0
v -229 -178 0
v -229 -177 0
v -228 -177 0
v -227 -178 0
v -228 -178 0
v -228 -177 0
v -227 -177 0
v -226 -178 0
v -227 -178 0
v -227 -177 0
v -226 -177 0
v -225 -178 0
v -226 -178 0
v -226 -177 0
v -225 -177 0

# Texture cooridinates (Count = 80)
vt 0.2130919 0.9077491
vt 0.235376 0.9077491
vt 0.235376 0.9372694
vt 0.2130919 0.9372694
vt 0.189415 0.9077491
vt 0.2116992 0.9077491
vt 0.2116992 0.9372694
vt 0.189415 0.9372694
vt 0.1657382 0.9077491
vt 0.1880223 0.9077491
vt 0.1880223 0.9372694
vt 0.1657382 0.9372694
vt 0.1420613 0.9077491
vt 0.1643454 0.9077491
vt 0.1643454 0.9372694
vt 0.1420613 0.9372694
vt 0.1183844 0.9077491
vt 0.1406685 0.9077491
vt 0.1406685 0.9372694
vt 0.1183844 0.9372694
vt 0.2130919 0.8763838
vt 0.235376 0.8763838
vt 0.235376 0.9059041
vt 0.2130919 0.9059041
vt 0.189415 0.8763838
vt 0.2116992 0.8763838
vt 0.2116992 0.9059041
vt 0.189415 0.9059041
vt 0.1657382 0.8763838
vt 0.1880223 0.8763838
vt 0.1880223 0.9059041
vt 0.1657382 0.9059041
vt 0.1420613 0.8763838
vt 0.1643454 0.8763838
vt 0.1643454 0.9059041
vt 0.1420613 0.9059041
vt 0.1183844 0.8763838
vt 0.1406685 0.8763838
vt 0.1406685 0.9059041
vt 0.1183844 0.9059041
vt 0.2130919 0.8450184
vt 0.235376 0.8450184
vt 0.235376 0.8745388
vt 0.2130919 0.8745388
vt 0.189415 0.8450184
vt 0.2116992 0.8450184
vt 0.2116992 0.8745388
vt 0.189415 0.8745388
vt 0.1657382 0.8450184
vt 0.1880223 0.8450184
vt 0.1880223 0.8745388
vt 0.1657382 0.8745388
vt 0.1420613 0.8450184
vt 0.1643454 0.8450184
vt 0.1643454 0.8745388
vt 0.1420613 0.8745388
vt 0.1183844 0.8450184
vt 0.1406685 0.8450184
vt 0.1406685 0.8745388
vt 0.1183844 0.8745388
vt 0.2130919 0.8136531
vt 0.235376 0.8136531
vt 0.235376 0.8431734
vt 0.2130919 0.8431734
vt 0.189415 0.8136531
vt 0.2116992 0.8136531
vt 0.2116992 0.8431734
vt 0.189415 0.8431734
vt 0.1657382 0.8136531
vt 0.1880223 0.8136531
vt 0.1880223 0.8431734
vt 0.1657382 0.8431734
vt 0.1420613 0.8136531
vt 0.1643454 0.8136531
vt 0.1643454 0.8431734
vt 0.1420613 0.8431734
vt 0.1183844 0.8136531
vt 0.1406685 0.8136531
vt 0.1406685 0.8431734
vt 0.1183844 0.8431734

# Normal
vn 0 0 -1

# Mesh description
g tomathensBetaMap_mesh_0015

# Faces
f 1/1/1 2/2/1 3/3/1 4/4/1
f 5/5/1 6/6/1 7/7/1 8/8/1
f 9/9/1 10/10/1 11/11/1 12/12/1
f 13/13/1 14/14/1 15/15/1 16/16/1
f 17/17/1 18/18/1 19/19/1 20/20/1
f 21/21/1 22/22/1 23/23/1 24/24/1
f 25/25/1 26/26/1 27/27/1 28/28/1
f 29/29/1 30/30/1 31/31/1 32/32/1
f 33/33/1 34/34/1 35/35/1 36/36/1
f 37/37/1 38/38/1 39/39/1 40/40/1
f 41/41/1 42/42/1 43/43/1 44/44/1
f 45/45/1 46/46/1 47/47/1 48/48/1
f 49/49/1 50/50/1 51/51/1 52/52/1
f 53/53/1 54/54/1 55/55/1 56/56/1
f 57/57/1 58/58/1 59/59/1 60/60/1
f 61/61/1 62/62/1 63/63/1 64/64/1
f 65/65/1 66/66/1 67/67/1 68/68/1
f 69/69/1 70/70/1 71/71/1 72/72/1
f 73/73/1 74/74/1 75/75/1 76/76/1
f 77/77/1 78/78/1 79/79/1 80/80/1

