# Tiled2Unity generated file. Do not modify by hand.
# Wavefront file for 'tomathensBetaMap_mesh_0091.obj'

# Vertices (Count = 48)
v -110 -108 0
v -111 -108 0
v -111 -107 0
v -110 -107 0
v -109 -108 0
v -110 -108 0
v -110 -107 0
v -109 -107 0
v -112 -128 0
v -113 -128 0
v -113 -127 0
v -112 -127 0
v -111 -128 0
v -112 -128 0
v -112 -127 0
v -111 -127 0
v -110 -128 0
v -111 -128 0
v -111 -127 0
v -110 -127 0
v -109 -128 0
v -110 -128 0
v -110 -127 0
v -109 -127 0
v -107 -128 0
v -108 -128 0
v -108 -127 0
v -107 -127 0
v -106 -128 0
v -107 -128 0
v -107 -127 0
v -106 -127 0
v -150 -146 0
v -151 -146 0
v -151 -145 0
v -150 -145 0
v -149 -146 0
v -150 -146 0
v -150 -145 0
v -149 -145 0
v -150 -147 0
v -151 -147 0
v -151 -146 0
v -150 -146 0
v -149 -147 0
v -150 -147 0
v -150 -146 0
v -149 -146 0

# Texture cooridinates (Count = 40)
vt 0.3303438 0.6404256
vt 0.3542601 0.6404256
vt 0.3542601 0.674468
vt 0.3303438 0.674468
vt 0.3049327 0.6404256
vt 0.328849 0.6404256
vt 0.328849 0.674468
vt 0.3049327 0.674468
vt 0.431988 0.6042553
vt 0.4559043 0.6042553
vt 0.4559043 0.6382979
vt 0.431988 0.6382979
vt 0.406577 0.6042553
vt 0.4304933 0.6042553
vt 0.4304933 0.6382979
vt 0.406577 0.6382979
vt 0.3303438 0.4957447
vt 0.3542601 0.4957447
vt 0.3542601 0.5297872
vt 0.3303438 0.5297872
vt 0.3557549 0.4957447
vt 0.3796712 0.4957447
vt 0.3796712 0.5297872
vt 0.3557549 0.5297872
vt 0.2795217 0.6765957
vt 0.303438 0.6765957
vt 0.303438 0.7106383
vt 0.2795217 0.7106383
vt 0.2541106 0.6765957
vt 0.2780269 0.6765957
vt 0.2780269 0.7106383
vt 0.2541106 0.7106383
vt 0.2795217 0.6404256
vt 0.303438 0.6404256
vt 0.303438 0.674468
vt 0.2795217 0.674468
vt 0.2541106 0.6404256
vt 0.2780269 0.6404256
vt 0.2780269 0.674468
vt 0.2541106 0.674468

# Normal
vn 0 0 -1

# Mesh description
g tomathensBetaMap_mesh_0091

# Faces
f 1/1/1 2/2/1 3/3/1 4/4/1
f 5/5/1 6/6/1 7/7/1 8/8/1
f 9/9/1 10/10/1 11/11/1 12/12/1
f 13/13/1 14/14/1 15/15/1 16/16/1
f 17/17/1 18/18/1 19/19/1 20/20/1
f 21/21/1 22/22/1 23/23/1 24/24/1
f 25/9/1 26/10/1 27/11/1 28/12/1
f 29/13/1 30/14/1 31/15/1 32/16/1
f 33/25/1 34/26/1 35/27/1 36/28/1
f 37/29/1 38/30/1 39/31/1 40/32/1
f 41/33/1 42/34/1 43/35/1 44/36/1
f 45/37/1 46/38/1 47/39/1 48/40/1

