# Tiled2Unity generated file. Do not modify by hand.
# Wavefront file for 'tomathensBetaMap_mesh_0114.obj'

# Vertices (Count = 460)
v -158 -45 0
v -159 -45 0
v -159 -44 0
v -158 -44 0
v -149 -45 0
v -150 -45 0
v -150 -44 0
v -149 -44 0
v -158 -46 0
v -159 -46 0
v -159 -45 0
v -158 -45 0
v -149 -46 0
v -150 -46 0
v -150 -45 0
v -149 -45 0
v -158 -47 0
v -159 -47 0
v -159 -46 0
v -158 -46 0
v -149 -47 0
v -150 -47 0
v -150 -46 0
v -149 -46 0
v -158 -48 0
v -159 -48 0
v -159 -47 0
v -158 -47 0
v -149 -48 0
v -150 -48 0
v -150 -47 0
v -149 -47 0
v -160 -143 0
v -161 -143 0
v -161 -142 0
v -160 -142 0
v -151 -143 0
v -152 -143 0
v -152 -142 0
v -151 -142 0
v -106 -143 0
v -107 -143 0
v -107 -142 0
v -106 -142 0
v -97 -143 0
v -98 -143 0
v -98 -142 0
v -97 -142 0
v -160 -144 0
v -161 -144 0
v -161 -143 0
v -160 -143 0
v -151 -144 0
v -152 -144 0
v -152 -143 0
v -151 -143 0
v -106 -144 0
v -107 -144 0
v -107 -143 0
v -106 -143 0
v -97 -144 0
v -98 -144 0
v -98 -143 0
v -97 -143 0
v -191 -165 0
v -192 -165 0
v -192 -164 0
v -191 -164 0
v -190 -165 0
v -191 -165 0
v -191 -164 0
v -190 -164 0
v -189 -165 0
v -190 -165 0
v -190 -164 0
v -189 -164 0
v -184 -165 0
v -185 -165 0
v -185 -164 0
v -184 -164 0
v -183 -165 0
v -184 -165 0
v -184 -164 0
v -183 -164 0
v -182 -165 0
v -183 -165 0
v -183 -164 0
v -182 -164 0
v -191 -178 0
v -192 -178 0
v -192 -177 0
v -191 -177 0
v -190 -178 0
v -191 -178 0
v -191 -177 0
v -190 -177 0
v -189 -178 0
v -190 -178 0
v -190 -177 0
v -189 -177 0
v -188 -178 0
v -189 -178 0
v -189 -177 0
v -188 -177 0
v -187 -178 0
v -188 -178 0
v -188 -177 0
v -187 -177 0
v -186 -178 0
v -187 -178 0
v -187 -177 0
v -186 -177 0
v -185 -178 0
v -186 -178 0
v -186 -177 0
v -185 -177 0
v -184 -178 0
v -185 -178 0
v -185 -177 0
v -184 -177 0
v -183 -178 0
v -184 -178 0
v -184 -177 0
v -183 -177 0
v -182 -178 0
v -183 -178 0
v -183 -177 0
v -182 -177 0
v -69 -178 0
v -70 -178 0
v -70 -177 0
v -69 -177 0
v -191 -179 0
v -192 -179 0
v -192 -178 0
v -191 -178 0
v -190 -179 0
v -191 -179 0
v -191 -178 0
v -190 -178 0
v -189 -179 0
v -190 -179 0
v -190 -178 0
v -189 -178 0
v -188 -179 0
v -189 -179 0
v -189 -178 0
v -188 -178 0
v -187 -179 0
v -188 -179 0
v -188 -178 0
v -187 -178 0
v -186 -179 0
v -187 -179 0
v -187 -178 0
v -186 -178 0
v -185 -179 0
v -186 -179 0
v -186 -178 0
v -185 -178 0
v -184 -179 0
v -185 -179 0
v -185 -178 0
v -184 -178 0
v -183 -179 0
v -184 -179 0
v -184 -178 0
v -183 -178 0
v -182 -179 0
v -183 -179 0
v -183 -178 0
v -182 -178 0
v -224 -237 0
v -225 -237 0
v -225 -236 0
v -224 -236 0
v -211 -237 0
v -212 -237 0
v -212 -236 0
v -211 -236 0
v -197 -237 0
v -198 -237 0
v -198 -236 0
v -197 -236 0
v -184 -237 0
v -185 -237 0
v -185 -236 0
v -184 -236 0
v -224 -238 0
v -225 -238 0
v -225 -237 0
v -224 -237 0
v -223 -238 0
v -224 -238 0
v -224 -237 0
v -223 -237 0
v -222 -238 0
v -223 -238 0
v -223 -237 0
v -222 -237 0
v -221 -238 0
v -222 -238 0
v -222 -237 0
v -221 -237 0
v -220 -238 0
v -221 -238 0
v -221 -237 0
v -220 -237 0
v -219 -238 0
v -220 -238 0
v -220 -237 0
v -219 -237 0
v -218 -238 0
v -219 -238 0
v -219 -237 0
v -218 -237 0
v -217 -238 0
v -218 -238 0
v -218 -237 0
v -217 -237 0
v -216 -238 0
v -217 -238 0
v -217 -237 0
v -216 -237 0
v -215 -238 0
v -216 -238 0
v -216 -237 0
v -215 -237 0
v -214 -238 0
v -215 -238 0
v -215 -237 0
v -214 -237 0
v -213 -238 0
v -214 -238 0
v -214 -237 0
v -213 -237 0
v -212 -238 0
v -213 -238 0
v -213 -237 0
v -212 -237 0
v -211 -238 0
v -212 -238 0
v -212 -237 0
v -211 -237 0
v -197 -238 0
v -198 -238 0
v -198 -237 0
v -197 -237 0
v -196 -238 0
v -197 -238 0
v -197 -237 0
v -196 -237 0
v -195 -238 0
v -196 -238 0
v -196 -237 0
v -195 -237 0
v -194 -238 0
v -195 -238 0
v -195 -237 0
v -194 -237 0
v -193 -238 0
v -194 -238 0
v -194 -237 0
v -193 -237 0
v -192 -238 0
v -193 -238 0
v -193 -237 0
v -192 -237 0
v -191 -238 0
v -192 -238 0
v -192 -237 0
v -191 -237 0
v -190 -238 0
v -191 -238 0
v -191 -237 0
v -190 -237 0
v -189 -238 0
v -190 -238 0
v -190 -237 0
v -189 -237 0
v -188 -238 0
v -189 -238 0
v -189 -237 0
v -188 -237 0
v -187 -238 0
v -188 -238 0
v -188 -237 0
v -187 -237 0
v -186 -238 0
v -187 -238 0
v -187 -237 0
v -186 -237 0
v -185 -238 0
v -186 -238 0
v -186 -237 0
v -185 -237 0
v -184 -238 0
v -185 -238 0
v -185 -237 0
v -184 -237 0
v -224 -239 0
v -225 -239 0
v -225 -238 0
v -224 -238 0
v -223 -239 0
v -224 -239 0
v -224 -238 0
v -223 -238 0
v -222 -239 0
v -223 -239 0
v -223 -238 0
v -222 -238 0
v -221 -239 0
v -222 -239 0
v -222 -238 0
v -221 -238 0
v -220 -239 0
v -221 -239 0
v -221 -238 0
v -220 -238 0
v -219 -239 0
v -220 -239 0
v -220 -238 0
v -219 -238 0
v -218 -239 0
v -219 -239 0
v -219 -238 0
v -218 -238 0
v -217 -239 0
v -218 -239 0
v -218 -238 0
v -217 -238 0
v -216 -239 0
v -217 -239 0
v -217 -238 0
v -216 -238 0
v -215 -239 0
v -216 -239 0
v -216 -238 0
v -215 -238 0
v -214 -239 0
v -215 -239 0
v -215 -238 0
v -214 -238 0
v -213 -239 0
v -214 -239 0
v -214 -238 0
v -213 -238 0
v -212 -239 0
v -213 -239 0
v -213 -238 0
v -212 -238 0
v -211 -239 0
v -212 -239 0
v -212 -238 0
v -211 -238 0
v -197 -239 0
v -198 -239 0
v -198 -238 0
v -197 -238 0
v -196 -239 0
v -197 -239 0
v -197 -238 0
v -196 -238 0
v -195 -239 0
v -196 -239 0
v -196 -238 0
v -195 -238 0
v -194 -239 0
v -195 -239 0
v -195 -238 0
v -194 -238 0
v -193 -239 0
v -194 -239 0
v -194 -238 0
v -193 -238 0
v -192 -239 0
v -193 -239 0
v -193 -238 0
v -192 -238 0
v -191 -239 0
v -192 -239 0
v -192 -238 0
v -191 -238 0
v -190 -239 0
v -191 -239 0
v -191 -238 0
v -190 -238 0
v -189 -239 0
v -190 -239 0
v -190 -238 0
v -189 -238 0
v -188 -239 0
v -189 -239 0
v -189 -238 0
v -188 -238 0
v -187 -239 0
v -188 -239 0
v -188 -238 0
v -187 -238 0
v -186 -239 0
v -187 -239 0
v -187 -238 0
v -186 -238 0
v -185 -239 0
v -186 -239 0
v -186 -238 0
v -185 -238 0
v -184 -239 0
v -185 -239 0
v -185 -238 0
v -184 -238 0
v -223 -240 0
v -224 -240 0
v -224 -239 0
v -223 -239 0
v -222 -240 0
v -223 -240 0
v -223 -239 0
v -222 -239 0
v -221 -240 0
v -222 -240 0
v -222 -239 0
v -221 -239 0
v -220 -240 0
v -221 -240 0
v -221 -239 0
v -220 -239 0
v -219 -240 0
v -220 -240 0
v -220 -239 0
v -219 -239 0
v -218 -240 0
v -219 -240 0
v -219 -239 0
v -218 -239 0
v -217 -240 0
v -218 -240 0
v -218 -239 0
v -217 -239 0
v -216 -240 0
v -217 -240 0
v -217 -239 0
v -216 -239 0
v -215 -240 0
v -216 -240 0
v -216 -239 0
v -215 -239 0
v -214 -240 0
v -215 -240 0
v -215 -239 0
v -214 -239 0
v -213 -240 0
v -214 -240 0
v -214 -239 0
v -213 -239 0
v -212 -240 0
v -213 -240 0
v -213 -239 0
v -212 -239 0

# Texture cooridinates (Count = 100)
vt 0.189415 0.7822878
vt 0.2116992 0.7822878
vt 0.2116992 0.8118081
vt 0.189415 0.8118081
vt 0.1420613 0.7822878
vt 0.1643454 0.7822878
vt 0.1643454 0.8118081
vt 0.1420613 0.8118081
vt 0.189415 0.7509225
vt 0.2116992 0.7509225
vt 0.2116992 0.7804428
vt 0.189415 0.7804428
vt 0.1420613 0.7509225
vt 0.1643454 0.7509225
vt 0.1643454 0.7804428
vt 0.1420613 0.7804428
vt 0.189415 0.7195572
vt 0.2116992 0.7195572
vt 0.2116992 0.7490775
vt 0.189415 0.7490775
vt 0.1420613 0.7195572
vt 0.1643454 0.7195572
vt 0.1643454 0.7490775
vt 0.1420613 0.7490775
vt 0.09470752 0.9704797
vt 0.1169916 0.9704797
vt 0.1169916 1
vt 0.09470752 1
vt 0.09470752 0.9391144
vt 0.1169916 0.9391144
vt 0.1169916 0.9686347
vt 0.09470752 0.9686347
vt 0.02367688 0.9077491
vt 0.045961 0.9077491
vt 0.045961 0.9372694
vt 0.02367688 0.9372694
vt 0.07103064 0.9077491
vt 0.09331477 0.9077491
vt 0.09331477 0.9372694
vt 0.07103064 0.9372694
vt 0.1183844 0.9704797
vt 0.1406685 0.9704797
vt 0.1406685 1
vt 0.1183844 1
vt 0.02367688 0.9704797
vt 0.045961 0.9704797
vt 0.045961 1
vt 0.02367688 1
vt 0 0.9704797
vt 0.02228412 0.9704797
vt 0.02228412 1
vt 0 1
vt 0.02367688 0.8763838
vt 0.045961 0.8763838
vt 0.045961 0.9059041
vt 0.02367688 0.9059041
vt 0.07103064 0.8763838
vt 0.09331477 0.8763838
vt 0.09331477 0.9059041
vt 0.07103064 0.9059041
vt 0.1183844 0.9391144
vt 0.1406685 0.9391144
vt 0.1406685 0.9686347
vt 0.1183844 0.9686347
vt 0.02367688 0.9391144
vt 0.045961 0.9391144
vt 0.045961 0.9686347
vt 0.02367688 0.9686347
vt 0 0.9391144
vt 0.02228412 0.9391144
vt 0.02228412 0.9686347
vt 0 0.9686347
vt 0.189415 0.6881919
vt 0.2116992 0.6881919
vt 0.2116992 0.7177122
vt 0.189415 0.7177122
vt 0.1657382 0.6881919
vt 0.1880223 0.6881919
vt 0.1880223 0.7177122
vt 0.1657382 0.7177122
vt 0.1420613 0.6881919
vt 0.1643454 0.6881919
vt 0.1643454 0.7177122
vt 0.1420613 0.7177122
vt 0.189415 0.6568266
vt 0.2116992 0.6568266
vt 0.2116992 0.6863469
vt 0.189415 0.6863469
vt 0.1657382 0.6568266
vt 0.1880223 0.6568266
vt 0.1880223 0.6863469
vt 0.1657382 0.6863469
vt 0.1420613 0.6568266
vt 0.1643454 0.6568266
vt 0.1643454 0.6863469
vt 0.1420613 0.6863469
vt 0.1657382 0.6254612
vt 0.1880223 0.6254612
vt 0.1880223 0.6549816
vt 0.1657382 0.6549816

# Normal
vn 0 0 -1

# Mesh description
g tomathensBetaMap_mesh_0114

# Faces
f 1/1/1 2/2/1 3/3/1 4/4/1
f 5/5/1 6/6/1 7/7/1 8/8/1
f 9/9/1 10/10/1 11/11/1 12/12/1
f 13/13/1 14/14/1 15/15/1 16/16/1
f 17/17/1 18/18/1 19/19/1 20/20/1
f 21/21/1 22/22/1 23/23/1 24/24/1
f 25/17/1 26/18/1 27/19/1 28/20/1
f 29/21/1 30/22/1 31/23/1 32/24/1
f 33/25/1 34/26/1 35/27/1 36/28/1
f 37/25/1 38/26/1 39/27/1 40/28/1
f 41/25/1 42/26/1 43/27/1 44/28/1
f 45/25/1 46/26/1 47/27/1 48/28/1
f 49/29/1 50/30/1 51/31/1 52/32/1
f 53/29/1 54/30/1 55/31/1 56/32/1
f 57/29/1 58/30/1 59/31/1 60/32/1
f 61/29/1 62/30/1 63/31/1 64/32/1
f 65/33/1 66/34/1 67/35/1 68/36/1
f 69/37/1 70/38/1 71/39/1 72/40/1
f 73/33/1 74/34/1 75/35/1 76/36/1
f 77/33/1 78/34/1 79/35/1 80/36/1
f 81/37/1 82/38/1 83/39/1 84/40/1
f 85/33/1 86/34/1 87/35/1 88/36/1
f 89/33/1 90/34/1 91/35/1 92/36/1
f 93/37/1 94/38/1 95/39/1 96/40/1
f 97/33/1 98/34/1 99/35/1 100/36/1
f 101/41/1 102/42/1 103/43/1 104/44/1
f 105/45/1 106/46/1 107/47/1 108/48/1
f 109/49/1 110/50/1 111/51/1 112/52/1
f 113/41/1 114/42/1 115/43/1 116/44/1
f 117/33/1 118/34/1 119/35/1 120/36/1
f 121/37/1 122/38/1 123/39/1 124/40/1
f 125/33/1 126/34/1 127/35/1 128/36/1
f 129/37/1 130/38/1 131/39/1 132/40/1
f 133/53/1 134/54/1 135/55/1 136/56/1
f 137/57/1 138/58/1 139/59/1 140/60/1
f 141/53/1 142/54/1 143/55/1 144/56/1
f 145/61/1 146/62/1 147/63/1 148/64/1
f 149/65/1 150/66/1 151/67/1 152/68/1
f 153/69/1 154/70/1 155/71/1 156/72/1
f 157/61/1 158/62/1 159/63/1 160/64/1
f 161/53/1 162/54/1 163/55/1 164/56/1
f 165/57/1 166/58/1 167/59/1 168/60/1
f 169/53/1 170/54/1 171/55/1 172/56/1
f 173/17/1 174/18/1 175/19/1 176/20/1
f 177/21/1 178/22/1 179/23/1 180/24/1
f 181/17/1 182/18/1 183/19/1 184/20/1
f 185/21/1 186/22/1 187/23/1 188/24/1
f 189/73/1 190/74/1 191/75/1 192/76/1
f 193/77/1 194/78/1 195/79/1 196/80/1
f 197/77/1 198/78/1 199/79/1 200/80/1
f 201/77/1 202/78/1 203/79/1 204/80/1
f 205/77/1 206/78/1 207/79/1 208/80/1
f 209/77/1 210/78/1 211/79/1 212/80/1
f 213/77/1 214/78/1 215/79/1 216/80/1
f 217/77/1 218/78/1 219/79/1 220/80/1
f 221/77/1 222/78/1 223/79/1 224/80/1
f 225/77/1 226/78/1 227/79/1 228/80/1
f 229/77/1 230/78/1 231/79/1 232/80/1
f 233/77/1 234/78/1 235/79/1 236/80/1
f 237/77/1 238/78/1 239/79/1 240/80/1
f 241/81/1 242/82/1 243/83/1 244/84/1
f 245/73/1 246/74/1 247/75/1 248/76/1
f 249/77/1 250/78/1 251/79/1 252/80/1
f 253/77/1 254/78/1 255/79/1 256/80/1
f 257/77/1 258/78/1 259/79/1 260/80/1
f 261/77/1 262/78/1 263/79/1 264/80/1
f 265/77/1 266/78/1 267/79/1 268/80/1
f 269/77/1 270/78/1 271/79/1 272/80/1
f 273/77/1 274/78/1 275/79/1 276/80/1
f 277/77/1 278/78/1 279/79/1 280/80/1
f 281/77/1 282/78/1 283/79/1 284/80/1
f 285/77/1 286/78/1 287/79/1 288/80/1
f 289/77/1 290/78/1 291/79/1 292/80/1
f 293/77/1 294/78/1 295/79/1 296/80/1
f 297/81/1 298/82/1 299/83/1 300/84/1
f 301/85/1 302/86/1 303/87/1 304/88/1
f 305/89/1 306/90/1 307/91/1 308/92/1
f 309/89/1 310/90/1 311/91/1 312/92/1
f 313/89/1 314/90/1 315/91/1 316/92/1
f 317/89/1 318/90/1 319/91/1 320/92/1
f 321/89/1 322/90/1 323/91/1 324/92/1
f 325/89/1 326/90/1 327/91/1 328/92/1
f 329/89/1 330/90/1 331/91/1 332/92/1
f 333/89/1 334/90/1 335/91/1 336/92/1
f 337/89/1 338/90/1 339/91/1 340/92/1
f 341/89/1 342/90/1 343/91/1 344/92/1
f 345/89/1 346/90/1 347/91/1 348/92/1
f 349/89/1 350/90/1 351/91/1 352/92/1
f 353/93/1 354/94/1 355/95/1 356/96/1
f 357/85/1 358/86/1 359/87/1 360/88/1
f 361/89/1 362/90/1 363/91/1 364/92/1
f 365/89/1 366/90/1 367/91/1 368/92/1
f 369/89/1 370/90/1 371/91/1 372/92/1
f 373/89/1 374/90/1 375/91/1 376/92/1
f 377/89/1 378/90/1 379/91/1 380/92/1
f 381/89/1 382/90/1 383/91/1 384/92/1
f 385/89/1 386/90/1 387/91/1 388/92/1
f 389/89/1 390/90/1 391/91/1 392/92/1
f 393/89/1 394/90/1 395/91/1 396/92/1
f 397/89/1 398/90/1 399/91/1 400/92/1
f 401/89/1 402/90/1 403/91/1 404/92/1
f 405/89/1 406/90/1 407/91/1 408/92/1
f 409/93/1 410/94/1 411/95/1 412/96/1
f 413/97/1 414/98/1 415/99/1 416/100/1
f 417/97/1 418/98/1 419/99/1 420/100/1
f 421/97/1 422/98/1 423/99/1 424/100/1
f 425/97/1 426/98/1 427/99/1 428/100/1
f 429/97/1 430/98/1 431/99/1 432/100/1
f 433/97/1 434/98/1 435/99/1 436/100/1
f 437/97/1 438/98/1 439/99/1 440/100/1
f 441/97/1 442/98/1 443/99/1 444/100/1
f 445/97/1 446/98/1 447/99/1 448/100/1
f 449/97/1 450/98/1 451/99/1 452/100/1
f 453/97/1 454/98/1 455/99/1 456/100/1
f 457/97/1 458/98/1 459/99/1 460/100/1

