# Tiled2Unity generated file. Do not modify by hand.
# Wavefront file for 'tomathensBetaMap_mesh_0116.obj'

# Vertices (Count = 108)
v -153 -76 0
v -154 -76 0
v -154 -75 0
v -153 -75 0
v -148 -76 0
v -149 -76 0
v -149 -75 0
v -148 -75 0
v -139 -76 0
v -140 -76 0
v -140 -75 0
v -139 -75 0
v -139 -82 0
v -140 -82 0
v -140 -81 0
v -139 -81 0
v -139 -83 0
v -140 -83 0
v -140 -82 0
v -139 -82 0
v -112 -97 0
v -113 -97 0
v -113 -96 0
v -112 -96 0
v -111 -97 0
v -112 -97 0
v -112 -96 0
v -111 -96 0
v -102 -97 0
v -103 -97 0
v -103 -96 0
v -102 -96 0
v -101 -97 0
v -102 -97 0
v -102 -96 0
v -101 -96 0
v -112 -98 0
v -113 -98 0
v -113 -97 0
v -112 -97 0
v -111 -98 0
v -112 -98 0
v -112 -97 0
v -111 -97 0
v -102 -98 0
v -103 -98 0
v -103 -97 0
v -102 -97 0
v -101 -98 0
v -102 -98 0
v -102 -97 0
v -101 -97 0
v -154 -149 0
v -155 -149 0
v -155 -148 0
v -154 -148 0
v -148 -149 0
v -149 -149 0
v -149 -148 0
v -148 -148 0
v -103 -149 0
v -104 -149 0
v -104 -148 0
v -103 -148 0
v -154 -150 0
v -155 -150 0
v -155 -149 0
v -154 -149 0
v -148 -150 0
v -149 -150 0
v -149 -149 0
v -148 -149 0
v -103 -150 0
v -104 -150 0
v -104 -149 0
v -103 -149 0
v -151 -153 0
v -152 -153 0
v -152 -152 0
v -151 -152 0
v -106 -153 0
v -107 -153 0
v -107 -152 0
v -106 -152 0
v -97 -153 0
v -98 -153 0
v -98 -152 0
v -97 -152 0
v -151 -154 0
v -152 -154 0
v -152 -153 0
v -151 -153 0
v -106 -154 0
v -107 -154 0
v -107 -153 0
v -106 -153 0
v -97 -154 0
v -98 -154 0
v -98 -153 0
v -97 -153 0
v -130 -182 0
v -131 -182 0
v -131 -181 0
v -130 -181 0
v -127 -182 0
v -128 -182 0
v -128 -181 0
v -127 -181 0

# Texture cooridinates (Count = 32)
vt 0.3736264 0.8048781
vt 0.4615385 0.8048781
vt 0.4615385 1
vt 0.3736264 1
vt 0.2802198 0.8048781
vt 0.3681319 0.8048781
vt 0.3681319 1
vt 0.2802198 1
vt 0.2802198 0.597561
vt 0.3681319 0.597561
vt 0.3681319 0.7926829
vt 0.2802198 0.7926829
vt 0.0934066 0.8048781
vt 0.1813187 0.8048781
vt 0.1813187 1
vt 0.0934066 1
vt 0 0.8048781
vt 0.08791209 0.8048781
vt 0.08791209 1
vt 0 1
vt 0.0934066 0.597561
vt 0.1813187 0.597561
vt 0.1813187 0.7926829
vt 0.0934066 0.7926829
vt 0 0.597561
vt 0.08791209 0.597561
vt 0.08791209 0.7926829
vt 0 0.7926829
vt 0.3736264 0.597561
vt 0.4615385 0.597561
vt 0.4615385 0.7926829
vt 0.3736264 0.7926829

# Normal
vn 0 0 -1

# Mesh description
g tomathensBetaMap_mesh_0116

# Faces
f 1/1/1 2/2/1 3/3/1 4/4/1
f 5/1/1 6/2/1 7/3/1 8/4/1
f 9/5/1 10/6/1 11/7/1 12/8/1
f 13/5/1 14/6/1 15/7/1 16/8/1
f 17/9/1 18/10/1 19/11/1 20/12/1
f 21/13/1 22/14/1 23/15/1 24/16/1
f 25/17/1 26/18/1 27/19/1 28/20/1
f 29/13/1 30/14/1 31/15/1 32/16/1
f 33/17/1 34/18/1 35/19/1 36/20/1
f 37/21/1 38/22/1 39/23/1 40/24/1
f 41/25/1 42/26/1 43/27/1 44/28/1
f 45/21/1 46/22/1 47/23/1 48/24/1
f 49/25/1 50/26/1 51/27/1 52/28/1
f 53/1/1 54/2/1 55/3/1 56/4/1
f 57/1/1 58/2/1 59/3/1 60/4/1
f 61/1/1 62/2/1 63/3/1 64/4/1
f 65/29/1 66/30/1 67/31/1 68/32/1
f 69/29/1 70/30/1 71/31/1 72/32/1
f 73/29/1 74/30/1 75/31/1 76/32/1
f 77/1/1 78/2/1 79/3/1 80/4/1
f 81/1/1 82/2/1 83/3/1 84/4/1
f 85/1/1 86/2/1 87/3/1 88/4/1
f 89/29/1 90/30/1 91/31/1 92/32/1
f 93/29/1 94/30/1 95/31/1 96/32/1
f 97/29/1 98/30/1 99/31/1 100/32/1
f 101/5/1 102/6/1 103/7/1 104/8/1
f 105/5/1 106/6/1 107/7/1 108/8/1

