# Tiled2Unity generated file. Do not modify by hand.
# Wavefront file for 'tomathensBetaMap_mesh_0104.obj'

# Vertices (Count = 128)
v -139 -22 0
v -140 -22 0
v -140 -21 0
v -139 -21 0
v -135 -22 0
v -136 -22 0
v -136 -21 0
v -135 -21 0
v -131 -22 0
v -132 -22 0
v -132 -21 0
v -131 -21 0
v -126 -22 0
v -127 -22 0
v -127 -21 0
v -126 -21 0
v -122 -22 0
v -123 -22 0
v -123 -21 0
v -122 -21 0
v -118 -22 0
v -119 -22 0
v -119 -21 0
v -118 -21 0
v -139 -23 0
v -140 -23 0
v -140 -22 0
v -139 -22 0
v -135 -23 0
v -136 -23 0
v -136 -22 0
v -135 -22 0
v -131 -23 0
v -132 -23 0
v -132 -22 0
v -131 -22 0
v -126 -23 0
v -127 -23 0
v -127 -22 0
v -126 -22 0
v -122 -23 0
v -123 -23 0
v -123 -22 0
v -122 -22 0
v -118 -23 0
v -119 -23 0
v -119 -22 0
v -118 -22 0
v -112 -85 0
v -113 -85 0
v -113 -84 0
v -112 -84 0
v -111 -85 0
v -112 -85 0
v -112 -84 0
v -111 -84 0
v -110 -85 0
v -111 -85 0
v -111 -84 0
v -110 -84 0
v -109 -85 0
v -110 -85 0
v -110 -84 0
v -109 -84 0
v -103 -85 0
v -104 -85 0
v -104 -84 0
v -103 -84 0
v -102 -85 0
v -103 -85 0
v -103 -84 0
v -102 -84 0
v -101 -85 0
v -102 -85 0
v -102 -84 0
v -101 -84 0
v -100 -85 0
v -101 -85 0
v -101 -84 0
v -100 -84 0
v -155 -90 0
v -156 -90 0
v -156 -89 0
v -155 -89 0
v -133 -159 0
v -134 -159 0
v -134 -158 0
v -133 -158 0
v -124 -159 0
v -125 -159 0
v -125 -158 0
v -124 -158 0
v -120 -189 0
v -121 -189 0
v -121 -188 0
v -120 -188 0
v -140 -202 0
v -141 -202 0
v -141 -201 0
v -140 -201 0
v -120 -202 0
v -121 -202 0
v -121 -201 0
v -120 -201 0
v -143 -203 0
v -144 -203 0
v -144 -202 0
v -143 -202 0
v -114 -203 0
v -115 -203 0
v -115 -202 0
v -114 -202 0
v -113 -204 0
v -114 -204 0
v -114 -203 0
v -113 -203 0
v -97 -204 0
v -98 -204 0
v -98 -203 0
v -97 -203 0
v -136 -207 0
v -137 -207 0
v -137 -206 0
v -136 -206 0
v -121 -208 0
v -122 -208 0
v -122 -207 0
v -121 -207 0

# Texture cooridinates (Count = 52)
vt 0.2266667 0.7081281
vt 0.2419048 0.7081281
vt 0.2419048 0.7278326
vt 0.2266667 0.7278326
vt 0.2266667 0.6871921
vt 0.2419048 0.6871921
vt 0.2419048 0.7068965
vt 0.2266667 0.7068965
vt 0.2752381 0.7918719
vt 0.2904762 0.7918719
vt 0.2904762 0.8115764
vt 0.2752381 0.8115764
vt 0.2590476 0.7918719
vt 0.2742857 0.7918719
vt 0.2742857 0.8115764
vt 0.2590476 0.8115764
vt 0.2428571 0.7918719
vt 0.2580952 0.7918719
vt 0.2580952 0.8115764
vt 0.2428571 0.8115764
vt 0.2266667 0.7918719
vt 0.2419048 0.7918719
vt 0.2419048 0.8115764
vt 0.2266667 0.8115764
vt 0.1457143 0.9593596
vt 0.1609524 0.9593596
vt 0.1609524 0.979064
vt 0.1457143 0.979064
vt 0.1619048 0.8965517
vt 0.1771429 0.8965517
vt 0.1771429 0.9162562
vt 0.1619048 0.9162562
vt 0.04857143 0.9174877
vt 0.06380952 0.9174877
vt 0.06380952 0.9371921
vt 0.04857143 0.9371921
vt 0.09714286 0.9802955
vt 0.112381 0.9802955
vt 0.112381 1
vt 0.09714286 1
vt 0.01619048 0.9174877
vt 0.03142857 0.9174877
vt 0.03142857 0.9371921
vt 0.01619048 0.9371921
vt 0.1619048 0.8756158
vt 0.1771429 0.8756158
vt 0.1771429 0.8953202
vt 0.1619048 0.8953202
vt 0.1133333 0.9802955
vt 0.1285714 0.9802955
vt 0.1285714 1
vt 0.1133333 1

# Normal
vn 0 0 -1

# Mesh description
g tomathensBetaMap_mesh_0104

# Faces
f 1/1/1 2/2/1 3/3/1 4/4/1
f 5/1/1 6/2/1 7/3/1 8/4/1
f 9/1/1 10/2/1 11/3/1 12/4/1
f 13/1/1 14/2/1 15/3/1 16/4/1
f 17/1/1 18/2/1 19/3/1 20/4/1
f 21/1/1 22/2/1 23/3/1 24/4/1
f 25/5/1 26/6/1 27/7/1 28/8/1
f 29/5/1 30/6/1 31/7/1 32/8/1
f 33/5/1 34/6/1 35/7/1 36/8/1
f 37/5/1 38/6/1 39/7/1 40/8/1
f 41/5/1 42/6/1 43/7/1 44/8/1
f 45/5/1 46/6/1 47/7/1 48/8/1
f 49/9/1 50/10/1 51/11/1 52/12/1
f 53/13/1 54/14/1 55/15/1 56/16/1
f 57/17/1 58/18/1 59/19/1 60/20/1
f 61/21/1 62/22/1 63/23/1 64/24/1
f 65/9/1 66/10/1 67/11/1 68/12/1
f 69/13/1 70/14/1 71/15/1 72/16/1
f 73/17/1 74/18/1 75/19/1 76/20/1
f 77/21/1 78/22/1 79/23/1 80/24/1
f 81/25/1 82/26/1 83/27/1 84/28/1
f 85/29/1 86/30/1 87/31/1 88/32/1
f 89/29/1 90/30/1 91/31/1 92/32/1
f 93/29/1 94/30/1 95/31/1 96/32/1
f 97/33/1 98/34/1 99/35/1 100/36/1
f 101/37/1 102/38/1 103/39/1 104/40/1
f 105/41/1 106/42/1 107/43/1 108/44/1
f 109/37/1 110/38/1 111/39/1 112/40/1
f 113/33/1 114/34/1 115/35/1 116/36/1
f 117/45/1 118/46/1 119/47/1 120/48/1
f 121/33/1 122/34/1 123/35/1 124/36/1
f 125/49/1 126/50/1 127/51/1 128/52/1

