# Tiled2Unity generated file. Do not modify by hand.
# Wavefront file for 'tomathensBetaMap_mesh_0047.obj'

# Vertices (Count = 16)
v -158 -49 0
v -159 -49 0
v -159 -48 0
v -158 -48 0
v -149 -49 0
v -150 -49 0
v -150 -48 0
v -149 -48 0
v -158 -50 0
v -159 -50 0
v -159 -49 0
v -158 -49 0
v -149 -50 0
v -150 -50 0
v -150 -49 0
v -149 -49 0

# Texture cooridinates (Count = 16)
vt 0.189415 0.6881919
vt 0.2116992 0.6881919
vt 0.2116992 0.7177122
vt 0.189415 0.7177122
vt 0.1420613 0.6881919
vt 0.1643454 0.6881919
vt 0.1643454 0.7177122
vt 0.1420613 0.7177122
vt 0.189415 0.6568266
vt 0.2116992 0.6568266
vt 0.2116992 0.6863469
vt 0.189415 0.6863469
vt 0.1420613 0.6568266
vt 0.1643454 0.6568266
vt 0.1643454 0.6863469
vt 0.1420613 0.6863469

# Normal
vn 0 0 -1

# Mesh description
g tomathensBetaMap_mesh_0047

# Faces
f 1/1/1 2/2/1 3/3/1 4/4/1
f 5/5/1 6/6/1 7/7/1 8/8/1
f 9/9/1 10/10/1 11/11/1 12/12/1
f 13/13/1 14/14/1 15/15/1 16/16/1

