# Tiled2Unity generated file. Do not modify by hand.
# Wavefront file for 'tomathensBetaMap_mesh_0061.obj'

# Vertices (Count = 368)
v -148 -85 0
v -149 -85 0
v -149 -84 0
v -148 -84 0
v -148 -86 0
v -149 -86 0
v -149 -85 0
v -148 -85 0
v -103 -97 0
v -104 -97 0
v -104 -96 0
v -103 -96 0
v -103 -98 0
v -104 -98 0
v -104 -97 0
v -103 -97 0
v -134 -116 0
v -135 -116 0
v -135 -115 0
v -134 -115 0
v -133 -116 0
v -134 -116 0
v -134 -115 0
v -133 -115 0
v -131 -116 0
v -132 -116 0
v -132 -115 0
v -131 -115 0
v -126 -116 0
v -127 -116 0
v -127 -115 0
v -126 -115 0
v -124 -116 0
v -125 -116 0
v -125 -115 0
v -124 -115 0
v -123 -116 0
v -124 -116 0
v -124 -115 0
v -123 -115 0
v -134 -117 0
v -135 -117 0
v -135 -116 0
v -134 -116 0
v -133 -117 0
v -134 -117 0
v -134 -116 0
v -133 -116 0
v -131 -117 0
v -132 -117 0
v -132 -116 0
v -131 -116 0
v -126 -117 0
v -127 -117 0
v -127 -116 0
v -126 -116 0
v -124 -117 0
v -125 -117 0
v -125 -116 0
v -124 -116 0
v -123 -117 0
v -124 -117 0
v -124 -116 0
v -123 -116 0
v -106 -143 0
v -107 -143 0
v -107 -142 0
v -106 -142 0
v -106 -144 0
v -107 -144 0
v -107 -143 0
v -106 -143 0
v -163 -147 0
v -164 -147 0
v -164 -146 0
v -163 -146 0
v -109 -147 0
v -110 -147 0
v -110 -146 0
v -109 -146 0
v -103 -147 0
v -104 -147 0
v -104 -146 0
v -103 -146 0
v -163 -148 0
v -164 -148 0
v -164 -147 0
v -163 -147 0
v -109 -148 0
v -110 -148 0
v -110 -147 0
v -109 -147 0
v -103 -148 0
v -104 -148 0
v -104 -147 0
v -103 -147 0
v -62 -187 0
v -63 -187 0
v -63 -186 0
v -62 -186 0
v -55 -187 0
v -56 -187 0
v -56 -186 0
v -55 -186 0
v -62 -188 0
v -63 -188 0
v -63 -187 0
v -62 -187 0
v -55 -188 0
v -56 -188 0
v -56 -187 0
v -55 -187 0
v -62 -195 0
v -63 -195 0
v -63 -194 0
v -62 -194 0
v -55 -195 0
v -56 -195 0
v -56 -194 0
v -55 -194 0
v -62 -196 0
v -63 -196 0
v -63 -195 0
v -62 -195 0
v -55 -196 0
v -56 -196 0
v -56 -195 0
v -55 -195 0
v -133 -197 0
v -134 -197 0
v -134 -196 0
v -133 -196 0
v -132 -197 0
v -133 -197 0
v -133 -196 0
v -132 -196 0
v -131 -197 0
v -132 -197 0
v -132 -196 0
v -131 -196 0
v -130 -197 0
v -131 -197 0
v -131 -196 0
v -130 -196 0
v -129 -197 0
v -130 -197 0
v -130 -196 0
v -129 -196 0
v -128 -197 0
v -129 -197 0
v -129 -196 0
v -128 -196 0
v -127 -197 0
v -128 -197 0
v -128 -196 0
v -127 -196 0
v -126 -197 0
v -127 -197 0
v -127 -196 0
v -126 -196 0
v -125 -197 0
v -126 -197 0
v -126 -196 0
v -125 -196 0
v -124 -197 0
v -125 -197 0
v -125 -196 0
v -124 -196 0
v -123 -197 0
v -124 -197 0
v -124 -196 0
v -123 -196 0
v -133 -198 0
v -134 -198 0
v -134 -197 0
v -133 -197 0
v -132 -198 0
v -133 -198 0
v -133 -197 0
v -132 -197 0
v -131 -198 0
v -132 -198 0
v -132 -197 0
v -131 -197 0
v -130 -198 0
v -131 -198 0
v -131 -197 0
v -130 -197 0
v -129 -198 0
v -130 -198 0
v -130 -197 0
v -129 -197 0
v -128 -198 0
v -129 -198 0
v -129 -197 0
v -128 -197 0
v -127 -198 0
v -128 -198 0
v -128 -197 0
v -127 -197 0
v -126 -198 0
v -127 -198 0
v -127 -197 0
v -126 -197 0
v -125 -198 0
v -126 -198 0
v -126 -197 0
v -125 -197 0
v -124 -198 0
v -125 -198 0
v -125 -197 0
v -124 -197 0
v -123 -198 0
v -124 -198 0
v -124 -197 0
v -123 -197 0
v -142 -199 0
v -143 -199 0
v -143 -198 0
v -142 -198 0
v -141 -199 0
v -142 -199 0
v -142 -198 0
v -141 -198 0
v -140 -199 0
v -141 -199 0
v -141 -198 0
v -140 -198 0
v -139 -199 0
v -140 -199 0
v -140 -198 0
v -139 -198 0
v -138 -199 0
v -139 -199 0
v -139 -198 0
v -138 -198 0
v -137 -199 0
v -138 -199 0
v -138 -198 0
v -137 -198 0
v -136 -199 0
v -137 -199 0
v -137 -198 0
v -136 -198 0
v -135 -199 0
v -136 -199 0
v -136 -198 0
v -135 -198 0
v -121 -199 0
v -122 -199 0
v -122 -198 0
v -121 -198 0
v -119 -199 0
v -120 -199 0
v -120 -198 0
v -119 -198 0
v -118 -199 0
v -119 -199 0
v -119 -198 0
v -118 -198 0
v -117 -199 0
v -118 -199 0
v -118 -198 0
v -117 -198 0
v -116 -199 0
v -117 -199 0
v -117 -198 0
v -116 -198 0
v -115 -199 0
v -116 -199 0
v -116 -198 0
v -115 -198 0
v -114 -199 0
v -115 -199 0
v -115 -198 0
v -114 -198 0
v -142 -200 0
v -143 -200 0
v -143 -199 0
v -142 -199 0
v -141 -200 0
v -142 -200 0
v -142 -199 0
v -141 -199 0
v -140 -200 0
v -141 -200 0
v -141 -199 0
v -140 -199 0
v -139 -200 0
v -140 -200 0
v -140 -199 0
v -139 -199 0
v -138 -200 0
v -139 -200 0
v -139 -199 0
v -138 -199 0
v -137 -200 0
v -138 -200 0
v -138 -199 0
v -137 -199 0
v -136 -200 0
v -137 -200 0
v -137 -199 0
v -136 -199 0
v -135 -200 0
v -136 -200 0
v -136 -199 0
v -135 -199 0
v -121 -200 0
v -122 -200 0
v -122 -199 0
v -121 -199 0
v -119 -200 0
v -120 -200 0
v -120 -199 0
v -119 -199 0
v -118 -200 0
v -119 -200 0
v -119 -199 0
v -118 -199 0
v -117 -200 0
v -118 -200 0
v -118 -199 0
v -117 -199 0
v -116 -200 0
v -117 -200 0
v -117 -199 0
v -116 -199 0
v -115 -200 0
v -116 -200 0
v -116 -199 0
v -115 -199 0
v -114 -200 0
v -115 -200 0
v -115 -199 0
v -114 -199 0
v -63 -207 0
v -64 -207 0
v -64 -206 0
v -63 -206 0
v -61 -207 0
v -62 -207 0
v -62 -206 0
v -61 -206 0
v -56 -207 0
v -57 -207 0
v -57 -206 0
v -56 -206 0
v -54 -207 0
v -55 -207 0
v -55 -206 0
v -54 -206 0
v -63 -208 0
v -64 -208 0
v -64 -207 0
v -63 -207 0
v -61 -208 0
v -62 -208 0
v -62 -207 0
v -61 -207 0
v -56 -208 0
v -57 -208 0
v -57 -207 0
v -56 -207 0
v -54 -208 0
v -55 -208 0
v -55 -207 0
v -54 -207 0

# Texture cooridinates (Count = 56)
vt 0.3736264 0.8048781
vt 0.4615385 0.8048781
vt 0.4615385 1
vt 0.3736264 1
vt 0.3736264 0.597561
vt 0.4615385 0.597561
vt 0.4615385 0.7926829
vt 0.3736264 0.7926829
vt 0.6538461 0.8048781
vt 0.7417582 0.8048781
vt 0.7417582 1
vt 0.6538461 1
vt 0.6538461 0.597561
vt 0.7417582 0.597561
vt 0.7417582 0.7926829
vt 0.6538461 0.7926829
vt 0.0934066 0.8048781
vt 0.1813187 0.8048781
vt 0.1813187 1
vt 0.0934066 1
vt 0 0.8048781
vt 0.08791209 0.8048781
vt 0.08791209 1
vt 0 1
vt 0.0934066 0.597561
vt 0.1813187 0.597561
vt 0.1813187 0.7926829
vt 0.0934066 0.7926829
vt 0 0.597561
vt 0.08791209 0.597561
vt 0.08791209 0.7926829
vt 0 0.7926829
vt 0.2802198 0.8048781
vt 0.3681319 0.8048781
vt 0.3681319 1
vt 0.2802198 1
vt 0.8406593 0.8048781
vt 0.9285714 0.8048781
vt 0.9285714 1
vt 0.8406593 1
vt 0.7472528 0.8048781
vt 0.8351648 0.8048781
vt 0.8351648 1
vt 0.7472528 1
vt 0.2802198 0.597561
vt 0.3681319 0.597561
vt 0.3681319 0.7926829
vt 0.2802198 0.7926829
vt 0.8406593 0.597561
vt 0.9285714 0.597561
vt 0.9285714 0.7926829
vt 0.8406593 0.7926829
vt 0.7472528 0.597561
vt 0.8351648 0.597561
vt 0.8351648 0.7926829
vt 0.7472528 0.7926829

# Normal
vn 0 0 -1

# Mesh description
g tomathensBetaMap_mesh_0061

# Faces
f 1/1/1 2/2/1 3/3/1 4/4/1
f 5/5/1 6/6/1 7/7/1 8/8/1
f 9/9/1 10/10/1 11/11/1 12/12/1
f 13/13/1 14/14/1 15/15/1 16/16/1
f 17/17/1 18/18/1 19/19/1 20/20/1
f 21/21/1 22/22/1 23/23/1 24/24/1
f 25/1/1 26/2/1 27/3/1 28/4/1
f 29/1/1 30/2/1 31/3/1 32/4/1
f 33/17/1 34/18/1 35/19/1 36/20/1
f 37/21/1 38/22/1 39/23/1 40/24/1
f 41/25/1 42/26/1 43/27/1 44/28/1
f 45/29/1 46/30/1 47/31/1 48/32/1
f 49/5/1 50/6/1 51/7/1 52/8/1
f 53/5/1 54/6/1 55/7/1 56/8/1
f 57/25/1 58/26/1 59/27/1 60/28/1
f 61/29/1 62/30/1 63/31/1 64/32/1
f 65/1/1 66/2/1 67/3/1 68/4/1
f 69/5/1 70/6/1 71/7/1 72/8/1
f 73/1/1 74/2/1 75/3/1 76/4/1
f 77/1/1 78/2/1 79/3/1 80/4/1
f 81/1/1 82/2/1 83/3/1 84/4/1
f 85/5/1 86/6/1 87/7/1 88/8/1
f 89/5/1 90/6/1 91/7/1 92/8/1
f 93/5/1 94/6/1 95/7/1 96/8/1
f 97/1/1 98/2/1 99/3/1 100/4/1
f 101/1/1 102/2/1 103/3/1 104/4/1
f 105/5/1 106/6/1 107/7/1 108/8/1
f 109/5/1 110/6/1 111/7/1 112/8/1
f 113/1/1 114/2/1 115/3/1 116/4/1
f 117/1/1 118/2/1 119/3/1 120/4/1
f 121/5/1 122/6/1 123/7/1 124/8/1
f 125/5/1 126/6/1 127/7/1 128/8/1
f 129/33/1 130/34/1 131/35/1 132/36/1
f 133/37/1 134/38/1 135/39/1 136/40/1
f 137/41/1 138/42/1 139/43/1 140/44/1
f 141/41/1 142/42/1 143/43/1 144/44/1
f 145/9/1 146/10/1 147/11/1 148/12/1
f 149/33/1 150/34/1 151/35/1 152/36/1
f 153/37/1 154/38/1 155/39/1 156/40/1
f 157/41/1 158/42/1 159/43/1 160/44/1
f 161/41/1 162/42/1 163/43/1 164/44/1
f 165/9/1 166/10/1 167/11/1 168/12/1
f 169/33/1 170/34/1 171/35/1 172/36/1
f 173/45/1 174/46/1 175/47/1 176/48/1
f 177/49/1 178/50/1 179/51/1 180/52/1
f 181/53/1 182/54/1 183/55/1 184/56/1
f 185/53/1 186/54/1 187/55/1 188/56/1
f 189/13/1 190/14/1 191/15/1 192/16/1
f 193/45/1 194/46/1 195/47/1 196/48/1
f 197/49/1 198/50/1 199/51/1 200/52/1
f 201/53/1 202/54/1 203/55/1 204/56/1
f 205/53/1 206/54/1 207/55/1 208/56/1
f 209/13/1 210/14/1 211/15/1 212/16/1
f 213/45/1 214/46/1 215/47/1 216/48/1
f 217/33/1 218/34/1 219/35/1 220/36/1
f 221/37/1 222/38/1 223/39/1 224/40/1
f 225/41/1 226/42/1 227/43/1 228/44/1
f 229/41/1 230/42/1 231/43/1 232/44/1
f 233/41/1 234/42/1 235/43/1 236/44/1
f 237/41/1 238/42/1 239/43/1 240/44/1
f 241/9/1 242/10/1 243/11/1 244/12/1
f 245/33/1 246/34/1 247/35/1 248/36/1
f 249/33/1 250/34/1 251/35/1 252/36/1
f 253/41/1 254/42/1 255/43/1 256/44/1
f 257/41/1 258/42/1 259/43/1 260/44/1
f 261/41/1 262/42/1 263/43/1 264/44/1
f 265/41/1 266/42/1 267/43/1 268/44/1
f 269/9/1 270/10/1 271/11/1 272/12/1
f 273/33/1 274/34/1 275/35/1 276/36/1
f 277/45/1 278/46/1 279/47/1 280/48/1
f 281/49/1 282/50/1 283/51/1 284/52/1
f 285/53/1 286/54/1 287/55/1 288/56/1
f 289/53/1 290/54/1 291/55/1 292/56/1
f 293/53/1 294/54/1 295/55/1 296/56/1
f 297/53/1 298/54/1 299/55/1 300/56/1
f 301/13/1 302/14/1 303/15/1 304/16/1
f 305/45/1 306/46/1 307/47/1 308/48/1
f 309/45/1 310/46/1 311/47/1 312/48/1
f 313/53/1 314/54/1 315/55/1 316/56/1
f 317/53/1 318/54/1 319/55/1 320/56/1
f 321/53/1 322/54/1 323/55/1 324/56/1
f 325/53/1 326/54/1 327/55/1 328/56/1
f 329/13/1 330/14/1 331/15/1 332/16/1
f 333/45/1 334/46/1 335/47/1 336/48/1
f 337/33/1 338/34/1 339/35/1 340/36/1
f 341/33/1 342/34/1 343/35/1 344/36/1
f 345/33/1 346/34/1 347/35/1 348/36/1
f 349/33/1 350/34/1 351/35/1 352/36/1
f 353/45/1 354/46/1 355/47/1 356/48/1
f 357/45/1 358/46/1 359/47/1 360/48/1
f 361/45/1 362/46/1 363/47/1 364/48/1
f 365/45/1 366/46/1 367/47/1 368/48/1

