# Tiled2Unity generated file. Do not modify by hand.
# Wavefront file for 'tomathensBetaMap_mesh_0055.obj'

# Vertices (Count = 364)
v -173 -33 0
v -174 -33 0
v -174 -32 0
v -173 -32 0
v -172 -33 0
v -173 -33 0
v -173 -32 0
v -172 -32 0
v -159 -33 0
v -160 -33 0
v -160 -32 0
v -159 -32 0
v -158 -33 0
v -159 -33 0
v -159 -32 0
v -158 -32 0
v -173 -34 0
v -174 -34 0
v -174 -33 0
v -173 -33 0
v -172 -34 0
v -173 -34 0
v -173 -33 0
v -172 -33 0
v -159 -34 0
v -160 -34 0
v -160 -33 0
v -159 -33 0
v -158 -34 0
v -159 -34 0
v -159 -33 0
v -158 -33 0
v -173 -35 0
v -174 -35 0
v -174 -34 0
v -173 -34 0
v -172 -35 0
v -173 -35 0
v -173 -34 0
v -172 -34 0
v -159 -35 0
v -160 -35 0
v -160 -34 0
v -159 -34 0
v -158 -35 0
v -159 -35 0
v -159 -34 0
v -158 -34 0
v -136 -40 0
v -137 -40 0
v -137 -39 0
v -136 -39 0
v -135 -40 0
v -136 -40 0
v -136 -39 0
v -135 -39 0
v -136 -41 0
v -137 -41 0
v -137 -40 0
v -136 -40 0
v -135 -41 0
v -136 -41 0
v -136 -40 0
v -135 -40 0
v -136 -42 0
v -137 -42 0
v -137 -41 0
v -136 -41 0
v -135 -42 0
v -136 -42 0
v -136 -41 0
v -135 -41 0
v -90 -61 0
v -91 -61 0
v -91 -60 0
v -90 -60 0
v -89 -61 0
v -90 -61 0
v -90 -60 0
v -89 -60 0
v -90 -62 0
v -91 -62 0
v -91 -61 0
v -90 -61 0
v -89 -62 0
v -90 -62 0
v -90 -61 0
v -89 -61 0
v -90 -63 0
v -91 -63 0
v -91 -62 0
v -90 -62 0
v -89 -63 0
v -90 -63 0
v -90 -62 0
v -89 -62 0
v -76 -117 0
v -77 -117 0
v -77 -116 0
v -76 -116 0
v -75 -117 0
v -76 -117 0
v -76 -116 0
v -75 -116 0
v -76 -118 0
v -77 -118 0
v -77 -117 0
v -76 -117 0
v -75 -118 0
v -76 -118 0
v -76 -117 0
v -75 -117 0
v -76 -119 0
v -77 -119 0
v -77 -118 0
v -76 -118 0
v -75 -119 0
v -76 -119 0
v -76 -118 0
v -75 -118 0
v -80 -127 0
v -81 -127 0
v -81 -126 0
v -80 -126 0
v -79 -127 0
v -80 -127 0
v -80 -126 0
v -79 -126 0
v -80 -128 0
v -81 -128 0
v -81 -127 0
v -80 -127 0
v -79 -128 0
v -80 -128 0
v -80 -127 0
v -79 -127 0
v -80 -129 0
v -81 -129 0
v -81 -128 0
v -80 -128 0
v -79 -129 0
v -80 -129 0
v -80 -128 0
v -79 -128 0
v -110 -130 0
v -111 -130 0
v -111 -129 0
v -110 -129 0
v -109 -130 0
v -110 -130 0
v -110 -129 0
v -109 -129 0
v -110 -131 0
v -111 -131 0
v -111 -130 0
v -110 -130 0
v -109 -131 0
v -110 -131 0
v -110 -130 0
v -109 -130 0
v -110 -132 0
v -111 -132 0
v -111 -131 0
v -110 -131 0
v -109 -132 0
v -110 -132 0
v -110 -131 0
v -109 -131 0
v -116 -148 0
v -117 -148 0
v -117 -147 0
v -116 -147 0
v -115 -148 0
v -116 -148 0
v -116 -147 0
v -115 -147 0
v -141 -149 0
v -142 -149 0
v -142 -148 0
v -141 -148 0
v -140 -149 0
v -141 -149 0
v -141 -148 0
v -140 -148 0
v -116 -149 0
v -117 -149 0
v -117 -148 0
v -116 -148 0
v -115 -149 0
v -116 -149 0
v -116 -148 0
v -115 -148 0
v -141 -150 0
v -142 -150 0
v -142 -149 0
v -141 -149 0
v -140 -150 0
v -141 -150 0
v -141 -149 0
v -140 -149 0
v -116 -150 0
v -117 -150 0
v -117 -149 0
v -116 -149 0
v -115 -150 0
v -116 -150 0
v -116 -149 0
v -115 -149 0
v -141 -151 0
v -142 -151 0
v -142 -150 0
v -141 -150 0
v -140 -151 0
v -141 -151 0
v -141 -150 0
v -140 -150 0
v -156 -217 0
v -157 -217 0
v -157 -216 0
v -156 -216 0
v -155 -217 0
v -156 -217 0
v -156 -216 0
v -155 -216 0
v -156 -218 0
v -157 -218 0
v -157 -217 0
v -156 -217 0
v -155 -218 0
v -156 -218 0
v -156 -217 0
v -155 -217 0
v -156 -219 0
v -157 -219 0
v -157 -218 0
v -156 -218 0
v -155 -219 0
v -156 -219 0
v -156 -218 0
v -155 -218 0
v -149 -222 0
v -150 -222 0
v -150 -221 0
v -149 -221 0
v -148 -222 0
v -149 -222 0
v -149 -221 0
v -148 -221 0
v -149 -223 0
v -150 -223 0
v -150 -222 0
v -149 -222 0
v -148 -223 0
v -149 -223 0
v -149 -222 0
v -148 -222 0
v -149 -224 0
v -150 -224 0
v -150 -223 0
v -149 -223 0
v -148 -224 0
v -149 -224 0
v -149 -223 0
v -148 -223 0
v -140 -237 0
v -141 -237 0
v -141 -236 0
v -140 -236 0
v -139 -237 0
v -140 -237 0
v -140 -236 0
v -139 -236 0
v -104 -237 0
v -105 -237 0
v -105 -236 0
v -104 -236 0
v -103 -237 0
v -104 -237 0
v -104 -236 0
v -103 -236 0
v -102 -237 0
v -103 -237 0
v -103 -236 0
v -102 -236 0
v -101 -237 0
v -102 -237 0
v -102 -236 0
v -101 -236 0
v -145 -238 0
v -146 -238 0
v -146 -237 0
v -145 -237 0
v -140 -238 0
v -141 -238 0
v -141 -237 0
v -140 -237 0
v -139 -238 0
v -140 -238 0
v -140 -237 0
v -139 -237 0
v -104 -238 0
v -105 -238 0
v -105 -237 0
v -104 -237 0
v -103 -238 0
v -104 -238 0
v -104 -237 0
v -103 -237 0
v -102 -238 0
v -103 -238 0
v -103 -237 0
v -102 -237 0
v -101 -238 0
v -102 -238 0
v -102 -237 0
v -101 -237 0
v -100 -238 0
v -101 -238 0
v -101 -237 0
v -100 -237 0
v -99 -238 0
v -100 -238 0
v -100 -237 0
v -99 -237 0
v -140 -239 0
v -141 -239 0
v -141 -238 0
v -140 -238 0
v -139 -239 0
v -140 -239 0
v -140 -238 0
v -139 -238 0
v -104 -239 0
v -105 -239 0
v -105 -238 0
v -104 -238 0
v -103 -239 0
v -104 -239 0
v -104 -238 0
v -103 -238 0
v -102 -239 0
v -103 -239 0
v -103 -238 0
v -102 -238 0
v -101 -239 0
v -102 -239 0
v -102 -238 0
v -101 -238 0
v -100 -239 0
v -101 -239 0
v -101 -238 0
v -100 -238 0
v -99 -239 0
v -100 -239 0
v -100 -238 0
v -99 -238 0
v -100 -240 0
v -101 -240 0
v -101 -239 0
v -100 -239 0
v -99 -240 0
v -100 -240 0
v -100 -239 0
v -99 -239 0

# Texture cooridinates (Count = 24)
vt 0.0720339 0.936
vt 0.1398305 0.936
vt 0.1398305 1
vt 0.0720339 1
vt 0 0.936
vt 0.06779661 0.936
vt 0.06779661 1
vt 0 1
vt 0.0720339 0.868
vt 0.1398305 0.868
vt 0.1398305 0.932
vt 0.0720339 0.932
vt 0 0.868
vt 0.06779661 0.868
vt 0.06779661 0.932
vt 0 0.932
vt 0.0720339 0.8
vt 0.1398305 0.8
vt 0.1398305 0.864
vt 0.0720339 0.864
vt 0 0.8
vt 0.06779661 0.8
vt 0.06779661 0.864
vt 0 0.864

# Normal
vn 0 0 -1

# Mesh description
g tomathensBetaMap_mesh_0055

# Faces
f 1/1/1 2/2/1 3/3/1 4/4/1
f 5/5/1 6/6/1 7/7/1 8/8/1
f 9/1/1 10/2/1 11/3/1 12/4/1
f 13/5/1 14/6/1 15/7/1 16/8/1
f 17/9/1 18/10/1 19/11/1 20/12/1
f 21/13/1 22/14/1 23/15/1 24/16/1
f 25/9/1 26/10/1 27/11/1 28/12/1
f 29/13/1 30/14/1 31/15/1 32/16/1
f 33/17/1 34/18/1 35/19/1 36/20/1
f 37/21/1 38/22/1 39/23/1 40/24/1
f 41/17/1 42/18/1 43/19/1 44/20/1
f 45/21/1 46/22/1 47/23/1 48/24/1
f 49/1/1 50/2/1 51/3/1 52/4/1
f 53/5/1 54/6/1 55/7/1 56/8/1
f 57/9/1 58/10/1 59/11/1 60/12/1
f 61/13/1 62/14/1 63/15/1 64/16/1
f 65/17/1 66/18/1 67/19/1 68/20/1
f 69/21/1 70/22/1 71/23/1 72/24/1
f 73/1/1 74/2/1 75/3/1 76/4/1
f 77/5/1 78/6/1 79/7/1 80/8/1
f 81/9/1 82/10/1 83/11/1 84/12/1
f 85/13/1 86/14/1 87/15/1 88/16/1
f 89/17/1 90/18/1 91/19/1 92/20/1
f 93/21/1 94/22/1 95/23/1 96/24/1
f 97/1/1 98/2/1 99/3/1 100/4/1
f 101/5/1 102/6/1 103/7/1 104/8/1
f 105/9/1 106/10/1 107/11/1 108/12/1
f 109/13/1 110/14/1 111/15/1 112/16/1
f 113/17/1 114/18/1 115/19/1 116/20/1
f 117/21/1 118/22/1 119/23/1 120/24/1
f 121/1/1 122/2/1 123/3/1 124/4/1
f 125/5/1 126/6/1 127/7/1 128/8/1
f 129/9/1 130/10/1 131/11/1 132/12/1
f 133/13/1 134/14/1 135/15/1 136/16/1
f 137/17/1 138/18/1 139/19/1 140/20/1
f 141/21/1 142/22/1 143/23/1 144/24/1
f 145/1/1 146/2/1 147/3/1 148/4/1
f 149/5/1 150/6/1 151/7/1 152/8/1
f 153/9/1 154/10/1 155/11/1 156/12/1
f 157/13/1 158/14/1 159/15/1 160/16/1
f 161/17/1 162/18/1 163/19/1 164/20/1
f 165/21/1 166/22/1 167/23/1 168/24/1
f 169/1/1 170/2/1 171/3/1 172/4/1
f 173/5/1 174/6/1 175/7/1 176/8/1
f 177/1/1 178/2/1 179/3/1 180/4/1
f 181/5/1 182/6/1 183/7/1 184/8/1
f 185/9/1 186/10/1 187/11/1 188/12/1
f 189/13/1 190/14/1 191/15/1 192/16/1
f 193/9/1 194/10/1 195/11/1 196/12/1
f 197/13/1 198/14/1 199/15/1 200/16/1
f 201/17/1 202/18/1 203/19/1 204/20/1
f 205/21/1 206/22/1 207/23/1 208/24/1
f 209/17/1 210/18/1 211/19/1 212/20/1
f 213/21/1 214/22/1 215/23/1 216/24/1
f 217/1/1 218/2/1 219/3/1 220/4/1
f 221/5/1 222/6/1 223/7/1 224/8/1
f 225/9/1 226/10/1 227/11/1 228/12/1
f 229/13/1 230/14/1 231/15/1 232/16/1
f 233/17/1 234/18/1 235/19/1 236/20/1
f 237/21/1 238/22/1 239/23/1 240/24/1
f 241/1/1 242/2/1 243/3/1 244/4/1
f 245/5/1 246/6/1 247/7/1 248/8/1
f 249/9/1 250/10/1 251/11/1 252/12/1
f 253/13/1 254/14/1 255/15/1 256/16/1
f 257/17/1 258/18/1 259/19/1 260/20/1
f 261/21/1 262/22/1 263/23/1 264/24/1
f 265/1/1 266/2/1 267/3/1 268/4/1
f 269/5/1 270/6/1 271/7/1 272/8/1
f 273/1/1 274/2/1 275/3/1 276/4/1
f 277/5/1 278/6/1 279/7/1 280/8/1
f 281/1/1 282/2/1 283/3/1 284/4/1
f 285/5/1 286/6/1 287/7/1 288/8/1
f 289/5/1 290/6/1 291/7/1 292/8/1
f 293/9/1 294/10/1 295/11/1 296/12/1
f 297/13/1 298/14/1 299/15/1 300/16/1
f 301/9/1 302/10/1 303/11/1 304/12/1
f 305/13/1 306/14/1 307/15/1 308/16/1
f 309/9/1 310/10/1 311/11/1 312/12/1
f 313/13/1 314/14/1 315/15/1 316/16/1
f 317/1/1 318/2/1 319/3/1 320/4/1
f 321/5/1 322/6/1 323/7/1 324/8/1
f 325/17/1 326/18/1 327/19/1 328/20/1
f 329/21/1 330/22/1 331/23/1 332/24/1
f 333/17/1 334/18/1 335/19/1 336/20/1
f 337/21/1 338/22/1 339/23/1 340/24/1
f 341/17/1 342/18/1 343/19/1 344/20/1
f 345/21/1 346/22/1 347/23/1 348/24/1
f 349/9/1 350/10/1 351/11/1 352/12/1
f 353/13/1 354/14/1 355/15/1 356/16/1
f 357/17/1 358/18/1 359/19/1 360/20/1
f 361/21/1 362/22/1 363/23/1 364/24/1

