# Tiled2Unity generated file. Do not modify by hand.
# Wavefront file for 'tomathensBetaMap_mesh_0097.obj'

# Vertices (Count = 584)
v -133 -24 0
v -134 -24 0
v -134 -23 0
v -133 -23 0
v -133 -25 0
v -134 -25 0
v -134 -24 0
v -133 -24 0
v -151 -97 0
v -152 -97 0
v -152 -96 0
v -151 -96 0
v -150 -97 0
v -151 -97 0
v -151 -96 0
v -150 -96 0
v -151 -98 0
v -152 -98 0
v -152 -97 0
v -151 -97 0
v -150 -98 0
v -151 -98 0
v -151 -97 0
v -150 -97 0
v -194 -107 0
v -195 -107 0
v -195 -106 0
v -194 -106 0
v -185 -107 0
v -186 -107 0
v -186 -106 0
v -185 -106 0
v -194 -108 0
v -195 -108 0
v -195 -107 0
v -194 -107 0
v -185 -108 0
v -186 -108 0
v -186 -107 0
v -185 -107 0
v -72 -108 0
v -73 -108 0
v -73 -107 0
v -72 -107 0
v -71 -108 0
v -72 -108 0
v -72 -107 0
v -71 -107 0
v -70 -108 0
v -71 -108 0
v -71 -107 0
v -70 -107 0
v -69 -108 0
v -70 -108 0
v -70 -107 0
v -69 -107 0
v -68 -108 0
v -69 -108 0
v -69 -107 0
v -68 -107 0
v -67 -108 0
v -68 -108 0
v -68 -107 0
v -67 -107 0
v -66 -108 0
v -67 -108 0
v -67 -107 0
v -66 -107 0
v -65 -108 0
v -66 -108 0
v -66 -107 0
v -65 -107 0
v -64 -108 0
v -65 -108 0
v -65 -107 0
v -64 -107 0
v -63 -108 0
v -64 -108 0
v -64 -107 0
v -63 -107 0
v -62 -108 0
v -63 -108 0
v -63 -107 0
v -62 -107 0
v -72 -109 0
v -73 -109 0
v -73 -108 0
v -72 -108 0
v -71 -109 0
v -72 -109 0
v -72 -108 0
v -71 -108 0
v -70 -109 0
v -71 -109 0
v -71 -108 0
v -70 -108 0
v -69 -109 0
v -70 -109 0
v -70 -108 0
v -69 -108 0
v -68 -109 0
v -69 -109 0
v -69 -108 0
v -68 -108 0
v -67 -109 0
v -68 -109 0
v -68 -108 0
v -67 -108 0
v -66 -109 0
v -67 -109 0
v -67 -108 0
v -66 -108 0
v -65 -109 0
v -66 -109 0
v -66 -108 0
v -65 -108 0
v -64 -109 0
v -65 -109 0
v -65 -108 0
v -64 -108 0
v -63 -109 0
v -64 -109 0
v -64 -108 0
v -63 -108 0
v -62 -109 0
v -63 -109 0
v -63 -108 0
v -62 -108 0
v -133 -153 0
v -134 -153 0
v -134 -152 0
v -133 -152 0
v -130 -153 0
v -131 -153 0
v -131 -152 0
v -130 -152 0
v -127 -153 0
v -128 -153 0
v -128 -152 0
v -127 -152 0
v -124 -153 0
v -125 -153 0
v -125 -152 0
v -124 -152 0
v -155 -173 0
v -156 -173 0
v -156 -172 0
v -155 -172 0
v -154 -173 0
v -155 -173 0
v -155 -172 0
v -154 -172 0
v -153 -173 0
v -154 -173 0
v -154 -172 0
v -153 -172 0
v -152 -173 0
v -153 -173 0
v -153 -172 0
v -152 -172 0
v -151 -173 0
v -152 -173 0
v -152 -172 0
v -151 -172 0
v -150 -173 0
v -151 -173 0
v -151 -172 0
v -150 -172 0
v -149 -173 0
v -150 -173 0
v -150 -172 0
v -149 -172 0
v -107 -173 0
v -108 -173 0
v -108 -172 0
v -107 -172 0
v -106 -173 0
v -107 -173 0
v -107 -172 0
v -106 -172 0
v -105 -173 0
v -106 -173 0
v -106 -172 0
v -105 -172 0
v -104 -173 0
v -105 -173 0
v -105 -172 0
v -104 -172 0
v -103 -173 0
v -104 -173 0
v -104 -172 0
v -103 -172 0
v -102 -173 0
v -103 -173 0
v -103 -172 0
v -102 -172 0
v -101 -173 0
v -102 -173 0
v -102 -172 0
v -101 -172 0
v -100 -173 0
v -101 -173 0
v -101 -172 0
v -100 -172 0
v -155 -174 0
v -156 -174 0
v -156 -173 0
v -155 -173 0
v -154 -174 0
v -155 -174 0
v -155 -173 0
v -154 -173 0
v -153 -174 0
v -154 -174 0
v -154 -173 0
v -153 -173 0
v -152 -174 0
v -153 -174 0
v -153 -173 0
v -152 -173 0
v -151 -174 0
v -152 -174 0
v -152 -173 0
v -151 -173 0
v -150 -174 0
v -151 -174 0
v -151 -173 0
v -150 -173 0
v -149 -174 0
v -150 -174 0
v -150 -173 0
v -149 -173 0
v -107 -174 0
v -108 -174 0
v -108 -173 0
v -107 -173 0
v -106 -174 0
v -107 -174 0
v -107 -173 0
v -106 -173 0
v -105 -174 0
v -106 -174 0
v -106 -173 0
v -105 -173 0
v -104 -174 0
v -105 -174 0
v -105 -173 0
v -104 -173 0
v -103 -174 0
v -104 -174 0
v -104 -173 0
v -103 -173 0
v -102 -174 0
v -103 -174 0
v -103 -173 0
v -102 -173 0
v -101 -174 0
v -102 -174 0
v -102 -173 0
v -101 -173 0
v -100 -174 0
v -101 -174 0
v -101 -173 0
v -100 -173 0
v -226 -187 0
v -227 -187 0
v -227 -186 0
v -226 -186 0
v -217 -187 0
v -218 -187 0
v -218 -186 0
v -217 -186 0
v -226 -188 0
v -227 -188 0
v -227 -187 0
v -226 -187 0
v -217 -188 0
v -218 -188 0
v -218 -187 0
v -217 -187 0
v -228 -209 0
v -229 -209 0
v -229 -208 0
v -228 -208 0
v -227 -209 0
v -228 -209 0
v -228 -208 0
v -227 -208 0
v -226 -209 0
v -227 -209 0
v -227 -208 0
v -226 -208 0
v -225 -209 0
v -226 -209 0
v -226 -208 0
v -225 -208 0
v -224 -209 0
v -225 -209 0
v -225 -208 0
v -224 -208 0
v -223 -209 0
v -224 -209 0
v -224 -208 0
v -223 -208 0
v -222 -209 0
v -223 -209 0
v -223 -208 0
v -222 -208 0
v -221 -209 0
v -222 -209 0
v -222 -208 0
v -221 -208 0
v -220 -209 0
v -221 -209 0
v -221 -208 0
v -220 -208 0
v -219 -209 0
v -220 -209 0
v -220 -208 0
v -219 -208 0
v -218 -209 0
v -219 -209 0
v -219 -208 0
v -218 -208 0
v -217 -209 0
v -218 -209 0
v -218 -208 0
v -217 -208 0
v -216 -209 0
v -217 -209 0
v -217 -208 0
v -216 -208 0
v -215 -209 0
v -216 -209 0
v -216 -208 0
v -215 -208 0
v -228 -210 0
v -229 -210 0
v -229 -209 0
v -228 -209 0
v -227 -210 0
v -228 -210 0
v -228 -209 0
v -227 -209 0
v -226 -210 0
v -227 -210 0
v -227 -209 0
v -226 -209 0
v -225 -210 0
v -226 -210 0
v -226 -209 0
v -225 -209 0
v -224 -210 0
v -225 -210 0
v -225 -209 0
v -224 -209 0
v -223 -210 0
v -224 -210 0
v -224 -209 0
v -223 -209 0
v -222 -210 0
v -223 -210 0
v -223 -209 0
v -222 -209 0
v -221 -210 0
v -222 -210 0
v -222 -209 0
v -221 -209 0
v -220 -210 0
v -221 -210 0
v -221 -209 0
v -220 -209 0
v -219 -210 0
v -220 -210 0
v -220 -209 0
v -219 -209 0
v -218 -210 0
v -219 -210 0
v -219 -209 0
v -218 -209 0
v -217 -210 0
v -218 -210 0
v -218 -209 0
v -217 -209 0
v -216 -210 0
v -217 -210 0
v -217 -209 0
v -216 -209 0
v -215 -210 0
v -216 -210 0
v -216 -209 0
v -215 -209 0
v -68 -238 0
v -69 -238 0
v -69 -237 0
v -68 -237 0
v -67 -238 0
v -68 -238 0
v -68 -237 0
v -67 -237 0
v -66 -238 0
v -67 -238 0
v -67 -237 0
v -66 -237 0
v -65 -238 0
v -66 -238 0
v -66 -237 0
v -65 -237 0
v -64 -238 0
v -65 -238 0
v -65 -237 0
v -64 -237 0
v -63 -238 0
v -64 -238 0
v -64 -237 0
v -63 -237 0
v -62 -238 0
v -63 -238 0
v -63 -237 0
v -62 -237 0
v -61 -238 0
v -62 -238 0
v -62 -237 0
v -61 -237 0
v -60 -238 0
v -61 -238 0
v -61 -237 0
v -60 -237 0
v -59 -238 0
v -60 -238 0
v -60 -237 0
v -59 -237 0
v -45 -238 0
v -46 -238 0
v -46 -237 0
v -45 -237 0
v -44 -238 0
v -45 -238 0
v -45 -237 0
v -44 -237 0
v -43 -238 0
v -44 -238 0
v -44 -237 0
v -43 -237 0
v -42 -238 0
v -43 -238 0
v -43 -237 0
v -42 -237 0
v -41 -238 0
v -42 -238 0
v -42 -237 0
v -41 -237 0
v -40 -238 0
v -41 -238 0
v -41 -237 0
v -40 -237 0
v -39 -238 0
v -40 -238 0
v -40 -237 0
v -39 -237 0
v -38 -238 0
v -39 -238 0
v -39 -237 0
v -38 -237 0
v -37 -238 0
v -38 -238 0
v -38 -237 0
v -37 -237 0
v -36 -238 0
v -37 -238 0
v -37 -237 0
v -36 -237 0
v -35 -238 0
v -36 -238 0
v -36 -237 0
v -35 -237 0
v -34 -238 0
v -35 -238 0
v -35 -237 0
v -34 -237 0
v -33 -238 0
v -34 -238 0
v -34 -237 0
v -33 -237 0
v -32 -238 0
v -33 -238 0
v -33 -237 0
v -32 -237 0
v -68 -239 0
v -69 -239 0
v -69 -238 0
v -68 -238 0
v -67 -239 0
v -68 -239 0
v -68 -238 0
v -67 -238 0
v -66 -239 0
v -67 -239 0
v -67 -238 0
v -66 -238 0
v -65 -239 0
v -66 -239 0
v -66 -238 0
v -65 -238 0
v -64 -239 0
v -65 -239 0
v -65 -238 0
v -64 -238 0
v -63 -239 0
v -64 -239 0
v -64 -238 0
v -63 -238 0
v -62 -239 0
v -63 -239 0
v -63 -238 0
v -62 -238 0
v -61 -239 0
v -62 -239 0
v -62 -238 0
v -61 -238 0
v -60 -239 0
v -61 -239 0
v -61 -238 0
v -60 -238 0
v -59 -239 0
v -60 -239 0
v -60 -238 0
v -59 -238 0
v -45 -239 0
v -46 -239 0
v -46 -238 0
v -45 -238 0
v -44 -239 0
v -45 -239 0
v -45 -238 0
v -44 -238 0
v -43 -239 0
v -44 -239 0
v -44 -238 0
v -43 -238 0
v -42 -239 0
v -43 -239 0
v -43 -238 0
v -42 -238 0
v -41 -239 0
v -42 -239 0
v -42 -238 0
v -41 -238 0
v -40 -239 0
v -41 -239 0
v -41 -238 0
v -40 -238 0
v -39 -239 0
v -40 -239 0
v -40 -238 0
v -39 -238 0
v -38 -239 0
v -39 -239 0
v -39 -238 0
v -38 -238 0
v -37 -239 0
v -38 -239 0
v -38 -238 0
v -37 -238 0
v -36 -239 0
v -37 -239 0
v -37 -238 0
v -36 -238 0
v -35 -239 0
v -36 -239 0
v -36 -238 0
v -35 -238 0
v -34 -239 0
v -35 -239 0
v -35 -238 0
v -34 -238 0
v -33 -239 0
v -34 -239 0
v -34 -238 0
v -33 -238 0
v -32 -239 0
v -33 -239 0
v -33 -238 0
v -32 -238 0

# Texture cooridinates (Count = 96)
vt 0.09470752 0.9077491
vt 0.1169916 0.9077491
vt 0.1169916 0.9372694
vt 0.09470752 0.9372694
vt 0.09470752 0.8763838
vt 0.1169916 0.8763838
vt 0.1169916 0.9059041
vt 0.09470752 0.9059041
vt 0.02367688 0.9704797
vt 0.045961 0.9704797
vt 0.045961 1
vt 0.02367688 1
vt 0 0.9704797
vt 0.02228412 0.9704797
vt 0.02228412 1
vt 0 1
vt 0.02367688 0.9391144
vt 0.045961 0.9391144
vt 0.045961 0.9686347
vt 0.02367688 0.9686347
vt 0 0.9391144
vt 0.02228412 0.9391144
vt 0.02228412 0.9686347
vt 0 0.9686347
vt 0.2130919 0.9704797
vt 0.235376 0.9704797
vt 0.235376 1
vt 0.2130919 1
vt 0.1657382 0.9704797
vt 0.1880223 0.9704797
vt 0.1880223 1
vt 0.1657382 1
vt 0.2130919 0.9391144
vt 0.235376 0.9391144
vt 0.235376 0.9686347
vt 0.2130919 0.9686347
vt 0.1657382 0.9391144
vt 0.1880223 0.9391144
vt 0.1880223 0.9686347
vt 0.1657382 0.9686347
vt 0.189415 0.9704797
vt 0.2116992 0.9704797
vt 0.2116992 1
vt 0.189415 1
vt 0.189415 0.9391144
vt 0.2116992 0.9391144
vt 0.2116992 0.9686347
vt 0.189415 0.9686347
vt 0.02367688 0.9077491
vt 0.045961 0.9077491
vt 0.045961 0.9372694
vt 0.02367688 0.9372694
vt 0.07103064 0.9077491
vt 0.09331477 0.9077491
vt 0.09331477 0.9372694
vt 0.07103064 0.9372694
vt 0.1183844 0.9704797
vt 0.1406685 0.9704797
vt 0.1406685 1
vt 0.1183844 1
vt 0.02367688 0.8763838
vt 0.045961 0.8763838
vt 0.045961 0.9059041
vt 0.02367688 0.9059041
vt 0.07103064 0.8763838
vt 0.09331477 0.8763838
vt 0.09331477 0.9059041
vt 0.07103064 0.9059041
vt 0.1183844 0.9391144
vt 0.1406685 0.9391144
vt 0.1406685 0.9686347
vt 0.1183844 0.9686347
vt 0.1657382 0.6881919
vt 0.1880223 0.6881919
vt 0.1880223 0.7177122
vt 0.1657382 0.7177122
vt 0.1420613 0.6881919
vt 0.1643454 0.6881919
vt 0.1643454 0.7177122
vt 0.1420613 0.7177122
vt 0.189415 0.6881919
vt 0.2116992 0.6881919
vt 0.2116992 0.7177122
vt 0.189415 0.7177122
vt 0.1657382 0.6568266
vt 0.1880223 0.6568266
vt 0.1880223 0.6863469
vt 0.1657382 0.6863469
vt 0.1420613 0.6568266
vt 0.1643454 0.6568266
vt 0.1643454 0.6863469
vt 0.1420613 0.6863469
vt 0.189415 0.6568266
vt 0.2116992 0.6568266
vt 0.2116992 0.6863469
vt 0.189415 0.6863469

# Normal
vn 0 0 -1

# Mesh description
g tomathensBetaMap_mesh_0097

# Faces
f 1/1/1 2/2/1 3/3/1 4/4/1
f 5/5/1 6/6/1 7/7/1 8/8/1
f 9/9/1 10/10/1 11/11/1 12/12/1
f 13/13/1 14/14/1 15/15/1 16/16/1
f 17/17/1 18/18/1 19/19/1 20/20/1
f 21/21/1 22/22/1 23/23/1 24/24/1
f 25/25/1 26/26/1 27/27/1 28/28/1
f 29/29/1 30/30/1 31/31/1 32/32/1
f 33/33/1 34/34/1 35/35/1 36/36/1
f 37/37/1 38/38/1 39/39/1 40/40/1
f 41/25/1 42/26/1 43/27/1 44/28/1
f 45/41/1 46/42/1 47/43/1 48/44/1
f 49/41/1 50/42/1 51/43/1 52/44/1
f 53/41/1 54/42/1 55/43/1 56/44/1
f 57/41/1 58/42/1 59/43/1 60/44/1
f 61/41/1 62/42/1 63/43/1 64/44/1
f 65/41/1 66/42/1 67/43/1 68/44/1
f 69/41/1 70/42/1 71/43/1 72/44/1
f 73/41/1 74/42/1 75/43/1 76/44/1
f 77/41/1 78/42/1 79/43/1 80/44/1
f 81/29/1 82/30/1 83/31/1 84/32/1
f 85/33/1 86/34/1 87/35/1 88/36/1
f 89/45/1 90/46/1 91/47/1 92/48/1
f 93/45/1 94/46/1 95/47/1 96/48/1
f 97/45/1 98/46/1 99/47/1 100/48/1
f 101/45/1 102/46/1 103/47/1 104/48/1
f 105/45/1 106/46/1 107/47/1 108/48/1
f 109/45/1 110/46/1 111/47/1 112/48/1
f 113/45/1 114/46/1 115/47/1 116/48/1
f 117/45/1 118/46/1 119/47/1 120/48/1
f 121/45/1 122/46/1 123/47/1 124/48/1
f 125/37/1 126/38/1 127/39/1 128/40/1
f 129/25/1 130/26/1 131/27/1 132/28/1
f 133/29/1 134/30/1 135/31/1 136/32/1
f 137/25/1 138/26/1 139/27/1 140/28/1
f 141/29/1 142/30/1 143/31/1 144/32/1
f 145/49/1 146/50/1 147/51/1 148/52/1
f 149/53/1 150/54/1 151/55/1 152/56/1
f 153/49/1 154/50/1 155/51/1 156/52/1
f 157/57/1 158/58/1 159/59/1 160/60/1
f 161/49/1 162/50/1 163/51/1 164/52/1
f 165/53/1 166/54/1 167/55/1 168/56/1
f 169/49/1 170/50/1 171/51/1 172/52/1
f 173/49/1 174/50/1 175/51/1 176/52/1
f 177/53/1 178/54/1 179/55/1 180/56/1
f 181/49/1 182/50/1 183/51/1 184/52/1
f 185/57/1 186/58/1 187/59/1 188/60/1
f 189/57/1 190/58/1 191/59/1 192/60/1
f 193/49/1 194/50/1 195/51/1 196/52/1
f 197/53/1 198/54/1 199/55/1 200/56/1
f 201/49/1 202/50/1 203/51/1 204/52/1
f 205/61/1 206/62/1 207/63/1 208/64/1
f 209/65/1 210/66/1 211/67/1 212/68/1
f 213/61/1 214/62/1 215/63/1 216/64/1
f 217/69/1 218/70/1 219/71/1 220/72/1
f 221/61/1 222/62/1 223/63/1 224/64/1
f 225/65/1 226/66/1 227/67/1 228/68/1
f 229/61/1 230/62/1 231/63/1 232/64/1
f 233/61/1 234/62/1 235/63/1 236/64/1
f 237/65/1 238/66/1 239/67/1 240/68/1
f 241/61/1 242/62/1 243/63/1 244/64/1
f 245/69/1 246/70/1 247/71/1 248/72/1
f 249/69/1 250/70/1 251/71/1 252/72/1
f 253/61/1 254/62/1 255/63/1 256/64/1
f 257/65/1 258/66/1 259/67/1 260/68/1
f 261/61/1 262/62/1 263/63/1 264/64/1
f 265/1/1 266/2/1 267/3/1 268/4/1
f 269/1/1 270/2/1 271/3/1 272/4/1
f 273/5/1 274/6/1 275/7/1 276/8/1
f 277/5/1 278/6/1 279/7/1 280/8/1
f 281/9/1 282/10/1 283/11/1 284/12/1
f 285/13/1 286/14/1 287/15/1 288/16/1
f 289/1/1 290/2/1 291/3/1 292/4/1
f 293/9/1 294/10/1 295/11/1 296/12/1
f 297/13/1 298/14/1 299/15/1 300/16/1
f 301/1/1 302/2/1 303/3/1 304/4/1
f 305/9/1 306/10/1 307/11/1 308/12/1
f 309/13/1 310/14/1 311/15/1 312/16/1
f 313/1/1 314/2/1 315/3/1 316/4/1
f 317/9/1 318/10/1 319/11/1 320/12/1
f 321/13/1 322/14/1 323/15/1 324/16/1
f 325/1/1 326/2/1 327/3/1 328/4/1
f 329/9/1 330/10/1 331/11/1 332/12/1
f 333/13/1 334/14/1 335/15/1 336/16/1
f 337/17/1 338/18/1 339/19/1 340/20/1
f 341/21/1 342/22/1 343/23/1 344/24/1
f 345/5/1 346/6/1 347/7/1 348/8/1
f 349/17/1 350/18/1 351/19/1 352/20/1
f 353/21/1 354/22/1 355/23/1 356/24/1
f 357/5/1 358/6/1 359/7/1 360/8/1
f 361/17/1 362/18/1 363/19/1 364/20/1
f 365/21/1 366/22/1 367/23/1 368/24/1
f 369/5/1 370/6/1 371/7/1 372/8/1
f 373/17/1 374/18/1 375/19/1 376/20/1
f 377/21/1 378/22/1 379/23/1 380/24/1
f 381/5/1 382/6/1 383/7/1 384/8/1
f 385/17/1 386/18/1 387/19/1 388/20/1
f 389/21/1 390/22/1 391/23/1 392/24/1
f 393/73/1 394/74/1 395/75/1 396/76/1
f 397/73/1 398/74/1 399/75/1 400/76/1
f 401/73/1 402/74/1 403/75/1 404/76/1
f 405/73/1 406/74/1 407/75/1 408/76/1
f 409/73/1 410/74/1 411/75/1 412/76/1
f 413/73/1 414/74/1 415/75/1 416/76/1
f 417/73/1 418/74/1 419/75/1 420/76/1
f 421/73/1 422/74/1 423/75/1 424/76/1
f 425/73/1 426/74/1 427/75/1 428/76/1
f 429/77/1 430/78/1 431/79/1 432/80/1
f 433/81/1 434/82/1 435/83/1 436/84/1
f 437/73/1 438/74/1 439/75/1 440/76/1
f 441/73/1 442/74/1 443/75/1 444/76/1
f 445/73/1 446/74/1 447/75/1 448/76/1
f 449/73/1 450/74/1 451/75/1 452/76/1
f 453/73/1 454/74/1 455/75/1 456/76/1
f 457/73/1 458/74/1 459/75/1 460/76/1
f 461/73/1 462/74/1 463/75/1 464/76/1
f 465/73/1 466/74/1 467/75/1 468/76/1
f 469/73/1 470/74/1 471/75/1 472/76/1
f 473/73/1 474/74/1 475/75/1 476/76/1
f 477/73/1 478/74/1 479/75/1 480/76/1
f 481/73/1 482/74/1 483/75/1 484/76/1
f 485/77/1 486/78/1 487/79/1 488/80/1
f 489/85/1 490/86/1 491/87/1 492/88/1
f 493/85/1 494/86/1 495/87/1 496/88/1
f 497/85/1 498/86/1 499/87/1 500/88/1
f 501/85/1 502/86/1 503/87/1 504/88/1
f 505/85/1 506/86/1 507/87/1 508/88/1
f 509/85/1 510/86/1 511/87/1 512/88/1
f 513/85/1 514/86/1 515/87/1 516/88/1
f 517/85/1 518/86/1 519/87/1 520/88/1
f 521/85/1 522/86/1 523/87/1 524/88/1
f 525/89/1 526/90/1 527/91/1 528/92/1
f 529/93/1 530/94/1 531/95/1 532/96/1
f 533/85/1 534/86/1 535/87/1 536/88/1
f 537/85/1 538/86/1 539/87/1 540/88/1
f 541/85/1 542/86/1 543/87/1 544/88/1
f 545/85/1 546/86/1 547/87/1 548/88/1
f 549/85/1 550/86/1 551/87/1 552/88/1
f 553/85/1 554/86/1 555/87/1 556/88/1
f 557/85/1 558/86/1 559/87/1 560/88/1
f 561/85/1 562/86/1 563/87/1 564/88/1
f 565/85/1 566/86/1 567/87/1 568/88/1
f 569/85/1 570/86/1 571/87/1 572/88/1
f 573/85/1 574/86/1 575/87/1 576/88/1
f 577/85/1 578/86/1 579/87/1 580/88/1
f 581/89/1 582/90/1 583/91/1 584/92/1

