# Tiled2Unity generated file. Do not modify by hand.
# Wavefront file for 'tomathensBetaMap_mesh_0083.obj'

# Vertices (Count = 208)
v -148 -111 0
v -149 -111 0
v -149 -110 0
v -148 -110 0
v -109 -111 0
v -110 -111 0
v -110 -110 0
v -109 -110 0
v -148 -112 0
v -149 -112 0
v -149 -111 0
v -148 -111 0
v -110 -112 0
v -111 -112 0
v -111 -111 0
v -110 -111 0
v -109 -112 0
v -110 -112 0
v -110 -111 0
v -109 -111 0
v -108 -112 0
v -109 -112 0
v -109 -111 0
v -108 -111 0
v -148 -113 0
v -149 -113 0
v -149 -112 0
v -148 -112 0
v -110 -113 0
v -111 -113 0
v -111 -112 0
v -110 -112 0
v -109 -113 0
v -110 -113 0
v -110 -112 0
v -109 -112 0
v -108 -113 0
v -109 -113 0
v -109 -112 0
v -108 -112 0
v -110 -114 0
v -111 -114 0
v -111 -113 0
v -110 -113 0
v -108 -114 0
v -109 -114 0
v -109 -113 0
v -108 -113 0
v -121 -118 0
v -122 -118 0
v -122 -117 0
v -121 -117 0
v -73 -119 0
v -74 -119 0
v -74 -118 0
v -73 -118 0
v -136 -127 0
v -137 -127 0
v -137 -126 0
v -136 -126 0
v -135 -127 0
v -136 -127 0
v -136 -126 0
v -135 -126 0
v -36 -138 0
v -37 -138 0
v -37 -137 0
v -36 -137 0
v -35 -138 0
v -36 -138 0
v -36 -137 0
v -35 -137 0
v -30 -138 0
v -31 -138 0
v -31 -137 0
v -30 -137 0
v -29 -138 0
v -30 -138 0
v -30 -137 0
v -29 -137 0
v -36 -139 0
v -37 -139 0
v -37 -138 0
v -36 -138 0
v -35 -139 0
v -36 -139 0
v -36 -138 0
v -35 -138 0
v -30 -139 0
v -31 -139 0
v -31 -138 0
v -30 -138 0
v -29 -139 0
v -30 -139 0
v -30 -138 0
v -29 -138 0
v -36 -140 0
v -37 -140 0
v -37 -139 0
v -36 -139 0
v -35 -140 0
v -36 -140 0
v -36 -139 0
v -35 -139 0
v -30 -140 0
v -31 -140 0
v -31 -139 0
v -30 -139 0
v -29 -140 0
v -30 -140 0
v -30 -139 0
v -29 -139 0
v -40 -141 0
v -41 -141 0
v -41 -140 0
v -40 -140 0
v -25 -141 0
v -26 -141 0
v -26 -140 0
v -25 -140 0
v -97 -145 0
v -98 -145 0
v -98 -144 0
v -97 -144 0
v -25 -146 0
v -26 -146 0
v -26 -145 0
v -25 -145 0
v -98 -147 0
v -99 -147 0
v -99 -146 0
v -98 -146 0
v -96 -148 0
v -97 -148 0
v -97 -147 0
v -96 -147 0
v -94 -149 0
v -95 -149 0
v -95 -148 0
v -94 -148 0
v -40 -150 0
v -41 -150 0
v -41 -149 0
v -40 -149 0
v -39 -150 0
v -40 -150 0
v -40 -149 0
v -39 -149 0
v -97 -152 0
v -98 -152 0
v -98 -151 0
v -97 -151 0
v -228 -198 0
v -229 -198 0
v -229 -197 0
v -228 -197 0
v -229 -199 0
v -230 -199 0
v -230 -198 0
v -229 -198 0
v -141 -200 0
v -142 -200 0
v -142 -199 0
v -141 -199 0
v -140 -200 0
v -141 -200 0
v -141 -199 0
v -140 -199 0
v -139 -200 0
v -140 -200 0
v -140 -199 0
v -139 -199 0
v -138 -200 0
v -139 -200 0
v -139 -199 0
v -138 -199 0
v -137 -200 0
v -138 -200 0
v -138 -199 0
v -137 -199 0
v -136 -200 0
v -137 -200 0
v -137 -199 0
v -136 -199 0
v -141 -201 0
v -142 -201 0
v -142 -200 0
v -141 -200 0
v -140 -201 0
v -141 -201 0
v -141 -200 0
v -140 -200 0
v -139 -201 0
v -140 -201 0
v -140 -200 0
v -139 -200 0
v -138 -201 0
v -139 -201 0
v -139 -200 0
v -138 -200 0
v -137 -201 0
v -138 -201 0
v -138 -200 0
v -137 -200 0
v -136 -201 0
v -137 -201 0
v -137 -200 0
v -136 -200 0

# Texture cooridinates (Count = 148)
vt 0.2795217 0.4957447
vt 0.303438 0.4957447
vt 0.303438 0.5297872
vt 0.2795217 0.5297872
vt 0.2795217 0.4595745
vt 0.303438 0.4595745
vt 0.303438 0.493617
vt 0.2795217 0.493617
vt 0.3303438 0.4957447
vt 0.3542601 0.4957447
vt 0.3542601 0.5297872
vt 0.3303438 0.5297872
vt 0.3557549 0.4957447
vt 0.3796712 0.4957447
vt 0.3796712 0.5297872
vt 0.3557549 0.5297872
vt 0.2795217 0.4234043
vt 0.303438 0.4234043
vt 0.303438 0.4574468
vt 0.2795217 0.4574468
vt 0.3303438 0.4595745
vt 0.3542601 0.4595745
vt 0.3542601 0.493617
vt 0.3303438 0.493617
vt 0.3557549 0.4595745
vt 0.3796712 0.4595745
vt 0.3796712 0.493617
vt 0.3557549 0.493617
vt 0.3303438 0.4234043
vt 0.3542601 0.4234043
vt 0.3542601 0.4574468
vt 0.3303438 0.4574468
vt 0.3557549 0.4234043
vt 0.3796712 0.4234043
vt 0.3796712 0.4574468
vt 0.3557549 0.4574468
vt 0.1778774 0.7127659
vt 0.2017937 0.7127659
vt 0.2017937 0.7468085
vt 0.1778774 0.7468085
vt 0 0.7489362
vt 0.02391629 0.7489362
vt 0.02391629 0.7829787
vt 0 0.7829787
vt 0.2286996 0.7127659
vt 0.2526158 0.7127659
vt 0.2526158 0.7468085
vt 0.2286996 0.7468085
vt 0.2032885 0.7127659
vt 0.2272048 0.7127659
vt 0.2272048 0.7468085
vt 0.2032885 0.7468085
vt 0.3811659 0.6042553
vt 0.4050822 0.6042553
vt 0.4050822 0.6382979
vt 0.3811659 0.6382979
vt 0.3557549 0.6042553
vt 0.3796712 0.6042553
vt 0.3796712 0.6382979
vt 0.3557549 0.6382979
vt 0.3811659 0.5680851
vt 0.4050822 0.5680851
vt 0.4050822 0.6021277
vt 0.3811659 0.6021277
vt 0.3557549 0.5680851
vt 0.3796712 0.5680851
vt 0.3796712 0.6021277
vt 0.3557549 0.6021277
vt 0.3811659 0.5319149
vt 0.4050822 0.5319149
vt 0.4050822 0.5659574
vt 0.3811659 0.5659574
vt 0.3557549 0.5319149
vt 0.3796712 0.5319149
vt 0.3796712 0.5659574
vt 0.3557549 0.5659574
vt 0.1524664 0.7127659
vt 0.1763827 0.7127659
vt 0.1763827 0.7468085
vt 0.1524664 0.7468085
vt 0 0.8212766
vt 0.02391629 0.8212766
vt 0.02391629 0.8553191
vt 0 0.8553191
vt 0.1270553 0.7127659
vt 0.1509716 0.7127659
vt 0.1509716 0.7468085
vt 0.1270553 0.7468085
vt 0 0.7851064
vt 0.02391629 0.7851064
vt 0.02391629 0.819149
vt 0 0.819149
vt 0 0.8574468
vt 0.02391629 0.8574468
vt 0.02391629 0.8914894
vt 0 0.8914894
vt 0.2541106 0.7127659
vt 0.2780269 0.7127659
vt 0.2780269 0.7468085
vt 0.2541106 0.7468085
vt 0.3811659 0.6404256
vt 0.4050822 0.6404256
vt 0.4050822 0.674468
vt 0.3811659 0.674468
vt 0.3557549 0.6404256
vt 0.3796712 0.6404256
vt 0.3796712 0.674468
vt 0.3557549 0.674468
vt 0.2541106 0.9297872
vt 0.2780269 0.9297872
vt 0.2780269 0.9638298
vt 0.2541106 0.9638298
vt 0.2286996 0.9297872
vt 0.2526158 0.9297872
vt 0.2526158 0.9638298
vt 0.2286996 0.9638298
vt 0.2032885 0.9297872
vt 0.2272048 0.9297872
vt 0.2272048 0.9638298
vt 0.2032885 0.9638298
vt 0.1778774 0.9297872
vt 0.2017937 0.9297872
vt 0.2017937 0.9638298
vt 0.1778774 0.9638298
vt 0.1524664 0.9297872
vt 0.1763827 0.9297872
vt 0.1763827 0.9638298
vt 0.1524664 0.9638298
vt 0.2541106 0.893617
vt 0.2780269 0.893617
vt 0.2780269 0.9276596
vt 0.2541106 0.9276596
vt 0.2286996 0.893617
vt 0.2526158 0.893617
vt 0.2526158 0.9276596
vt 0.2286996 0.9276596
vt 0.2032885 0.893617
vt 0.2272048 0.893617
vt 0.2272048 0.9276596
vt 0.2032885 0.9276596
vt 0.1778774 0.893617
vt 0.2017937 0.893617
vt 0.2017937 0.9276596
vt 0.1778774 0.9276596
vt 0.1524664 0.893617
vt 0.1763827 0.893617
vt 0.1763827 0.9276596
vt 0.1524664 0.9276596

# Normal
vn 0 0 -1

# Mesh description
g tomathensBetaMap_mesh_0083

# Faces
f 1/1/1 2/2/1 3/3/1 4/4/1
f 5/1/1 6/2/1 7/3/1 8/4/1
f 9/5/1 10/6/1 11/7/1 12/8/1
f 13/9/1 14/10/1 15/11/1 16/12/1
f 17/5/1 18/6/1 19/7/1 20/8/1
f 21/13/1 22/14/1 23/15/1 24/16/1
f 25/17/1 26/18/1 27/19/1 28/20/1
f 29/21/1 30/22/1 31/23/1 32/24/1
f 33/17/1 34/18/1 35/19/1 36/20/1
f 37/25/1 38/26/1 39/27/1 40/28/1
f 41/29/1 42/30/1 43/31/1 44/32/1
f 45/33/1 46/34/1 47/35/1 48/36/1
f 49/37/1 50/38/1 51/39/1 52/40/1
f 53/41/1 54/42/1 55/43/1 56/44/1
f 57/45/1 58/46/1 59/47/1 60/48/1
f 61/49/1 62/50/1 63/51/1 64/52/1
f 65/53/1 66/54/1 67/55/1 68/56/1
f 69/57/1 70/58/1 71/59/1 72/60/1
f 73/53/1 74/54/1 75/55/1 76/56/1
f 77/57/1 78/58/1 79/59/1 80/60/1
f 81/61/1 82/62/1 83/63/1 84/64/1
f 85/65/1 86/66/1 87/67/1 88/68/1
f 89/61/1 90/62/1 91/63/1 92/64/1
f 93/65/1 94/66/1 95/67/1 96/68/1
f 97/69/1 98/70/1 99/71/1 100/72/1
f 101/73/1 102/74/1 103/75/1 104/76/1
f 105/69/1 106/70/1 107/71/1 108/72/1
f 109/73/1 110/74/1 111/75/1 112/76/1
f 113/77/1 114/78/1 115/79/1 116/80/1
f 117/37/1 118/38/1 119/39/1 120/40/1
f 121/81/1 122/82/1 123/83/1 124/84/1
f 125/85/1 126/86/1 127/87/1 128/88/1
f 129/89/1 130/90/1 131/91/1 132/92/1
f 133/93/1 134/94/1 135/95/1 136/96/1
f 137/97/1 138/98/1 139/99/1 140/100/1
f 141/45/1 142/46/1 143/47/1 144/48/1
f 145/49/1 146/50/1 147/51/1 148/52/1
f 149/41/1 150/42/1 151/43/1 152/44/1
f 153/101/1 154/102/1 155/103/1 156/104/1
f 157/105/1 158/106/1 159/107/1 160/108/1
f 161/109/1 162/110/1 163/111/1 164/112/1
f 165/113/1 166/114/1 167/115/1 168/116/1
f 169/117/1 170/118/1 171/119/1 172/120/1
f 173/117/1 174/118/1 175/119/1 176/120/1
f 177/121/1 178/122/1 179/123/1 180/124/1
f 181/125/1 182/126/1 183/127/1 184/128/1
f 185/129/1 186/130/1 187/131/1 188/132/1
f 189/133/1 190/134/1 191/135/1 192/136/1
f 193/137/1 194/138/1 195/139/1 196/140/1
f 197/137/1 198/138/1 199/139/1 200/140/1
f 201/141/1 202/142/1 203/143/1 204/144/1
f 205/145/1 206/146/1 207/147/1 208/148/1

