# Tiled2Unity generated file. Do not modify by hand.
# Wavefront file for 'tomathensBetaMap_mesh_0062.obj'

# Vertices (Count = 96)
v -127 -154 0
v -128 -154 0
v -128 -153 0
v -127 -153 0
v -133 -155 0
v -134 -155 0
v -134 -154 0
v -133 -154 0
v -130 -155 0
v -131 -155 0
v -131 -154 0
v -130 -154 0
v -127 -155 0
v -128 -155 0
v -128 -154 0
v -127 -154 0
v -130 -182 0
v -131 -182 0
v -131 -181 0
v -130 -181 0
v -130 -183 0
v -131 -183 0
v -131 -182 0
v -130 -182 0
v -129 -206 0
v -130 -206 0
v -130 -205 0
v -129 -205 0
v -128 -206 0
v -129 -206 0
v -129 -205 0
v -128 -205 0
v -127 -206 0
v -128 -206 0
v -128 -205 0
v -127 -205 0
v -129 -207 0
v -130 -207 0
v -130 -206 0
v -129 -206 0
v -128 -207 0
v -129 -207 0
v -129 -206 0
v -128 -206 0
v -127 -207 0
v -128 -207 0
v -128 -206 0
v -127 -206 0
v -129 -208 0
v -130 -208 0
v -130 -207 0
v -129 -207 0
v -128 -208 0
v -129 -208 0
v -129 -207 0
v -128 -207 0
v -127 -208 0
v -128 -208 0
v -128 -207 0
v -127 -207 0
v -130 -233 0
v -131 -233 0
v -131 -232 0
v -130 -232 0
v -129 -233 0
v -130 -233 0
v -130 -232 0
v -129 -232 0
v -128 -233 0
v -129 -233 0
v -129 -232 0
v -128 -232 0
v -130 -234 0
v -131 -234 0
v -131 -233 0
v -130 -233 0
v -129 -234 0
v -130 -234 0
v -130 -233 0
v -129 -233 0
v -128 -234 0
v -129 -234 0
v -129 -233 0
v -128 -233 0
v -130 -235 0
v -131 -235 0
v -131 -234 0
v -130 -234 0
v -129 -235 0
v -130 -235 0
v -130 -234 0
v -129 -234 0
v -128 -235 0
v -129 -235 0
v -129 -234 0
v -128 -234 0

# Texture cooridinates (Count = 48)
vt 0.3940397 0.7877358
vt 0.4046358 0.7877358
vt 0.4046358 0.8128931
vt 0.3940397 0.8128931
vt 0.3940397 0.7610063
vt 0.4046358 0.7610063
vt 0.4046358 0.7861635
vt 0.3940397 0.7861635
vt 0.3602649 0.7610063
vt 0.3708609 0.7610063
vt 0.3708609 0.7861635
vt 0.3602649 0.7861635
vt 0.4615894 0.7610063
vt 0.4721854 0.7610063
vt 0.4721854 0.7861635
vt 0.4615894 0.7861635
vt 0.4503311 0.7610063
vt 0.4609272 0.7610063
vt 0.4609272 0.7861635
vt 0.4503311 0.7861635
vt 0.4390728 0.7610063
vt 0.4496689 0.7610063
vt 0.4496689 0.7861635
vt 0.4390728 0.7861635
vt 0.4615894 0.7342768
vt 0.4721854 0.7342768
vt 0.4721854 0.759434
vt 0.4615894 0.759434
vt 0.4503311 0.7342768
vt 0.4609272 0.7342768
vt 0.4609272 0.759434
vt 0.4503311 0.759434
vt 0.4390728 0.7342768
vt 0.4496689 0.7342768
vt 0.4496689 0.759434
vt 0.4390728 0.759434
vt 0.4615894 0.7075472
vt 0.4721854 0.7075472
vt 0.4721854 0.7327044
vt 0.4615894 0.7327044
vt 0.4503311 0.7075472
vt 0.4609272 0.7075472
vt 0.4609272 0.7327044
vt 0.4503311 0.7327044
vt 0.4390728 0.7075472
vt 0.4496689 0.7075472
vt 0.4496689 0.7327044
vt 0.4390728 0.7327044

# Normal
vn 0 0 -1

# Mesh description
g tomathensBetaMap_mesh_0062

# Faces
f 1/1/1 2/2/1 3/3/1 4/4/1
f 5/5/1 6/6/1 7/7/1 8/8/1
f 9/9/1 10/10/1 11/11/1 12/12/1
f 13/5/1 14/6/1 15/7/1 16/8/1
f 17/1/1 18/2/1 19/3/1 20/4/1
f 21/5/1 22/6/1 23/7/1 24/8/1
f 25/13/1 26/14/1 27/15/1 28/16/1
f 29/17/1 30/18/1 31/19/1 32/20/1
f 33/21/1 34/22/1 35/23/1 36/24/1
f 37/25/1 38/26/1 39/27/1 40/28/1
f 41/29/1 42/30/1 43/31/1 44/32/1
f 45/33/1 46/34/1 47/35/1 48/36/1
f 49/37/1 50/38/1 51/39/1 52/40/1
f 53/41/1 54/42/1 55/43/1 56/44/1
f 57/45/1 58/46/1 59/47/1 60/48/1
f 61/13/1 62/14/1 63/15/1 64/16/1
f 65/17/1 66/18/1 67/19/1 68/20/1
f 69/21/1 70/22/1 71/23/1 72/24/1
f 73/25/1 74/26/1 75/27/1 76/28/1
f 77/29/1 78/30/1 79/31/1 80/32/1
f 81/33/1 82/34/1 83/35/1 84/36/1
f 85/37/1 86/38/1 87/39/1 88/40/1
f 89/41/1 90/42/1 91/43/1 92/44/1
f 93/45/1 94/46/1 95/47/1 96/48/1

