# Tiled2Unity generated file. Do not modify by hand.
# Wavefront file for 'tomathensBetaMap_mesh_0095.obj'

# Vertices (Count = 48)
v -74 -235 0
v -75 -235 0
v -75 -234 0
v -74 -234 0
v -57 -235 0
v -58 -235 0
v -58 -234 0
v -57 -234 0
v -47 -235 0
v -48 -235 0
v -48 -234 0
v -47 -234 0
v -30 -235 0
v -31 -235 0
v -31 -234 0
v -30 -234 0
v -74 -236 0
v -75 -236 0
v -75 -235 0
v -74 -235 0
v -57 -236 0
v -58 -236 0
v -58 -235 0
v -57 -235 0
v -47 -236 0
v -48 -236 0
v -48 -235 0
v -47 -235 0
v -30 -236 0
v -31 -236 0
v -31 -235 0
v -30 -235 0
v -74 -237 0
v -75 -237 0
v -75 -236 0
v -74 -236 0
v -57 -237 0
v -58 -237 0
v -58 -236 0
v -57 -236 0
v -47 -237 0
v -48 -237 0
v -48 -236 0
v -47 -236 0
v -30 -237 0
v -31 -237 0
v -31 -236 0
v -30 -236 0

# Texture cooridinates (Count = 12)
vt 0.4390728 0.841195
vt 0.4496689 0.841195
vt 0.4496689 0.8663522
vt 0.4390728 0.8663522
vt 0.4390728 0.8144654
vt 0.4496689 0.8144654
vt 0.4496689 0.8396226
vt 0.4390728 0.8396226
vt 0.4390728 0.7877358
vt 0.4496689 0.7877358
vt 0.4496689 0.8128931
vt 0.4390728 0.8128931

# Normal
vn 0 0 -1

# Mesh description
g tomathensBetaMap_mesh_0095

# Faces
f 1/1/1 2/2/1 3/3/1 4/4/1
f 5/1/1 6/2/1 7/3/1 8/4/1
f 9/1/1 10/2/1 11/3/1 12/4/1
f 13/1/1 14/2/1 15/3/1 16/4/1
f 17/5/1 18/6/1 19/7/1 20/8/1
f 21/5/1 22/6/1 23/7/1 24/8/1
f 25/5/1 26/6/1 27/7/1 28/8/1
f 29/5/1 30/6/1 31/7/1 32/8/1
f 33/9/1 34/10/1 35/11/1 36/12/1
f 37/9/1 38/10/1 39/11/1 40/12/1
f 41/9/1 42/10/1 43/11/1 44/12/1
f 45/9/1 46/10/1 47/11/1 48/12/1

