# Tiled2Unity generated file. Do not modify by hand.
# Wavefront file for 'tomathensBetaMap_mesh_0115.obj'

# Vertices (Count = 512)
v -160 -67 0
v -161 -67 0
v -161 -66 0
v -160 -66 0
v -147 -67 0
v -148 -67 0
v -148 -66 0
v -147 -66 0
v -160 -68 0
v -161 -68 0
v -161 -67 0
v -160 -67 0
v -147 -68 0
v -148 -68 0
v -148 -67 0
v -147 -67 0
v -34 -132 0
v -35 -132 0
v -35 -131 0
v -34 -131 0
v -34 -133 0
v -35 -133 0
v -35 -132 0
v -34 -132 0
v -31 -137 0
v -32 -137 0
v -32 -136 0
v -31 -136 0
v -31 -138 0
v -32 -138 0
v -32 -137 0
v -31 -137 0
v -161 -143 0
v -162 -143 0
v -162 -142 0
v -161 -142 0
v -159 -143 0
v -160 -143 0
v -160 -142 0
v -159 -142 0
v -152 -143 0
v -153 -143 0
v -153 -142 0
v -152 -142 0
v -150 -143 0
v -151 -143 0
v -151 -142 0
v -150 -142 0
v -107 -143 0
v -108 -143 0
v -108 -142 0
v -107 -142 0
v -105 -143 0
v -106 -143 0
v -106 -142 0
v -105 -142 0
v -98 -143 0
v -99 -143 0
v -99 -142 0
v -98 -142 0
v -96 -143 0
v -97 -143 0
v -97 -142 0
v -96 -142 0
v -161 -144 0
v -162 -144 0
v -162 -143 0
v -161 -143 0
v -159 -144 0
v -160 -144 0
v -160 -143 0
v -159 -143 0
v -152 -144 0
v -153 -144 0
v -153 -143 0
v -152 -143 0
v -150 -144 0
v -151 -144 0
v -151 -143 0
v -150 -143 0
v -107 -144 0
v -108 -144 0
v -108 -143 0
v -107 -143 0
v -105 -144 0
v -106 -144 0
v -106 -143 0
v -105 -143 0
v -98 -144 0
v -99 -144 0
v -99 -143 0
v -98 -143 0
v -96 -144 0
v -97 -144 0
v -97 -143 0
v -96 -143 0
v -162 -147 0
v -163 -147 0
v -163 -146 0
v -162 -146 0
v -162 -148 0
v -163 -148 0
v -163 -147 0
v -162 -147 0
v -153 -149 0
v -154 -149 0
v -154 -148 0
v -153 -148 0
v -149 -149 0
v -150 -149 0
v -150 -148 0
v -149 -148 0
v -153 -150 0
v -154 -150 0
v -154 -149 0
v -153 -149 0
v -149 -150 0
v -150 -150 0
v -150 -149 0
v -149 -149 0
v -104 -150 0
v -105 -150 0
v -105 -149 0
v -104 -149 0
v -153 -151 0
v -154 -151 0
v -154 -150 0
v -153 -150 0
v -152 -151 0
v -153 -151 0
v -153 -150 0
v -152 -150 0
v -150 -151 0
v -151 -151 0
v -151 -150 0
v -150 -150 0
v -149 -151 0
v -150 -151 0
v -150 -150 0
v -149 -150 0
v -108 -151 0
v -109 -151 0
v -109 -150 0
v -108 -150 0
v -107 -151 0
v -108 -151 0
v -108 -150 0
v -107 -150 0
v -105 -151 0
v -106 -151 0
v -106 -150 0
v -105 -150 0
v -104 -151 0
v -105 -151 0
v -105 -150 0
v -104 -150 0
v -153 -152 0
v -154 -152 0
v -154 -151 0
v -153 -151 0
v -152 -152 0
v -153 -152 0
v -153 -151 0
v -152 -151 0
v -150 -152 0
v -151 -152 0
v -151 -151 0
v -150 -151 0
v -149 -152 0
v -150 -152 0
v -150 -151 0
v -149 -151 0
v -108 -152 0
v -109 -152 0
v -109 -151 0
v -108 -151 0
v -107 -152 0
v -108 -152 0
v -108 -151 0
v -107 -151 0
v -105 -152 0
v -106 -152 0
v -106 -151 0
v -105 -151 0
v -104 -152 0
v -105 -152 0
v -105 -151 0
v -104 -151 0
v -152 -153 0
v -153 -153 0
v -153 -152 0
v -152 -152 0
v -150 -153 0
v -151 -153 0
v -151 -152 0
v -150 -152 0
v -135 -153 0
v -136 -153 0
v -136 -152 0
v -135 -152 0
v -134 -153 0
v -135 -153 0
v -135 -152 0
v -134 -152 0
v -129 -153 0
v -130 -153 0
v -130 -152 0
v -129 -152 0
v -128 -153 0
v -129 -153 0
v -129 -152 0
v -128 -152 0
v -123 -153 0
v -124 -153 0
v -124 -152 0
v -123 -152 0
v -122 -153 0
v -123 -153 0
v -123 -152 0
v -122 -152 0
v -107 -153 0
v -108 -153 0
v -108 -152 0
v -107 -152 0
v -105 -153 0
v -106 -153 0
v -106 -152 0
v -105 -152 0
v -98 -153 0
v -99 -153 0
v -99 -152 0
v -98 -152 0
v -96 -153 0
v -97 -153 0
v -97 -152 0
v -96 -152 0
v -152 -154 0
v -153 -154 0
v -153 -153 0
v -152 -153 0
v -150 -154 0
v -151 -154 0
v -151 -153 0
v -150 -153 0
v -107 -154 0
v -108 -154 0
v -108 -153 0
v -107 -153 0
v -105 -154 0
v -106 -154 0
v -106 -153 0
v -105 -153 0
v -98 -154 0
v -99 -154 0
v -99 -153 0
v -98 -153 0
v -96 -154 0
v -97 -154 0
v -97 -153 0
v -96 -153 0
v -204 -160 0
v -205 -160 0
v -205 -159 0
v -204 -159 0
v -203 -160 0
v -204 -160 0
v -204 -159 0
v -203 -159 0
v -202 -160 0
v -203 -160 0
v -203 -159 0
v -202 -159 0
v -201 -160 0
v -202 -160 0
v -202 -159 0
v -201 -159 0
v -200 -160 0
v -201 -160 0
v -201 -159 0
v -200 -159 0
v -199 -160 0
v -200 -160 0
v -200 -159 0
v -199 -159 0
v -196 -160 0
v -197 -160 0
v -197 -159 0
v -196 -159 0
v -195 -160 0
v -196 -160 0
v -196 -159 0
v -195 -159 0
v -140 -178 0
v -141 -178 0
v -141 -177 0
v -140 -177 0
v -203 -181 0
v -204 -181 0
v -204 -180 0
v -203 -180 0
v -202 -181 0
v -203 -181 0
v -203 -180 0
v -202 -180 0
v -201 -181 0
v -202 -181 0
v -202 -180 0
v -201 -180 0
v -198 -181 0
v -199 -181 0
v -199 -180 0
v -198 -180 0
v -197 -181 0
v -198 -181 0
v -198 -180 0
v -197 -180 0
v -64 -181 0
v -65 -181 0
v -65 -180 0
v -64 -180 0
v -63 -181 0
v -64 -181 0
v -64 -180 0
v -63 -180 0
v -60 -181 0
v -61 -181 0
v -61 -180 0
v -60 -180 0
v -203 -182 0
v -204 -182 0
v -204 -181 0
v -203 -181 0
v -131 -182 0
v -132 -182 0
v -132 -181 0
v -131 -181 0
v -129 -182 0
v -130 -182 0
v -130 -181 0
v -129 -181 0
v -128 -182 0
v -129 -182 0
v -129 -181 0
v -128 -181 0
v -126 -182 0
v -127 -182 0
v -127 -181 0
v -126 -181 0
v -203 -183 0
v -204 -183 0
v -204 -182 0
v -203 -182 0
v -203 -184 0
v -204 -184 0
v -204 -183 0
v -203 -183 0
v -203 -185 0
v -204 -185 0
v -204 -184 0
v -203 -184 0
v -69 -185 0
v -70 -185 0
v -70 -184 0
v -69 -184 0
v -68 -185 0
v -69 -185 0
v -69 -184 0
v -68 -184 0
v -61 -185 0
v -62 -185 0
v -62 -184 0
v -61 -184 0
v -60 -185 0
v -61 -185 0
v -61 -184 0
v -60 -184 0
v -203 -186 0
v -204 -186 0
v -204 -185 0
v -203 -185 0
v -192 -186 0
v -193 -186 0
v -193 -185 0
v -192 -185 0
v -203 -187 0
v -204 -187 0
v -204 -186 0
v -203 -186 0
v -203 -188 0
v -204 -188 0
v -204 -187 0
v -203 -187 0
v -203 -189 0
v -204 -189 0
v -204 -188 0
v -203 -188 0
v -116 -189 0
v -117 -189 0
v -117 -188 0
v -116 -188 0
v -51 -193 0
v -52 -193 0
v -52 -192 0
v -51 -192 0
v -50 -193 0
v -51 -193 0
v -51 -192 0
v -50 -192 0
v -51 -194 0
v -52 -194 0
v -52 -193 0
v -51 -193 0
v -50 -194 0
v -51 -194 0
v -51 -193 0
v -50 -193 0
v -96 -204 0
v -97 -204 0
v -97 -203 0
v -96 -203 0
v -95 -204 0
v -96 -204 0
v -96 -203 0
v -95 -203 0
v -94 -204 0
v -95 -204 0
v -95 -203 0
v -94 -203 0
v -228 -209 0
v -229 -209 0
v -229 -208 0
v -228 -208 0
v -227 -209 0
v -228 -209 0
v -228 -208 0
v -227 -208 0
v -216 -209 0
v -217 -209 0
v -217 -208 0
v -216 -208 0
v -215 -209 0
v -216 -209 0
v -216 -208 0
v -215 -208 0
v -228 -210 0
v -229 -210 0
v -229 -209 0
v -228 -209 0
v -227 -210 0
v -228 -210 0
v -228 -209 0
v -227 -209 0
v -216 -210 0
v -217 -210 0
v -217 -209 0
v -216 -209 0
v -215 -210 0
v -216 -210 0
v -216 -209 0
v -215 -209 0
v -168 -228 0
v -169 -228 0
v -169 -227 0
v -168 -227 0
v -167 -228 0
v -168 -228 0
v -168 -227 0
v -167 -227 0
v -90 -228 0
v -91 -228 0
v -91 -227 0
v -90 -227 0
v -89 -228 0
v -90 -228 0
v -90 -227 0
v -89 -227 0
v -88 -228 0
v -89 -228 0
v -89 -227 0
v -88 -227 0
v -225 -236 0
v -226 -236 0
v -226 -235 0
v -225 -235 0
v -210 -236 0
v -211 -236 0
v -211 -235 0
v -210 -235 0
v -198 -236 0
v -199 -236 0
v -199 -235 0
v -198 -235 0
v -183 -236 0
v -184 -236 0
v -184 -235 0
v -183 -235 0
v -225 -237 0
v -226 -237 0
v -226 -236 0
v -225 -236 0
v -210 -237 0
v -211 -237 0
v -211 -236 0
v -210 -236 0
v -198 -237 0
v -199 -237 0
v -199 -236 0
v -198 -236 0
v -183 -237 0
v -184 -237 0
v -184 -236 0
v -183 -236 0

# Texture cooridinates (Count = 96)
vt 0.2945544 0.743295
vt 0.3341584 0.743295
vt 0.3341584 0.8045977
vt 0.2945544 0.8045977
vt 0.2945544 0.6781609
vt 0.3341584 0.6781609
vt 0.3341584 0.7394636
vt 0.2945544 0.7394636
vt 0.210396 0.743295
vt 0.25 0.743295
vt 0.25 0.8045977
vt 0.210396 0.8045977
vt 0.210396 0.6781609
vt 0.25 0.6781609
vt 0.25 0.7394636
vt 0.210396 0.7394636
vt 0.04207921 0.743295
vt 0.08168317 0.743295
vt 0.08168317 0.8045977
vt 0.04207921 0.8045977
vt 0.2524753 0.6130269
vt 0.2920792 0.6130269
vt 0.2920792 0.6743295
vt 0.2524753 0.6743295
vt 0.4207921 0.743295
vt 0.4603961 0.743295
vt 0.4603961 0.8045977
vt 0.4207921 0.8045977
vt 0.2524753 0.743295
vt 0.2920792 0.743295
vt 0.2920792 0.8045977
vt 0.2524753 0.8045977
vt 0.4207921 0.6781609
vt 0.4603961 0.6781609
vt 0.4603961 0.7394636
vt 0.4207921 0.7394636
vt 0.2524753 0.6781609
vt 0.2920792 0.6781609
vt 0.2920792 0.7394636
vt 0.2524753 0.7394636
vt 0.04207921 0.6130269
vt 0.08168317 0.6130269
vt 0.08168317 0.6743295
vt 0.04207921 0.6743295
vt 0.04207921 0.5478927
vt 0.08168317 0.5478927
vt 0.08168317 0.6091954
vt 0.04207921 0.6091954
vt 0.4207921 0.6130269
vt 0.4603961 0.6130269
vt 0.4603961 0.6743295
vt 0.4207921 0.6743295
vt 0.2524753 0.5478927
vt 0.2920792 0.5478927
vt 0.2920792 0.6091954
vt 0.2524753 0.6091954
vt 0.04207921 0.6781609
vt 0.08168317 0.6781609
vt 0.08168317 0.7394636
vt 0.04207921 0.7394636
vt 0.4207921 0.5478927
vt 0.4603961 0.5478927
vt 0.4603961 0.6091954
vt 0.4207921 0.6091954
vt 0.210396 0.6130269
vt 0.25 0.6130269
vt 0.25 0.6743295
vt 0.210396 0.6743295
vt 0.3787129 0.743295
vt 0.4183168 0.743295
vt 0.4183168 0.8045977
vt 0.3787129 0.8045977
vt 0.210396 0.5478927
vt 0.25 0.5478927
vt 0.25 0.6091954
vt 0.210396 0.6091954
vt 0.3366337 0.743295
vt 0.3762376 0.743295
vt 0.3762376 0.8045977
vt 0.3366337 0.8045977
vt 0.08415841 0.6130269
vt 0.1237624 0.6130269
vt 0.1237624 0.6743295
vt 0.08415841 0.6743295
vt 0.1262376 0.6130269
vt 0.1658416 0.6130269
vt 0.1658416 0.6743295
vt 0.1262376 0.6743295
vt 0.1683168 0.6781609
vt 0.2079208 0.6781609
vt 0.2079208 0.7394636
vt 0.1683168 0.7394636
vt 0.3366337 0.6781609
vt 0.3762376 0.6781609
vt 0.3762376 0.7394636
vt 0.3366337 0.7394636

# Normal
vn 0 0 -1

# Mesh description
g tomathensBetaMap_mesh_0115

# Faces
f 1/1/1 2/2/1 3/3/1 4/4/1
f 5/1/1 6/2/1 7/3/1 8/4/1
f 9/5/1 10/6/1 11/7/1 12/8/1
f 13/5/1 14/6/1 15/7/1 16/8/1
f 17/9/1 18/10/1 19/11/1 20/12/1
f 21/13/1 22/14/1 23/15/1 24/16/1
f 25/17/1 26/18/1 27/19/1 28/20/1
f 29/21/1 30/22/1 31/23/1 32/24/1
f 33/25/1 34/26/1 35/27/1 36/28/1
f 37/29/1 38/30/1 39/31/1 40/32/1
f 41/25/1 42/26/1 43/27/1 44/28/1
f 45/29/1 46/30/1 47/31/1 48/32/1
f 49/25/1 50/26/1 51/27/1 52/28/1
f 53/29/1 54/30/1 55/31/1 56/32/1
f 57/25/1 58/26/1 59/27/1 60/28/1
f 61/29/1 62/30/1 63/31/1 64/32/1
f 65/33/1 66/34/1 67/35/1 68/36/1
f 69/37/1 70/38/1 71/39/1 72/40/1
f 73/33/1 74/34/1 75/35/1 76/36/1
f 77/37/1 78/38/1 79/39/1 80/40/1
f 81/33/1 82/34/1 83/35/1 84/36/1
f 85/37/1 86/38/1 87/39/1 88/40/1
f 89/33/1 90/34/1 91/35/1 92/36/1
f 93/37/1 94/38/1 95/39/1 96/40/1
f 97/41/1 98/42/1 99/43/1 100/44/1
f 101/45/1 102/46/1 103/47/1 104/48/1
f 105/29/1 106/30/1 107/31/1 108/32/1
f 109/25/1 110/26/1 111/27/1 112/28/1
f 113/37/1 114/38/1 115/39/1 116/40/1
f 117/33/1 118/34/1 119/35/1 120/36/1
f 121/33/1 122/34/1 123/35/1 124/36/1
f 125/21/1 126/22/1 127/23/1 128/24/1
f 129/9/1 130/10/1 131/11/1 132/12/1
f 133/17/1 134/18/1 135/19/1 136/20/1
f 137/49/1 138/50/1 139/51/1 140/52/1
f 141/21/1 142/22/1 143/23/1 144/24/1
f 145/9/1 146/10/1 147/11/1 148/12/1
f 149/17/1 150/18/1 151/19/1 152/20/1
f 153/49/1 154/50/1 155/51/1 156/52/1
f 157/53/1 158/54/1 159/55/1 160/56/1
f 161/13/1 162/14/1 163/15/1 164/16/1
f 165/57/1 166/58/1 167/59/1 168/60/1
f 169/61/1 170/62/1 171/63/1 172/64/1
f 173/53/1 174/54/1 175/55/1 176/56/1
f 177/13/1 178/14/1 179/15/1 180/16/1
f 181/57/1 182/58/1 183/59/1 184/60/1
f 185/61/1 186/62/1 187/63/1 188/64/1
f 189/65/1 190/66/1 191/67/1 192/68/1
f 193/41/1 194/42/1 195/43/1 196/44/1
f 197/25/1 198/26/1 199/27/1 200/28/1
f 201/69/1 202/70/1 203/71/1 204/72/1
f 205/1/1 206/2/1 207/3/1 208/4/1
f 209/69/1 210/70/1 211/71/1 212/72/1
f 213/1/1 214/2/1 215/3/1 216/4/1
f 217/29/1 218/30/1 219/31/1 220/32/1
f 221/65/1 222/66/1 223/67/1 224/68/1
f 225/41/1 226/42/1 227/43/1 228/44/1
f 229/65/1 230/66/1 231/67/1 232/68/1
f 233/41/1 234/42/1 235/43/1 236/44/1
f 237/73/1 238/74/1 239/75/1 240/76/1
f 241/45/1 242/46/1 243/47/1 244/48/1
f 245/73/1 246/74/1 247/75/1 248/76/1
f 249/45/1 250/46/1 251/47/1 252/48/1
f 253/73/1 254/74/1 255/75/1 256/76/1
f 257/45/1 258/46/1 259/47/1 260/48/1
f 261/69/1 262/70/1 263/71/1 264/72/1
f 265/77/1 266/78/1 267/79/1 268/80/1
f 269/1/1 270/2/1 271/3/1 272/4/1
f 273/81/1 274/82/1 275/83/1 276/84/1
f 277/85/1 278/86/1 279/87/1 280/88/1
f 281/81/1 282/82/1 283/83/1 284/84/1
f 285/85/1 286/86/1 287/87/1 288/88/1
f 289/81/1 290/82/1 291/83/1 292/84/1
f 293/85/1 294/86/1 295/87/1 296/88/1
f 297/89/1 298/90/1 299/91/1 300/92/1
f 301/77/1 302/78/1 303/79/1 304/80/1
f 305/1/1 306/2/1 307/3/1 308/4/1
f 309/77/1 310/78/1 311/79/1 312/80/1
f 313/1/1 314/2/1 315/3/1 316/4/1
f 317/77/1 318/78/1 319/79/1 320/80/1
f 321/1/1 322/2/1 323/3/1 324/4/1
f 325/1/1 326/2/1 327/3/1 328/4/1
f 329/89/1 330/90/1 331/91/1 332/92/1
f 333/25/1 334/26/1 335/27/1 336/28/1
f 337/69/1 338/70/1 339/71/1 340/72/1
f 341/77/1 342/78/1 343/79/1 344/80/1
f 345/29/1 346/30/1 347/31/1 348/32/1
f 349/89/1 350/90/1 351/91/1 352/92/1
f 353/89/1 354/90/1 355/91/1 356/92/1
f 357/89/1 358/90/1 359/91/1 360/92/1
f 361/77/1 362/78/1 363/79/1 364/80/1
f 365/1/1 366/2/1 367/3/1 368/4/1
f 369/1/1 370/2/1 371/3/1 372/4/1
f 373/29/1 374/30/1 375/31/1 376/32/1
f 377/89/1 378/90/1 379/91/1 380/92/1
f 381/13/1 382/14/1 383/15/1 384/16/1
f 385/89/1 386/90/1 387/91/1 388/92/1
f 389/89/1 390/90/1 391/91/1 392/92/1
f 393/89/1 394/90/1 395/91/1 396/92/1
f 397/77/1 398/78/1 399/79/1 400/80/1
f 401/77/1 402/78/1 403/79/1 404/80/1
f 405/1/1 406/2/1 407/3/1 408/4/1
f 409/93/1 410/94/1 411/95/1 412/96/1
f 413/5/1 414/6/1 415/7/1 416/8/1
f 417/17/1 418/18/1 419/19/1 420/20/1
f 421/77/1 422/78/1 423/79/1 424/80/1
f 425/9/1 426/10/1 427/11/1 428/12/1
f 429/77/1 430/78/1 431/79/1 432/80/1
f 433/1/1 434/2/1 435/3/1 436/4/1
f 437/77/1 438/78/1 439/79/1 440/80/1
f 441/1/1 442/2/1 443/3/1 444/4/1
f 445/93/1 446/94/1 447/95/1 448/96/1
f 449/5/1 450/6/1 451/7/1 452/8/1
f 453/93/1 454/94/1 455/95/1 456/96/1
f 457/5/1 458/6/1 459/7/1 460/8/1
f 461/69/1 462/70/1 463/71/1 464/72/1
f 465/77/1 466/78/1 467/79/1 468/80/1
f 469/77/1 470/78/1 471/79/1 472/80/1
f 473/1/1 474/2/1 475/3/1 476/4/1
f 477/29/1 478/30/1 479/31/1 480/32/1
f 481/65/1 482/66/1 483/67/1 484/68/1
f 485/41/1 486/42/1 487/43/1 488/44/1
f 489/65/1 490/66/1 491/67/1 492/68/1
f 493/41/1 494/42/1 495/43/1 496/44/1
f 497/73/1 498/74/1 499/75/1 500/76/1
f 501/45/1 502/46/1 503/47/1 504/48/1
f 505/73/1 506/74/1 507/75/1 508/76/1
f 509/45/1 510/46/1 511/47/1 512/48/1

