# Tiled2Unity generated file. Do not modify by hand.
# Wavefront file for 'tomathensBetaMap_mesh_0034.obj'

# Vertices (Count = 256)
v -148 -86 0
v -149 -86 0
v -149 -85 0
v -148 -85 0
v -111 -116 0
v -112 -116 0
v -112 -115 0
v -111 -115 0
v -142 -206 0
v -143 -206 0
v -143 -205 0
v -142 -205 0
v -142 -207 0
v -143 -207 0
v -143 -206 0
v -142 -206 0
v -142 -208 0
v -143 -208 0
v -143 -207 0
v -142 -207 0
v -135 -208 0
v -136 -208 0
v -136 -207 0
v -135 -207 0
v -132 -209 0
v -133 -209 0
v -133 -208 0
v -132 -208 0
v -124 -209 0
v -125 -209 0
v -125 -208 0
v -124 -208 0
v -132 -210 0
v -133 -210 0
v -133 -209 0
v -132 -209 0
v -124 -210 0
v -125 -210 0
v -125 -209 0
v -124 -209 0
v -132 -211 0
v -133 -211 0
v -133 -210 0
v -132 -210 0
v -124 -211 0
v -125 -211 0
v -125 -210 0
v -124 -210 0
v -124 -223 0
v -125 -223 0
v -125 -222 0
v -124 -222 0
v -124 -224 0
v -125 -224 0
v -125 -223 0
v -124 -223 0
v -124 -225 0
v -125 -225 0
v -125 -224 0
v -124 -224 0
v -130 -226 0
v -131 -226 0
v -131 -225 0
v -130 -225 0
v -129 -226 0
v -130 -226 0
v -130 -225 0
v -129 -225 0
v -128 -226 0
v -129 -226 0
v -129 -225 0
v -128 -225 0
v -130 -227 0
v -131 -227 0
v -131 -226 0
v -130 -226 0
v -129 -227 0
v -130 -227 0
v -130 -226 0
v -129 -226 0
v -128 -227 0
v -129 -227 0
v -129 -226 0
v -128 -226 0
v -130 -228 0
v -131 -228 0
v -131 -227 0
v -130 -227 0
v -129 -228 0
v -130 -228 0
v -130 -227 0
v -129 -227 0
v -128 -228 0
v -129 -228 0
v -129 -227 0
v -128 -227 0
v -133 -230 0
v -134 -230 0
v -134 -229 0
v -133 -229 0
v -124 -230 0
v -125 -230 0
v -125 -229 0
v -124 -229 0
v -124 -231 0
v -125 -231 0
v -125 -230 0
v -124 -230 0
v -124 -232 0
v -125 -232 0
v -125 -231 0
v -124 -231 0
v -168 -234 0
v -169 -234 0
v -169 -233 0
v -168 -233 0
v -163 -234 0
v -164 -234 0
v -164 -233 0
v -163 -233 0
v -94 -234 0
v -95 -234 0
v -95 -233 0
v -94 -233 0
v -89 -234 0
v -90 -234 0
v -90 -233 0
v -89 -233 0
v -226 -235 0
v -227 -235 0
v -227 -234 0
v -226 -234 0
v -209 -235 0
v -210 -235 0
v -210 -234 0
v -209 -234 0
v -199 -235 0
v -200 -235 0
v -200 -234 0
v -199 -234 0
v -182 -235 0
v -183 -235 0
v -183 -234 0
v -182 -234 0
v -168 -235 0
v -169 -235 0
v -169 -234 0
v -168 -234 0
v -163 -235 0
v -164 -235 0
v -164 -234 0
v -163 -234 0
v -94 -235 0
v -95 -235 0
v -95 -234 0
v -94 -234 0
v -89 -235 0
v -90 -235 0
v -90 -234 0
v -89 -234 0
v -226 -236 0
v -227 -236 0
v -227 -235 0
v -226 -235 0
v -209 -236 0
v -210 -236 0
v -210 -235 0
v -209 -235 0
v -199 -236 0
v -200 -236 0
v -200 -235 0
v -199 -235 0
v -182 -236 0
v -183 -236 0
v -183 -235 0
v -182 -235 0
v -168 -236 0
v -169 -236 0
v -169 -235 0
v -168 -235 0
v -163 -236 0
v -164 -236 0
v -164 -235 0
v -163 -235 0
v -94 -236 0
v -95 -236 0
v -95 -235 0
v -94 -235 0
v -89 -236 0
v -90 -236 0
v -90 -235 0
v -89 -235 0
v -226 -237 0
v -227 -237 0
v -227 -236 0
v -226 -236 0
v -209 -237 0
v -210 -237 0
v -210 -236 0
v -209 -236 0
v -199 -237 0
v -200 -237 0
v -200 -236 0
v -199 -236 0
v -182 -237 0
v -183 -237 0
v -183 -236 0
v -182 -236 0
v -168 -241 0
v -169 -241 0
v -169 -240 0
v -168 -240 0
v -163 -241 0
v -164 -241 0
v -164 -240 0
v -163 -240 0
v -94 -241 0
v -95 -241 0
v -95 -240 0
v -94 -240 0
v -89 -241 0
v -90 -241 0
v -90 -240 0
v -89 -240 0
v -168 -242 0
v -169 -242 0
v -169 -241 0
v -168 -241 0
v -163 -242 0
v -164 -242 0
v -164 -241 0
v -163 -241 0
v -94 -242 0
v -95 -242 0
v -95 -241 0
v -94 -241 0
v -89 -242 0
v -90 -242 0
v -90 -241 0
v -89 -241 0
v -168 -243 0
v -169 -243 0
v -169 -242 0
v -168 -242 0
v -163 -243 0
v -164 -243 0
v -164 -242 0
v -163 -242 0
v -94 -243 0
v -95 -243 0
v -95 -242 0
v -94 -242 0
v -89 -243 0
v -90 -243 0
v -90 -242 0
v -89 -242 0

# Texture cooridinates (Count = 64)
vt 0.2139073 0.8679245
vt 0.2245033 0.8679245
vt 0.2245033 0.8930818
vt 0.2139073 0.8930818
vt 0.2251656 0.6792453
vt 0.2251656 0.654088
vt 0.2357616 0.654088
vt 0.2357616 0.6792453
vt 0.4390728 0.841195
vt 0.4496689 0.841195
vt 0.4496689 0.8663522
vt 0.4390728 0.8663522
vt 0.4390728 0.8144654
vt 0.4496689 0.8144654
vt 0.4496689 0.8396226
vt 0.4390728 0.8396226
vt 0.4390728 0.7877358
vt 0.4496689 0.7877358
vt 0.4496689 0.8128931
vt 0.4390728 0.8128931
vt 0.3377483 0.8946541
vt 0.3483444 0.8946541
vt 0.3483444 0.9198113
vt 0.3377483 0.9198113
vt 0.3264901 0.8946541
vt 0.3370861 0.8946541
vt 0.3370861 0.9198113
vt 0.3264901 0.9198113
vt 0.3152318 0.8946541
vt 0.3258278 0.8946541
vt 0.3258278 0.9198113
vt 0.3152318 0.9198113
vt 0.3377483 0.8679245
vt 0.3483444 0.8679245
vt 0.3483444 0.8930818
vt 0.3377483 0.8930818
vt 0.3264901 0.8679245
vt 0.3370861 0.8679245
vt 0.3370861 0.8930818
vt 0.3264901 0.8930818
vt 0.3152318 0.8679245
vt 0.3258278 0.8679245
vt 0.3258278 0.8930818
vt 0.3152318 0.8930818
vt 0.3377483 0.841195
vt 0.3483444 0.841195
vt 0.3483444 0.8663522
vt 0.3377483 0.8663522
vt 0.3264901 0.841195
vt 0.3370861 0.841195
vt 0.3370861 0.8663522
vt 0.3264901 0.8663522
vt 0.3152318 0.841195
vt 0.3258278 0.841195
vt 0.3258278 0.8663522
vt 0.3152318 0.8663522
vt 0.4503311 0.841195
vt 0.4609272 0.841195
vt 0.4609272 0.8663522
vt 0.4503311 0.8663522
vt 0.4503311 0.8144654
vt 0.4609272 0.8144654
vt 0.4609272 0.8396226
vt 0.4503311 0.8396226

# Normal
vn 0 0 -1

# Mesh description
g tomathensBetaMap_mesh_0034

# Faces
f 1/1/1 2/2/1 3/3/1 4/4/1
f 5/5/1 6/6/1 7/7/1 8/8/1
f 9/9/1 10/10/1 11/11/1 12/12/1
f 13/13/1 14/14/1 15/15/1 16/16/1
f 17/17/1 18/18/1 19/19/1 20/20/1
f 21/17/1 22/18/1 23/19/1 24/20/1
f 25/9/1 26/10/1 27/11/1 28/12/1
f 29/9/1 30/10/1 31/11/1 32/12/1
f 33/13/1 34/14/1 35/15/1 36/16/1
f 37/13/1 38/14/1 39/15/1 40/16/1
f 41/17/1 42/18/1 43/19/1 44/20/1
f 45/17/1 46/18/1 47/19/1 48/20/1
f 49/9/1 50/10/1 51/11/1 52/12/1
f 53/13/1 54/14/1 55/15/1 56/16/1
f 57/17/1 58/18/1 59/19/1 60/20/1
f 61/21/1 62/22/1 63/23/1 64/24/1
f 65/25/1 66/26/1 67/27/1 68/28/1
f 69/29/1 70/30/1 71/31/1 72/32/1
f 73/33/1 74/34/1 75/35/1 76/36/1
f 77/37/1 78/38/1 79/39/1 80/40/1
f 81/41/1 82/42/1 83/43/1 84/44/1
f 85/45/1 86/46/1 87/47/1 88/48/1
f 89/49/1 90/50/1 91/51/1 92/52/1
f 93/53/1 94/54/1 95/55/1 96/56/1
f 97/57/1 98/58/1 99/59/1 100/60/1
f 101/9/1 102/10/1 103/11/1 104/12/1
f 105/13/1 106/14/1 107/15/1 108/16/1
f 109/17/1 110/18/1 111/19/1 112/20/1
f 113/57/1 114/58/1 115/59/1 116/60/1
f 117/9/1 118/10/1 119/11/1 120/12/1
f 121/57/1 122/58/1 123/59/1 124/60/1
f 125/9/1 126/10/1 127/11/1 128/12/1
f 129/9/1 130/10/1 131/11/1 132/12/1
f 133/9/1 134/10/1 135/11/1 136/12/1
f 137/9/1 138/10/1 139/11/1 140/12/1
f 141/9/1 142/10/1 143/11/1 144/12/1
f 145/61/1 146/62/1 147/63/1 148/64/1
f 149/13/1 150/14/1 151/15/1 152/16/1
f 153/61/1 154/62/1 155/63/1 156/64/1
f 157/13/1 158/14/1 159/15/1 160/16/1
f 161/13/1 162/14/1 163/15/1 164/16/1
f 165/13/1 166/14/1 167/15/1 168/16/1
f 169/13/1 170/14/1 171/15/1 172/16/1
f 173/13/1 174/14/1 175/15/1 176/16/1
f 177/17/1 178/18/1 179/19/1 180/20/1
f 181/17/1 182/18/1 183/19/1 184/20/1
f 185/17/1 186/18/1 187/19/1 188/20/1
f 189/17/1 190/18/1 191/19/1 192/20/1
f 193/17/1 194/18/1 195/19/1 196/20/1
f 197/17/1 198/18/1 199/19/1 200/20/1
f 201/17/1 202/18/1 203/19/1 204/20/1
f 205/17/1 206/18/1 207/19/1 208/20/1
f 209/9/1 210/10/1 211/11/1 212/12/1
f 213/9/1 214/10/1 215/11/1 216/12/1
f 217/9/1 218/10/1 219/11/1 220/12/1
f 221/9/1 222/10/1 223/11/1 224/12/1
f 225/13/1 226/14/1 227/15/1 228/16/1
f 229/13/1 230/14/1 231/15/1 232/16/1
f 233/13/1 234/14/1 235/15/1 236/16/1
f 237/13/1 238/14/1 239/15/1 240/16/1
f 241/17/1 242/18/1 243/19/1 244/20/1
f 245/17/1 246/18/1 247/19/1 248/20/1
f 249/17/1 250/18/1 251/19/1 252/20/1
f 253/17/1 254/18/1 255/19/1 256/20/1

