# Tiled2Unity generated file. Do not modify by hand.
# Wavefront file for 'tomathensBetaMap_mesh_0020.obj'

# Vertices (Count = 8)
v -139 -77 0
v -140 -77 0
v -140 -76 0
v -139 -76 0
v -217 -197 0
v -218 -197 0
v -218 -196 0
v -217 -196 0

# Texture cooridinates (Count = 8)
vt 0.4207921 0.8735632
vt 0.4603961 0.8735632
vt 0.4603961 0.9348659
vt 0.4207921 0.9348659
vt 0.3787129 0.8084291
vt 0.4183168 0.8084291
vt 0.4183168 0.8697318
vt 0.3787129 0.8697318

# Normal
vn 0 0 -1

# Mesh description
g tomathensBetaMap_mesh_0020

# Faces
f 1/1/1 2/2/1 3/3/1 4/4/1
f 5/5/1 6/6/1 7/7/1 8/8/1

