# Tiled2Unity generated file. Do not modify by hand.
# Wavefront file for 'tomathensBetaMap_mesh_0030.obj'

# Vertices (Count = 216)
v -161 -40 0
v -162 -40 0
v -162 -39 0
v -161 -39 0
v -160 -40 0
v -161 -40 0
v -161 -39 0
v -160 -39 0
v -91 -40 0
v -92 -40 0
v -92 -39 0
v -91 -39 0
v -90 -40 0
v -91 -40 0
v -91 -39 0
v -90 -39 0
v -161 -41 0
v -162 -41 0
v -162 -40 0
v -161 -40 0
v -160 -41 0
v -161 -41 0
v -161 -40 0
v -160 -40 0
v -91 -41 0
v -92 -41 0
v -92 -40 0
v -91 -40 0
v -90 -41 0
v -91 -41 0
v -91 -40 0
v -90 -40 0
v -161 -42 0
v -162 -42 0
v -162 -41 0
v -161 -41 0
v -160 -42 0
v -161 -42 0
v -161 -41 0
v -160 -41 0
v -91 -42 0
v -92 -42 0
v -92 -41 0
v -91 -41 0
v -90 -42 0
v -91 -42 0
v -91 -41 0
v -90 -41 0
v -116 -47 0
v -117 -47 0
v -117 -46 0
v -116 -46 0
v -115 -47 0
v -116 -47 0
v -116 -46 0
v -115 -46 0
v -116 -48 0
v -117 -48 0
v -117 -47 0
v -116 -47 0
v -115 -48 0
v -116 -48 0
v -116 -47 0
v -115 -47 0
v -116 -49 0
v -117 -49 0
v -117 -48 0
v -116 -48 0
v -115 -49 0
v -116 -49 0
v -116 -48 0
v -115 -48 0
v -96 -58 0
v -97 -58 0
v -97 -57 0
v -96 -57 0
v -95 -58 0
v -96 -58 0
v -96 -57 0
v -95 -57 0
v -96 -59 0
v -97 -59 0
v -97 -58 0
v -96 -58 0
v -95 -59 0
v -96 -59 0
v -96 -58 0
v -95 -58 0
v -96 -60 0
v -97 -60 0
v -97 -59 0
v -96 -59 0
v -95 -60 0
v -96 -60 0
v -96 -59 0
v -95 -59 0
v -139 -61 0
v -140 -61 0
v -140 -60 0
v -139 -60 0
v -138 -61 0
v -139 -61 0
v -139 -60 0
v -138 -60 0
v -139 -62 0
v -140 -62 0
v -140 -61 0
v -139 -61 0
v -138 -62 0
v -139 -62 0
v -139 -61 0
v -138 -61 0
v -139 -63 0
v -140 -63 0
v -140 -62 0
v -139 -62 0
v -138 -63 0
v -139 -63 0
v -139 -62 0
v -138 -62 0
v -127 -182 0
v -128 -182 0
v -128 -181 0
v -127 -181 0
v -130 -183 0
v -131 -183 0
v -131 -182 0
v -130 -182 0
v -130 -186 0
v -131 -186 0
v -131 -185 0
v -130 -185 0
v -127 -186 0
v -128 -186 0
v -128 -185 0
v -127 -185 0
v -114 -214 0
v -115 -214 0
v -115 -213 0
v -114 -213 0
v -113 -214 0
v -114 -214 0
v -114 -213 0
v -113 -213 0
v -114 -215 0
v -115 -215 0
v -115 -214 0
v -114 -214 0
v -113 -215 0
v -114 -215 0
v -114 -214 0
v -113 -214 0
v -114 -216 0
v -115 -216 0
v -115 -215 0
v -114 -215 0
v -113 -216 0
v -114 -216 0
v -114 -215 0
v -113 -215 0
v -155 -222 0
v -156 -222 0
v -156 -221 0
v -155 -221 0
v -103 -234 0
v -104 -234 0
v -104 -233 0
v -103 -233 0
v -142 -235 0
v -143 -235 0
v -143 -234 0
v -142 -234 0
v -141 -235 0
v -142 -235 0
v -142 -234 0
v -141 -234 0
v -142 -236 0
v -143 -236 0
v -143 -235 0
v -142 -235 0
v -141 -236 0
v -142 -236 0
v -142 -235 0
v -141 -235 0
v -142 -237 0
v -143 -237 0
v -143 -236 0
v -142 -236 0
v -141 -237 0
v -142 -237 0
v -142 -236 0
v -141 -236 0
v -136 -241 0
v -137 -241 0
v -137 -240 0
v -136 -240 0
v -135 -241 0
v -136 -241 0
v -136 -240 0
v -135 -240 0
v -136 -242 0
v -137 -242 0
v -137 -241 0
v -136 -241 0
v -135 -242 0
v -136 -242 0
v -136 -241 0
v -135 -241 0
v -136 -243 0
v -137 -243 0
v -137 -242 0
v -136 -242 0
v -135 -243 0
v -136 -243 0
v -136 -242 0
v -135 -242 0

# Texture cooridinates (Count = 40)
vt 0.6296296 0.9227053
vt 0.728395 0.9227053
vt 0.728395 1
vt 0.6296296 1
vt 0.5246913 0.9227053
vt 0.6234568 0.9227053
vt 0.6234568 1
vt 0.5246913 1
vt 0.6296296 0.8405797
vt 0.728395 0.8405797
vt 0.728395 0.9178744
vt 0.6296296 0.9178744
vt 0.5246913 0.8405797
vt 0.6234568 0.8405797
vt 0.6234568 0.9178744
vt 0.5246913 0.9178744
vt 0.6296296 0.7584541
vt 0.728395 0.7584541
vt 0.728395 0.8357488
vt 0.6296296 0.8357488
vt 0.5246913 0.7584541
vt 0.6234568 0.7584541
vt 0.6234568 0.8357488
vt 0.5246913 0.8357488
vt 0.4197531 0.7584541
vt 0.5185185 0.7584541
vt 0.5185185 0.8357488
vt 0.4197531 0.8357488
vt 0.4197531 0.9227053
vt 0.5185185 0.9227053
vt 0.5185185 1
vt 0.4197531 1
vt 0.3148148 0.8405797
vt 0.4135802 0.8405797
vt 0.4135802 0.9178744
vt 0.3148148 0.9178744
vt 0.4197531 0.8405797
vt 0.5185185 0.8405797
vt 0.5185185 0.9178744
vt 0.4197531 0.9178744

# Normal
vn 0 0 -1

# Mesh description
g tomathensBetaMap_mesh_0030

# Faces
f 1/1/1 2/2/1 3/3/1 4/4/1
f 5/5/1 6/6/1 7/7/1 8/8/1
f 9/1/1 10/2/1 11/3/1 12/4/1
f 13/5/1 14/6/1 15/7/1 16/8/1
f 17/9/1 18/10/1 19/11/1 20/12/1
f 21/13/1 22/14/1 23/15/1 24/16/1
f 25/9/1 26/10/1 27/11/1 28/12/1
f 29/13/1 30/14/1 31/15/1 32/16/1
f 33/17/1 34/18/1 35/19/1 36/20/1
f 37/21/1 38/22/1 39/23/1 40/24/1
f 41/17/1 42/18/1 43/19/1 44/20/1
f 45/21/1 46/22/1 47/23/1 48/24/1
f 49/1/1 50/2/1 51/3/1 52/4/1
f 53/5/1 54/6/1 55/7/1 56/8/1
f 57/9/1 58/10/1 59/11/1 60/12/1
f 61/13/1 62/14/1 63/15/1 64/16/1
f 65/17/1 66/18/1 67/19/1 68/20/1
f 69/21/1 70/22/1 71/23/1 72/24/1
f 73/1/1 74/2/1 75/3/1 76/4/1
f 77/5/1 78/6/1 79/7/1 80/8/1
f 81/9/1 82/10/1 83/11/1 84/12/1
f 85/13/1 86/14/1 87/15/1 88/16/1
f 89/17/1 90/18/1 91/19/1 92/20/1
f 93/21/1 94/22/1 95/23/1 96/24/1
f 97/1/1 98/2/1 99/3/1 100/4/1
f 101/5/1 102/6/1 103/7/1 104/8/1
f 105/9/1 106/10/1 107/11/1 108/12/1
f 109/13/1 110/14/1 111/15/1 112/16/1
f 113/17/1 114/18/1 115/19/1 116/20/1
f 117/21/1 118/22/1 119/23/1 120/24/1
f 121/25/1 122/26/1 123/27/1 124/28/1
f 125/29/1 126/30/1 127/31/1 128/32/1
f 129/33/1 130/34/1 131/35/1 132/36/1
f 133/37/1 134/38/1 135/39/1 136/40/1
f 137/1/1 138/2/1 139/3/1 140/4/1
f 141/5/1 142/6/1 143/7/1 144/8/1
f 145/9/1 146/10/1 147/11/1 148/12/1
f 149/13/1 150/14/1 151/15/1 152/16/1
f 153/17/1 154/18/1 155/19/1 156/20/1
f 157/21/1 158/22/1 159/23/1 160/24/1
f 161/33/1 162/34/1 163/35/1 164/36/1
f 165/29/1 166/30/1 167/31/1 168/32/1
f 169/1/1 170/2/1 171/3/1 172/4/1
f 173/5/1 174/6/1 175/7/1 176/8/1
f 177/9/1 178/10/1 179/11/1 180/12/1
f 181/13/1 182/14/1 183/15/1 184/16/1
f 185/17/1 186/18/1 187/19/1 188/20/1
f 189/21/1 190/22/1 191/23/1 192/24/1
f 193/1/1 194/2/1 195/3/1 196/4/1
f 197/5/1 198/6/1 199/7/1 200/8/1
f 201/9/1 202/10/1 203/11/1 204/12/1
f 205/13/1 206/14/1 207/15/1 208/16/1
f 209/17/1 210/18/1 211/19/1 212/20/1
f 213/21/1 214/22/1 215/23/1 216/24/1

