# Tiled2Unity generated file. Do not modify by hand.
# Wavefront file for 'tomathensBetaMap_mesh_0092.obj'

# Vertices (Count = 632)
v -180 -151 0
v -181 -151 0
v -181 -150 0
v -180 -150 0
v -189 -152 0
v -190 -152 0
v -190 -151 0
v -189 -151 0
v -188 -152 0
v -189 -152 0
v -189 -151 0
v -188 -151 0
v -187 -152 0
v -188 -152 0
v -188 -151 0
v -187 -151 0
v -186 -152 0
v -187 -152 0
v -187 -151 0
v -186 -151 0
v -185 -152 0
v -186 -152 0
v -186 -151 0
v -185 -151 0
v -184 -152 0
v -185 -152 0
v -185 -151 0
v -184 -151 0
v -183 -152 0
v -184 -152 0
v -184 -151 0
v -183 -151 0
v -182 -152 0
v -183 -152 0
v -183 -151 0
v -182 -151 0
v -181 -152 0
v -182 -152 0
v -182 -151 0
v -181 -151 0
v -180 -152 0
v -181 -152 0
v -181 -151 0
v -180 -151 0
v -189 -153 0
v -190 -153 0
v -190 -152 0
v -189 -152 0
v -188 -153 0
v -189 -153 0
v -189 -152 0
v -188 -152 0
v -187 -153 0
v -188 -153 0
v -188 -152 0
v -187 -152 0
v -186 -153 0
v -187 -153 0
v -187 -152 0
v -186 -152 0
v -185 -153 0
v -186 -153 0
v -186 -152 0
v -185 -152 0
v -184 -153 0
v -185 -153 0
v -185 -152 0
v -184 -152 0
v -183 -153 0
v -184 -153 0
v -184 -152 0
v -183 -152 0
v -182 -153 0
v -183 -153 0
v -183 -152 0
v -182 -152 0
v -181 -153 0
v -182 -153 0
v -182 -152 0
v -181 -152 0
v -180 -153 0
v -181 -153 0
v -181 -152 0
v -180 -152 0
v -189 -154 0
v -190 -154 0
v -190 -153 0
v -189 -153 0
v -188 -154 0
v -189 -154 0
v -189 -153 0
v -188 -153 0
v -187 -154 0
v -188 -154 0
v -188 -153 0
v -187 -153 0
v -186 -154 0
v -187 -154 0
v -187 -153 0
v -186 -153 0
v -185 -154 0
v -186 -154 0
v -186 -153 0
v -185 -153 0
v -184 -154 0
v -185 -154 0
v -185 -153 0
v -184 -153 0
v -183 -154 0
v -184 -154 0
v -184 -153 0
v -183 -153 0
v -182 -154 0
v -183 -154 0
v -183 -153 0
v -182 -153 0
v -181 -154 0
v -182 -154 0
v -182 -153 0
v -181 -153 0
v -180 -154 0
v -181 -154 0
v -181 -153 0
v -180 -153 0
v -189 -155 0
v -190 -155 0
v -190 -154 0
v -189 -154 0
v -188 -155 0
v -189 -155 0
v -189 -154 0
v -188 -154 0
v -187 -155 0
v -188 -155 0
v -188 -154 0
v -187 -154 0
v -186 -155 0
v -187 -155 0
v -187 -154 0
v -186 -154 0
v -185 -155 0
v -186 -155 0
v -186 -154 0
v -185 -154 0
v -184 -155 0
v -185 -155 0
v -185 -154 0
v -184 -154 0
v -183 -155 0
v -184 -155 0
v -184 -154 0
v -183 -154 0
v -182 -155 0
v -183 -155 0
v -183 -154 0
v -182 -154 0
v -181 -155 0
v -182 -155 0
v -182 -154 0
v -181 -154 0
v -180 -155 0
v -181 -155 0
v -181 -154 0
v -180 -154 0
v -189 -156 0
v -190 -156 0
v -190 -155 0
v -189 -155 0
v -188 -156 0
v -189 -156 0
v -189 -155 0
v -188 -155 0
v -187 -156 0
v -188 -156 0
v -188 -155 0
v -187 -155 0
v -186 -156 0
v -187 -156 0
v -187 -155 0
v -186 -155 0
v -185 -156 0
v -186 -156 0
v -186 -155 0
v -185 -155 0
v -184 -156 0
v -185 -156 0
v -185 -155 0
v -184 -155 0
v -183 -156 0
v -184 -156 0
v -184 -155 0
v -183 -155 0
v -182 -156 0
v -183 -156 0
v -183 -155 0
v -182 -155 0
v -181 -156 0
v -182 -156 0
v -182 -155 0
v -181 -155 0
v -180 -156 0
v -181 -156 0
v -181 -155 0
v -180 -155 0
v -212 -219 0
v -213 -219 0
v -213 -218 0
v -212 -218 0
v -211 -219 0
v -212 -219 0
v -212 -218 0
v -211 -218 0
v -210 -219 0
v -211 -219 0
v -211 -218 0
v -210 -218 0
v -209 -219 0
v -210 -219 0
v -210 -218 0
v -209 -218 0
v -208 -219 0
v -209 -219 0
v -209 -218 0
v -208 -218 0
v -207 -219 0
v -208 -219 0
v -208 -218 0
v -207 -218 0
v -206 -219 0
v -207 -219 0
v -207 -218 0
v -206 -218 0
v -205 -219 0
v -206 -219 0
v -206 -218 0
v -205 -218 0
v -204 -219 0
v -205 -219 0
v -205 -218 0
v -204 -218 0
v -203 -219 0
v -204 -219 0
v -204 -218 0
v -203 -218 0
v -202 -219 0
v -203 -219 0
v -203 -218 0
v -202 -218 0
v -201 -219 0
v -202 -219 0
v -202 -218 0
v -201 -218 0
v -200 -219 0
v -201 -219 0
v -201 -218 0
v -200 -218 0
v -199 -219 0
v -200 -219 0
v -200 -218 0
v -199 -218 0
v -198 -219 0
v -199 -219 0
v -199 -218 0
v -198 -218 0
v -197 -219 0
v -198 -219 0
v -198 -218 0
v -197 -218 0
v -212 -220 0
v -213 -220 0
v -213 -219 0
v -212 -219 0
v -211 -220 0
v -212 -220 0
v -212 -219 0
v -211 -219 0
v -210 -220 0
v -211 -220 0
v -211 -219 0
v -210 -219 0
v -209 -220 0
v -210 -220 0
v -210 -219 0
v -209 -219 0
v -208 -220 0
v -209 -220 0
v -209 -219 0
v -208 -219 0
v -207 -220 0
v -208 -220 0
v -208 -219 0
v -207 -219 0
v -206 -220 0
v -207 -220 0
v -207 -219 0
v -206 -219 0
v -205 -220 0
v -206 -220 0
v -206 -219 0
v -205 -219 0
v -204 -220 0
v -205 -220 0
v -205 -219 0
v -204 -219 0
v -203 -220 0
v -204 -220 0
v -204 -219 0
v -203 -219 0
v -202 -220 0
v -203 -220 0
v -203 -219 0
v -202 -219 0
v -201 -220 0
v -202 -220 0
v -202 -219 0
v -201 -219 0
v -200 -220 0
v -201 -220 0
v -201 -219 0
v -200 -219 0
v -199 -220 0
v -200 -220 0
v -200 -219 0
v -199 -219 0
v -198 -220 0
v -199 -220 0
v -199 -219 0
v -198 -219 0
v -197 -220 0
v -198 -220 0
v -198 -219 0
v -197 -219 0
v -212 -221 0
v -213 -221 0
v -213 -220 0
v -212 -220 0
v -211 -221 0
v -212 -221 0
v -212 -220 0
v -211 -220 0
v -206 -221 0
v -207 -221 0
v -207 -220 0
v -206 -220 0
v -203 -221 0
v -204 -221 0
v -204 -220 0
v -203 -220 0
v -198 -221 0
v -199 -221 0
v -199 -220 0
v -198 -220 0
v -197 -221 0
v -198 -221 0
v -198 -220 0
v -197 -220 0
v -212 -222 0
v -213 -222 0
v -213 -221 0
v -212 -221 0
v -211 -222 0
v -212 -222 0
v -212 -221 0
v -211 -221 0
v -201 -222 0
v -202 -222 0
v -202 -221 0
v -201 -221 0
v -198 -222 0
v -199 -222 0
v -199 -221 0
v -198 -221 0
v -197 -222 0
v -198 -222 0
v -198 -221 0
v -197 -221 0
v -58 -222 0
v -59 -222 0
v -59 -221 0
v -58 -221 0
v -212 -223 0
v -213 -223 0
v -213 -222 0
v -212 -222 0
v -197 -223 0
v -198 -223 0
v -198 -222 0
v -197 -222 0
v -58 -223 0
v -59 -223 0
v -59 -222 0
v -58 -222 0
v -212 -224 0
v -213 -224 0
v -213 -223 0
v -212 -223 0
v -197 -224 0
v -198 -224 0
v -198 -223 0
v -197 -223 0
v -212 -225 0
v -213 -225 0
v -213 -224 0
v -212 -224 0
v -197 -225 0
v -198 -225 0
v -198 -224 0
v -197 -224 0
v -48 -225 0
v -49 -225 0
v -49 -224 0
v -48 -224 0
v -47 -225 0
v -48 -225 0
v -48 -224 0
v -47 -224 0
v -46 -225 0
v -47 -225 0
v -47 -224 0
v -46 -224 0
v -212 -226 0
v -213 -226 0
v -213 -225 0
v -212 -225 0
v -197 -226 0
v -198 -226 0
v -198 -225 0
v -197 -225 0
v -212 -227 0
v -213 -227 0
v -213 -226 0
v -212 -226 0
v -211 -227 0
v -212 -227 0
v -212 -226 0
v -211 -226 0
v -210 -227 0
v -211 -227 0
v -211 -226 0
v -210 -226 0
v -209 -227 0
v -210 -227 0
v -210 -226 0
v -209 -226 0
v -208 -227 0
v -209 -227 0
v -209 -226 0
v -208 -226 0
v -207 -227 0
v -208 -227 0
v -208 -226 0
v -207 -226 0
v -206 -227 0
v -207 -227 0
v -207 -226 0
v -206 -226 0
v -205 -227 0
v -206 -227 0
v -206 -226 0
v -205 -226 0
v -204 -227 0
v -205 -227 0
v -205 -226 0
v -204 -226 0
v -203 -227 0
v -204 -227 0
v -204 -226 0
v -203 -226 0
v -202 -227 0
v -203 -227 0
v -203 -226 0
v -202 -226 0
v -201 -227 0
v -202 -227 0
v -202 -226 0
v -201 -226 0
v -200 -227 0
v -201 -227 0
v -201 -226 0
v -200 -226 0
v -199 -227 0
v -200 -227 0
v -200 -226 0
v -199 -226 0
v -198 -227 0
v -199 -227 0
v -199 -226 0
v -198 -226 0
v -197 -227 0
v -198 -227 0
v -198 -226 0
v -197 -226 0
v -212 -228 0
v -213 -228 0
v -213 -227 0
v -212 -227 0
v -211 -228 0
v -212 -228 0
v -212 -227 0
v -211 -227 0
v -210 -228 0
v -211 -228 0
v -211 -227 0
v -210 -227 0
v -209 -228 0
v -210 -228 0
v -210 -227 0
v -209 -227 0
v -208 -228 0
v -209 -228 0
v -209 -227 0
v -208 -227 0
v -207 -228 0
v -208 -228 0
v -208 -227 0
v -207 -227 0
v -206 -228 0
v -207 -228 0
v -207 -227 0
v -206 -227 0
v -205 -228 0
v -206 -228 0
v -206 -227 0
v -205 -227 0
v -204 -228 0
v -205 -228 0
v -205 -227 0
v -204 -227 0
v -203 -228 0
v -204 -228 0
v -204 -227 0
v -203 -227 0
v -202 -228 0
v -203 -228 0
v -203 -227 0
v -202 -227 0
v -201 -228 0
v -202 -228 0
v -202 -227 0
v -201 -227 0
v -200 -228 0
v -201 -228 0
v -201 -227 0
v -200 -227 0
v -199 -228 0
v -200 -228 0
v -200 -227 0
v -199 -227 0
v -198 -228 0
v -199 -228 0
v -199 -227 0
v -198 -227 0
v -197 -228 0
v -198 -228 0
v -198 -227 0
v -197 -227 0
v -212 -229 0
v -213 -229 0
v -213 -228 0
v -212 -228 0
v -211 -229 0
v -212 -229 0
v -212 -228 0
v -211 -228 0
v -210 -229 0
v -211 -229 0
v -211 -228 0
v -210 -228 0
v -209 -229 0
v -210 -229 0
v -210 -228 0
v -209 -228 0
v -208 -229 0
v -209 -229 0
v -209 -228 0
v -208 -228 0
v -207 -229 0
v -208 -229 0
v -208 -228 0
v -207 -228 0
v -206 -229 0
v -207 -229 0
v -207 -228 0
v -206 -228 0
v -205 -229 0
v -206 -229 0
v -206 -228 0
v -205 -228 0
v -204 -229 0
v -205 -229 0
v -205 -228 0
v -204 -228 0
v -203 -229 0
v -204 -229 0
v -204 -228 0
v -203 -228 0
v -202 -229 0
v -203 -229 0
v -203 -228 0
v -202 -228 0
v -200 -229 0
v -201 -229 0
v -201 -228 0
v -200 -228 0
v -199 -229 0
v -200 -229 0
v -200 -228 0
v -199 -228 0
v -198 -229 0
v -199 -229 0
v -199 -228 0
v -198 -228 0
v -197 -229 0
v -198 -229 0
v -198 -228 0
v -197 -228 0
v -46 -229 0
v -47 -229 0
v -47 -228 0
v -46 -228 0
v -46 -230 0
v -47 -230 0
v -47 -229 0
v -46 -229 0
v -211 -231 0
v -212 -231 0
v -212 -230 0
v -211 -230 0
v -198 -231 0
v -199 -231 0
v -199 -230 0
v -198 -230 0

# Texture cooridinates (Count = 236)
vt 0.07488987 0.9082969
vt 0.09251101 0.9082969
vt 0.09251101 0.9257642
vt 0.07488987 0.9257642
vt 0.1685022 0.889738
vt 0.1861233 0.889738
vt 0.1861233 0.9072052
vt 0.1685022 0.9072052
vt 0.1497797 0.889738
vt 0.1674009 0.889738
vt 0.1674009 0.9072052
vt 0.1497797 0.9072052
vt 0.1310573 0.889738
vt 0.1486784 0.889738
vt 0.1486784 0.9072052
vt 0.1310573 0.9072052
vt 0.1123348 0.889738
vt 0.1299559 0.889738
vt 0.1299559 0.9072052
vt 0.1123348 0.9072052
vt 0.09361234 0.889738
vt 0.1112335 0.889738
vt 0.1112335 0.9072052
vt 0.09361234 0.9072052
vt 0.07488987 0.889738
vt 0.09251101 0.889738
vt 0.09251101 0.9072052
vt 0.07488987 0.9072052
vt 0.1685022 0.871179
vt 0.1861233 0.871179
vt 0.1861233 0.8886463
vt 0.1685022 0.8886463
vt 0.1497797 0.871179
vt 0.1674009 0.871179
vt 0.1674009 0.8886463
vt 0.1497797 0.8886463
vt 0.1310573 0.871179
vt 0.1486784 0.871179
vt 0.1486784 0.8886463
vt 0.1310573 0.8886463
vt 0.1123348 0.871179
vt 0.1299559 0.871179
vt 0.1299559 0.8886463
vt 0.1123348 0.8886463
vt 0.09361234 0.871179
vt 0.1112335 0.871179
vt 0.1112335 0.8886463
vt 0.09361234 0.8886463
vt 0.07488987 0.871179
vt 0.09251101 0.871179
vt 0.09251101 0.8886463
vt 0.07488987 0.8886463
vt 0.1685022 0.8526201
vt 0.1861233 0.8526201
vt 0.1861233 0.8700873
vt 0.1685022 0.8700873
vt 0.1497797 0.8526201
vt 0.1674009 0.8526201
vt 0.1674009 0.8700873
vt 0.1497797 0.8700873
vt 0.1310573 0.8526201
vt 0.1486784 0.8526201
vt 0.1486784 0.8700873
vt 0.1310573 0.8700873
vt 0.1123348 0.8526201
vt 0.1299559 0.8526201
vt 0.1299559 0.8700873
vt 0.1123348 0.8700873
vt 0.09361234 0.8526201
vt 0.1112335 0.8526201
vt 0.1112335 0.8700873
vt 0.09361234 0.8700873
vt 0.07488987 0.8526201
vt 0.09251101 0.8526201
vt 0.09251101 0.8700873
vt 0.07488987 0.8700873
vt 0.1685022 0.8340611
vt 0.1861233 0.8340611
vt 0.1861233 0.8515284
vt 0.1685022 0.8515284
vt 0.1497797 0.8340611
vt 0.1674009 0.8340611
vt 0.1674009 0.8515284
vt 0.1497797 0.8515284
vt 0.1310573 0.8340611
vt 0.1486784 0.8340611
vt 0.1486784 0.8515284
vt 0.1310573 0.8515284
vt 0.1123348 0.8340611
vt 0.1299559 0.8340611
vt 0.1299559 0.8515284
vt 0.1123348 0.8515284
vt 0.09361234 0.8340611
vt 0.1112335 0.8340611
vt 0.1112335 0.8515284
vt 0.09361234 0.8515284
vt 0.07488987 0.8340611
vt 0.09251101 0.8340611
vt 0.09251101 0.8515284
vt 0.07488987 0.8515284
vt 0.1685022 0.8155022
vt 0.1861233 0.8155022
vt 0.1861233 0.8329694
vt 0.1685022 0.8329694
vt 0.1497797 0.8155022
vt 0.1674009 0.8155022
vt 0.1674009 0.8329694
vt 0.1497797 0.8329694
vt 0.1310573 0.8155022
vt 0.1486784 0.8155022
vt 0.1486784 0.8329694
vt 0.1310573 0.8329694
vt 0.1123348 0.8155022
vt 0.1299559 0.8155022
vt 0.1299559 0.8329694
vt 0.1123348 0.8329694
vt 0.09361234 0.8155022
vt 0.1112335 0.8155022
vt 0.1112335 0.8329694
vt 0.09361234 0.8329694
vt 0.07488987 0.8155022
vt 0.09251101 0.8155022
vt 0.09251101 0.8329694
vt 0.07488987 0.8329694
vt 0.1685022 0.9825327
vt 0.1861233 0.9825327
vt 0.1861233 1
vt 0.1685022 1
vt 0.1497797 0.9825327
vt 0.1674009 0.9825327
vt 0.1674009 1
vt 0.1497797 1
vt 0.1310573 0.9825327
vt 0.1486784 0.9825327
vt 0.1486784 1
vt 0.1310573 1
vt 0.1123348 0.9825327
vt 0.1299559 0.9825327
vt 0.1299559 1
vt 0.1123348 1
vt 0.09361234 0.9825327
vt 0.1112335 0.9825327
vt 0.1112335 1
vt 0.09361234 1
vt 0.1872247 0.9825327
vt 0.2048458 0.9825327
vt 0.2048458 1
vt 0.1872247 1
vt 0.07488987 0.9825327
vt 0.09251101 0.9825327
vt 0.09251101 1
vt 0.07488987 1
vt 0.1685022 0.9639738
vt 0.1861233 0.9639738
vt 0.1861233 0.981441
vt 0.1685022 0.981441
vt 0.1497797 0.9639738
vt 0.1674009 0.9639738
vt 0.1674009 0.981441
vt 0.1497797 0.981441
vt 0.1310573 0.9639738
vt 0.1486784 0.9639738
vt 0.1486784 0.981441
vt 0.1310573 0.981441
vt 0.1123348 0.9639738
vt 0.1299559 0.9639738
vt 0.1299559 0.981441
vt 0.1123348 0.981441
vt 0.09361234 0.9639738
vt 0.1112335 0.9639738
vt 0.1112335 0.981441
vt 0.09361234 0.981441
vt 0.1872247 0.9639738
vt 0.2048458 0.9639738
vt 0.2048458 0.981441
vt 0.1872247 0.981441
vt 0.07488987 0.9639738
vt 0.09251101 0.9639738
vt 0.09251101 0.981441
vt 0.07488987 0.981441
vt 0.1685022 0.9454148
vt 0.1861233 0.9454148
vt 0.1861233 0.9628821
vt 0.1685022 0.9628821
vt 0.1497797 0.9454148
vt 0.1674009 0.9454148
vt 0.1674009 0.9628821
vt 0.1497797 0.9628821
vt 0.09361234 0.9454148
vt 0.1112335 0.9454148
vt 0.1112335 0.9628821
vt 0.09361234 0.9628821
vt 0.07488987 0.9454148
vt 0.09251101 0.9454148
vt 0.09251101 0.9628821
vt 0.07488987 0.9628821
vt 0.1685022 0.9268559
vt 0.1861233 0.9268559
vt 0.1861233 0.9443231
vt 0.1685022 0.9443231
vt 0.1497797 0.9268559
vt 0.1674009 0.9268559
vt 0.1674009 0.9443231
vt 0.1497797 0.9443231
vt 0.09361234 0.9268559
vt 0.1112335 0.9268559
vt 0.1112335 0.9443231
vt 0.09361234 0.9443231
vt 0.07488987 0.9268559
vt 0.09251101 0.9268559
vt 0.09251101 0.9443231
vt 0.07488987 0.9443231
vt 0.1685022 0.9082969
vt 0.1861233 0.9082969
vt 0.1861233 0.9257642
vt 0.1685022 0.9257642
vt 0.1310573 0.9082969
vt 0.1486784 0.9082969
vt 0.1486784 0.9257642
vt 0.1310573 0.9257642
vt 0.1123348 0.9082969
vt 0.1299559 0.9082969
vt 0.1299559 0.9257642
vt 0.1123348 0.9257642
vt 0.09361234 0.9082969
vt 0.1112335 0.9082969
vt 0.1112335 0.9257642
vt 0.09361234 0.9257642
vt 0.1872247 0.871179
vt 0.2048458 0.871179
vt 0.2048458 0.8886463
vt 0.1872247 0.8886463
vt 0.1872247 0.8526201
vt 0.2048458 0.8526201
vt 0.2048458 0.8700873
vt 0.1872247 0.8700873

# Normal
vn 0 0 -1

# Mesh description
g tomathensBetaMap_mesh_0092

# Faces
f 1/1/1 2/2/1 3/3/1 4/4/1
f 5/5/1 6/6/1 7/7/1 8/8/1
f 9/9/1 10/10/1 11/11/1 12/12/1
f 13/13/1 14/14/1 15/15/1 16/16/1
f 17/17/1 18/18/1 19/19/1 20/20/1
f 21/13/1 22/14/1 23/15/1 24/16/1
f 25/17/1 26/18/1 27/19/1 28/20/1
f 29/13/1 30/14/1 31/15/1 32/16/1
f 33/17/1 34/18/1 35/19/1 36/20/1
f 37/21/1 38/22/1 39/23/1 40/24/1
f 41/25/1 42/26/1 43/27/1 44/28/1
f 45/29/1 46/30/1 47/31/1 48/32/1
f 49/33/1 50/34/1 51/35/1 52/36/1
f 53/37/1 54/38/1 55/39/1 56/40/1
f 57/41/1 58/42/1 59/43/1 60/44/1
f 61/37/1 62/38/1 63/39/1 64/40/1
f 65/41/1 66/42/1 67/43/1 68/44/1
f 69/37/1 70/38/1 71/39/1 72/40/1
f 73/41/1 74/42/1 75/43/1 76/44/1
f 77/45/1 78/46/1 79/47/1 80/48/1
f 81/49/1 82/50/1 83/51/1 84/52/1
f 85/53/1 86/54/1 87/55/1 88/56/1
f 89/57/1 90/58/1 91/59/1 92/60/1
f 93/61/1 94/62/1 95/63/1 96/64/1
f 97/65/1 98/66/1 99/67/1 100/68/1
f 101/61/1 102/62/1 103/63/1 104/64/1
f 105/65/1 106/66/1 107/67/1 108/68/1
f 109/61/1 110/62/1 111/63/1 112/64/1
f 113/65/1 114/66/1 115/67/1 116/68/1
f 117/69/1 118/70/1 119/71/1 120/72/1
f 121/73/1 122/74/1 123/75/1 124/76/1
f 125/77/1 126/78/1 127/79/1 128/80/1
f 129/81/1 130/82/1 131/83/1 132/84/1
f 133/85/1 134/86/1 135/87/1 136/88/1
f 137/89/1 138/90/1 139/91/1 140/92/1
f 141/85/1 142/86/1 143/87/1 144/88/1
f 145/89/1 146/90/1 147/91/1 148/92/1
f 149/85/1 150/86/1 151/87/1 152/88/1
f 153/89/1 154/90/1 155/91/1 156/92/1
f 157/93/1 158/94/1 159/95/1 160/96/1
f 161/97/1 162/98/1 163/99/1 164/100/1
f 165/101/1 166/102/1 167/103/1 168/104/1
f 169/105/1 170/106/1 171/107/1 172/108/1
f 173/109/1 174/110/1 175/111/1 176/112/1
f 177/113/1 178/114/1 179/115/1 180/116/1
f 181/109/1 182/110/1 183/111/1 184/112/1
f 185/113/1 186/114/1 187/115/1 188/116/1
f 189/109/1 190/110/1 191/111/1 192/112/1
f 193/113/1 194/114/1 195/115/1 196/116/1
f 197/117/1 198/118/1 199/119/1 200/120/1
f 201/121/1 202/122/1 203/123/1 204/124/1
f 205/125/1 206/126/1 207/127/1 208/128/1
f 209/129/1 210/130/1 211/131/1 212/132/1
f 213/133/1 214/134/1 215/135/1 216/136/1
f 217/137/1 218/138/1 219/139/1 220/140/1
f 221/141/1 222/142/1 223/143/1 224/144/1
f 225/145/1 226/146/1 227/147/1 228/148/1
f 229/129/1 230/130/1 231/131/1 232/132/1
f 233/133/1 234/134/1 235/135/1 236/136/1
f 237/137/1 238/138/1 239/139/1 240/140/1
f 241/141/1 242/142/1 243/143/1 244/144/1
f 245/145/1 246/146/1 247/147/1 248/148/1
f 249/129/1 250/130/1 251/131/1 252/132/1
f 253/133/1 254/134/1 255/135/1 256/136/1
f 257/137/1 258/138/1 259/139/1 260/140/1
f 261/141/1 262/142/1 263/143/1 264/144/1
f 265/149/1 266/150/1 267/151/1 268/152/1
f 269/153/1 270/154/1 271/155/1 272/156/1
f 273/157/1 274/158/1 275/159/1 276/160/1
f 277/161/1 278/162/1 279/163/1 280/164/1
f 281/165/1 282/166/1 283/167/1 284/168/1
f 285/169/1 286/170/1 287/171/1 288/172/1
f 289/173/1 290/174/1 291/175/1 292/176/1
f 293/157/1 294/158/1 295/159/1 296/160/1
f 297/161/1 298/162/1 299/163/1 300/164/1
f 301/165/1 302/166/1 303/167/1 304/168/1
f 305/169/1 306/170/1 307/171/1 308/172/1
f 309/173/1 310/174/1 311/175/1 312/176/1
f 313/157/1 314/158/1 315/159/1 316/160/1
f 317/161/1 318/162/1 319/163/1 320/164/1
f 321/165/1 322/166/1 323/167/1 324/168/1
f 325/169/1 326/170/1 327/171/1 328/172/1
f 329/177/1 330/178/1 331/179/1 332/180/1
f 333/181/1 334/182/1 335/183/1 336/184/1
f 337/185/1 338/186/1 339/187/1 340/188/1
f 341/185/1 342/186/1 343/187/1 344/188/1
f 345/189/1 346/190/1 347/191/1 348/192/1
f 349/189/1 350/190/1 351/191/1 352/192/1
f 353/193/1 354/194/1 355/195/1 356/196/1
f 357/197/1 358/198/1 359/199/1 360/200/1
f 361/201/1 362/202/1 363/203/1 364/204/1
f 365/201/1 366/202/1 367/203/1 368/204/1
f 369/205/1 370/206/1 371/207/1 372/208/1
f 373/209/1 374/210/1 375/211/1 376/212/1
f 377/157/1 378/158/1 379/159/1 380/160/1
f 381/213/1 382/214/1 383/215/1 384/216/1
f 385/1/1 386/2/1 387/3/1 388/4/1
f 389/185/1 390/186/1 391/187/1 392/188/1
f 393/213/1 394/214/1 395/215/1 396/216/1
f 397/1/1 398/2/1 399/3/1 400/4/1
f 401/213/1 402/214/1 403/215/1 404/216/1
f 405/1/1 406/2/1 407/3/1 408/4/1
f 409/217/1 410/218/1 411/219/1 412/220/1
f 413/221/1 414/222/1 415/223/1 416/224/1
f 417/225/1 418/226/1 419/227/1 420/228/1
f 421/213/1 422/214/1 423/215/1 424/216/1
f 425/1/1 426/2/1 427/3/1 428/4/1
f 429/5/1 430/6/1 431/7/1 432/8/1
f 433/9/1 434/10/1 435/11/1 436/12/1
f 437/13/1 438/14/1 439/15/1 440/16/1
f 441/17/1 442/18/1 443/19/1 444/20/1
f 445/21/1 446/22/1 447/23/1 448/24/1
f 449/9/1 450/10/1 451/11/1 452/12/1
f 453/9/1 454/10/1 455/11/1 456/12/1
f 457/13/1 458/14/1 459/15/1 460/16/1
f 461/17/1 462/18/1 463/19/1 464/20/1
f 465/21/1 466/22/1 467/23/1 468/24/1
f 469/9/1 470/10/1 471/11/1 472/12/1
f 473/9/1 474/10/1 475/11/1 476/12/1
f 477/13/1 478/14/1 479/15/1 480/16/1
f 481/17/1 482/18/1 483/19/1 484/20/1
f 485/21/1 486/22/1 487/23/1 488/24/1
f 489/25/1 490/26/1 491/27/1 492/28/1
f 493/29/1 494/30/1 495/31/1 496/32/1
f 497/33/1 498/34/1 499/35/1 500/36/1
f 501/37/1 502/38/1 503/39/1 504/40/1
f 505/41/1 506/42/1 507/43/1 508/44/1
f 509/45/1 510/46/1 511/47/1 512/48/1
f 513/229/1 514/230/1 515/231/1 516/232/1
f 517/33/1 518/34/1 519/35/1 520/36/1
f 521/37/1 522/38/1 523/39/1 524/40/1
f 525/41/1 526/42/1 527/43/1 528/44/1
f 529/45/1 530/46/1 531/47/1 532/48/1
f 533/229/1 534/230/1 535/231/1 536/232/1
f 537/33/1 538/34/1 539/35/1 540/36/1
f 541/37/1 542/38/1 543/39/1 544/40/1
f 545/41/1 546/42/1 547/43/1 548/44/1
f 549/45/1 550/46/1 551/47/1 552/48/1
f 553/49/1 554/50/1 555/51/1 556/52/1
f 557/53/1 558/54/1 559/55/1 560/56/1
f 561/57/1 562/58/1 563/59/1 564/60/1
f 565/61/1 566/62/1 567/63/1 568/64/1
f 569/65/1 570/66/1 571/67/1 572/68/1
f 573/69/1 574/70/1 575/71/1 576/72/1
f 577/233/1 578/234/1 579/235/1 580/236/1
f 581/57/1 582/58/1 583/59/1 584/60/1
f 585/61/1 586/62/1 587/63/1 588/64/1
f 589/65/1 590/66/1 591/67/1 592/68/1
f 593/69/1 594/70/1 595/71/1 596/72/1
f 597/233/1 598/234/1 599/235/1 600/236/1
f 601/61/1 602/62/1 603/63/1 604/64/1
f 605/65/1 606/66/1 607/67/1 608/68/1
f 609/69/1 610/70/1 611/71/1 612/72/1
f 613/73/1 614/74/1 615/75/1 616/76/1
f 617/93/1 618/94/1 619/95/1 620/96/1
f 621/117/1 622/118/1 623/119/1 624/120/1
f 625/105/1 626/106/1 627/107/1 628/108/1
f 629/117/1 630/118/1 631/119/1 632/120/1

