# Tiled2Unity generated file. Do not modify by hand.
# Wavefront file for 'tomathensBetaMap_mesh_0088.obj'

# Vertices (Count = 40)
v -207 -82 0
v -208 -82 0
v -208 -81 0
v -207 -81 0
v -86 -82 0
v -87 -82 0
v -87 -81 0
v -86 -81 0
v -83 -82 0
v -84 -82 0
v -84 -81 0
v -83 -81 0
v -207 -83 0
v -208 -83 0
v -208 -82 0
v -207 -82 0
v -86 -83 0
v -87 -83 0
v -87 -82 0
v -86 -82 0
v -83 -83 0
v -84 -83 0
v -84 -82 0
v -83 -82 0
v -133 -153 0
v -134 -153 0
v -134 -152 0
v -133 -152 0
v -130 -153 0
v -131 -153 0
v -131 -152 0
v -130 -152 0
v -127 -153 0
v -128 -153 0
v -128 -152 0
v -127 -152 0
v -124 -153 0
v -125 -153 0
v -125 -152 0
v -124 -152 0

# Texture cooridinates (Count = 16)
vt 0.1183844 0.9704797
vt 0.1406685 0.9704797
vt 0.1406685 1
vt 0.1183844 1
vt 0.1183844 0.9391144
vt 0.1406685 0.9391144
vt 0.1406685 0.9686347
vt 0.1183844 0.9686347
vt 0.2130919 0.9704797
vt 0.235376 0.9704797
vt 0.235376 1
vt 0.2130919 1
vt 0.1657382 0.9704797
vt 0.1880223 0.9704797
vt 0.1880223 1
vt 0.1657382 1

# Normal
vn 0 0 -1

# Mesh description
g tomathensBetaMap_mesh_0088

# Faces
f 1/1/1 2/2/1 3/3/1 4/4/1
f 5/1/1 6/2/1 7/3/1 8/4/1
f 9/1/1 10/2/1 11/3/1 12/4/1
f 13/5/1 14/6/1 15/7/1 16/8/1
f 17/5/1 18/6/1 19/7/1 20/8/1
f 21/5/1 22/6/1 23/7/1 24/8/1
f 25/9/1 26/10/1 27/11/1 28/12/1
f 29/13/1 30/14/1 31/15/1 32/16/1
f 33/9/1 34/10/1 35/11/1 36/12/1
f 37/13/1 38/14/1 39/15/1 40/16/1

