# Tiled2Unity generated file. Do not modify by hand.
# Wavefront file for 'tomathensBetaMap_mesh_0031.obj'

# Vertices (Count = 172)
v -107 -47 0
v -108 -47 0
v -108 -46 0
v -107 -46 0
v -98 -47 0
v -99 -47 0
v -99 -46 0
v -98 -46 0
v -107 -48 0
v -108 -48 0
v -108 -47 0
v -107 -47 0
v -98 -48 0
v -99 -48 0
v -99 -47 0
v -98 -47 0
v -157 -49 0
v -158 -49 0
v -158 -48 0
v -157 -48 0
v -156 -49 0
v -157 -49 0
v -157 -48 0
v -156 -48 0
v -155 -49 0
v -156 -49 0
v -156 -48 0
v -155 -48 0
v -154 -49 0
v -155 -49 0
v -155 -48 0
v -154 -48 0
v -153 -49 0
v -154 -49 0
v -154 -48 0
v -153 -48 0
v -152 -49 0
v -153 -49 0
v -153 -48 0
v -152 -48 0
v -151 -49 0
v -152 -49 0
v -152 -48 0
v -151 -48 0
v -150 -49 0
v -151 -49 0
v -151 -48 0
v -150 -48 0
v -107 -49 0
v -108 -49 0
v -108 -48 0
v -107 -48 0
v -106 -49 0
v -107 -49 0
v -107 -48 0
v -106 -48 0
v -105 -49 0
v -106 -49 0
v -106 -48 0
v -105 -48 0
v -104 -49 0
v -105 -49 0
v -105 -48 0
v -104 -48 0
v -103 -49 0
v -104 -49 0
v -104 -48 0
v -103 -48 0
v -102 -49 0
v -103 -49 0
v -103 -48 0
v -102 -48 0
v -101 -49 0
v -102 -49 0
v -102 -48 0
v -101 -48 0
v -100 -49 0
v -101 -49 0
v -101 -48 0
v -100 -48 0
v -99 -49 0
v -100 -49 0
v -100 -48 0
v -99 -48 0
v -98 -49 0
v -99 -49 0
v -99 -48 0
v -98 -48 0
v -157 -50 0
v -158 -50 0
v -158 -49 0
v -157 -49 0
v -156 -50 0
v -157 -50 0
v -157 -49 0
v -156 -49 0
v -155 -50 0
v -156 -50 0
v -156 -49 0
v -155 -49 0
v -154 -50 0
v -155 -50 0
v -155 -49 0
v -154 -49 0
v -153 -50 0
v -154 -50 0
v -154 -49 0
v -153 -49 0
v -152 -50 0
v -153 -50 0
v -153 -49 0
v -152 -49 0
v -151 -50 0
v -152 -50 0
v -152 -49 0
v -151 -49 0
v -150 -50 0
v -151 -50 0
v -151 -49 0
v -150 -49 0
v -107 -50 0
v -108 -50 0
v -108 -49 0
v -107 -49 0
v -106 -50 0
v -107 -50 0
v -107 -49 0
v -106 -49 0
v -105 -50 0
v -106 -50 0
v -106 -49 0
v -105 -49 0
v -104 -50 0
v -105 -50 0
v -105 -49 0
v -104 -49 0
v -103 -50 0
v -104 -50 0
v -104 -49 0
v -103 -49 0
v -102 -50 0
v -103 -50 0
v -103 -49 0
v -102 -49 0
v -101 -50 0
v -102 -50 0
v -102 -49 0
v -101 -49 0
v -100 -50 0
v -101 -50 0
v -101 -49 0
v -100 -49 0
v -99 -50 0
v -100 -50 0
v -100 -49 0
v -99 -49 0
v -98 -50 0
v -99 -50 0
v -99 -49 0
v -98 -49 0
v -227 -222 0
v -228 -222 0
v -228 -221 0
v -227 -221 0
v -227 -228 0
v -228 -228 0
v -228 -227 0
v -227 -227 0
v -226 -228 0
v -227 -228 0
v -227 -227 0
v -226 -227 0

# Texture cooridinates (Count = 40)
vt 0.189415 0.7195572
vt 0.2116992 0.7195572
vt 0.2116992 0.7490775
vt 0.189415 0.7490775
vt 0.1420613 0.7195572
vt 0.1643454 0.7195572
vt 0.1643454 0.7490775
vt 0.1420613 0.7490775
vt 0.1657382 0.6881919
vt 0.1880223 0.6881919
vt 0.1880223 0.7177122
vt 0.1657382 0.7177122
vt 0.189415 0.6881919
vt 0.2116992 0.6881919
vt 0.2116992 0.7177122
vt 0.189415 0.7177122
vt 0.1420613 0.6881919
vt 0.1643454 0.6881919
vt 0.1643454 0.7177122
vt 0.1420613 0.7177122
vt 0.1657382 0.6568266
vt 0.1880223 0.6568266
vt 0.1880223 0.6863469
vt 0.1657382 0.6863469
vt 0.189415 0.6568266
vt 0.2116992 0.6568266
vt 0.2116992 0.6863469
vt 0.189415 0.6863469
vt 0.1420613 0.6568266
vt 0.1643454 0.6568266
vt 0.1643454 0.6863469
vt 0.1420613 0.6863469
vt 0.1657382 0.8763838
vt 0.1880223 0.8763838
vt 0.1880223 0.9059041
vt 0.1657382 0.9059041
vt 0.1420613 0.8763838
vt 0.1643454 0.8763838
vt 0.1643454 0.9059041
vt 0.1420613 0.9059041

# Normal
vn 0 0 -1

# Mesh description
g tomathensBetaMap_mesh_0031

# Faces
f 1/1/1 2/2/1 3/3/1 4/4/1
f 5/5/1 6/6/1 7/7/1 8/8/1
f 9/1/1 10/2/1 11/3/1 12/4/1
f 13/5/1 14/6/1 15/7/1 16/8/1
f 17/9/1 18/10/1 19/11/1 20/12/1
f 21/9/1 22/10/1 23/11/1 24/12/1
f 25/9/1 26/10/1 27/11/1 28/12/1
f 29/9/1 30/10/1 31/11/1 32/12/1
f 33/9/1 34/10/1 35/11/1 36/12/1
f 37/9/1 38/10/1 39/11/1 40/12/1
f 41/9/1 42/10/1 43/11/1 44/12/1
f 45/9/1 46/10/1 47/11/1 48/12/1
f 49/13/1 50/14/1 51/15/1 52/16/1
f 53/9/1 54/10/1 55/11/1 56/12/1
f 57/9/1 58/10/1 59/11/1 60/12/1
f 61/9/1 62/10/1 63/11/1 64/12/1
f 65/9/1 66/10/1 67/11/1 68/12/1
f 69/9/1 70/10/1 71/11/1 72/12/1
f 73/9/1 74/10/1 75/11/1 76/12/1
f 77/9/1 78/10/1 79/11/1 80/12/1
f 81/9/1 82/10/1 83/11/1 84/12/1
f 85/17/1 86/18/1 87/19/1 88/20/1
f 89/21/1 90/22/1 91/23/1 92/24/1
f 93/21/1 94/22/1 95/23/1 96/24/1
f 97/21/1 98/22/1 99/23/1 100/24/1
f 101/21/1 102/22/1 103/23/1 104/24/1
f 105/21/1 106/22/1 107/23/1 108/24/1
f 109/21/1 110/22/1 111/23/1 112/24/1
f 113/21/1 114/22/1 115/23/1 116/24/1
f 117/21/1 118/22/1 119/23/1 120/24/1
f 121/25/1 122/26/1 123/27/1 124/28/1
f 125/21/1 126/22/1 127/23/1 128/24/1
f 129/21/1 130/22/1 131/23/1 132/24/1
f 133/21/1 134/22/1 135/23/1 136/24/1
f 137/21/1 138/22/1 139/23/1 140/24/1
f 141/21/1 142/22/1 143/23/1 144/24/1
f 145/21/1 146/22/1 147/23/1 148/24/1
f 149/21/1 150/22/1 151/23/1 152/24/1
f 153/21/1 154/22/1 155/23/1 156/24/1
f 157/29/1 158/30/1 159/31/1 160/32/1
f 161/33/1 162/34/1 163/35/1 164/36/1
f 165/33/1 166/34/1 167/35/1 168/36/1
f 169/37/1 170/38/1 171/39/1 172/40/1

