# Tiled2Unity generated file. Do not modify by hand.
# Wavefront file for 'tomathensBetaMap_mesh_0067.obj'

# Vertices (Count = 864)
v -174 -39 0
v -175 -39 0
v -175 -38 0
v -174 -38 0
v -174 -57 0
v -175 -57 0
v -175 -56 0
v -174 -56 0
v -174 -58 0
v -175 -58 0
v -175 -57 0
v -174 -57 0
v -174 -59 0
v -175 -59 0
v -175 -58 0
v -174 -58 0
v -174 -60 0
v -175 -60 0
v -175 -59 0
v -174 -59 0
v -174 -61 0
v -175 -61 0
v -175 -60 0
v -174 -60 0
v -174 -62 0
v -175 -62 0
v -175 -61 0
v -174 -61 0
v -174 -63 0
v -175 -63 0
v -175 -62 0
v -174 -62 0
v -86 -82 0
v -87 -82 0
v -87 -81 0
v -86 -81 0
v -83 -82 0
v -84 -82 0
v -84 -81 0
v -83 -81 0
v -50 -125 0
v -51 -125 0
v -51 -124 0
v -50 -124 0
v -49 -125 0
v -50 -125 0
v -50 -124 0
v -49 -124 0
v -48 -125 0
v -49 -125 0
v -49 -124 0
v -48 -124 0
v -47 -125 0
v -48 -125 0
v -48 -124 0
v -47 -124 0
v -46 -125 0
v -47 -125 0
v -47 -124 0
v -46 -124 0
v -45 -125 0
v -46 -125 0
v -46 -124 0
v -45 -124 0
v -44 -125 0
v -45 -125 0
v -45 -124 0
v -44 -124 0
v -38 -125 0
v -39 -125 0
v -39 -124 0
v -38 -124 0
v -50 -126 0
v -51 -126 0
v -51 -125 0
v -50 -125 0
v -49 -126 0
v -50 -126 0
v -50 -125 0
v -49 -125 0
v -48 -126 0
v -49 -126 0
v -49 -125 0
v -48 -125 0
v -47 -126 0
v -48 -126 0
v -48 -125 0
v -47 -125 0
v -46 -126 0
v -47 -126 0
v -47 -125 0
v -46 -125 0
v -45 -126 0
v -46 -126 0
v -46 -125 0
v -45 -125 0
v -44 -126 0
v -45 -126 0
v -45 -125 0
v -44 -125 0
v -39 -126 0
v -40 -126 0
v -40 -125 0
v -39 -125 0
v -38 -126 0
v -39 -126 0
v -39 -125 0
v -38 -125 0
v -39 -127 0
v -40 -127 0
v -40 -126 0
v -39 -126 0
v -38 -127 0
v -39 -127 0
v -39 -126 0
v -38 -126 0
v -39 -128 0
v -40 -128 0
v -40 -127 0
v -39 -127 0
v -38 -128 0
v -39 -128 0
v -39 -127 0
v -38 -127 0
v -37 -128 0
v -38 -128 0
v -38 -127 0
v -37 -127 0
v -36 -128 0
v -37 -128 0
v -37 -127 0
v -36 -127 0
v -35 -128 0
v -36 -128 0
v -36 -127 0
v -35 -127 0
v -34 -128 0
v -35 -128 0
v -35 -127 0
v -34 -127 0
v -33 -128 0
v -34 -128 0
v -34 -127 0
v -33 -127 0
v -32 -128 0
v -33 -128 0
v -33 -127 0
v -32 -127 0
v -31 -128 0
v -32 -128 0
v -32 -127 0
v -31 -127 0
v -39 -129 0
v -40 -129 0
v -40 -128 0
v -39 -128 0
v -38 -129 0
v -39 -129 0
v -39 -128 0
v -38 -128 0
v -37 -129 0
v -38 -129 0
v -38 -128 0
v -37 -128 0
v -36 -129 0
v -37 -129 0
v -37 -128 0
v -36 -128 0
v -35 -129 0
v -36 -129 0
v -36 -128 0
v -35 -128 0
v -34 -129 0
v -35 -129 0
v -35 -128 0
v -34 -128 0
v -33 -129 0
v -34 -129 0
v -34 -128 0
v -33 -128 0
v -32 -129 0
v -33 -129 0
v -33 -128 0
v -32 -128 0
v -31 -129 0
v -32 -129 0
v -32 -128 0
v -31 -128 0
v -171 -130 0
v -172 -130 0
v -172 -129 0
v -171 -129 0
v -31 -130 0
v -32 -130 0
v -32 -129 0
v -31 -129 0
v -22 -130 0
v -23 -130 0
v -23 -129 0
v -22 -129 0
v -21 -130 0
v -22 -130 0
v -22 -129 0
v -21 -129 0
v -20 -130 0
v -21 -130 0
v -21 -129 0
v -20 -129 0
v -19 -130 0
v -20 -130 0
v -20 -129 0
v -19 -129 0
v -18 -130 0
v -19 -130 0
v -19 -129 0
v -18 -129 0
v -17 -130 0
v -18 -130 0
v -18 -129 0
v -17 -129 0
v -171 -131 0
v -172 -131 0
v -172 -130 0
v -171 -130 0
v -31 -131 0
v -32 -131 0
v -32 -130 0
v -31 -130 0
v -22 -131 0
v -23 -131 0
v -23 -130 0
v -22 -130 0
v -21 -131 0
v -22 -131 0
v -22 -130 0
v -21 -130 0
v -20 -131 0
v -21 -131 0
v -21 -130 0
v -20 -130 0
v -19 -131 0
v -20 -131 0
v -20 -130 0
v -19 -130 0
v -18 -131 0
v -19 -131 0
v -19 -130 0
v -18 -130 0
v -17 -131 0
v -18 -131 0
v -18 -130 0
v -17 -130 0
v -171 -132 0
v -172 -132 0
v -172 -131 0
v -171 -131 0
v -31 -132 0
v -32 -132 0
v -32 -131 0
v -31 -131 0
v -22 -132 0
v -23 -132 0
v -23 -131 0
v -22 -131 0
v -17 -132 0
v -18 -132 0
v -18 -131 0
v -17 -131 0
v -171 -133 0
v -172 -133 0
v -172 -132 0
v -171 -132 0
v -31 -133 0
v -32 -133 0
v -32 -132 0
v -31 -132 0
v -30 -133 0
v -31 -133 0
v -31 -132 0
v -30 -132 0
v -29 -133 0
v -30 -133 0
v -30 -132 0
v -29 -132 0
v -28 -133 0
v -29 -133 0
v -29 -132 0
v -28 -132 0
v -27 -133 0
v -28 -133 0
v -28 -132 0
v -27 -132 0
v -26 -133 0
v -27 -133 0
v -27 -132 0
v -26 -132 0
v -25 -133 0
v -26 -133 0
v -26 -132 0
v -25 -132 0
v -24 -133 0
v -25 -133 0
v -25 -132 0
v -24 -132 0
v -23 -133 0
v -24 -133 0
v -24 -132 0
v -23 -132 0
v -22 -133 0
v -23 -133 0
v -23 -132 0
v -22 -132 0
v -17 -133 0
v -18 -133 0
v -18 -132 0
v -17 -132 0
v -31 -134 0
v -32 -134 0
v -32 -133 0
v -31 -133 0
v -30 -134 0
v -31 -134 0
v -31 -133 0
v -30 -133 0
v -29 -134 0
v -30 -134 0
v -30 -133 0
v -29 -133 0
v -28 -134 0
v -29 -134 0
v -29 -133 0
v -28 -133 0
v -27 -134 0
v -28 -134 0
v -28 -133 0
v -27 -133 0
v -26 -134 0
v -27 -134 0
v -27 -133 0
v -26 -133 0
v -25 -134 0
v -26 -134 0
v -26 -133 0
v -25 -133 0
v -24 -134 0
v -25 -134 0
v -25 -133 0
v -24 -133 0
v -23 -134 0
v -24 -134 0
v -24 -133 0
v -23 -133 0
v -22 -134 0
v -23 -134 0
v -23 -133 0
v -22 -133 0
v -17 -134 0
v -18 -134 0
v -18 -133 0
v -17 -133 0
v -17 -135 0
v -18 -135 0
v -18 -134 0
v -17 -134 0
v -171 -136 0
v -172 -136 0
v -172 -135 0
v -171 -135 0
v -17 -136 0
v -18 -136 0
v -18 -135 0
v -17 -135 0
v -171 -137 0
v -172 -137 0
v -172 -136 0
v -171 -136 0
v -23 -137 0
v -24 -137 0
v -24 -136 0
v -23 -136 0
v -22 -137 0
v -23 -137 0
v -23 -136 0
v -22 -136 0
v -17 -137 0
v -18 -137 0
v -18 -136 0
v -17 -136 0
v -171 -138 0
v -172 -138 0
v -172 -137 0
v -171 -137 0
v -23 -138 0
v -24 -138 0
v -24 -137 0
v -23 -137 0
v -22 -138 0
v -23 -138 0
v -23 -137 0
v -22 -137 0
v -17 -138 0
v -18 -138 0
v -18 -137 0
v -17 -137 0
v -22 -139 0
v -23 -139 0
v -23 -138 0
v -22 -138 0
v -21 -139 0
v -22 -139 0
v -22 -138 0
v -21 -138 0
v -20 -139 0
v -21 -139 0
v -21 -138 0
v -20 -138 0
v -19 -139 0
v -20 -139 0
v -20 -138 0
v -19 -138 0
v -18 -139 0
v -19 -139 0
v -19 -138 0
v -18 -138 0
v -17 -139 0
v -18 -139 0
v -18 -138 0
v -17 -138 0
v -174 -140 0
v -175 -140 0
v -175 -139 0
v -174 -139 0
v -22 -140 0
v -23 -140 0
v -23 -139 0
v -22 -139 0
v -21 -140 0
v -22 -140 0
v -22 -139 0
v -21 -139 0
v -20 -140 0
v -21 -140 0
v -21 -139 0
v -20 -139 0
v -19 -140 0
v -20 -140 0
v -20 -139 0
v -19 -139 0
v -18 -140 0
v -19 -140 0
v -19 -139 0
v -18 -139 0
v -17 -140 0
v -18 -140 0
v -18 -139 0
v -17 -139 0
v -174 -141 0
v -175 -141 0
v -175 -140 0
v -174 -140 0
v -99 -145 0
v -100 -145 0
v -100 -144 0
v -99 -144 0
v -98 -145 0
v -99 -145 0
v -99 -144 0
v -98 -144 0
v -96 -145 0
v -97 -145 0
v -97 -144 0
v -96 -144 0
v -95 -145 0
v -96 -145 0
v -96 -144 0
v -95 -144 0
v -99 -146 0
v -100 -146 0
v -100 -145 0
v -99 -145 0
v -98 -146 0
v -99 -146 0
v -99 -145 0
v -98 -145 0
v -96 -146 0
v -97 -146 0
v -97 -145 0
v -96 -145 0
v -95 -146 0
v -96 -146 0
v -96 -145 0
v -95 -145 0
v -72 -146 0
v -73 -146 0
v -73 -145 0
v -72 -145 0
v -71 -146 0
v -72 -146 0
v -72 -145 0
v -71 -145 0
v -60 -146 0
v -61 -146 0
v -61 -145 0
v -60 -145 0
v -59 -146 0
v -60 -146 0
v -60 -145 0
v -59 -145 0
v -101 -147 0
v -102 -147 0
v -102 -146 0
v -101 -146 0
v -99 -147 0
v -100 -147 0
v -100 -146 0
v -99 -146 0
v -95 -147 0
v -96 -147 0
v -96 -146 0
v -95 -146 0
v -93 -147 0
v -94 -147 0
v -94 -146 0
v -93 -146 0
v -72 -147 0
v -73 -147 0
v -73 -146 0
v -72 -146 0
v -71 -147 0
v -72 -147 0
v -72 -146 0
v -71 -146 0
v -60 -147 0
v -61 -147 0
v -61 -146 0
v -60 -146 0
v -59 -147 0
v -60 -147 0
v -60 -146 0
v -59 -146 0
v -174 -148 0
v -175 -148 0
v -175 -147 0
v -174 -147 0
v -101 -148 0
v -102 -148 0
v -102 -147 0
v -101 -147 0
v -99 -148 0
v -100 -148 0
v -100 -147 0
v -99 -147 0
v -95 -148 0
v -96 -148 0
v -96 -147 0
v -95 -147 0
v -93 -148 0
v -94 -148 0
v -94 -147 0
v -93 -147 0
v -30 -157 0
v -31 -157 0
v -31 -156 0
v -30 -156 0
v -30 -158 0
v -31 -158 0
v -31 -157 0
v -30 -157 0
v -29 -158 0
v -30 -158 0
v -30 -157 0
v -29 -157 0
v -28 -158 0
v -29 -158 0
v -29 -157 0
v -28 -157 0
v -30 -159 0
v -31 -159 0
v -31 -158 0
v -30 -158 0
v -29 -159 0
v -30 -159 0
v -30 -158 0
v -29 -158 0
v -28 -159 0
v -29 -159 0
v -29 -158 0
v -28 -158 0
v -28 -160 0
v -29 -160 0
v -29 -159 0
v -28 -159 0
v -28 -161 0
v -29 -161 0
v -29 -160 0
v -28 -160 0
v -28 -162 0
v -29 -162 0
v -29 -161 0
v -28 -161 0
v -28 -163 0
v -29 -163 0
v -29 -162 0
v -28 -162 0
v -78 -164 0
v -79 -164 0
v -79 -163 0
v -78 -163 0
v -77 -164 0
v -78 -164 0
v -78 -163 0
v -77 -163 0
v -76 -164 0
v -77 -164 0
v -77 -163 0
v -76 -163 0
v -54 -164 0
v -55 -164 0
v -55 -163 0
v -54 -163 0
v -28 -164 0
v -29 -164 0
v -29 -163 0
v -28 -163 0
v -78 -165 0
v -79 -165 0
v -79 -164 0
v -78 -164 0
v -77 -165 0
v -78 -165 0
v -78 -164 0
v -77 -164 0
v -76 -165 0
v -77 -165 0
v -77 -164 0
v -76 -164 0
v -54 -165 0
v -55 -165 0
v -55 -164 0
v -54 -164 0
v -28 -165 0
v -29 -165 0
v -29 -164 0
v -28 -164 0
v -35 -166 0
v -36 -166 0
v -36 -165 0
v -35 -165 0
v -30 -166 0
v -31 -166 0
v -31 -165 0
v -30 -165 0
v -29 -166 0
v -30 -166 0
v -30 -165 0
v -29 -165 0
v -28 -166 0
v -29 -166 0
v -29 -165 0
v -28 -165 0
v -180 -167 0
v -181 -167 0
v -181 -166 0
v -180 -166 0
v -179 -167 0
v -180 -167 0
v -180 -166 0
v -179 -166 0
v -30 -167 0
v -31 -167 0
v -31 -166 0
v -30 -166 0
v -29 -167 0
v -30 -167 0
v -30 -166 0
v -29 -166 0
v -28 -167 0
v -29 -167 0
v -29 -166 0
v -28 -166 0
v -180 -168 0
v -181 -168 0
v -181 -167 0
v -180 -167 0
v -179 -168 0
v -180 -168 0
v -180 -167 0
v -179 -167 0
v -179 -169 0
v -180 -169 0
v -180 -168 0
v -179 -168 0
v -179 -170 0
v -180 -170 0
v -180 -169 0
v -179 -169 0
v -179 -171 0
v -180 -171 0
v -180 -170 0
v -179 -170 0
v -179 -172 0
v -180 -172 0
v -180 -171 0
v -179 -171 0
v -179 -173 0
v -180 -173 0
v -180 -172 0
v -179 -172 0
v -179 -174 0
v -180 -174 0
v -180 -173 0
v -179 -173 0
v -179 -175 0
v -180 -175 0
v -180 -174 0
v -179 -174 0
v -180 -176 0
v -181 -176 0
v -181 -175 0
v -180 -175 0
v -179 -176 0
v -180 -176 0
v -180 -175 0
v -179 -175 0
v -180 -177 0
v -181 -177 0
v -181 -176 0
v -180 -176 0
v -179 -177 0
v -180 -177 0
v -180 -176 0
v -179 -176 0
v -69 -185 0
v -70 -185 0
v -70 -184 0
v -69 -184 0
v -68 -185 0
v -69 -185 0
v -69 -184 0
v -68 -184 0
v -69 -186 0
v -70 -186 0
v -70 -185 0
v -69 -185 0
v -68 -186 0
v -69 -186 0
v -69 -185 0
v -68 -185 0
v -52 -188 0
v -53 -188 0
v -53 -187 0
v -52 -187 0
v -52 -189 0
v -53 -189 0
v -53 -188 0
v -52 -188 0
v -52 -192 0
v -53 -192 0
v -53 -191 0
v -52 -191 0
v -146 -203 0
v -147 -203 0
v -147 -202 0
v -146 -202 0
v -46 -214 0
v -47 -214 0
v -47 -213 0
v -46 -213 0
v -31 -214 0
v -32 -214 0
v -32 -213 0
v -31 -213 0
v -73 -215 0
v -74 -215 0
v -74 -214 0
v -73 -214 0
v -72 -215 0
v -73 -215 0
v -73 -214 0
v -72 -214 0
v -59 -215 0
v -60 -215 0
v -60 -214 0
v -59 -214 0
v -58 -215 0
v -59 -215 0
v -59 -214 0
v -58 -214 0
v -46 -215 0
v -47 -215 0
v -47 -214 0
v -46 -214 0
v -31 -215 0
v -32 -215 0
v -32 -214 0
v -31 -214 0
v -73 -216 0
v -74 -216 0
v -74 -215 0
v -73 -215 0
v -72 -216 0
v -73 -216 0
v -73 -215 0
v -72 -215 0
v -59 -216 0
v -60 -216 0
v -60 -215 0
v -59 -215 0
v -58 -216 0
v -59 -216 0
v -59 -215 0
v -58 -215 0
v -46 -216 0
v -47 -216 0
v -47 -215 0
v -46 -215 0
v -31 -216 0
v -32 -216 0
v -32 -215 0
v -31 -215 0
v -82 -223 0
v -83 -223 0
v -83 -222 0
v -82 -222 0
v -81 -223 0
v -82 -223 0
v -82 -222 0
v -81 -222 0
v -79 -223 0
v -80 -223 0
v -80 -222 0
v -79 -222 0
v -78 -223 0
v -79 -223 0
v -79 -222 0
v -78 -222 0
v -77 -223 0
v -78 -223 0
v -78 -222 0
v -77 -222 0
v -82 -224 0
v -83 -224 0
v -83 -223 0
v -82 -223 0
v -81 -224 0
v -82 -224 0
v -82 -223 0
v -81 -223 0
v -79 -224 0
v -80 -224 0
v -80 -223 0
v -79 -223 0
v -78 -224 0
v -79 -224 0
v -79 -223 0
v -78 -223 0
v -77 -224 0
v -78 -224 0
v -78 -223 0
v -77 -223 0
v -73 -236 0
v -74 -236 0
v -74 -235 0
v -73 -235 0

# Texture cooridinates (Count = 120)
vt 0.1262376 0.6781609
vt 0.1658416 0.6781609
vt 0.1658416 0.7394636
vt 0.1262376 0.7394636
vt 0.04207921 0.743295
vt 0.08168317 0.743295
vt 0.08168317 0.8045977
vt 0.04207921 0.8045977
vt 0.210396 0.743295
vt 0.25 0.743295
vt 0.25 0.8045977
vt 0.210396 0.8045977
vt 0.2524753 0.6130269
vt 0.2920792 0.6130269
vt 0.2920792 0.6743295
vt 0.2524753 0.6743295
vt 0.1683168 0.6130269
vt 0.2079208 0.6130269
vt 0.2079208 0.6743295
vt 0.1683168 0.6743295
vt 0.1262376 0.6130269
vt 0.1658416 0.6130269
vt 0.1658416 0.6743295
vt 0.1262376 0.6743295
vt 0.08415841 0.6130269
vt 0.1237624 0.6130269
vt 0.1237624 0.6743295
vt 0.08415841 0.6743295
vt 0.2524753 0.5478927
vt 0.2920792 0.5478927
vt 0.2920792 0.6091954
vt 0.2524753 0.6091954
vt 0.1683168 0.5478927
vt 0.2079208 0.5478927
vt 0.2079208 0.6091954
vt 0.1683168 0.6091954
vt 0.1262376 0.5478927
vt 0.1658416 0.5478927
vt 0.1658416 0.6091954
vt 0.1262376 0.6091954
vt 0.08415841 0.5478927
vt 0.1237624 0.5478927
vt 0.1237624 0.6091954
vt 0.08415841 0.6091954
vt 0.210396 0.6781609
vt 0.25 0.6781609
vt 0.25 0.7394636
vt 0.210396 0.7394636
vt 0.04207921 0.6781609
vt 0.08168317 0.6781609
vt 0.08168317 0.7394636
vt 0.04207921 0.7394636
vt 0.04207921 0.5478927
vt 0.08168317 0.5478927
vt 0.08168317 0.6091954
vt 0.04207921 0.6091954
vt 0.3366337 0.743295
vt 0.3762376 0.743295
vt 0.3762376 0.8045977
vt 0.3366337 0.8045977
vt 0.2945544 0.743295
vt 0.3341584 0.743295
vt 0.3341584 0.8045977
vt 0.2945544 0.8045977
vt 0.3787129 0.743295
vt 0.4183168 0.743295
vt 0.4183168 0.8045977
vt 0.3787129 0.8045977
vt 0.2524753 0.743295
vt 0.2920792 0.743295
vt 0.2920792 0.8045977
vt 0.2524753 0.8045977
vt 0.3366337 0.6781609
vt 0.3762376 0.6781609
vt 0.3762376 0.7394636
vt 0.3366337 0.7394636
vt 0.2945544 0.6781609
vt 0.3341584 0.6781609
vt 0.3341584 0.7394636
vt 0.2945544 0.7394636
vt 0.3787129 0.6781609
vt 0.4183168 0.6781609
vt 0.4183168 0.7394636
vt 0.3787129 0.7394636
vt 0.2524753 0.6781609
vt 0.2920792 0.6781609
vt 0.2920792 0.7394636
vt 0.2524753 0.7394636
vt 0.1683168 0.6781609
vt 0.2079208 0.6781609
vt 0.2079208 0.7394636
vt 0.1683168 0.7394636
vt 0.04207921 0.6130269
vt 0.08168317 0.6130269
vt 0.08168317 0.6743295
vt 0.04207921 0.6743295
vt 0.4207921 0.6130269
vt 0.4603961 0.6130269
vt 0.4603961 0.6743295
vt 0.4207921 0.6743295
vt 0.4207921 0.5478927
vt 0.4603961 0.5478927
vt 0.4603961 0.6091954
vt 0.4207921 0.6091954
vt 0.210396 0.6130269
vt 0.25 0.6130269
vt 0.25 0.6743295
vt 0.210396 0.6743295
vt 0.4207921 0.743295
vt 0.4603961 0.743295
vt 0.4603961 0.8045977
vt 0.4207921 0.8045977
vt 0.210396 0.5478927
vt 0.25 0.5478927
vt 0.25 0.6091954
vt 0.210396 0.6091954
vt 0.4207921 0.6781609
vt 0.4603961 0.6781609
vt 0.4603961 0.7394636
vt 0.4207921 0.7394636

# Normal
vn 0 0 -1

# Mesh description
g tomathensBetaMap_mesh_0067

# Faces
f 1/1/1 2/2/1 3/3/1 4/4/1
f 5/1/1 6/2/1 7/3/1 8/4/1
f 9/1/1 10/2/1 11/3/1 12/4/1
f 13/1/1 14/2/1 15/3/1 16/4/1
f 17/1/1 18/2/1 19/3/1 20/4/1
f 21/1/1 22/2/1 23/3/1 24/4/1
f 25/1/1 26/2/1 27/3/1 28/4/1
f 29/1/1 30/2/1 31/3/1 32/4/1
f 33/5/1 34/6/1 35/7/1 36/8/1
f 37/9/1 38/10/1 39/11/1 40/12/1
f 41/13/1 42/14/1 43/15/1 44/16/1
f 45/17/1 46/18/1 47/19/1 48/20/1
f 49/21/1 50/22/1 51/23/1 52/24/1
f 53/17/1 54/18/1 55/19/1 56/20/1
f 57/21/1 58/22/1 59/23/1 60/24/1
f 61/25/1 62/26/1 63/27/1 64/28/1
f 65/9/1 66/10/1 67/11/1 68/12/1
f 69/5/1 70/6/1 71/7/1 72/8/1
f 73/29/1 74/30/1 75/31/1 76/32/1
f 77/33/1 78/34/1 79/35/1 80/36/1
f 81/37/1 82/38/1 83/39/1 84/40/1
f 85/33/1 86/34/1 87/35/1 88/36/1
f 89/37/1 90/38/1 91/39/1 92/40/1
f 93/41/1 94/42/1 95/43/1 96/44/1
f 97/45/1 98/46/1 99/47/1 100/48/1
f 101/5/1 102/6/1 103/7/1 104/8/1
f 105/49/1 106/50/1 107/51/1 108/52/1
f 109/49/1 110/50/1 111/51/1 112/52/1
f 113/53/1 114/54/1 115/55/1 116/56/1
f 117/13/1 118/14/1 119/15/1 120/16/1
f 121/57/1 122/58/1 123/59/1 124/60/1
f 125/61/1 126/62/1 127/63/1 128/64/1
f 129/57/1 130/58/1 131/59/1 132/60/1
f 133/61/1 134/62/1 135/63/1 136/64/1
f 137/65/1 138/66/1 139/67/1 140/68/1
f 141/57/1 142/58/1 143/59/1 144/60/1
f 145/61/1 146/62/1 147/63/1 148/64/1
f 149/69/1 150/70/1 151/71/1 152/72/1
f 153/29/1 154/30/1 155/31/1 156/32/1
f 157/73/1 158/74/1 159/75/1 160/76/1
f 161/77/1 162/78/1 163/79/1 164/80/1
f 165/73/1 166/74/1 167/75/1 168/76/1
f 169/77/1 170/78/1 171/79/1 172/80/1
f 173/81/1 174/82/1 175/83/1 176/84/1
f 177/73/1 178/74/1 179/75/1 180/76/1
f 181/77/1 182/78/1 183/79/1 184/80/1
f 185/85/1 186/86/1 187/87/1 188/88/1
f 189/89/1 190/90/1 191/91/1 192/92/1
f 193/1/1 194/2/1 195/3/1 196/4/1
f 197/5/1 198/6/1 199/7/1 200/8/1
f 201/57/1 202/58/1 203/59/1 204/60/1
f 205/65/1 206/66/1 207/67/1 208/68/1
f 209/57/1 210/58/1 211/59/1 212/60/1
f 213/61/1 214/62/1 215/63/1 216/64/1
f 217/69/1 218/70/1 219/71/1 220/72/1
f 221/89/1 222/90/1 223/91/1 224/92/1
f 225/1/1 226/2/1 227/3/1 228/4/1
f 229/49/1 230/50/1 231/51/1 232/52/1
f 233/73/1 234/74/1 235/75/1 236/76/1
f 237/81/1 238/82/1 239/83/1 240/84/1
f 241/73/1 242/74/1 243/75/1 244/76/1
f 245/77/1 246/78/1 247/79/1 248/80/1
f 249/85/1 250/86/1 251/87/1 252/88/1
f 253/89/1 254/90/1 255/91/1 256/92/1
f 257/1/1 258/2/1 259/3/1 260/4/1
f 261/1/1 262/2/1 263/3/1 264/4/1
f 265/1/1 266/2/1 267/3/1 268/4/1
f 269/89/1 270/90/1 271/91/1 272/92/1
f 273/13/1 274/14/1 275/15/1 276/16/1
f 277/17/1 278/18/1 279/19/1 280/20/1
f 281/21/1 282/22/1 283/23/1 284/24/1
f 285/25/1 286/26/1 287/27/1 288/28/1
f 289/17/1 290/18/1 291/19/1 292/20/1
f 293/21/1 294/22/1 295/23/1 296/24/1
f 297/25/1 298/26/1 299/27/1 300/28/1
f 301/21/1 302/22/1 303/23/1 304/24/1
f 305/25/1 306/26/1 307/27/1 308/28/1
f 309/93/1 310/94/1 311/95/1 312/96/1
f 313/1/1 314/2/1 315/3/1 316/4/1
f 317/29/1 318/30/1 319/31/1 320/32/1
f 321/33/1 322/34/1 323/35/1 324/36/1
f 325/37/1 326/38/1 327/39/1 328/40/1
f 329/41/1 330/42/1 331/43/1 332/44/1
f 333/33/1 334/34/1 335/35/1 336/36/1
f 337/37/1 338/38/1 339/39/1 340/40/1
f 341/41/1 342/42/1 343/43/1 344/44/1
f 345/37/1 346/38/1 347/39/1 348/40/1
f 349/41/1 350/42/1 351/43/1 352/44/1
f 353/53/1 354/54/1 355/55/1 356/56/1
f 357/1/1 358/2/1 359/3/1 360/4/1
f 361/1/1 362/2/1 363/3/1 364/4/1
f 365/89/1 366/90/1 367/91/1 368/92/1
f 369/1/1 370/2/1 371/3/1 372/4/1
f 373/89/1 374/90/1 375/91/1 376/92/1
f 377/61/1 378/62/1 379/63/1 380/64/1
f 381/69/1 382/70/1 383/71/1 384/72/1
f 385/1/1 386/2/1 387/3/1 388/4/1
f 389/89/1 390/90/1 391/91/1 392/92/1
f 393/77/1 394/78/1 395/79/1 396/80/1
f 397/85/1 398/86/1 399/87/1 400/88/1
f 401/1/1 402/2/1 403/3/1 404/4/1
f 405/13/1 406/14/1 407/15/1 408/16/1
f 409/17/1 410/18/1 411/19/1 412/20/1
f 413/21/1 414/22/1 415/23/1 416/24/1
f 417/25/1 418/26/1 419/27/1 420/28/1
f 421/25/1 422/26/1 423/27/1 424/28/1
f 425/93/1 426/94/1 427/95/1 428/96/1
f 429/1/1 430/2/1 431/3/1 432/4/1
f 433/29/1 434/30/1 435/31/1 436/32/1
f 437/33/1 438/34/1 439/35/1 440/36/1
f 441/37/1 442/38/1 443/39/1 444/40/1
f 445/41/1 446/42/1 447/43/1 448/44/1
f 449/41/1 450/42/1 451/43/1 452/44/1
f 453/53/1 454/54/1 455/55/1 456/56/1
f 457/1/1 458/2/1 459/3/1 460/4/1
f 461/5/1 462/6/1 463/7/1 464/8/1
f 465/97/1 466/98/1 467/99/1 468/100/1
f 469/13/1 470/14/1 471/15/1 472/16/1
f 473/9/1 474/10/1 475/11/1 476/12/1
f 477/49/1 478/50/1 479/51/1 480/52/1
f 481/101/1 482/102/1 483/103/1 484/104/1
f 485/29/1 486/30/1 487/31/1 488/32/1
f 489/45/1 490/46/1 491/47/1 492/48/1
f 493/105/1 494/106/1 495/107/1 496/108/1
f 497/9/1 498/10/1 499/11/1 500/12/1
f 501/5/1 502/6/1 503/7/1 504/8/1
f 505/93/1 506/94/1 507/95/1 508/96/1
f 509/109/1 510/110/1 511/111/1 512/112/1
f 513/93/1 514/94/1 515/95/1 516/96/1
f 517/105/1 518/106/1 519/107/1 520/108/1
f 521/69/1 522/70/1 523/71/1 524/72/1
f 525/113/1 526/114/1 527/115/1 528/116/1
f 529/45/1 530/46/1 531/47/1 532/48/1
f 533/49/1 534/50/1 535/51/1 536/52/1
f 537/53/1 538/54/1 539/55/1 540/56/1
f 541/1/1 542/2/1 543/3/1 544/4/1
f 545/117/1 546/118/1 547/119/1 548/120/1
f 549/53/1 550/54/1 551/55/1 552/56/1
f 553/113/1 554/114/1 555/115/1 556/116/1
f 557/85/1 558/86/1 559/87/1 560/88/1
f 561/89/1 562/90/1 563/91/1 564/92/1
f 565/105/1 566/106/1 567/107/1 568/108/1
f 569/17/1 570/18/1 571/19/1 572/20/1
f 573/69/1 574/70/1 575/71/1 576/72/1
f 577/113/1 578/114/1 579/115/1 580/116/1
f 581/33/1 582/34/1 583/35/1 584/36/1
f 585/85/1 586/86/1 587/87/1 588/88/1
f 589/1/1 590/2/1 591/3/1 592/4/1
f 593/1/1 594/2/1 595/3/1 596/4/1
f 597/1/1 598/2/1 599/3/1 600/4/1
f 601/1/1 602/2/1 603/3/1 604/4/1
f 605/17/1 606/18/1 607/19/1 608/20/1
f 609/21/1 610/22/1 611/23/1 612/24/1
f 613/25/1 614/26/1 615/27/1 616/28/1
f 617/65/1 618/66/1 619/67/1 620/68/1
f 621/1/1 622/2/1 623/3/1 624/4/1
f 625/33/1 626/34/1 627/35/1 628/36/1
f 629/37/1 630/38/1 631/39/1 632/40/1
f 633/41/1 634/42/1 635/43/1 636/44/1
f 637/81/1 638/82/1 639/83/1 640/84/1
f 641/1/1 642/2/1 643/3/1 644/4/1
f 645/69/1 646/70/1 647/71/1 648/72/1
f 649/5/1 650/6/1 651/7/1 652/8/1
f 653/57/1 654/58/1 655/59/1 656/60/1
f 657/93/1 658/94/1 659/95/1 660/96/1
f 661/13/1 662/14/1 663/15/1 664/16/1
f 665/69/1 666/70/1 667/71/1 668/72/1
f 669/49/1 670/50/1 671/51/1 672/52/1
f 673/73/1 674/74/1 675/75/1 676/76/1
f 677/53/1 678/54/1 679/55/1 680/56/1
f 681/29/1 682/30/1 683/31/1 684/32/1
f 685/85/1 686/86/1 687/87/1 688/88/1
f 689/1/1 690/2/1 691/3/1 692/4/1
f 693/1/1 694/2/1 695/3/1 696/4/1
f 697/1/1 698/2/1 699/3/1 700/4/1
f 701/1/1 702/2/1 703/3/1 704/4/1
f 705/1/1 706/2/1 707/3/1 708/4/1
f 709/1/1 710/2/1 711/3/1 712/4/1
f 713/1/1 714/2/1 715/3/1 716/4/1
f 717/5/1 718/6/1 719/7/1 720/8/1
f 721/93/1 722/94/1 723/95/1 724/96/1
f 725/49/1 726/50/1 727/51/1 728/52/1
f 729/53/1 730/54/1 731/55/1 732/56/1
f 733/57/1 734/58/1 735/59/1 736/60/1
f 737/61/1 738/62/1 739/63/1 740/64/1
f 741/73/1 742/74/1 743/75/1 744/76/1
f 745/77/1 746/78/1 747/79/1 748/80/1
f 749/5/1 750/6/1 751/7/1 752/8/1
f 753/1/1 754/2/1 755/3/1 756/4/1
f 757/1/1 758/2/1 759/3/1 760/4/1
f 761/109/1 762/110/1 763/111/1 764/112/1
f 765/109/1 766/110/1 767/111/1 768/112/1
f 769/69/1 770/70/1 771/71/1 772/72/1
f 773/105/1 774/106/1 775/107/1 776/108/1
f 777/97/1 778/98/1 779/99/1 780/100/1
f 781/13/1 782/14/1 783/15/1 784/16/1
f 785/93/1 786/94/1 787/95/1 788/96/1
f 789/105/1 790/106/1 791/107/1 792/108/1
f 793/93/1 794/94/1 795/95/1 796/96/1
f 797/113/1 798/114/1 799/115/1 800/116/1
f 801/101/1 802/102/1 803/103/1 804/104/1
f 805/29/1 806/30/1 807/31/1 808/32/1
f 809/53/1 810/54/1 811/55/1 812/56/1
f 813/113/1 814/114/1 815/115/1 816/116/1
f 817/53/1 818/54/1 819/55/1 820/56/1
f 821/65/1 822/66/1 823/67/1 824/68/1
f 825/57/1 826/58/1 827/59/1 828/60/1
f 829/65/1 830/66/1 831/67/1 832/68/1
f 833/65/1 834/66/1 835/67/1 836/68/1
f 837/97/1 838/98/1 839/99/1 840/100/1
f 841/81/1 842/82/1 843/83/1 844/84/1
f 845/73/1 846/74/1 847/75/1 848/76/1
f 849/81/1 850/82/1 851/83/1 852/84/1
f 853/81/1 854/82/1 855/83/1 856/84/1
f 857/101/1 858/102/1 859/103/1 860/104/1
f 861/89/1 862/90/1 863/91/1 864/92/1

