# Tiled2Unity generated file. Do not modify by hand.
# Wavefront file for 'tomathensBetaMap_mesh_0058.obj'

# Vertices (Count = 240)
v -134 -44 0
v -135 -44 0
v -135 -43 0
v -134 -43 0
v -133 -44 0
v -134 -44 0
v -134 -43 0
v -133 -43 0
v -132 -44 0
v -133 -44 0
v -133 -43 0
v -132 -43 0
v -131 -44 0
v -132 -44 0
v -132 -43 0
v -131 -43 0
v -130 -44 0
v -131 -44 0
v -131 -43 0
v -130 -43 0
v -129 -44 0
v -130 -44 0
v -130 -43 0
v -129 -43 0
v -128 -44 0
v -129 -44 0
v -129 -43 0
v -128 -43 0
v -127 -44 0
v -128 -44 0
v -128 -43 0
v -127 -43 0
v -126 -44 0
v -127 -44 0
v -127 -43 0
v -126 -43 0
v -125 -44 0
v -126 -44 0
v -126 -43 0
v -125 -43 0
v -124 -44 0
v -125 -44 0
v -125 -43 0
v -124 -43 0
v -123 -44 0
v -124 -44 0
v -124 -43 0
v -123 -43 0
v -134 -45 0
v -135 -45 0
v -135 -44 0
v -134 -44 0
v -133 -45 0
v -134 -45 0
v -134 -44 0
v -133 -44 0
v -132 -45 0
v -133 -45 0
v -133 -44 0
v -132 -44 0
v -131 -45 0
v -132 -45 0
v -132 -44 0
v -131 -44 0
v -130 -45 0
v -131 -45 0
v -131 -44 0
v -130 -44 0
v -129 -45 0
v -130 -45 0
v -130 -44 0
v -129 -44 0
v -128 -45 0
v -129 -45 0
v -129 -44 0
v -128 -44 0
v -127 -45 0
v -128 -45 0
v -128 -44 0
v -127 -44 0
v -126 -45 0
v -127 -45 0
v -127 -44 0
v -126 -44 0
v -125 -45 0
v -126 -45 0
v -126 -44 0
v -125 -44 0
v -124 -45 0
v -125 -45 0
v -125 -44 0
v -124 -44 0
v -123 -45 0
v -124 -45 0
v -124 -44 0
v -123 -44 0
v -134 -46 0
v -135 -46 0
v -135 -45 0
v -134 -45 0
v -123 -46 0
v -124 -46 0
v -124 -45 0
v -123 -45 0
v -134 -47 0
v -135 -47 0
v -135 -46 0
v -134 -46 0
v -123 -47 0
v -124 -47 0
v -124 -46 0
v -123 -46 0
v -134 -48 0
v -135 -48 0
v -135 -47 0
v -134 -47 0
v -123 -48 0
v -124 -48 0
v -124 -47 0
v -123 -47 0
v -134 -49 0
v -135 -49 0
v -135 -48 0
v -134 -48 0
v -123 -49 0
v -124 -49 0
v -124 -48 0
v -123 -48 0
v -134 -50 0
v -135 -50 0
v -135 -49 0
v -134 -49 0
v -133 -50 0
v -134 -50 0
v -134 -49 0
v -133 -49 0
v -132 -50 0
v -133 -50 0
v -133 -49 0
v -132 -49 0
v -131 -50 0
v -132 -50 0
v -132 -49 0
v -131 -49 0
v -130 -50 0
v -131 -50 0
v -131 -49 0
v -130 -49 0
v -129 -50 0
v -130 -50 0
v -130 -49 0
v -129 -49 0
v -128 -50 0
v -129 -50 0
v -129 -49 0
v -128 -49 0
v -127 -50 0
v -128 -50 0
v -128 -49 0
v -127 -49 0
v -126 -50 0
v -127 -50 0
v -127 -49 0
v -126 -49 0
v -125 -50 0
v -126 -50 0
v -126 -49 0
v -125 -49 0
v -124 -50 0
v -125 -50 0
v -125 -49 0
v -124 -49 0
v -123 -50 0
v -124 -50 0
v -124 -49 0
v -123 -49 0
v -134 -51 0
v -135 -51 0
v -135 -50 0
v -134 -50 0
v -133 -51 0
v -134 -51 0
v -134 -50 0
v -133 -50 0
v -132 -51 0
v -133 -51 0
v -133 -50 0
v -132 -50 0
v -131 -51 0
v -132 -51 0
v -132 -50 0
v -131 -50 0
v -130 -51 0
v -131 -51 0
v -131 -50 0
v -130 -50 0
v -129 -51 0
v -130 -51 0
v -130 -50 0
v -129 -50 0
v -128 -51 0
v -129 -51 0
v -129 -50 0
v -128 -50 0
v -127 -51 0
v -128 -51 0
v -128 -50 0
v -127 -50 0
v -126 -51 0
v -127 -51 0
v -127 -50 0
v -126 -50 0
v -125 -51 0
v -126 -51 0
v -126 -50 0
v -125 -50 0
v -124 -51 0
v -125 -51 0
v -125 -50 0
v -124 -50 0
v -123 -51 0
v -124 -51 0
v -124 -50 0
v -123 -50 0
v -132 -172 0
v -133 -172 0
v -133 -171 0
v -132 -171 0
v -125 -172 0
v -126 -172 0
v -126 -171 0
v -125 -171 0
v -132 -173 0
v -133 -173 0
v -133 -172 0
v -132 -172 0
v -125 -173 0
v -126 -173 0
v -126 -172 0
v -125 -172 0

# Texture cooridinates (Count = 64)
vt 0.189415 0.7822878
vt 0.2116992 0.7822878
vt 0.2116992 0.8118081
vt 0.189415 0.8118081
vt 0.1657382 0.7822878
vt 0.1880223 0.7822878
vt 0.1880223 0.8118081
vt 0.1657382 0.8118081
vt 0.1420613 0.7822878
vt 0.1643454 0.7822878
vt 0.1643454 0.8118081
vt 0.1420613 0.8118081
vt 0.189415 0.7509225
vt 0.2116992 0.7509225
vt 0.2116992 0.7804428
vt 0.189415 0.7804428
vt 0.1657382 0.7509225
vt 0.1880223 0.7509225
vt 0.1880223 0.7804428
vt 0.1657382 0.7804428
vt 0.1420613 0.7509225
vt 0.1643454 0.7509225
vt 0.1643454 0.7804428
vt 0.1420613 0.7804428
vt 0.189415 0.7195572
vt 0.2116992 0.7195572
vt 0.2116992 0.7490775
vt 0.189415 0.7490775
vt 0.1420613 0.7195572
vt 0.1643454 0.7195572
vt 0.1643454 0.7490775
vt 0.1420613 0.7490775
vt 0.189415 0.6881919
vt 0.2116992 0.6881919
vt 0.2116992 0.7177122
vt 0.189415 0.7177122
vt 0.1657382 0.6881919
vt 0.1880223 0.6881919
vt 0.1880223 0.7177122
vt 0.1657382 0.7177122
vt 0.1420613 0.6881919
vt 0.1643454 0.6881919
vt 0.1643454 0.7177122
vt 0.1420613 0.7177122
vt 0.189415 0.6568266
vt 0.2116992 0.6568266
vt 0.2116992 0.6863469
vt 0.189415 0.6863469
vt 0.1657382 0.6568266
vt 0.1880223 0.6568266
vt 0.1880223 0.6863469
vt 0.1657382 0.6863469
vt 0.1420613 0.6568266
vt 0.1643454 0.6568266
vt 0.1643454 0.6863469
vt 0.1420613 0.6863469
vt 0.09470752 0.9077491
vt 0.1169916 0.9077491
vt 0.1169916 0.9372694
vt 0.09470752 0.9372694
vt 0.09470752 0.8763838
vt 0.1169916 0.8763838
vt 0.1169916 0.9059041
vt 0.09470752 0.9059041

# Normal
vn 0 0 -1

# Mesh description
g tomathensBetaMap_mesh_0058

# Faces
f 1/1/1 2/2/1 3/3/1 4/4/1
f 5/5/1 6/6/1 7/7/1 8/8/1
f 9/5/1 10/6/1 11/7/1 12/8/1
f 13/5/1 14/6/1 15/7/1 16/8/1
f 17/5/1 18/6/1 19/7/1 20/8/1
f 21/5/1 22/6/1 23/7/1 24/8/1
f 25/5/1 26/6/1 27/7/1 28/8/1
f 29/5/1 30/6/1 31/7/1 32/8/1
f 33/5/1 34/6/1 35/7/1 36/8/1
f 37/5/1 38/6/1 39/7/1 40/8/1
f 41/5/1 42/6/1 43/7/1 44/8/1
f 45/9/1 46/10/1 47/11/1 48/12/1
f 49/13/1 50/14/1 51/15/1 52/16/1
f 53/17/1 54/18/1 55/19/1 56/20/1
f 57/17/1 58/18/1 59/19/1 60/20/1
f 61/17/1 62/18/1 63/19/1 64/20/1
f 65/17/1 66/18/1 67/19/1 68/20/1
f 69/17/1 70/18/1 71/19/1 72/20/1
f 73/17/1 74/18/1 75/19/1 76/20/1
f 77/17/1 78/18/1 79/19/1 80/20/1
f 81/17/1 82/18/1 83/19/1 84/20/1
f 85/17/1 86/18/1 87/19/1 88/20/1
f 89/17/1 90/18/1 91/19/1 92/20/1
f 93/21/1 94/22/1 95/23/1 96/24/1
f 97/25/1 98/26/1 99/27/1 100/28/1
f 101/29/1 102/30/1 103/31/1 104/32/1
f 105/25/1 106/26/1 107/27/1 108/28/1
f 109/29/1 110/30/1 111/31/1 112/32/1
f 113/25/1 114/26/1 115/27/1 116/28/1
f 117/29/1 118/30/1 119/31/1 120/32/1
f 121/25/1 122/26/1 123/27/1 124/28/1
f 125/29/1 126/30/1 127/31/1 128/32/1
f 129/33/1 130/34/1 131/35/1 132/36/1
f 133/37/1 134/38/1 135/39/1 136/40/1
f 137/37/1 138/38/1 139/39/1 140/40/1
f 141/37/1 142/38/1 143/39/1 144/40/1
f 145/37/1 146/38/1 147/39/1 148/40/1
f 149/37/1 150/38/1 151/39/1 152/40/1
f 153/37/1 154/38/1 155/39/1 156/40/1
f 157/37/1 158/38/1 159/39/1 160/40/1
f 161/37/1 162/38/1 163/39/1 164/40/1
f 165/37/1 166/38/1 167/39/1 168/40/1
f 169/37/1 170/38/1 171/39/1 172/40/1
f 173/41/1 174/42/1 175/43/1 176/44/1
f 177/45/1 178/46/1 179/47/1 180/48/1
f 181/49/1 182/50/1 183/51/1 184/52/1
f 185/49/1 186/50/1 187/51/1 188/52/1
f 189/49/1 190/50/1 191/51/1 192/52/1
f 193/49/1 194/50/1 195/51/1 196/52/1
f 197/49/1 198/50/1 199/51/1 200/52/1
f 201/49/1 202/50/1 203/51/1 204/52/1
f 205/49/1 206/50/1 207/51/1 208/52/1
f 209/49/1 210/50/1 211/51/1 212/52/1
f 213/49/1 214/50/1 215/51/1 216/52/1
f 217/49/1 218/50/1 219/51/1 220/52/1
f 221/53/1 222/54/1 223/55/1 224/56/1
f 225/57/1 226/58/1 227/59/1 228/60/1
f 229/57/1 230/58/1 231/59/1 232/60/1
f 233/61/1 234/62/1 235/63/1 236/64/1
f 237/61/1 238/62/1 239/63/1 240/64/1

