# Tiled2Unity generated file. Do not modify by hand.
# Wavefront file for 'tomathensBetaMap_mesh_0069.obj'

# Vertices (Count = 156)
v -112 -110 0
v -113 -110 0
v -113 -109 0
v -112 -109 0
v -107 -110 0
v -108 -110 0
v -108 -109 0
v -107 -109 0
v -150 -111 0
v -151 -111 0
v -151 -110 0
v -150 -110 0
v -112 -111 0
v -113 -111 0
v -113 -110 0
v -112 -110 0
v -107 -111 0
v -108 -111 0
v -108 -110 0
v -107 -110 0
v -112 -112 0
v -113 -112 0
v -113 -111 0
v -112 -111 0
v -107 -112 0
v -108 -112 0
v -108 -111 0
v -107 -111 0
v -133 -116 0
v -134 -116 0
v -134 -115 0
v -133 -115 0
v -132 -116 0
v -133 -116 0
v -133 -115 0
v -132 -115 0
v -133 -117 0
v -134 -117 0
v -134 -116 0
v -133 -116 0
v -132 -117 0
v -133 -117 0
v -133 -116 0
v -132 -116 0
v -125 -117 0
v -126 -117 0
v -126 -116 0
v -125 -116 0
v -124 -117 0
v -125 -117 0
v -125 -116 0
v -124 -116 0
v -133 -118 0
v -134 -118 0
v -134 -117 0
v -133 -117 0
v -132 -118 0
v -133 -118 0
v -133 -117 0
v -132 -117 0
v -125 -118 0
v -126 -118 0
v -126 -117 0
v -125 -117 0
v -124 -118 0
v -125 -118 0
v -125 -117 0
v -124 -117 0
v -177 -121 0
v -178 -121 0
v -178 -120 0
v -177 -120 0
v -177 -123 0
v -178 -123 0
v -178 -122 0
v -177 -122 0
v -181 -127 0
v -182 -127 0
v -182 -126 0
v -181 -126 0
v -178 -127 0
v -179 -127 0
v -179 -126 0
v -178 -126 0
v -177 -127 0
v -178 -127 0
v -178 -126 0
v -177 -126 0
v -107 -129 0
v -108 -129 0
v -108 -128 0
v -107 -128 0
v -147 -130 0
v -148 -130 0
v -148 -129 0
v -147 -129 0
v -112 -130 0
v -113 -130 0
v -113 -129 0
v -112 -129 0
v -107 -130 0
v -108 -130 0
v -108 -129 0
v -107 -129 0
v -106 -130 0
v -107 -130 0
v -107 -129 0
v -106 -129 0
v -152 -131 0
v -153 -131 0
v -153 -130 0
v -152 -130 0
v -147 -131 0
v -148 -131 0
v -148 -130 0
v -147 -130 0
v -112 -131 0
v -113 -131 0
v -113 -130 0
v -112 -130 0
v -110 -131 0
v -111 -131 0
v -111 -130 0
v -110 -130 0
v -107 -131 0
v -108 -131 0
v -108 -130 0
v -107 -130 0
v -106 -131 0
v -107 -131 0
v -107 -130 0
v -106 -130 0
v -152 -132 0
v -153 -132 0
v -153 -131 0
v -152 -131 0
v -147 -132 0
v -148 -132 0
v -148 -131 0
v -147 -131 0
v -112 -132 0
v -113 -132 0
v -113 -131 0
v -112 -131 0
v -110 -132 0
v -111 -132 0
v -111 -131 0
v -110 -131 0
v -106 -132 0
v -107 -132 0
v -107 -131 0
v -106 -131 0
v -110 -133 0
v -111 -133 0
v -111 -132 0
v -110 -132 0

# Texture cooridinates (Count = 116)
vt 0.3049327 0.4957447
vt 0.328849 0.4957447
vt 0.328849 0.5297872
vt 0.3049327 0.5297872
vt 0.2286996 0.4957447
vt 0.2526158 0.4957447
vt 0.2526158 0.5297872
vt 0.2286996 0.5297872
vt 0.2541106 0.4234043
vt 0.2780269 0.4234043
vt 0.2780269 0.4574468
vt 0.2541106 0.4574468
vt 0.3049327 0.4595745
vt 0.328849 0.4595745
vt 0.328849 0.493617
vt 0.3049327 0.493617
vt 0.2286996 0.4595745
vt 0.2526158 0.4595745
vt 0.2526158 0.493617
vt 0.2286996 0.493617
vt 0.3049327 0.4234043
vt 0.328849 0.4234043
vt 0.328849 0.4574468
vt 0.3049327 0.4574468
vt 0.2286996 0.4234043
vt 0.2526158 0.4234043
vt 0.2526158 0.4574468
vt 0.2286996 0.4574468
vt 0.3811659 0.6042553
vt 0.4050822 0.6042553
vt 0.4050822 0.6382979
vt 0.3811659 0.6382979
vt 0.3557549 0.6042553
vt 0.3796712 0.6042553
vt 0.3796712 0.6382979
vt 0.3557549 0.6382979
vt 0.3811659 0.5680851
vt 0.4050822 0.5680851
vt 0.4050822 0.6021277
vt 0.3811659 0.6021277
vt 0.3557549 0.5680851
vt 0.3796712 0.5680851
vt 0.3796712 0.6021277
vt 0.3557549 0.6021277
vt 0.2795217 0.6765957
vt 0.303438 0.6765957
vt 0.303438 0.7106383
vt 0.2795217 0.7106383
vt 0.2541106 0.6765957
vt 0.2780269 0.6765957
vt 0.2780269 0.7106383
vt 0.2541106 0.7106383
vt 0.3811659 0.5319149
vt 0.4050822 0.5319149
vt 0.4050822 0.5659574
vt 0.3811659 0.5659574
vt 0.3557549 0.5319149
vt 0.3796712 0.5319149
vt 0.3796712 0.5659574
vt 0.3557549 0.5659574
vt 0.2795217 0.6404256
vt 0.303438 0.6404256
vt 0.303438 0.674468
vt 0.2795217 0.674468
vt 0.2541106 0.6404256
vt 0.2780269 0.6404256
vt 0.2780269 0.674468
vt 0.2541106 0.674468
vt 0.2541106 0.7127659
vt 0.2780269 0.7127659
vt 0.2780269 0.7468085
vt 0.2541106 0.7468085
vt 0.1778774 0.7127659
vt 0.2017937 0.7127659
vt 0.2017937 0.7468085
vt 0.1778774 0.7468085
vt 0.2795217 0.7127659
vt 0.303438 0.7127659
vt 0.303438 0.7468085
vt 0.2795217 0.7468085
vt 0.2286996 0.7127659
vt 0.2526158 0.7127659
vt 0.2526158 0.7468085
vt 0.2286996 0.7468085
vt 0.2032885 0.7127659
vt 0.2272048 0.7127659
vt 0.2272048 0.7468085
vt 0.2032885 0.7468085
vt 0.2795217 0.4957447
vt 0.303438 0.4957447
vt 0.303438 0.5297872
vt 0.2795217 0.5297872
vt 0.3303438 0.4957447
vt 0.3542601 0.4957447
vt 0.3542601 0.5297872
vt 0.3303438 0.5297872
vt 0.2541106 0.4595745
vt 0.2780269 0.4595745
vt 0.2780269 0.493617
vt 0.2541106 0.493617
vt 0.2795217 0.4595745
vt 0.303438 0.4595745
vt 0.303438 0.493617
vt 0.2795217 0.493617
vt 0.3303438 0.4595745
vt 0.3542601 0.4595745
vt 0.3542601 0.493617
vt 0.3303438 0.493617
vt 0.2795217 0.4234043
vt 0.303438 0.4234043
vt 0.303438 0.4574468
vt 0.2795217 0.4574468
vt 0.3303438 0.4234043
vt 0.3542601 0.4234043
vt 0.3542601 0.4574468
vt 0.3303438 0.4574468

# Normal
vn 0 0 -1

# Mesh description
g tomathensBetaMap_mesh_0069

# Faces
f 1/1/1 2/2/1 3/3/1 4/4/1
f 5/5/1 6/6/1 7/7/1 8/8/1
f 9/9/1 10/10/1 11/11/1 12/12/1
f 13/13/1 14/14/1 15/15/1 16/16/1
f 17/17/1 18/18/1 19/19/1 20/20/1
f 21/21/1 22/22/1 23/23/1 24/24/1
f 25/25/1 26/26/1 27/27/1 28/28/1
f 29/29/1 30/30/1 31/31/1 32/32/1
f 33/33/1 34/34/1 35/35/1 36/36/1
f 37/37/1 38/38/1 39/39/1 40/40/1
f 41/41/1 42/42/1 43/43/1 44/44/1
f 45/45/1 46/46/1 47/47/1 48/48/1
f 49/49/1 50/50/1 51/51/1 52/52/1
f 53/53/1 54/54/1 55/55/1 56/56/1
f 57/57/1 58/58/1 59/59/1 60/60/1
f 61/61/1 62/62/1 63/63/1 64/64/1
f 65/65/1 66/66/1 67/67/1 68/68/1
f 69/69/1 70/70/1 71/71/1 72/72/1
f 73/73/1 74/74/1 75/75/1 76/76/1
f 77/77/1 78/78/1 79/79/1 80/80/1
f 81/81/1 82/82/1 83/83/1 84/84/1
f 85/85/1 86/86/1 87/87/1 88/88/1
f 89/5/1 90/6/1 91/7/1 92/8/1
f 93/89/1 94/90/1 95/91/1 96/92/1
f 97/89/1 98/90/1 99/91/1 100/92/1
f 101/17/1 102/18/1 103/19/1 104/20/1
f 105/93/1 106/94/1 107/95/1 108/96/1
f 109/97/1 110/98/1 111/99/1 112/100/1
f 113/101/1 114/102/1 115/103/1 116/104/1
f 117/101/1 118/102/1 119/103/1 120/104/1
f 121/5/1 122/6/1 123/7/1 124/8/1
f 125/25/1 126/26/1 127/27/1 128/28/1
f 129/105/1 130/106/1 131/107/1 132/108/1
f 133/9/1 134/10/1 135/11/1 136/12/1
f 137/109/1 138/110/1 139/111/1 140/112/1
f 141/109/1 142/110/1 143/111/1 144/112/1
f 145/17/1 146/18/1 147/19/1 148/20/1
f 149/113/1 150/114/1 151/115/1 152/116/1
f 153/25/1 154/26/1 155/27/1 156/28/1

