# Tiled2Unity generated file. Do not modify by hand.
# Wavefront file for 'tomathensBetaMap_mesh_0112.obj'

# Vertices (Count = 80)
v -118 -22 0
v -119 -22 0
v -119 -21 0
v -118 -21 0
v -118 -23 0
v -119 -23 0
v -119 -22 0
v -118 -22 0
v -126 -25 0
v -127 -25 0
v -127 -24 0
v -126 -24 0
v -156 -69 0
v -157 -69 0
v -157 -68 0
v -156 -68 0
v -151 -69 0
v -152 -69 0
v -152 -68 0
v -151 -68 0
v -105 -69 0
v -106 -69 0
v -106 -68 0
v -105 -68 0
v -100 -69 0
v -101 -69 0
v -101 -68 0
v -100 -68 0
v -111 -85 0
v -112 -85 0
v -112 -84 0
v -111 -84 0
v -108 -85 0
v -109 -85 0
v -109 -84 0
v -108 -84 0
v -105 -85 0
v -106 -85 0
v -106 -84 0
v -105 -84 0
v -102 -85 0
v -103 -85 0
v -103 -84 0
v -102 -84 0
v -101 -85 0
v -102 -85 0
v -102 -84 0
v -101 -84 0
v -111 -86 0
v -112 -86 0
v -112 -85 0
v -111 -85 0
v -102 -86 0
v -103 -86 0
v -103 -85 0
v -102 -85 0
v -101 -86 0
v -102 -86 0
v -102 -85 0
v -101 -85 0
v -27 -138 0
v -28 -138 0
v -28 -137 0
v -27 -137 0
v -27 -139 0
v -28 -139 0
v -28 -138 0
v -27 -138 0
v -27 -140 0
v -28 -140 0
v -28 -139 0
v -27 -139 0
v -229 -175 0
v -230 -175 0
v -230 -174 0
v -229 -174 0
v -115 -189 0
v -116 -189 0
v -116 -188 0
v -115 -188 0

# Texture cooridinates (Count = 40)
vt 0.2266667 0.7081281
vt 0.2419048 0.7081281
vt 0.2419048 0.7278326
vt 0.2266667 0.7278326
vt 0.2266667 0.6871921
vt 0.2419048 0.6871921
vt 0.2419048 0.7068965
vt 0.2266667 0.7068965
vt 0 0.9384236
vt 0.0152381 0.9384236
vt 0.0152381 0.9581281
vt 0 0.9581281
vt 0.1619048 0.8965517
vt 0.1771429 0.8965517
vt 0.1771429 0.9162562
vt 0.1619048 0.9162562
vt 0.2904762 0.979064
vt 0.2752381 0.979064
vt 0.2752381 0.9593596
vt 0.2904762 0.9593596
vt 0.1933333 0.6231527
vt 0.1780952 0.6231527
vt 0.1780952 0.6034483
vt 0.1933333 0.6034483
vt 0.2904762 1
vt 0.2752381 1
vt 0.2752381 0.9802955
vt 0.2904762 0.9802955
vt 0.1933333 0.6440886
vt 0.1780952 0.6440886
vt 0.1780952 0.6243842
vt 0.1933333 0.6243842
vt 0.2266667 0.6662562
vt 0.2419048 0.6662562
vt 0.2419048 0.6859606
vt 0.2266667 0.6859606
vt 0.1295238 0.8756158
vt 0.1447619 0.8756158
vt 0.1447619 0.8953202
vt 0.1295238 0.8953202

# Normal
vn 0 0 -1

# Mesh description
g tomathensBetaMap_mesh_0112

# Faces
f 1/1/1 2/2/1 3/3/1 4/4/1
f 5/5/1 6/6/1 7/7/1 8/8/1
f 9/9/1 10/10/1 11/11/1 12/12/1
f 13/13/1 14/14/1 15/15/1 16/16/1
f 17/13/1 18/14/1 19/15/1 20/16/1
f 21/13/1 22/14/1 23/15/1 24/16/1
f 25/13/1 26/14/1 27/15/1 28/16/1
f 29/17/1 30/18/1 31/19/1 32/20/1
f 33/13/1 34/14/1 35/15/1 36/16/1
f 37/13/1 38/14/1 39/15/1 40/16/1
f 41/17/1 42/18/1 43/19/1 44/20/1
f 45/21/1 46/22/1 47/23/1 48/24/1
f 49/25/1 50/26/1 51/27/1 52/28/1
f 53/25/1 54/26/1 55/27/1 56/28/1
f 57/29/1 58/30/1 59/31/1 60/32/1
f 61/1/1 62/2/1 63/3/1 64/4/1
f 65/5/1 66/6/1 67/7/1 68/8/1
f 69/33/1 70/34/1 71/35/1 72/36/1
f 73/37/1 74/38/1 75/39/1 76/40/1
f 77/13/1 78/14/1 79/15/1 80/16/1

