# Tiled2Unity generated file. Do not modify by hand.
# Wavefront file for 'tomathensBetaMap_mesh_0006.obj'

# Vertices (Count = 36)
v -106 -131 0
v -107 -131 0
v -107 -130 0
v -106 -130 0
v -108 -132 0
v -109 -132 0
v -109 -131 0
v -108 -131 0
v -106 -132 0
v -107 -132 0
v -107 -131 0
v -106 -131 0
v -109 -133 0
v -110 -133 0
v -110 -132 0
v -109 -132 0
v -106 -133 0
v -107 -133 0
v -107 -132 0
v -106 -132 0
v -110 -134 0
v -111 -134 0
v -111 -133 0
v -110 -133 0
v -109 -134 0
v -110 -134 0
v -110 -133 0
v -109 -133 0
v -106 -134 0
v -107 -134 0
v -107 -133 0
v -106 -133 0
v -106 -135 0
v -107 -135 0
v -107 -134 0
v -106 -134 0

# Texture cooridinates (Count = 4)
vt 0.2098765 0.9227053
vt 0.308642 0.9227053
vt 0.308642 1
vt 0.2098765 1

# Normal
vn 0 0 -1

# Mesh description
g tomathensBetaMap_mesh_0006

# Faces
f 1/1/1 2/2/1 3/3/1 4/4/1
f 5/1/1 6/2/1 7/3/1 8/4/1
f 9/1/1 10/2/1 11/3/1 12/4/1
f 13/1/1 14/2/1 15/3/1 16/4/1
f 17/1/1 18/2/1 19/3/1 20/4/1
f 21/1/1 22/2/1 23/3/1 24/4/1
f 25/1/1 26/2/1 27/3/1 28/4/1
f 29/1/1 30/2/1 31/3/1 32/4/1
f 33/1/1 34/2/1 35/3/1 36/4/1

