# Tiled2Unity generated file. Do not modify by hand.
# Wavefront file for 'tomathensBetaMap_mesh_0037.obj'

# Vertices (Count = 400)
v -137 -5 0
v -138 -5 0
v -138 -4 0
v -137 -4 0
v -133 -5 0
v -134 -5 0
v -134 -4 0
v -133 -4 0
v -130 -5 0
v -131 -5 0
v -131 -4 0
v -130 -4 0
v -129 -5 0
v -130 -5 0
v -130 -4 0
v -129 -4 0
v -128 -5 0
v -129 -5 0
v -129 -4 0
v -128 -4 0
v -127 -5 0
v -128 -5 0
v -128 -4 0
v -127 -4 0
v -124 -5 0
v -125 -5 0
v -125 -4 0
v -124 -4 0
v -120 -5 0
v -121 -5 0
v -121 -4 0
v -120 -4 0
v -137 -6 0
v -138 -6 0
v -138 -5 0
v -137 -5 0
v -133 -6 0
v -134 -6 0
v -134 -5 0
v -133 -5 0
v -130 -6 0
v -131 -6 0
v -131 -5 0
v -130 -5 0
v -129 -6 0
v -130 -6 0
v -130 -5 0
v -129 -5 0
v -128 -6 0
v -129 -6 0
v -129 -5 0
v -128 -5 0
v -127 -6 0
v -128 -6 0
v -128 -5 0
v -127 -5 0
v -124 -6 0
v -125 -6 0
v -125 -5 0
v -124 -5 0
v -120 -6 0
v -121 -6 0
v -121 -5 0
v -120 -5 0
v -194 -93 0
v -195 -93 0
v -195 -92 0
v -194 -92 0
v -193 -93 0
v -194 -93 0
v -194 -92 0
v -193 -92 0
v -192 -93 0
v -193 -93 0
v -193 -92 0
v -192 -92 0
v -191 -93 0
v -192 -93 0
v -192 -92 0
v -191 -92 0
v -190 -93 0
v -191 -93 0
v -191 -92 0
v -190 -92 0
v -189 -93 0
v -190 -93 0
v -190 -92 0
v -189 -92 0
v -188 -93 0
v -189 -93 0
v -189 -92 0
v -188 -92 0
v -187 -93 0
v -188 -93 0
v -188 -92 0
v -187 -92 0
v -186 -93 0
v -187 -93 0
v -187 -92 0
v -186 -92 0
v -185 -93 0
v -186 -93 0
v -186 -92 0
v -185 -92 0
v -194 -94 0
v -195 -94 0
v -195 -93 0
v -194 -93 0
v -193 -94 0
v -194 -94 0
v -194 -93 0
v -193 -93 0
v -192 -94 0
v -193 -94 0
v -193 -93 0
v -192 -93 0
v -191 -94 0
v -192 -94 0
v -192 -93 0
v -191 -93 0
v -190 -94 0
v -191 -94 0
v -191 -93 0
v -190 -93 0
v -189 -94 0
v -190 -94 0
v -190 -93 0
v -189 -93 0
v -188 -94 0
v -189 -94 0
v -189 -93 0
v -188 -93 0
v -187 -94 0
v -188 -94 0
v -188 -93 0
v -187 -93 0
v -186 -94 0
v -187 -94 0
v -187 -93 0
v -186 -93 0
v -185 -94 0
v -186 -94 0
v -186 -93 0
v -185 -93 0
v -194 -107 0
v -195 -107 0
v -195 -106 0
v -194 -106 0
v -185 -107 0
v -186 -107 0
v -186 -106 0
v -185 -106 0
v -194 -108 0
v -195 -108 0
v -195 -107 0
v -194 -107 0
v -185 -108 0
v -186 -108 0
v -186 -107 0
v -185 -107 0
v -19 -132 0
v -20 -132 0
v -20 -131 0
v -19 -131 0
v -18 -132 0
v -19 -132 0
v -19 -131 0
v -18 -131 0
v -19 -133 0
v -20 -133 0
v -20 -132 0
v -19 -132 0
v -18 -133 0
v -19 -133 0
v -19 -132 0
v -18 -132 0
v -228 -209 0
v -229 -209 0
v -229 -208 0
v -228 -208 0
v -227 -209 0
v -228 -209 0
v -228 -208 0
v -227 -208 0
v -226 -209 0
v -227 -209 0
v -227 -208 0
v -226 -208 0
v -225 -209 0
v -226 -209 0
v -226 -208 0
v -225 -208 0
v -224 -209 0
v -225 -209 0
v -225 -208 0
v -224 -208 0
v -223 -209 0
v -224 -209 0
v -224 -208 0
v -223 -208 0
v -222 -209 0
v -223 -209 0
v -223 -208 0
v -222 -208 0
v -221 -209 0
v -222 -209 0
v -222 -208 0
v -221 -208 0
v -220 -209 0
v -221 -209 0
v -221 -208 0
v -220 -208 0
v -219 -209 0
v -220 -209 0
v -220 -208 0
v -219 -208 0
v -218 -209 0
v -219 -209 0
v -219 -208 0
v -218 -208 0
v -217 -209 0
v -218 -209 0
v -218 -208 0
v -217 -208 0
v -216 -209 0
v -217 -209 0
v -217 -208 0
v -216 -208 0
v -215 -209 0
v -216 -209 0
v -216 -208 0
v -215 -208 0
v -228 -210 0
v -229 -210 0
v -229 -209 0
v -228 -209 0
v -227 -210 0
v -228 -210 0
v -228 -209 0
v -227 -209 0
v -226 -210 0
v -227 -210 0
v -227 -209 0
v -226 -209 0
v -225 -210 0
v -226 -210 0
v -226 -209 0
v -225 -209 0
v -224 -210 0
v -225 -210 0
v -225 -209 0
v -224 -209 0
v -223 -210 0
v -224 -210 0
v -224 -209 0
v -223 -209 0
v -222 -210 0
v -223 -210 0
v -223 -209 0
v -222 -209 0
v -221 -210 0
v -222 -210 0
v -222 -209 0
v -221 -209 0
v -220 -210 0
v -221 -210 0
v -221 -209 0
v -220 -209 0
v -219 -210 0
v -220 -210 0
v -220 -209 0
v -219 -209 0
v -218 -210 0
v -219 -210 0
v -219 -209 0
v -218 -209 0
v -217 -210 0
v -218 -210 0
v -218 -209 0
v -217 -209 0
v -216 -210 0
v -217 -210 0
v -217 -209 0
v -216 -209 0
v -215 -210 0
v -216 -210 0
v -216 -209 0
v -215 -209 0
v -72 -213 0
v -73 -213 0
v -73 -212 0
v -72 -212 0
v -71 -213 0
v -72 -213 0
v -72 -212 0
v -71 -212 0
v -70 -213 0
v -71 -213 0
v -71 -212 0
v -70 -212 0
v -69 -213 0
v -70 -213 0
v -70 -212 0
v -69 -212 0
v -68 -213 0
v -69 -213 0
v -69 -212 0
v -68 -212 0
v -67 -213 0
v -68 -213 0
v -68 -212 0
v -67 -212 0
v -66 -213 0
v -67 -213 0
v -67 -212 0
v -66 -212 0
v -65 -213 0
v -66 -213 0
v -66 -212 0
v -65 -212 0
v -64 -213 0
v -65 -213 0
v -65 -212 0
v -64 -212 0
v -63 -213 0
v -64 -213 0
v -64 -212 0
v -63 -212 0
v -62 -213 0
v -63 -213 0
v -63 -212 0
v -62 -212 0
v -61 -213 0
v -62 -213 0
v -62 -212 0
v -61 -212 0
v -60 -213 0
v -61 -213 0
v -61 -212 0
v -60 -212 0
v -59 -213 0
v -60 -213 0
v -60 -212 0
v -59 -212 0
v -72 -214 0
v -73 -214 0
v -73 -213 0
v -72 -213 0
v -71 -214 0
v -72 -214 0
v -72 -213 0
v -71 -213 0
v -70 -214 0
v -71 -214 0
v -71 -213 0
v -70 -213 0
v -69 -214 0
v -70 -214 0
v -70 -213 0
v -69 -213 0
v -68 -214 0
v -69 -214 0
v -69 -213 0
v -68 -213 0
v -67 -214 0
v -68 -214 0
v -68 -213 0
v -67 -213 0
v -66 -214 0
v -67 -214 0
v -67 -213 0
v -66 -213 0
v -65 -214 0
v -66 -214 0
v -66 -213 0
v -65 -213 0
v -64 -214 0
v -65 -214 0
v -65 -213 0
v -64 -213 0
v -63 -214 0
v -64 -214 0
v -64 -213 0
v -63 -213 0
v -62 -214 0
v -63 -214 0
v -63 -213 0
v -62 -213 0
v -61 -214 0
v -62 -214 0
v -62 -213 0
v -61 -213 0
v -60 -214 0
v -61 -214 0
v -61 -213 0
v -60 -213 0
v -59 -214 0
v -60 -214 0
v -60 -213 0
v -59 -213 0

# Texture cooridinates (Count = 80)
vt 0.09470752 0.9077491
vt 0.1169916 0.9077491
vt 0.1169916 0.9372694
vt 0.09470752 0.9372694
vt 0.2130919 0.9704797
vt 0.235376 0.9704797
vt 0.235376 1
vt 0.2130919 1
vt 0.189415 0.9704797
vt 0.2116992 0.9704797
vt 0.2116992 1
vt 0.189415 1
vt 0.1657382 0.9704797
vt 0.1880223 0.9704797
vt 0.1880223 1
vt 0.1657382 1
vt 0.09470752 0.8763838
vt 0.1169916 0.8763838
vt 0.1169916 0.9059041
vt 0.09470752 0.9059041
vt 0.2130919 0.9391144
vt 0.235376 0.9391144
vt 0.235376 0.9686347
vt 0.2130919 0.9686347
vt 0.189415 0.9391144
vt 0.2116992 0.9391144
vt 0.2116992 0.9686347
vt 0.189415 0.9686347
vt 0.1657382 0.9391144
vt 0.1880223 0.9391144
vt 0.1880223 0.9686347
vt 0.1657382 0.9686347
vt 0.1657382 0.6881919
vt 0.1880223 0.6881919
vt 0.1880223 0.7177122
vt 0.1657382 0.7177122
vt 0.1657382 0.6568266
vt 0.1880223 0.6568266
vt 0.1880223 0.6863469
vt 0.1657382 0.6863469
vt 0.02367688 0.9704797
vt 0.045961 0.9704797
vt 0.045961 1
vt 0.02367688 1
vt 0 0.9704797
vt 0.02228412 0.9704797
vt 0.02228412 1
vt 0 1
vt 0.02367688 0.9391144
vt 0.045961 0.9391144
vt 0.045961 0.9686347
vt 0.02367688 0.9686347
vt 0 0.9391144
vt 0.02228412 0.9391144
vt 0.02228412 0.9686347
vt 0 0.9686347
vt 0.189415 0.7822878
vt 0.2116992 0.7822878
vt 0.2116992 0.8118081
vt 0.189415 0.8118081
vt 0.1657382 0.7822878
vt 0.1880223 0.7822878
vt 0.1880223 0.8118081
vt 0.1657382 0.8118081
vt 0.1420613 0.7822878
vt 0.1643454 0.7822878
vt 0.1643454 0.8118081
vt 0.1420613 0.8118081
vt 0.189415 0.7509225
vt 0.2116992 0.7509225
vt 0.2116992 0.7804428
vt 0.189415 0.7804428
vt 0.1657382 0.7509225
vt 0.1880223 0.7509225
vt 0.1880223 0.7804428
vt 0.1657382 0.7804428
vt 0.1420613 0.7509225
vt 0.1643454 0.7509225
vt 0.1643454 0.7804428
vt 0.1420613 0.7804428

# Normal
vn 0 0 -1

# Mesh description
g tomathensBetaMap_mesh_0037

# Faces
f 1/1/1 2/2/1 3/3/1 4/4/1
f 5/1/1 6/2/1 7/3/1 8/4/1
f 9/5/1 10/6/1 11/7/1 12/8/1
f 13/9/1 14/10/1 15/11/1 16/12/1
f 17/9/1 18/10/1 19/11/1 20/12/1
f 21/13/1 22/14/1 23/15/1 24/16/1
f 25/1/1 26/2/1 27/3/1 28/4/1
f 29/1/1 30/2/1 31/3/1 32/4/1
f 33/17/1 34/18/1 35/19/1 36/20/1
f 37/17/1 38/18/1 39/19/1 40/20/1
f 41/21/1 42/22/1 43/23/1 44/24/1
f 45/25/1 46/26/1 47/27/1 48/28/1
f 49/25/1 50/26/1 51/27/1 52/28/1
f 53/29/1 54/30/1 55/31/1 56/32/1
f 57/17/1 58/18/1 59/19/1 60/20/1
f 61/17/1 62/18/1 63/19/1 64/20/1
f 65/5/1 66/6/1 67/7/1 68/8/1
f 69/9/1 70/10/1 71/11/1 72/12/1
f 73/9/1 74/10/1 75/11/1 76/12/1
f 77/9/1 78/10/1 79/11/1 80/12/1
f 81/9/1 82/10/1 83/11/1 84/12/1
f 85/9/1 86/10/1 87/11/1 88/12/1
f 89/9/1 90/10/1 91/11/1 92/12/1
f 93/9/1 94/10/1 95/11/1 96/12/1
f 97/9/1 98/10/1 99/11/1 100/12/1
f 101/13/1 102/14/1 103/15/1 104/16/1
f 105/21/1 106/22/1 107/23/1 108/24/1
f 109/25/1 110/26/1 111/27/1 112/28/1
f 113/25/1 114/26/1 115/27/1 116/28/1
f 117/25/1 118/26/1 119/27/1 120/28/1
f 121/25/1 122/26/1 123/27/1 124/28/1
f 125/25/1 126/26/1 127/27/1 128/28/1
f 129/25/1 130/26/1 131/27/1 132/28/1
f 133/25/1 134/26/1 135/27/1 136/28/1
f 137/25/1 138/26/1 139/27/1 140/28/1
f 141/29/1 142/30/1 143/31/1 144/32/1
f 145/5/1 146/6/1 147/7/1 148/8/1
f 149/13/1 150/14/1 151/15/1 152/16/1
f 153/21/1 154/22/1 155/23/1 156/24/1
f 157/29/1 158/30/1 159/31/1 160/32/1
f 161/33/1 162/34/1 163/35/1 164/36/1
f 165/33/1 166/34/1 167/35/1 168/36/1
f 169/37/1 170/38/1 171/39/1 172/40/1
f 173/37/1 174/38/1 175/39/1 176/40/1
f 177/41/1 178/42/1 179/43/1 180/44/1
f 181/45/1 182/46/1 183/47/1 184/48/1
f 185/1/1 186/2/1 187/3/1 188/4/1
f 189/41/1 190/42/1 191/43/1 192/44/1
f 193/45/1 194/46/1 195/47/1 196/48/1
f 197/1/1 198/2/1 199/3/1 200/4/1
f 201/41/1 202/42/1 203/43/1 204/44/1
f 205/45/1 206/46/1 207/47/1 208/48/1
f 209/1/1 210/2/1 211/3/1 212/4/1
f 213/41/1 214/42/1 215/43/1 216/44/1
f 217/45/1 218/46/1 219/47/1 220/48/1
f 221/1/1 222/2/1 223/3/1 224/4/1
f 225/41/1 226/42/1 227/43/1 228/44/1
f 229/45/1 230/46/1 231/47/1 232/48/1
f 233/49/1 234/50/1 235/51/1 236/52/1
f 237/53/1 238/54/1 239/55/1 240/56/1
f 241/17/1 242/18/1 243/19/1 244/20/1
f 245/49/1 246/50/1 247/51/1 248/52/1
f 249/53/1 250/54/1 251/55/1 252/56/1
f 253/17/1 254/18/1 255/19/1 256/20/1
f 257/49/1 258/50/1 259/51/1 260/52/1
f 261/53/1 262/54/1 263/55/1 264/56/1
f 265/17/1 266/18/1 267/19/1 268/20/1
f 269/49/1 270/50/1 271/51/1 272/52/1
f 273/53/1 274/54/1 275/55/1 276/56/1
f 277/17/1 278/18/1 279/19/1 280/20/1
f 281/49/1 282/50/1 283/51/1 284/52/1
f 285/53/1 286/54/1 287/55/1 288/56/1
f 289/57/1 290/58/1 291/59/1 292/60/1
f 293/61/1 294/62/1 295/63/1 296/64/1
f 297/61/1 298/62/1 299/63/1 300/64/1
f 301/61/1 302/62/1 303/63/1 304/64/1
f 305/61/1 306/62/1 307/63/1 308/64/1
f 309/61/1 310/62/1 311/63/1 312/64/1
f 313/61/1 314/62/1 315/63/1 316/64/1
f 317/61/1 318/62/1 319/63/1 320/64/1
f 321/61/1 322/62/1 323/63/1 324/64/1
f 325/61/1 326/62/1 327/63/1 328/64/1
f 329/61/1 330/62/1 331/63/1 332/64/1
f 333/61/1 334/62/1 335/63/1 336/64/1
f 337/61/1 338/62/1 339/63/1 340/64/1
f 341/65/1 342/66/1 343/67/1 344/68/1
f 345/69/1 346/70/1 347/71/1 348/72/1
f 349/73/1 350/74/1 351/75/1 352/76/1
f 353/73/1 354/74/1 355/75/1 356/76/1
f 357/73/1 358/74/1 359/75/1 360/76/1
f 361/73/1 362/74/1 363/75/1 364/76/1
f 365/73/1 366/74/1 367/75/1 368/76/1
f 369/73/1 370/74/1 371/75/1 372/76/1
f 373/73/1 374/74/1 375/75/1 376/76/1
f 377/73/1 378/74/1 379/75/1 380/76/1
f 381/73/1 382/74/1 383/75/1 384/76/1
f 385/73/1 386/74/1 387/75/1 388/76/1
f 389/73/1 390/74/1 391/75/1 392/76/1
f 393/73/1 394/74/1 395/75/1 396/76/1
f 397/77/1 398/78/1 399/79/1 400/80/1

