# Tiled2Unity generated file. Do not modify by hand.
# Wavefront file for 'tomathensBetaMap_mesh_0108.obj'

# Vertices (Count = 104)
v -165 -56 0
v -166 -56 0
v -166 -55 0
v -165 -55 0
v -147 -108 0
v -148 -108 0
v -148 -107 0
v -147 -107 0
v -146 -108 0
v -147 -108 0
v -147 -107 0
v -146 -107 0
v -111 -130 0
v -112 -130 0
v -112 -129 0
v -111 -129 0
v -162 -145 0
v -163 -145 0
v -163 -144 0
v -162 -144 0
v -161 -145 0
v -162 -145 0
v -162 -144 0
v -161 -144 0
v -162 -146 0
v -163 -146 0
v -163 -145 0
v -162 -145 0
v -161 -146 0
v -162 -146 0
v -162 -145 0
v -161 -145 0
v -162 -147 0
v -163 -147 0
v -163 -146 0
v -162 -146 0
v -161 -147 0
v -162 -147 0
v -162 -146 0
v -161 -146 0
v -131 -187 0
v -132 -187 0
v -132 -186 0
v -131 -186 0
v -130 -187 0
v -131 -187 0
v -131 -186 0
v -130 -186 0
v -127 -187 0
v -128 -187 0
v -128 -186 0
v -127 -186 0
v -126 -187 0
v -127 -187 0
v -127 -186 0
v -126 -186 0
v -131 -188 0
v -132 -188 0
v -132 -187 0
v -131 -187 0
v -130 -188 0
v -131 -188 0
v -131 -187 0
v -130 -187 0
v -127 -188 0
v -128 -188 0
v -128 -187 0
v -127 -187 0
v -126 -188 0
v -127 -188 0
v -127 -187 0
v -126 -187 0
v -131 -189 0
v -132 -189 0
v -132 -188 0
v -131 -188 0
v -130 -189 0
v -131 -189 0
v -131 -188 0
v -130 -188 0
v -127 -189 0
v -128 -189 0
v -128 -188 0
v -127 -188 0
v -126 -189 0
v -127 -189 0
v -127 -188 0
v -126 -188 0
v -122 -201 0
v -123 -201 0
v -123 -200 0
v -122 -200 0
v -142 -202 0
v -143 -202 0
v -143 -201 0
v -142 -201 0
v -135 -208 0
v -136 -208 0
v -136 -207 0
v -135 -207 0
v -122 -208 0
v -123 -208 0
v -123 -207 0
v -122 -207 0

# Texture cooridinates (Count = 72)
vt 0.431988 0.6404256
vt 0.4559043 0.6404256
vt 0.4559043 0.674468
vt 0.431988 0.674468
vt 0.2286996 0.7127659
vt 0.2526158 0.7127659
vt 0.2526158 0.7468085
vt 0.2286996 0.7468085
vt 0.2032885 0.7127659
vt 0.2272048 0.7127659
vt 0.2272048 0.7468085
vt 0.2032885 0.7468085
vt 0.406577 0.5319149
vt 0.4304933 0.5319149
vt 0.4304933 0.5659574
vt 0.406577 0.5659574
vt 0.3811659 0.6042553
vt 0.4050822 0.6042553
vt 0.4050822 0.6382979
vt 0.3811659 0.6382979
vt 0.3557549 0.6042553
vt 0.3796712 0.6042553
vt 0.3796712 0.6382979
vt 0.3557549 0.6382979
vt 0.3811659 0.5680851
vt 0.4050822 0.5680851
vt 0.4050822 0.6021277
vt 0.3811659 0.6021277
vt 0.3557549 0.5680851
vt 0.3796712 0.5680851
vt 0.3796712 0.6021277
vt 0.3557549 0.6021277
vt 0.3811659 0.5319149
vt 0.4050822 0.5319149
vt 0.4050822 0.5659574
vt 0.3811659 0.5659574
vt 0.3557549 0.5319149
vt 0.3796712 0.5319149
vt 0.3796712 0.5659574
vt 0.3557549 0.5659574
vt 0.431988 0.6042553
vt 0.4559043 0.6042553
vt 0.4559043 0.6382979
vt 0.431988 0.6382979
vt 0.406577 0.6042553
vt 0.4304933 0.6042553
vt 0.4304933 0.6382979
vt 0.406577 0.6382979
vt 0.431988 0.5680851
vt 0.4559043 0.5680851
vt 0.4559043 0.6021277
vt 0.431988 0.6021277
vt 0.406577 0.5680851
vt 0.4304933 0.5680851
vt 0.4304933 0.6021277
vt 0.406577 0.6021277
vt 0.431988 0.5319149
vt 0.4559043 0.5319149
vt 0.4559043 0.5659574
vt 0.431988 0.5659574
vt 0.2795217 0.7127659
vt 0.303438 0.7127659
vt 0.303438 0.7468085
vt 0.2795217 0.7468085
vt 0.4573991 0.6404256
vt 0.4813154 0.6404256
vt 0.4813154 0.674468
vt 0.4573991 0.674468
vt 0.2541106 0.7127659
vt 0.2780269 0.7127659
vt 0.2780269 0.7468085
vt 0.2541106 0.7468085

# Normal
vn 0 0 -1

# Mesh description
g tomathensBetaMap_mesh_0108

# Faces
f 1/1/1 2/2/1 3/3/1 4/4/1
f 5/5/1 6/6/1 7/7/1 8/8/1
f 9/9/1 10/10/1 11/11/1 12/12/1
f 13/13/1 14/14/1 15/15/1 16/16/1
f 17/17/1 18/18/1 19/19/1 20/20/1
f 21/21/1 22/22/1 23/23/1 24/24/1
f 25/25/1 26/26/1 27/27/1 28/28/1
f 29/29/1 30/30/1 31/31/1 32/32/1
f 33/33/1 34/34/1 35/35/1 36/36/1
f 37/37/1 38/38/1 39/39/1 40/40/1
f 41/41/1 42/42/1 43/43/1 44/44/1
f 45/45/1 46/46/1 47/47/1 48/48/1
f 49/41/1 50/42/1 51/43/1 52/44/1
f 53/45/1 54/46/1 55/47/1 56/48/1
f 57/49/1 58/50/1 59/51/1 60/52/1
f 61/53/1 62/54/1 63/55/1 64/56/1
f 65/49/1 66/50/1 67/51/1 68/52/1
f 69/53/1 70/54/1 71/55/1 72/56/1
f 73/57/1 74/58/1 75/59/1 76/60/1
f 77/13/1 78/14/1 79/15/1 80/16/1
f 81/57/1 82/58/1 83/59/1 84/60/1
f 85/13/1 86/14/1 87/15/1 88/16/1
f 89/61/1 90/62/1 91/63/1 92/64/1
f 93/1/1 94/2/1 95/3/1 96/4/1
f 97/65/1 98/66/1 99/67/1 100/68/1
f 101/69/1 102/70/1 103/71/1 104/72/1

