# Tiled2Unity generated file. Do not modify by hand.
# Wavefront file for 'tomathensBetaMap_mesh_0096.obj'

# Vertices (Count = 72)
v -139 -24 0
v -140 -24 0
v -140 -23 0
v -139 -23 0
v -135 -24 0
v -136 -24 0
v -136 -23 0
v -135 -23 0
v -131 -24 0
v -132 -24 0
v -132 -23 0
v -131 -23 0
v -126 -24 0
v -127 -24 0
v -127 -23 0
v -126 -23 0
v -122 -24 0
v -123 -24 0
v -123 -23 0
v -122 -23 0
v -118 -24 0
v -119 -24 0
v -119 -23 0
v -118 -23 0
v -107 -150 0
v -108 -150 0
v -108 -149 0
v -107 -149 0
v -106 -150 0
v -107 -150 0
v -107 -149 0
v -106 -149 0
v -133 -199 0
v -134 -199 0
v -134 -198 0
v -133 -198 0
v -123 -199 0
v -124 -199 0
v -124 -198 0
v -123 -198 0
v -141 -202 0
v -142 -202 0
v -142 -201 0
v -141 -201 0
v -136 -203 0
v -137 -203 0
v -137 -202 0
v -136 -202 0
v -113 -203 0
v -114 -203 0
v -114 -202 0
v -113 -202 0
v -97 -203 0
v -98 -203 0
v -98 -202 0
v -97 -202 0
v -143 -206 0
v -144 -206 0
v -144 -205 0
v -143 -205 0
v -139 -207 0
v -140 -207 0
v -140 -206 0
v -139 -206 0
v -115 -207 0
v -116 -207 0
v -116 -206 0
v -115 -206 0
v -133 -210 0
v -134 -210 0
v -134 -209 0
v -133 -209 0

# Texture cooridinates (Count = 44)
vt 0.2266667 0.6662562
vt 0.2419048 0.6662562
vt 0.2419048 0.6859606
vt 0.2266667 0.6859606
vt 0.04857143 0.6034483
vt 0.06380952 0.6034483
vt 0.06380952 0.6231527
vt 0.04857143 0.6231527
vt 0.03238095 0.6034483
vt 0.04761905 0.6034483
vt 0.04761905 0.6231527
vt 0.03238095 0.6231527
vt 0.09714286 0.6034483
vt 0.112381 0.6034483
vt 0.112381 0.6231527
vt 0.09714286 0.6231527
vt 0.1133333 0.6034483
vt 0.1285714 0.6034483
vt 0.1285714 0.6231527
vt 0.1133333 0.6231527
vt 0.1295238 0.6034483
vt 0.1447619 0.6034483
vt 0.1447619 0.6231527
vt 0.1295238 0.6231527
vt 0.1133333 0.9802955
vt 0.1285714 0.9802955
vt 0.1285714 1
vt 0.1133333 1
vt 0.1619048 0.8965517
vt 0.1771429 0.8965517
vt 0.1771429 0.9162562
vt 0.1619048 0.9162562
vt 0.09714286 0.9802955
vt 0.112381 0.9802955
vt 0.112381 1
vt 0.09714286 1
vt 0.09714286 0.5825123
vt 0.112381 0.5825123
vt 0.112381 0.6022167
vt 0.09714286 0.6022167
vt 0.1133333 0.5825123
vt 0.1285714 0.5825123
vt 0.1285714 0.6022167
vt 0.1133333 0.6022167

# Normal
vn 0 0 -1

# Mesh description
g tomathensBetaMap_mesh_0096

# Faces
f 1/1/1 2/2/1 3/3/1 4/4/1
f 5/1/1 6/2/1 7/3/1 8/4/1
f 9/1/1 10/2/1 11/3/1 12/4/1
f 13/1/1 14/2/1 15/3/1 16/4/1
f 17/1/1 18/2/1 19/3/1 20/4/1
f 21/1/1 22/2/1 23/3/1 24/4/1
f 25/5/1 26/6/1 27/7/1 28/8/1
f 29/9/1 30/10/1 31/11/1 32/12/1
f 33/13/1 34/14/1 35/15/1 36/16/1
f 37/17/1 38/18/1 39/19/1 40/20/1
f 41/21/1 42/22/1 43/23/1 44/24/1
f 45/25/1 46/26/1 47/27/1 48/28/1
f 49/21/1 50/22/1 51/23/1 52/24/1
f 53/29/1 54/30/1 55/31/1 56/32/1
f 57/17/1 58/18/1 59/19/1 60/20/1
f 61/33/1 62/34/1 63/35/1 64/36/1
f 65/37/1 66/38/1 67/39/1 68/40/1
f 69/41/1 70/42/1 71/43/1 72/44/1

