# Tiled2Unity generated file. Do not modify by hand.
# Wavefront file for 'tomathensBetaMap_mesh_0029.obj'

# Vertices (Count = 348)
v -103 -36 0
v -104 -36 0
v -104 -35 0
v -103 -35 0
v -102 -36 0
v -103 -36 0
v -103 -35 0
v -102 -35 0
v -109 -37 0
v -110 -37 0
v -110 -36 0
v -109 -36 0
v -108 -37 0
v -109 -37 0
v -109 -36 0
v -108 -36 0
v -103 -37 0
v -104 -37 0
v -104 -36 0
v -103 -36 0
v -102 -37 0
v -103 -37 0
v -103 -36 0
v -102 -36 0
v -109 -38 0
v -110 -38 0
v -110 -37 0
v -109 -37 0
v -108 -38 0
v -109 -38 0
v -109 -37 0
v -108 -37 0
v -103 -38 0
v -104 -38 0
v -104 -37 0
v -103 -37 0
v -102 -38 0
v -103 -38 0
v -103 -37 0
v -102 -37 0
v -144 -39 0
v -145 -39 0
v -145 -38 0
v -144 -38 0
v -143 -39 0
v -144 -39 0
v -144 -38 0
v -143 -38 0
v -117 -39 0
v -118 -39 0
v -118 -38 0
v -117 -38 0
v -116 -39 0
v -117 -39 0
v -117 -38 0
v -116 -38 0
v -109 -39 0
v -110 -39 0
v -110 -38 0
v -109 -38 0
v -108 -39 0
v -109 -39 0
v -109 -38 0
v -108 -38 0
v -144 -40 0
v -145 -40 0
v -145 -39 0
v -144 -39 0
v -143 -40 0
v -144 -40 0
v -144 -39 0
v -143 -39 0
v -117 -40 0
v -118 -40 0
v -118 -39 0
v -117 -39 0
v -116 -40 0
v -117 -40 0
v -117 -39 0
v -116 -39 0
v -144 -41 0
v -145 -41 0
v -145 -40 0
v -144 -40 0
v -143 -41 0
v -144 -41 0
v -144 -40 0
v -143 -40 0
v -117 -41 0
v -118 -41 0
v -118 -40 0
v -117 -40 0
v -116 -41 0
v -117 -41 0
v -117 -40 0
v -116 -40 0
v -94 -49 0
v -95 -49 0
v -95 -48 0
v -94 -48 0
v -93 -49 0
v -94 -49 0
v -94 -48 0
v -93 -48 0
v -94 -50 0
v -95 -50 0
v -95 -49 0
v -94 -49 0
v -93 -50 0
v -94 -50 0
v -94 -49 0
v -93 -49 0
v -94 -51 0
v -95 -51 0
v -95 -50 0
v -94 -50 0
v -93 -51 0
v -94 -51 0
v -94 -50 0
v -93 -50 0
v -165 -54 0
v -166 -54 0
v -166 -53 0
v -165 -53 0
v -164 -54 0
v -165 -54 0
v -165 -53 0
v -164 -53 0
v -165 -55 0
v -166 -55 0
v -166 -54 0
v -165 -54 0
v -164 -55 0
v -165 -55 0
v -165 -54 0
v -164 -54 0
v -165 -56 0
v -166 -56 0
v -166 -55 0
v -165 -55 0
v -164 -56 0
v -165 -56 0
v -165 -55 0
v -164 -55 0
v -150 -58 0
v -151 -58 0
v -151 -57 0
v -150 -57 0
v -149 -58 0
v -150 -58 0
v -150 -57 0
v -149 -57 0
v -109 -58 0
v -110 -58 0
v -110 -57 0
v -109 -57 0
v -108 -58 0
v -109 -58 0
v -109 -57 0
v -108 -57 0
v -150 -59 0
v -151 -59 0
v -151 -58 0
v -150 -58 0
v -149 -59 0
v -150 -59 0
v -150 -58 0
v -149 -58 0
v -121 -59 0
v -122 -59 0
v -122 -58 0
v -121 -58 0
v -120 -59 0
v -121 -59 0
v -121 -58 0
v -120 -58 0
v -109 -59 0
v -110 -59 0
v -110 -58 0
v -109 -58 0
v -108 -59 0
v -109 -59 0
v -109 -58 0
v -108 -58 0
v -150 -60 0
v -151 -60 0
v -151 -59 0
v -150 -59 0
v -149 -60 0
v -150 -60 0
v -150 -59 0
v -149 -59 0
v -121 -60 0
v -122 -60 0
v -122 -59 0
v -121 -59 0
v -120 -60 0
v -121 -60 0
v -121 -59 0
v -120 -59 0
v -109 -60 0
v -110 -60 0
v -110 -59 0
v -109 -59 0
v -108 -60 0
v -109 -60 0
v -109 -59 0
v -108 -59 0
v -121 -61 0
v -122 -61 0
v -122 -60 0
v -121 -60 0
v -120 -61 0
v -121 -61 0
v -121 -60 0
v -120 -60 0
v -150 -114 0
v -151 -114 0
v -151 -113 0
v -150 -113 0
v -149 -114 0
v -150 -114 0
v -150 -113 0
v -149 -113 0
v -150 -115 0
v -151 -115 0
v -151 -114 0
v -150 -114 0
v -149 -115 0
v -150 -115 0
v -150 -114 0
v -149 -114 0
v -150 -116 0
v -151 -116 0
v -151 -115 0
v -150 -115 0
v -160 -214 0
v -161 -214 0
v -161 -213 0
v -160 -213 0
v -159 -214 0
v -160 -214 0
v -160 -213 0
v -159 -213 0
v -160 -215 0
v -161 -215 0
v -161 -214 0
v -160 -214 0
v -159 -215 0
v -160 -215 0
v -160 -214 0
v -159 -214 0
v -148 -215 0
v -149 -215 0
v -149 -214 0
v -148 -214 0
v -147 -215 0
v -148 -215 0
v -148 -214 0
v -147 -214 0
v -146 -215 0
v -147 -215 0
v -147 -214 0
v -146 -214 0
v -145 -215 0
v -146 -215 0
v -146 -214 0
v -145 -214 0
v -160 -216 0
v -161 -216 0
v -161 -215 0
v -160 -215 0
v -159 -216 0
v -160 -216 0
v -160 -215 0
v -159 -215 0
v -148 -216 0
v -149 -216 0
v -149 -215 0
v -148 -215 0
v -147 -216 0
v -148 -216 0
v -148 -215 0
v -147 -215 0
v -146 -216 0
v -147 -216 0
v -147 -215 0
v -146 -215 0
v -145 -216 0
v -146 -216 0
v -146 -215 0
v -145 -215 0
v -156 -217 0
v -157 -217 0
v -157 -216 0
v -156 -216 0
v -155 -217 0
v -156 -217 0
v -156 -216 0
v -155 -216 0
v -148 -217 0
v -149 -217 0
v -149 -216 0
v -148 -216 0
v -147 -217 0
v -148 -217 0
v -148 -216 0
v -147 -216 0
v -146 -217 0
v -147 -217 0
v -147 -216 0
v -146 -216 0
v -145 -217 0
v -146 -217 0
v -146 -216 0
v -145 -216 0
v -156 -218 0
v -157 -218 0
v -157 -217 0
v -156 -217 0
v -155 -218 0
v -156 -218 0
v -156 -217 0
v -155 -217 0
v -156 -219 0
v -157 -219 0
v -157 -218 0
v -156 -218 0
v -155 -219 0
v -156 -219 0
v -156 -218 0
v -155 -218 0
v -140 -236 0
v -141 -236 0
v -141 -235 0
v -140 -235 0
v -140 -237 0
v -141 -237 0
v -141 -236 0
v -140 -236 0
v -141 -238 0
v -142 -238 0
v -142 -237 0
v -141 -237 0
v -140 -238 0
v -141 -238 0
v -141 -237 0
v -140 -237 0

# Texture cooridinates (Count = 24)
vt 0.0720339 0.936
vt 0.1398305 0.936
vt 0.1398305 1
vt 0.0720339 1
vt 0 0.936
vt 0.06779661 0.936
vt 0.06779661 1
vt 0 1
vt 0.0720339 0.868
vt 0.1398305 0.868
vt 0.1398305 0.932
vt 0.0720339 0.932
vt 0 0.868
vt 0.06779661 0.868
vt 0.06779661 0.932
vt 0 0.932
vt 0.0720339 0.8
vt 0.1398305 0.8
vt 0.1398305 0.864
vt 0.0720339 0.864
vt 0 0.8
vt 0.06779661 0.8
vt 0.06779661 0.864
vt 0 0.864

# Normal
vn 0 0 -1

# Mesh description
g tomathensBetaMap_mesh_0029

# Faces
f 1/1/1 2/2/1 3/3/1 4/4/1
f 5/5/1 6/6/1 7/7/1 8/8/1
f 9/1/1 10/2/1 11/3/1 12/4/1
f 13/5/1 14/6/1 15/7/1 16/8/1
f 17/9/1 18/10/1 19/11/1 20/12/1
f 21/13/1 22/14/1 23/15/1 24/16/1
f 25/9/1 26/10/1 27/11/1 28/12/1
f 29/13/1 30/14/1 31/15/1 32/16/1
f 33/17/1 34/18/1 35/19/1 36/20/1
f 37/21/1 38/22/1 39/23/1 40/24/1
f 41/1/1 42/2/1 43/3/1 44/4/1
f 45/5/1 46/6/1 47/7/1 48/8/1
f 49/1/1 50/2/1 51/3/1 52/4/1
f 53/5/1 54/6/1 55/7/1 56/8/1
f 57/17/1 58/18/1 59/19/1 60/20/1
f 61/21/1 62/22/1 63/23/1 64/24/1
f 65/9/1 66/10/1 67/11/1 68/12/1
f 69/13/1 70/14/1 71/15/1 72/16/1
f 73/9/1 74/10/1 75/11/1 76/12/1
f 77/13/1 78/14/1 79/15/1 80/16/1
f 81/17/1 82/18/1 83/19/1 84/20/1
f 85/21/1 86/22/1 87/23/1 88/24/1
f 89/17/1 90/18/1 91/19/1 92/20/1
f 93/21/1 94/22/1 95/23/1 96/24/1
f 97/1/1 98/2/1 99/3/1 100/4/1
f 101/5/1 102/6/1 103/7/1 104/8/1
f 105/9/1 106/10/1 107/11/1 108/12/1
f 109/13/1 110/14/1 111/15/1 112/16/1
f 113/17/1 114/18/1 115/19/1 116/20/1
f 117/21/1 118/22/1 119/23/1 120/24/1
f 121/1/1 122/2/1 123/3/1 124/4/1
f 125/5/1 126/6/1 127/7/1 128/8/1
f 129/9/1 130/10/1 131/11/1 132/12/1
f 133/13/1 134/14/1 135/15/1 136/16/1
f 137/17/1 138/18/1 139/19/1 140/20/1
f 141/21/1 142/22/1 143/23/1 144/24/1
f 145/1/1 146/2/1 147/3/1 148/4/1
f 149/5/1 150/6/1 151/7/1 152/8/1
f 153/1/1 154/2/1 155/3/1 156/4/1
f 157/5/1 158/6/1 159/7/1 160/8/1
f 161/9/1 162/10/1 163/11/1 164/12/1
f 165/13/1 166/14/1 167/15/1 168/16/1
f 169/1/1 170/2/1 171/3/1 172/4/1
f 173/5/1 174/6/1 175/7/1 176/8/1
f 177/9/1 178/10/1 179/11/1 180/12/1
f 181/13/1 182/14/1 183/15/1 184/16/1
f 185/17/1 186/18/1 187/19/1 188/20/1
f 189/21/1 190/22/1 191/23/1 192/24/1
f 193/9/1 194/10/1 195/11/1 196/12/1
f 197/13/1 198/14/1 199/15/1 200/16/1
f 201/17/1 202/18/1 203/19/1 204/20/1
f 205/21/1 206/22/1 207/23/1 208/24/1
f 209/17/1 210/18/1 211/19/1 212/20/1
f 213/21/1 214/22/1 215/23/1 216/24/1
f 217/1/1 218/2/1 219/3/1 220/4/1
f 221/5/1 222/6/1 223/7/1 224/8/1
f 225/9/1 226/10/1 227/11/1 228/12/1
f 229/13/1 230/14/1 231/15/1 232/16/1
f 233/17/1 234/18/1 235/19/1 236/20/1
f 237/1/1 238/2/1 239/3/1 240/4/1
f 241/5/1 242/6/1 243/7/1 244/8/1
f 245/9/1 246/10/1 247/11/1 248/12/1
f 249/13/1 250/14/1 251/15/1 252/16/1
f 253/1/1 254/2/1 255/3/1 256/4/1
f 257/5/1 258/6/1 259/7/1 260/8/1
f 261/1/1 262/2/1 263/3/1 264/4/1
f 265/5/1 266/6/1 267/7/1 268/8/1
f 269/17/1 270/18/1 271/19/1 272/20/1
f 273/21/1 274/22/1 275/23/1 276/24/1
f 277/9/1 278/10/1 279/11/1 280/12/1
f 281/13/1 282/14/1 283/15/1 284/16/1
f 285/9/1 286/10/1 287/11/1 288/12/1
f 289/13/1 290/14/1 291/15/1 292/16/1
f 293/1/1 294/2/1 295/3/1 296/4/1
f 297/5/1 298/6/1 299/7/1 300/8/1
f 301/17/1 302/18/1 303/19/1 304/20/1
f 305/21/1 306/22/1 307/23/1 308/24/1
f 309/17/1 310/18/1 311/19/1 312/20/1
f 313/21/1 314/22/1 315/23/1 316/24/1
f 317/9/1 318/10/1 319/11/1 320/12/1
f 321/13/1 322/14/1 323/15/1 324/16/1
f 325/17/1 326/18/1 327/19/1 328/20/1
f 329/21/1 330/22/1 331/23/1 332/24/1
f 333/5/1 334/6/1 335/7/1 336/8/1
f 337/13/1 338/14/1 339/15/1 340/16/1
f 341/17/1 342/18/1 343/19/1 344/20/1
f 345/21/1 346/22/1 347/23/1 348/24/1

