# Tiled2Unity generated file. Do not modify by hand.
# Wavefront file for 'tomathensBetaMap_mesh_0089.obj'

# Vertices (Count = 468)
v -161 -88 0
v -162 -88 0
v -162 -87 0
v -161 -87 0
v -140 -88 0
v -141 -88 0
v -141 -87 0
v -140 -87 0
v -161 -89 0
v -162 -89 0
v -162 -88 0
v -161 -88 0
v -140 -89 0
v -141 -89 0
v -141 -88 0
v -140 -88 0
v -161 -90 0
v -162 -90 0
v -162 -89 0
v -161 -89 0
v -140 -90 0
v -141 -90 0
v -141 -89 0
v -140 -89 0
v -134 -90 0
v -135 -90 0
v -135 -89 0
v -134 -89 0
v -123 -90 0
v -124 -90 0
v -124 -89 0
v -123 -89 0
v -161 -91 0
v -162 -91 0
v -162 -90 0
v -161 -90 0
v -140 -91 0
v -141 -91 0
v -141 -90 0
v -140 -90 0
v -134 -91 0
v -135 -91 0
v -135 -90 0
v -134 -90 0
v -123 -91 0
v -124 -91 0
v -124 -90 0
v -123 -90 0
v -161 -92 0
v -162 -92 0
v -162 -91 0
v -161 -91 0
v -140 -92 0
v -141 -92 0
v -141 -91 0
v -140 -91 0
v -134 -92 0
v -135 -92 0
v -135 -91 0
v -134 -91 0
v -123 -92 0
v -124 -92 0
v -124 -91 0
v -123 -91 0
v -161 -93 0
v -162 -93 0
v -162 -92 0
v -161 -92 0
v -140 -93 0
v -141 -93 0
v -141 -92 0
v -140 -92 0
v -134 -93 0
v -135 -93 0
v -135 -92 0
v -134 -92 0
v -123 -93 0
v -124 -93 0
v -124 -92 0
v -123 -92 0
v -161 -94 0
v -162 -94 0
v -162 -93 0
v -161 -93 0
v -140 -94 0
v -141 -94 0
v -141 -93 0
v -140 -93 0
v -134 -94 0
v -135 -94 0
v -135 -93 0
v -134 -93 0
v -123 -94 0
v -124 -94 0
v -124 -93 0
v -123 -93 0
v -161 -95 0
v -162 -95 0
v -162 -94 0
v -161 -94 0
v -160 -95 0
v -161 -95 0
v -161 -94 0
v -160 -94 0
v -159 -95 0
v -160 -95 0
v -160 -94 0
v -159 -94 0
v -142 -95 0
v -143 -95 0
v -143 -94 0
v -142 -94 0
v -141 -95 0
v -142 -95 0
v -142 -94 0
v -141 -94 0
v -140 -95 0
v -141 -95 0
v -141 -94 0
v -140 -94 0
v -134 -95 0
v -135 -95 0
v -135 -94 0
v -134 -94 0
v -123 -95 0
v -124 -95 0
v -124 -94 0
v -123 -94 0
v -161 -96 0
v -162 -96 0
v -162 -95 0
v -161 -95 0
v -160 -96 0
v -161 -96 0
v -161 -95 0
v -160 -95 0
v -159 -96 0
v -160 -96 0
v -160 -95 0
v -159 -95 0
v -141 -96 0
v -142 -96 0
v -142 -95 0
v -141 -95 0
v -140 -96 0
v -141 -96 0
v -141 -95 0
v -140 -95 0
v -134 -96 0
v -135 -96 0
v -135 -95 0
v -134 -95 0
v -123 -96 0
v -124 -96 0
v -124 -95 0
v -123 -95 0
v -159 -97 0
v -160 -97 0
v -160 -96 0
v -159 -96 0
v -158 -97 0
v -159 -97 0
v -159 -96 0
v -158 -96 0
v -156 -97 0
v -157 -97 0
v -157 -96 0
v -156 -96 0
v -154 -97 0
v -155 -97 0
v -155 -96 0
v -154 -96 0
v -153 -97 0
v -154 -97 0
v -154 -96 0
v -153 -96 0
v -148 -97 0
v -149 -97 0
v -149 -96 0
v -148 -96 0
v -147 -97 0
v -148 -97 0
v -148 -96 0
v -147 -96 0
v -145 -97 0
v -146 -97 0
v -146 -96 0
v -145 -96 0
v -143 -97 0
v -144 -97 0
v -144 -96 0
v -143 -96 0
v -142 -97 0
v -143 -97 0
v -143 -96 0
v -142 -96 0
v -134 -97 0
v -135 -97 0
v -135 -96 0
v -134 -96 0
v -123 -97 0
v -124 -97 0
v -124 -96 0
v -123 -96 0
v -159 -98 0
v -160 -98 0
v -160 -97 0
v -159 -97 0
v -158 -98 0
v -159 -98 0
v -159 -97 0
v -158 -97 0
v -156 -98 0
v -157 -98 0
v -157 -97 0
v -156 -97 0
v -154 -98 0
v -155 -98 0
v -155 -97 0
v -154 -97 0
v -153 -98 0
v -154 -98 0
v -154 -97 0
v -153 -97 0
v -148 -98 0
v -149 -98 0
v -149 -97 0
v -148 -97 0
v -147 -98 0
v -148 -98 0
v -148 -97 0
v -147 -97 0
v -145 -98 0
v -146 -98 0
v -146 -97 0
v -145 -97 0
v -143 -98 0
v -144 -98 0
v -144 -97 0
v -143 -97 0
v -142 -98 0
v -143 -98 0
v -143 -97 0
v -142 -97 0
v -134 -98 0
v -135 -98 0
v -135 -97 0
v -134 -97 0
v -123 -98 0
v -124 -98 0
v -124 -97 0
v -123 -97 0
v -83 -102 0
v -84 -102 0
v -84 -101 0
v -83 -101 0
v -73 -102 0
v -74 -102 0
v -74 -101 0
v -73 -101 0
v -83 -103 0
v -84 -103 0
v -84 -102 0
v -83 -102 0
v -73 -103 0
v -74 -103 0
v -74 -102 0
v -73 -102 0
v -73 -104 0
v -74 -104 0
v -74 -103 0
v -73 -103 0
v -73 -105 0
v -74 -105 0
v -74 -104 0
v -73 -104 0
v -73 -106 0
v -74 -106 0
v -74 -105 0
v -73 -105 0
v -83 -140 0
v -84 -140 0
v -84 -139 0
v -83 -139 0
v -82 -140 0
v -83 -140 0
v -83 -139 0
v -82 -139 0
v -81 -140 0
v -82 -140 0
v -82 -139 0
v -81 -139 0
v -83 -141 0
v -84 -141 0
v -84 -140 0
v -83 -140 0
v -82 -141 0
v -83 -141 0
v -83 -140 0
v -82 -140 0
v -81 -141 0
v -82 -141 0
v -82 -140 0
v -81 -140 0
v -59 -146 0
v -60 -146 0
v -60 -145 0
v -59 -145 0
v -60 -147 0
v -61 -147 0
v -61 -146 0
v -60 -146 0
v -67 -148 0
v -68 -148 0
v -68 -147 0
v -67 -147 0
v -64 -148 0
v -65 -148 0
v -65 -147 0
v -64 -147 0
v -99 -172 0
v -100 -172 0
v -100 -171 0
v -99 -171 0
v -142 -178 0
v -143 -178 0
v -143 -177 0
v -142 -177 0
v -174 -210 0
v -175 -210 0
v -175 -209 0
v -174 -209 0
v -171 -210 0
v -172 -210 0
v -172 -209 0
v -171 -209 0
v -86 -210 0
v -87 -210 0
v -87 -209 0
v -86 -209 0
v -83 -210 0
v -84 -210 0
v -84 -209 0
v -83 -209 0
v -174 -211 0
v -175 -211 0
v -175 -210 0
v -174 -210 0
v -171 -211 0
v -172 -211 0
v -172 -210 0
v -171 -210 0
v -86 -211 0
v -87 -211 0
v -87 -210 0
v -86 -210 0
v -83 -211 0
v -84 -211 0
v -84 -210 0
v -83 -210 0
v -174 -212 0
v -175 -212 0
v -175 -211 0
v -174 -211 0
v -171 -212 0
v -172 -212 0
v -172 -211 0
v -171 -211 0
v -86 -212 0
v -87 -212 0
v -87 -211 0
v -86 -211 0
v -83 -212 0
v -84 -212 0
v -84 -211 0
v -83 -211 0
v -88 -229 0
v -89 -229 0
v -89 -228 0
v -88 -228 0
v -225 -235 0
v -226 -235 0
v -226 -234 0
v -225 -234 0
v -224 -235 0
v -225 -235 0
v -225 -234 0
v -224 -234 0
v -211 -235 0
v -212 -235 0
v -212 -234 0
v -211 -234 0
v -210 -235 0
v -211 -235 0
v -211 -234 0
v -210 -234 0
v -198 -235 0
v -199 -235 0
v -199 -234 0
v -198 -234 0
v -197 -235 0
v -198 -235 0
v -198 -234 0
v -197 -234 0
v -184 -235 0
v -185 -235 0
v -185 -234 0
v -184 -234 0
v -183 -235 0
v -184 -235 0
v -184 -234 0
v -183 -234 0
v -46 -235 0
v -47 -235 0
v -47 -234 0
v -46 -234 0
v -31 -235 0
v -32 -235 0
v -32 -234 0
v -31 -234 0
v -225 -236 0
v -226 -236 0
v -226 -235 0
v -225 -235 0
v -224 -236 0
v -225 -236 0
v -225 -235 0
v -224 -235 0
v -211 -236 0
v -212 -236 0
v -212 -235 0
v -211 -235 0
v -210 -236 0
v -211 -236 0
v -211 -235 0
v -210 -235 0
v -197 -236 0
v -198 -236 0
v -198 -235 0
v -197 -235 0
v -184 -236 0
v -185 -236 0
v -185 -235 0
v -184 -235 0
v -59 -236 0
v -60 -236 0
v -60 -235 0
v -59 -235 0
v -58 -236 0
v -59 -236 0
v -59 -235 0
v -58 -235 0
v -46 -236 0
v -47 -236 0
v -47 -235 0
v -46 -235 0
v -45 -236 0
v -46 -236 0
v -46 -235 0
v -45 -235 0
v -32 -236 0
v -33 -236 0
v -33 -235 0
v -32 -235 0
v -31 -236 0
v -32 -236 0
v -32 -235 0
v -31 -235 0

# Texture cooridinates (Count = 96)
vt 0.1683168 0.6781609
vt 0.2079208 0.6781609
vt 0.2079208 0.7394636
vt 0.1683168 0.7394636
vt 0.1262376 0.6781609
vt 0.1658416 0.6781609
vt 0.1658416 0.7394636
vt 0.1262376 0.7394636
vt 0.210396 0.6130269
vt 0.25 0.6130269
vt 0.25 0.6743295
vt 0.210396 0.6743295
vt 0.3366337 0.743295
vt 0.3762376 0.743295
vt 0.3762376 0.8045977
vt 0.3366337 0.8045977
vt 0.210396 0.743295
vt 0.25 0.743295
vt 0.25 0.8045977
vt 0.210396 0.8045977
vt 0.04207921 0.743295
vt 0.08168317 0.743295
vt 0.08168317 0.8045977
vt 0.04207921 0.8045977
vt 0.04207921 0.6130269
vt 0.08168317 0.6130269
vt 0.08168317 0.6743295
vt 0.04207921 0.6743295
vt 0.210396 0.5478927
vt 0.25 0.5478927
vt 0.25 0.6091954
vt 0.210396 0.6091954
vt 0.3366337 0.6781609
vt 0.3762376 0.6781609
vt 0.3762376 0.7394636
vt 0.3366337 0.7394636
vt 0.04207921 0.5478927
vt 0.08168317 0.5478927
vt 0.08168317 0.6091954
vt 0.04207921 0.6091954
vt 0.1683168 0.6130269
vt 0.2079208 0.6130269
vt 0.2079208 0.6743295
vt 0.1683168 0.6743295
vt 0.1262376 0.6130269
vt 0.1658416 0.6130269
vt 0.1658416 0.6743295
vt 0.1262376 0.6743295
vt 0.08415841 0.6130269
vt 0.1237624 0.6130269
vt 0.1237624 0.6743295
vt 0.08415841 0.6743295
vt 0.1683168 0.5478927
vt 0.2079208 0.5478927
vt 0.2079208 0.6091954
vt 0.1683168 0.6091954
vt 0.1262376 0.5478927
vt 0.1658416 0.5478927
vt 0.1658416 0.6091954
vt 0.1262376 0.6091954
vt 0.08415841 0.5478927
vt 0.1237624 0.5478927
vt 0.1237624 0.6091954
vt 0.08415841 0.6091954
vt 0.4207921 0.743295
vt 0.4603961 0.743295
vt 0.4603961 0.8045977
vt 0.4207921 0.8045977
vt 0.4207921 0.6781609
vt 0.4603961 0.6781609
vt 0.4603961 0.7394636
vt 0.4207921 0.7394636
vt 0.210396 0.6781609
vt 0.25 0.6781609
vt 0.25 0.7394636
vt 0.210396 0.7394636
vt 0.2945544 0.743295
vt 0.3341584 0.743295
vt 0.3341584 0.8045977
vt 0.2945544 0.8045977
vt 0.2945544 0.6781609
vt 0.3341584 0.6781609
vt 0.3341584 0.7394636
vt 0.2945544 0.7394636
vt 0.04207921 0.6781609
vt 0.08168317 0.6781609
vt 0.08168317 0.7394636
vt 0.04207921 0.7394636
vt 0.2524753 0.6781609
vt 0.2920792 0.6781609
vt 0.2920792 0.7394636
vt 0.2524753 0.7394636
vt 0.2524753 0.743295
vt 0.2920792 0.743295
vt 0.2920792 0.8045977
vt 0.2524753 0.8045977

# Normal
vn 0 0 -1

# Mesh description
g tomathensBetaMap_mesh_0089

# Faces
f 1/1/1 2/2/1 3/3/1 4/4/1
f 5/5/1 6/6/1 7/7/1 8/8/1
f 9/1/1 10/2/1 11/3/1 12/4/1
f 13/5/1 14/6/1 15/7/1 16/8/1
f 17/1/1 18/2/1 19/3/1 20/4/1
f 21/5/1 22/6/1 23/7/1 24/8/1
f 25/1/1 26/2/1 27/3/1 28/4/1
f 29/5/1 30/6/1 31/7/1 32/8/1
f 33/1/1 34/2/1 35/3/1 36/4/1
f 37/5/1 38/6/1 39/7/1 40/8/1
f 41/1/1 42/2/1 43/3/1 44/4/1
f 45/5/1 46/6/1 47/7/1 48/8/1
f 49/1/1 50/2/1 51/3/1 52/4/1
f 53/5/1 54/6/1 55/7/1 56/8/1
f 57/1/1 58/2/1 59/3/1 60/4/1
f 61/5/1 62/6/1 63/7/1 64/8/1
f 65/1/1 66/2/1 67/3/1 68/4/1
f 69/5/1 70/6/1 71/7/1 72/8/1
f 73/1/1 74/2/1 75/3/1 76/4/1
f 77/5/1 78/6/1 79/7/1 80/8/1
f 81/1/1 82/2/1 83/3/1 84/4/1
f 85/5/1 86/6/1 87/7/1 88/8/1
f 89/1/1 90/2/1 91/3/1 92/4/1
f 93/5/1 94/6/1 95/7/1 96/8/1
f 97/9/1 98/10/1 99/11/1 100/12/1
f 101/13/1 102/14/1 103/15/1 104/16/1
f 105/17/1 106/18/1 107/19/1 108/20/1
f 109/21/1 110/22/1 111/23/1 112/24/1
f 113/13/1 114/14/1 115/15/1 116/16/1
f 117/25/1 118/26/1 119/27/1 120/28/1
f 121/1/1 122/2/1 123/3/1 124/4/1
f 125/5/1 126/6/1 127/7/1 128/8/1
f 129/29/1 130/30/1 131/31/1 132/32/1
f 133/33/1 134/34/1 135/35/1 136/36/1
f 137/1/1 138/2/1 139/3/1 140/4/1
f 141/33/1 142/34/1 143/35/1 144/36/1
f 145/37/1 146/38/1 147/39/1 148/40/1
f 149/1/1 150/2/1 151/3/1 152/4/1
f 153/5/1 154/6/1 155/7/1 156/8/1
f 157/9/1 158/10/1 159/11/1 160/12/1
f 161/41/1 162/42/1 163/43/1 164/44/1
f 165/45/1 166/46/1 167/47/1 168/48/1
f 169/41/1 170/42/1 171/43/1 172/44/1
f 173/45/1 174/46/1 175/47/1 176/48/1
f 177/41/1 178/42/1 179/43/1 180/44/1
f 181/45/1 182/46/1 183/47/1 184/48/1
f 185/41/1 186/42/1 187/43/1 188/44/1
f 189/49/1 190/50/1 191/51/1 192/52/1
f 193/25/1 194/26/1 195/27/1 196/28/1
f 197/9/1 198/10/1 199/11/1 200/12/1
f 201/25/1 202/26/1 203/27/1 204/28/1
f 205/29/1 206/30/1 207/31/1 208/32/1
f 209/53/1 210/54/1 211/55/1 212/56/1
f 213/57/1 214/58/1 215/59/1 216/60/1
f 217/53/1 218/54/1 219/55/1 220/56/1
f 221/57/1 222/58/1 223/59/1 224/60/1
f 225/53/1 226/54/1 227/55/1 228/56/1
f 229/57/1 230/58/1 231/59/1 232/60/1
f 233/53/1 234/54/1 235/55/1 236/56/1
f 237/61/1 238/62/1 239/63/1 240/64/1
f 241/37/1 242/38/1 243/39/1 244/40/1
f 245/29/1 246/30/1 247/31/1 248/32/1
f 249/37/1 250/38/1 251/39/1 252/40/1
f 253/65/1 254/66/1 255/67/1 256/68/1
f 257/17/1 258/18/1 259/19/1 260/20/1
f 261/69/1 262/70/1 263/71/1 264/72/1
f 265/73/1 266/74/1 267/75/1 268/76/1
f 269/1/1 270/2/1 271/3/1 272/4/1
f 273/1/1 274/2/1 275/3/1 276/4/1
f 277/1/1 278/2/1 279/3/1 280/4/1
f 281/9/1 282/10/1 283/11/1 284/12/1
f 285/13/1 286/14/1 287/15/1 288/16/1
f 289/77/1 290/78/1 291/79/1 292/80/1
f 293/29/1 294/30/1 295/31/1 296/32/1
f 297/33/1 298/34/1 299/35/1 300/36/1
f 301/81/1 302/82/1 303/83/1 304/84/1
f 305/85/1 306/86/1 307/87/1 308/88/1
f 309/85/1 310/86/1 311/87/1 312/88/1
f 313/73/1 314/74/1 315/75/1 316/76/1
f 317/85/1 318/86/1 319/87/1 320/88/1
f 321/69/1 322/70/1 323/71/1 324/72/1
f 325/9/1 326/10/1 327/11/1 328/12/1
f 329/17/1 330/18/1 331/19/1 332/20/1
f 333/21/1 334/22/1 335/23/1 336/24/1
f 337/17/1 338/18/1 339/19/1 340/20/1
f 341/21/1 342/22/1 343/23/1 344/24/1
f 345/73/1 346/74/1 347/75/1 348/76/1
f 349/85/1 350/86/1 351/87/1 352/88/1
f 353/73/1 354/74/1 355/75/1 356/76/1
f 357/85/1 358/86/1 359/87/1 360/88/1
f 361/1/1 362/2/1 363/3/1 364/4/1
f 365/5/1 366/6/1 367/7/1 368/8/1
f 369/1/1 370/2/1 371/3/1 372/4/1
f 373/5/1 374/6/1 375/7/1 376/8/1
f 377/89/1 378/90/1 379/91/1 380/92/1
f 381/65/1 382/66/1 383/67/1 384/68/1
f 385/17/1 386/18/1 387/19/1 388/20/1
f 389/21/1 390/22/1 391/23/1 392/24/1
f 393/93/1 394/94/1 395/95/1 396/96/1
f 397/65/1 398/66/1 399/67/1 400/68/1
f 401/17/1 402/18/1 403/19/1 404/20/1
f 405/21/1 406/22/1 407/23/1 408/24/1
f 409/93/1 410/94/1 411/95/1 412/96/1
f 413/65/1 414/66/1 415/67/1 416/68/1
f 417/93/1 418/94/1 419/95/1 420/96/1
f 421/69/1 422/70/1 423/71/1 424/72/1
f 425/73/1 426/74/1 427/75/1 428/76/1
f 429/85/1 430/86/1 431/87/1 432/88/1
f 433/89/1 434/90/1 435/91/1 436/92/1
f 437/73/1 438/74/1 439/75/1 440/76/1
f 441/85/1 442/86/1 443/87/1 444/88/1
f 445/85/1 446/86/1 447/87/1 448/88/1
f 449/25/1 450/26/1 451/27/1 452/28/1
f 453/69/1 454/70/1 455/71/1 456/72/1
f 457/73/1 458/74/1 459/75/1 460/76/1
f 461/85/1 462/86/1 463/87/1 464/88/1
f 465/89/1 466/90/1 467/91/1 468/92/1

