# Tiled2Unity generated file. Do not modify by hand.
# Wavefront file for 'tomathensBetaMap_mesh_0014.obj'

# Vertices (Count = 20)
v -112 -130 0
v -113 -130 0
v -113 -129 0
v -112 -129 0
v -112 -131 0
v -113 -131 0
v -113 -130 0
v -112 -130 0
v -112 -132 0
v -113 -132 0
v -113 -131 0
v -112 -131 0
v -112 -133 0
v -113 -133 0
v -113 -132 0
v -112 -132 0
v -112 -134 0
v -113 -134 0
v -113 -133 0
v -112 -133 0

# Texture cooridinates (Count = 4)
vt 0.2098765 0.9227053
vt 0.308642 0.9227053
vt 0.308642 1
vt 0.2098765 1

# Normal
vn 0 0 -1

# Mesh description
g tomathensBetaMap_mesh_0014

# Faces
f 1/1/1 2/2/1 3/3/1 4/4/1
f 5/1/1 6/2/1 7/3/1 8/4/1
f 9/1/1 10/2/1 11/3/1 12/4/1
f 13/1/1 14/2/1 15/3/1 16/4/1
f 17/1/1 18/2/1 19/3/1 20/4/1

