# Tiled2Unity generated file. Do not modify by hand.
# Wavefront file for 'tomathensBetaMap_mesh_0007.obj'

# Vertices (Count = 28)
v -162 -147 0
v -163 -147 0
v -163 -146 0
v -162 -146 0
v -158 -147 0
v -159 -147 0
v -159 -146 0
v -158 -146 0
v -100 -161 0
v -101 -161 0
v -101 -160 0
v -100 -160 0
v -167 -214 0
v -168 -214 0
v -168 -213 0
v -167 -213 0
v -164 -214 0
v -165 -214 0
v -165 -213 0
v -164 -213 0
v -93 -214 0
v -94 -214 0
v -94 -213 0
v -93 -213 0
v -90 -214 0
v -91 -214 0
v -91 -213 0
v -90 -213 0

# Texture cooridinates (Count = 12)
vt 0.2139073 0.9481132
vt 0.2245033 0.9481132
vt 0.2245033 0.9732704
vt 0.2139073 0.9732704
vt 0.2251656 0.9213836
vt 0.2357616 0.9213836
vt 0.2357616 0.9465409
vt 0.2251656 0.9465409
vt 0.2251656 0.9481132
vt 0.2357616 0.9481132
vt 0.2357616 0.9732704
vt 0.2251656 0.9732704

# Normal
vn 0 0 -1

# Mesh description
g tomathensBetaMap_mesh_0007

# Faces
f 1/1/1 2/2/1 3/3/1 4/4/1
f 5/5/1 6/6/1 7/7/1 8/8/1
f 9/1/1 10/2/1 11/3/1 12/4/1
f 13/9/1 14/10/1 15/11/1 16/12/1
f 17/9/1 18/10/1 19/11/1 20/12/1
f 21/9/1 22/10/1 23/11/1 24/12/1
f 25/9/1 26/10/1 27/11/1 28/12/1

