# Tiled2Unity generated file. Do not modify by hand.
# Wavefront file for 'tomathensBetaMap_mesh_0084.obj'

# Vertices (Count = 16)
v -149 -113 0
v -150 -113 0
v -150 -112 0
v -149 -112 0
v -144 -116 0
v -145 -116 0
v -145 -115 0
v -144 -115 0
v -151 -117 0
v -152 -117 0
v -152 -116 0
v -151 -116 0
v -96 -150 0
v -97 -150 0
v -97 -149 0
v -96 -149 0

# Texture cooridinates (Count = 8)
vt 0.3148148 0.9227053
vt 0.4135802 0.9227053
vt 0.4135802 1
vt 0.3148148 1
vt 0.4197531 0.9227053
vt 0.5185185 0.9227053
vt 0.5185185 1
vt 0.4197531 1

# Normal
vn 0 0 -1

# Mesh description
g tomathensBetaMap_mesh_0084

# Faces
f 1/1/1 2/2/1 3/3/1 4/4/1
f 5/1/1 6/2/1 7/3/1 8/4/1
f 9/1/1 10/2/1 11/3/1 12/4/1
f 13/5/1 14/6/1 15/7/1 16/8/1

