# Tiled2Unity generated file. Do not modify by hand.
# Wavefront file for 'tomathensBetaMap_mesh_0039.obj'

# Vertices (Count = 104)
v -166 -33 0
v -167 -33 0
v -167 -32 0
v -166 -32 0
v -159 -33 0
v -160 -33 0
v -160 -32 0
v -159 -32 0
v -142 -33 0
v -143 -33 0
v -143 -32 0
v -142 -32 0
v -135 -33 0
v -136 -33 0
v -136 -32 0
v -135 -32 0
v -122 -33 0
v -123 -33 0
v -123 -32 0
v -122 -32 0
v -115 -33 0
v -116 -33 0
v -116 -32 0
v -115 -32 0
v -108 -33 0
v -109 -33 0
v -109 -32 0
v -108 -32 0
v -97 -33 0
v -98 -33 0
v -98 -32 0
v -97 -32 0
v -90 -33 0
v -91 -33 0
v -91 -32 0
v -90 -32 0
v -166 -34 0
v -167 -34 0
v -167 -33 0
v -166 -33 0
v -159 -34 0
v -160 -34 0
v -160 -33 0
v -159 -33 0
v -142 -34 0
v -143 -34 0
v -143 -33 0
v -142 -33 0
v -135 -34 0
v -136 -34 0
v -136 -33 0
v -135 -33 0
v -122 -34 0
v -123 -34 0
v -123 -33 0
v -122 -33 0
v -115 -34 0
v -116 -34 0
v -116 -33 0
v -115 -33 0
v -108 -34 0
v -109 -34 0
v -109 -33 0
v -108 -33 0
v -97 -34 0
v -98 -34 0
v -98 -33 0
v -97 -33 0
v -90 -34 0
v -91 -34 0
v -91 -33 0
v -90 -33 0
v -90 -67 0
v -91 -67 0
v -91 -66 0
v -90 -66 0
v -90 -68 0
v -91 -68 0
v -91 -67 0
v -90 -67 0
v -167 -213 0
v -168 -213 0
v -168 -212 0
v -167 -212 0
v -164 -213 0
v -165 -213 0
v -165 -212 0
v -164 -212 0
v -167 -214 0
v -168 -214 0
v -168 -213 0
v -167 -213 0
v -164 -214 0
v -165 -214 0
v -165 -213 0
v -164 -213 0
v -80 -223 0
v -81 -223 0
v -81 -222 0
v -80 -222 0
v -80 -224 0
v -81 -224 0
v -81 -223 0
v -80 -223 0

# Texture cooridinates (Count = 16)
vt 0.01872247 0.9825327
vt 0.03634361 0.9825327
vt 0.03634361 1
vt 0.01872247 1
vt 0.01872247 0.9639738
vt 0.03634361 0.9639738
vt 0.03634361 0.981441
vt 0.01872247 0.981441
vt 0.03744493 0.9825327
vt 0.05506608 0.9825327
vt 0.05506608 1
vt 0.03744493 1
vt 0.03744493 0.9639738
vt 0.05506608 0.9639738
vt 0.05506608 0.981441
vt 0.03744493 0.981441

# Normal
vn 0 0 -1

# Mesh description
g tomathensBetaMap_mesh_0039

# Faces
f 1/1/1 2/2/1 3/3/1 4/4/1
f 5/1/1 6/2/1 7/3/1 8/4/1
f 9/1/1 10/2/1 11/3/1 12/4/1
f 13/1/1 14/2/1 15/3/1 16/4/1
f 17/1/1 18/2/1 19/3/1 20/4/1
f 21/1/1 22/2/1 23/3/1 24/4/1
f 25/1/1 26/2/1 27/3/1 28/4/1
f 29/1/1 30/2/1 31/3/1 32/4/1
f 33/1/1 34/2/1 35/3/1 36/4/1
f 37/5/1 38/6/1 39/7/1 40/8/1
f 41/5/1 42/6/1 43/7/1 44/8/1
f 45/5/1 46/6/1 47/7/1 48/8/1
f 49/5/1 50/6/1 51/7/1 52/8/1
f 53/5/1 54/6/1 55/7/1 56/8/1
f 57/5/1 58/6/1 59/7/1 60/8/1
f 61/5/1 62/6/1 63/7/1 64/8/1
f 65/5/1 66/6/1 67/7/1 68/8/1
f 69/5/1 70/6/1 71/7/1 72/8/1
f 73/1/1 74/2/1 75/3/1 76/4/1
f 77/5/1 78/6/1 79/7/1 80/8/1
f 81/9/1 82/10/1 83/11/1 84/12/1
f 85/9/1 86/10/1 87/11/1 88/12/1
f 89/13/1 90/14/1 91/15/1 92/16/1
f 93/13/1 94/14/1 95/15/1 96/16/1
f 97/1/1 98/2/1 99/3/1 100/4/1
f 101/5/1 102/6/1 103/7/1 104/8/1

