# Tiled2Unity generated file. Do not modify by hand.
# Wavefront file for 'tomathensBetaMap_mesh_0068.obj'

# Vertices (Count = 480)
v -150 -109 0
v -151 -109 0
v -151 -108 0
v -150 -108 0
v -149 -109 0
v -150 -109 0
v -150 -108 0
v -149 -108 0
v -150 -110 0
v -151 -110 0
v -151 -109 0
v -150 -109 0
v -149 -110 0
v -150 -110 0
v -150 -109 0
v -149 -109 0
v -149 -111 0
v -150 -111 0
v -150 -110 0
v -149 -110 0
v -180 -118 0
v -181 -118 0
v -181 -117 0
v -180 -117 0
v -179 -118 0
v -180 -118 0
v -180 -117 0
v -179 -117 0
v -180 -119 0
v -181 -119 0
v -181 -118 0
v -180 -118 0
v -179 -119 0
v -180 -119 0
v -180 -118 0
v -179 -118 0
v -184 -120 0
v -185 -120 0
v -185 -119 0
v -184 -119 0
v -183 -120 0
v -184 -120 0
v -184 -119 0
v -183 -119 0
v -180 -120 0
v -181 -120 0
v -181 -119 0
v -180 -119 0
v -179 -120 0
v -180 -120 0
v -180 -119 0
v -179 -119 0
v -184 -121 0
v -185 -121 0
v -185 -120 0
v -184 -120 0
v -183 -121 0
v -184 -121 0
v -184 -120 0
v -183 -120 0
v -184 -122 0
v -185 -122 0
v -185 -121 0
v -184 -121 0
v -183 -122 0
v -184 -122 0
v -184 -121 0
v -183 -121 0
v -180 -123 0
v -181 -123 0
v -181 -122 0
v -180 -122 0
v -179 -123 0
v -180 -123 0
v -180 -122 0
v -179 -122 0
v -180 -124 0
v -181 -124 0
v -181 -123 0
v -180 -123 0
v -179 -124 0
v -180 -124 0
v -180 -123 0
v -179 -123 0
v -180 -125 0
v -181 -125 0
v -181 -124 0
v -180 -124 0
v -179 -125 0
v -180 -125 0
v -180 -124 0
v -179 -124 0
v -184 -126 0
v -185 -126 0
v -185 -125 0
v -184 -125 0
v -183 -126 0
v -184 -126 0
v -184 -125 0
v -183 -125 0
v -184 -127 0
v -185 -127 0
v -185 -126 0
v -184 -126 0
v -183 -127 0
v -184 -127 0
v -184 -126 0
v -183 -126 0
v -184 -128 0
v -185 -128 0
v -185 -127 0
v -184 -127 0
v -183 -128 0
v -184 -128 0
v -184 -127 0
v -183 -127 0
v -141 -214 0
v -142 -214 0
v -142 -213 0
v -141 -213 0
v -140 -214 0
v -141 -214 0
v -141 -213 0
v -140 -213 0
v -141 -215 0
v -142 -215 0
v -142 -214 0
v -141 -214 0
v -140 -215 0
v -141 -215 0
v -141 -214 0
v -140 -214 0
v -141 -216 0
v -142 -216 0
v -142 -215 0
v -141 -215 0
v -140 -216 0
v -141 -216 0
v -141 -215 0
v -140 -215 0
v -129 -216 0
v -130 -216 0
v -130 -215 0
v -129 -215 0
v -128 -216 0
v -129 -216 0
v -129 -215 0
v -128 -215 0
v -129 -217 0
v -130 -217 0
v -130 -216 0
v -129 -216 0
v -128 -217 0
v -129 -217 0
v -129 -216 0
v -128 -216 0
v -103 -217 0
v -104 -217 0
v -104 -216 0
v -103 -216 0
v -102 -217 0
v -103 -217 0
v -103 -216 0
v -102 -216 0
v -157 -218 0
v -158 -218 0
v -158 -217 0
v -157 -217 0
v -156 -218 0
v -157 -218 0
v -157 -217 0
v -156 -217 0
v -155 -218 0
v -156 -218 0
v -156 -217 0
v -155 -217 0
v -154 -218 0
v -155 -218 0
v -155 -217 0
v -154 -217 0
v -129 -218 0
v -130 -218 0
v -130 -217 0
v -129 -217 0
v -128 -218 0
v -129 -218 0
v -129 -217 0
v -128 -217 0
v -103 -218 0
v -104 -218 0
v -104 -217 0
v -103 -217 0
v -102 -218 0
v -103 -218 0
v -103 -217 0
v -102 -217 0
v -157 -219 0
v -158 -219 0
v -158 -218 0
v -157 -218 0
v -156 -219 0
v -157 -219 0
v -157 -218 0
v -156 -218 0
v -155 -219 0
v -156 -219 0
v -156 -218 0
v -155 -218 0
v -154 -219 0
v -155 -219 0
v -155 -218 0
v -154 -218 0
v -103 -219 0
v -104 -219 0
v -104 -218 0
v -103 -218 0
v -102 -219 0
v -103 -219 0
v -103 -218 0
v -102 -218 0
v -157 -220 0
v -158 -220 0
v -158 -219 0
v -157 -219 0
v -156 -220 0
v -157 -220 0
v -157 -219 0
v -156 -219 0
v -155 -220 0
v -156 -220 0
v -156 -219 0
v -155 -219 0
v -154 -220 0
v -155 -220 0
v -155 -219 0
v -154 -219 0
v -97 -222 0
v -98 -222 0
v -98 -221 0
v -97 -221 0
v -96 -222 0
v -97 -222 0
v -97 -221 0
v -96 -221 0
v -115 -223 0
v -116 -223 0
v -116 -222 0
v -115 -222 0
v -114 -223 0
v -115 -223 0
v -115 -222 0
v -114 -222 0
v -97 -223 0
v -98 -223 0
v -98 -222 0
v -97 -222 0
v -96 -223 0
v -97 -223 0
v -97 -222 0
v -96 -222 0
v -115 -224 0
v -116 -224 0
v -116 -223 0
v -115 -223 0
v -114 -224 0
v -115 -224 0
v -115 -223 0
v -114 -223 0
v -97 -224 0
v -98 -224 0
v -98 -223 0
v -97 -223 0
v -96 -224 0
v -97 -224 0
v -97 -223 0
v -96 -223 0
v -115 -225 0
v -116 -225 0
v -116 -224 0
v -115 -224 0
v -114 -225 0
v -115 -225 0
v -115 -224 0
v -114 -224 0
v -146 -228 0
v -147 -228 0
v -147 -227 0
v -146 -227 0
v -145 -228 0
v -146 -228 0
v -146 -227 0
v -145 -227 0
v -146 -229 0
v -147 -229 0
v -147 -228 0
v -146 -228 0
v -145 -229 0
v -146 -229 0
v -146 -228 0
v -145 -228 0
v -146 -230 0
v -147 -230 0
v -147 -229 0
v -146 -229 0
v -145 -230 0
v -146 -230 0
v -146 -229 0
v -145 -229 0
v -105 -230 0
v -106 -230 0
v -106 -229 0
v -105 -229 0
v -104 -230 0
v -105 -230 0
v -105 -229 0
v -104 -229 0
v -105 -231 0
v -106 -231 0
v -106 -230 0
v -105 -230 0
v -104 -231 0
v -105 -231 0
v -105 -230 0
v -104 -230 0
v -153 -232 0
v -154 -232 0
v -154 -231 0
v -153 -231 0
v -152 -232 0
v -153 -232 0
v -153 -231 0
v -152 -231 0
v -105 -232 0
v -106 -232 0
v -106 -231 0
v -105 -231 0
v -104 -232 0
v -105 -232 0
v -105 -231 0
v -104 -231 0
v -153 -233 0
v -154 -233 0
v -154 -232 0
v -153 -232 0
v -152 -233 0
v -153 -233 0
v -153 -232 0
v -152 -232 0
v -160 -234 0
v -161 -234 0
v -161 -233 0
v -160 -233 0
v -159 -234 0
v -160 -234 0
v -160 -233 0
v -159 -233 0
v -153 -234 0
v -154 -234 0
v -154 -233 0
v -153 -233 0
v -152 -234 0
v -153 -234 0
v -153 -233 0
v -152 -233 0
v -160 -235 0
v -161 -235 0
v -161 -234 0
v -160 -234 0
v -159 -235 0
v -160 -235 0
v -160 -234 0
v -159 -234 0
v -143 -235 0
v -144 -235 0
v -144 -234 0
v -143 -234 0
v -142 -235 0
v -143 -235 0
v -143 -234 0
v -142 -234 0
v -160 -236 0
v -161 -236 0
v -161 -235 0
v -160 -235 0
v -159 -236 0
v -160 -236 0
v -160 -235 0
v -159 -235 0
v -145 -236 0
v -146 -236 0
v -146 -235 0
v -145 -235 0
v -144 -236 0
v -145 -236 0
v -145 -235 0
v -144 -235 0
v -143 -236 0
v -144 -236 0
v -144 -235 0
v -143 -235 0
v -142 -236 0
v -143 -236 0
v -143 -235 0
v -142 -235 0
v -141 -236 0
v -142 -236 0
v -142 -235 0
v -141 -235 0
v -121 -236 0
v -122 -236 0
v -122 -235 0
v -121 -235 0
v -120 -236 0
v -121 -236 0
v -121 -235 0
v -120 -235 0
v -145 -237 0
v -146 -237 0
v -146 -236 0
v -145 -236 0
v -144 -237 0
v -145 -237 0
v -145 -236 0
v -144 -236 0
v -143 -237 0
v -144 -237 0
v -144 -236 0
v -143 -236 0
v -142 -237 0
v -143 -237 0
v -143 -236 0
v -142 -236 0
v -141 -237 0
v -142 -237 0
v -142 -236 0
v -141 -236 0
v -121 -237 0
v -122 -237 0
v -122 -236 0
v -121 -236 0
v -120 -237 0
v -121 -237 0
v -121 -236 0
v -120 -236 0
v -146 -238 0
v -147 -238 0
v -147 -237 0
v -146 -237 0
v -145 -238 0
v -146 -238 0
v -146 -237 0
v -145 -237 0
v -144 -238 0
v -145 -238 0
v -145 -237 0
v -144 -237 0
v -121 -238 0
v -122 -238 0
v -122 -237 0
v -121 -237 0
v -120 -238 0
v -121 -238 0
v -121 -237 0
v -120 -237 0
v -146 -239 0
v -147 -239 0
v -147 -238 0
v -146 -238 0
v -145 -239 0
v -146 -239 0
v -146 -238 0
v -145 -238 0
v -146 -240 0
v -147 -240 0
v -147 -239 0
v -146 -239 0
v -145 -240 0
v -146 -240 0
v -146 -239 0
v -145 -239 0

# Texture cooridinates (Count = 24)
vt 0.0720339 0.936
vt 0.1398305 0.936
vt 0.1398305 1
vt 0.0720339 1
vt 0 0.936
vt 0.06779661 0.936
vt 0.06779661 1
vt 0 1
vt 0.0720339 0.868
vt 0.1398305 0.868
vt 0.1398305 0.932
vt 0.0720339 0.932
vt 0 0.868
vt 0.06779661 0.868
vt 0.06779661 0.932
vt 0 0.932
vt 0 0.8
vt 0.06779661 0.8
vt 0.06779661 0.864
vt 0 0.864
vt 0.0720339 0.8
vt 0.1398305 0.8
vt 0.1398305 0.864
vt 0.0720339 0.864

# Normal
vn 0 0 -1

# Mesh description
g tomathensBetaMap_mesh_0068

# Faces
f 1/1/1 2/2/1 3/3/1 4/4/1
f 5/5/1 6/6/1 7/7/1 8/8/1
f 9/9/1 10/10/1 11/11/1 12/12/1
f 13/13/1 14/14/1 15/15/1 16/16/1
f 17/17/1 18/18/1 19/19/1 20/20/1
f 21/1/1 22/2/1 23/3/1 24/4/1
f 25/5/1 26/6/1 27/7/1 28/8/1
f 29/9/1 30/10/1 31/11/1 32/12/1
f 33/13/1 34/14/1 35/15/1 36/16/1
f 37/1/1 38/2/1 39/3/1 40/4/1
f 41/5/1 42/6/1 43/7/1 44/8/1
f 45/21/1 46/22/1 47/23/1 48/24/1
f 49/17/1 50/18/1 51/19/1 52/20/1
f 53/9/1 54/10/1 55/11/1 56/12/1
f 57/13/1 58/14/1 59/15/1 60/16/1
f 61/21/1 62/22/1 63/23/1 64/24/1
f 65/17/1 66/18/1 67/19/1 68/20/1
f 69/1/1 70/2/1 71/3/1 72/4/1
f 73/5/1 74/6/1 75/7/1 76/8/1
f 77/9/1 78/10/1 79/11/1 80/12/1
f 81/13/1 82/14/1 83/15/1 84/16/1
f 85/21/1 86/22/1 87/23/1 88/24/1
f 89/17/1 90/18/1 91/19/1 92/20/1
f 93/1/1 94/2/1 95/3/1 96/4/1
f 97/5/1 98/6/1 99/7/1 100/8/1
f 101/9/1 102/10/1 103/11/1 104/12/1
f 105/13/1 106/14/1 107/15/1 108/16/1
f 109/21/1 110/22/1 111/23/1 112/24/1
f 113/17/1 114/18/1 115/19/1 116/20/1
f 117/1/1 118/2/1 119/3/1 120/4/1
f 121/5/1 122/6/1 123/7/1 124/8/1
f 125/9/1 126/10/1 127/11/1 128/12/1
f 129/13/1 130/14/1 131/15/1 132/16/1
f 133/21/1 134/22/1 135/23/1 136/24/1
f 137/17/1 138/18/1 139/19/1 140/20/1
f 141/1/1 142/2/1 143/3/1 144/4/1
f 145/5/1 146/6/1 147/7/1 148/8/1
f 149/9/1 150/10/1 151/11/1 152/12/1
f 153/13/1 154/14/1 155/15/1 156/16/1
f 157/1/1 158/2/1 159/3/1 160/4/1
f 161/5/1 162/6/1 163/7/1 164/8/1
f 165/1/1 166/2/1 167/3/1 168/4/1
f 169/5/1 170/6/1 171/7/1 172/8/1
f 173/1/1 174/2/1 175/3/1 176/4/1
f 177/5/1 178/6/1 179/7/1 180/8/1
f 181/21/1 182/22/1 183/23/1 184/24/1
f 185/17/1 186/18/1 187/19/1 188/20/1
f 189/9/1 190/10/1 191/11/1 192/12/1
f 193/13/1 194/14/1 195/15/1 196/16/1
f 197/9/1 198/10/1 199/11/1 200/12/1
f 201/13/1 202/14/1 203/15/1 204/16/1
f 205/9/1 206/10/1 207/11/1 208/12/1
f 209/13/1 210/14/1 211/15/1 212/16/1
f 213/21/1 214/22/1 215/23/1 216/24/1
f 217/17/1 218/18/1 219/19/1 220/20/1
f 221/21/1 222/22/1 223/23/1 224/24/1
f 225/17/1 226/18/1 227/19/1 228/20/1
f 229/21/1 230/22/1 231/23/1 232/24/1
f 233/17/1 234/18/1 235/19/1 236/20/1
f 237/1/1 238/2/1 239/3/1 240/4/1
f 241/5/1 242/6/1 243/7/1 244/8/1
f 245/1/1 246/2/1 247/3/1 248/4/1
f 249/5/1 250/6/1 251/7/1 252/8/1
f 253/9/1 254/10/1 255/11/1 256/12/1
f 257/13/1 258/14/1 259/15/1 260/16/1
f 261/9/1 262/10/1 263/11/1 264/12/1
f 265/13/1 266/14/1 267/15/1 268/16/1
f 269/21/1 270/22/1 271/23/1 272/24/1
f 273/17/1 274/18/1 275/19/1 276/20/1
f 277/21/1 278/22/1 279/23/1 280/24/1
f 281/17/1 282/18/1 283/19/1 284/20/1
f 285/1/1 286/2/1 287/3/1 288/4/1
f 289/5/1 290/6/1 291/7/1 292/8/1
f 293/9/1 294/10/1 295/11/1 296/12/1
f 297/13/1 298/14/1 299/15/1 300/16/1
f 301/21/1 302/22/1 303/23/1 304/24/1
f 305/17/1 306/18/1 307/19/1 308/20/1
f 309/1/1 310/2/1 311/3/1 312/4/1
f 313/5/1 314/6/1 315/7/1 316/8/1
f 317/9/1 318/10/1 319/11/1 320/12/1
f 321/13/1 322/14/1 323/15/1 324/16/1
f 325/1/1 326/2/1 327/3/1 328/4/1
f 329/5/1 330/6/1 331/7/1 332/8/1
f 333/21/1 334/22/1 335/23/1 336/24/1
f 337/17/1 338/18/1 339/19/1 340/20/1
f 341/9/1 342/10/1 343/11/1 344/12/1
f 345/13/1 346/14/1 347/15/1 348/16/1
f 349/1/1 350/2/1 351/3/1 352/4/1
f 353/5/1 354/6/1 355/7/1 356/8/1
f 357/21/1 358/22/1 359/23/1 360/24/1
f 361/17/1 362/18/1 363/19/1 364/20/1
f 365/9/1 366/10/1 367/11/1 368/12/1
f 369/13/1 370/14/1 371/15/1 372/16/1
f 373/1/1 374/2/1 375/3/1 376/4/1
f 377/5/1 378/6/1 379/7/1 380/8/1
f 381/21/1 382/22/1 383/23/1 384/24/1
f 385/17/1 386/18/1 387/19/1 388/20/1
f 389/1/1 390/2/1 391/3/1 392/4/1
f 393/5/1 394/6/1 395/7/1 396/8/1
f 397/9/1 398/10/1 399/11/1 400/12/1
f 401/13/1 402/14/1 403/15/1 404/16/1
f 405/1/1 406/2/1 407/3/1 408/4/1
f 409/1/1 410/2/1 411/3/1 412/4/1
f 413/5/1 414/6/1 415/7/1 416/8/1
f 417/9/1 418/10/1 419/11/1 420/12/1
f 421/13/1 422/14/1 423/15/1 424/16/1
f 425/21/1 426/22/1 427/23/1 428/24/1
f 429/17/1 430/18/1 431/19/1 432/20/1
f 433/9/1 434/10/1 435/11/1 436/12/1
f 437/9/1 438/10/1 439/11/1 440/12/1
f 441/13/1 442/14/1 443/15/1 444/16/1
f 445/1/1 446/2/1 447/3/1 448/4/1
f 449/21/1 450/22/1 451/23/1 452/24/1
f 453/17/1 454/18/1 455/19/1 456/20/1
f 457/21/1 458/22/1 459/23/1 460/24/1
f 461/17/1 462/18/1 463/19/1 464/20/1
f 465/9/1 466/10/1 467/11/1 468/12/1
f 469/13/1 470/14/1 471/15/1 472/16/1
f 473/21/1 474/22/1 475/23/1 476/24/1
f 477/17/1 478/18/1 479/19/1 480/20/1

