# Tiled2Unity generated file. Do not modify by hand.
# Wavefront file for 'tomathensBetaMap_mesh_0086.obj'

# Vertices (Count = 32)
v -190 -165 0
v -191 -165 0
v -191 -164 0
v -190 -164 0
v -183 -165 0
v -184 -165 0
v -184 -164 0
v -183 -164 0
v -191 -166 0
v -192 -166 0
v -192 -165 0
v -191 -165 0
v -190 -166 0
v -191 -166 0
v -191 -165 0
v -190 -165 0
v -189 -166 0
v -190 -166 0
v -190 -165 0
v -189 -165 0
v -184 -166 0
v -185 -166 0
v -185 -165 0
v -184 -165 0
v -183 -166 0
v -184 -166 0
v -184 -165 0
v -183 -165 0
v -182 -166 0
v -183 -166 0
v -183 -165 0
v -182 -165 0

# Texture cooridinates (Count = 12)
vt 0.07103064 0.9077491
vt 0.09331477 0.9077491
vt 0.09331477 0.9372694
vt 0.07103064 0.9372694
vt 0.02367688 0.8763838
vt 0.045961 0.8763838
vt 0.045961 0.9059041
vt 0.02367688 0.9059041
vt 0.07103064 0.8763838
vt 0.09331477 0.8763838
vt 0.09331477 0.9059041
vt 0.07103064 0.9059041

# Normal
vn 0 0 -1

# Mesh description
g tomathensBetaMap_mesh_0086

# Faces
f 1/1/1 2/2/1 3/3/1 4/4/1
f 5/1/1 6/2/1 7/3/1 8/4/1
f 9/5/1 10/6/1 11/7/1 12/8/1
f 13/9/1 14/10/1 15/11/1 16/12/1
f 17/5/1 18/6/1 19/7/1 20/8/1
f 21/5/1 22/6/1 23/7/1 24/8/1
f 25/9/1 26/10/1 27/11/1 28/12/1
f 29/5/1 30/6/1 31/7/1 32/8/1

