# Tiled2Unity generated file. Do not modify by hand.
# Wavefront file for 'tomathensBetaMap_mesh_0102.obj'

# Vertices (Count = 104)
v -124 -197 0
v -125 -197 0
v -125 -196 0
v -124 -196 0
v -132 -198 0
v -133 -198 0
v -133 -197 0
v -132 -197 0
v -124 -198 0
v -125 -198 0
v -125 -197 0
v -124 -197 0
v -132 -199 0
v -133 -199 0
v -133 -198 0
v -132 -198 0
v -124 -199 0
v -125 -199 0
v -125 -198 0
v -124 -198 0
v -142 -200 0
v -143 -200 0
v -143 -199 0
v -142 -199 0
v -135 -200 0
v -136 -200 0
v -136 -199 0
v -135 -199 0
v -121 -200 0
v -122 -200 0
v -122 -199 0
v -121 -199 0
v -142 -201 0
v -143 -201 0
v -143 -200 0
v -142 -200 0
v -135 -201 0
v -136 -201 0
v -136 -200 0
v -135 -200 0
v -121 -201 0
v -122 -201 0
v -122 -200 0
v -121 -200 0
v -114 -201 0
v -115 -201 0
v -115 -200 0
v -114 -200 0
v -142 -202 0
v -143 -202 0
v -143 -201 0
v -142 -201 0
v -135 -202 0
v -136 -202 0
v -136 -201 0
v -135 -201 0
v -121 -202 0
v -122 -202 0
v -122 -201 0
v -121 -201 0
v -114 -202 0
v -115 -202 0
v -115 -201 0
v -114 -201 0
v -142 -206 0
v -143 -206 0
v -143 -205 0
v -142 -205 0
v -121 -206 0
v -122 -206 0
v -122 -205 0
v -121 -205 0
v -114 -206 0
v -115 -206 0
v -115 -205 0
v -114 -205 0
v -142 -207 0
v -143 -207 0
v -143 -206 0
v -142 -206 0
v -121 -207 0
v -122 -207 0
v -122 -206 0
v -121 -206 0
v -114 -207 0
v -115 -207 0
v -115 -206 0
v -114 -206 0
v -142 -208 0
v -143 -208 0
v -143 -207 0
v -142 -207 0
v -135 -208 0
v -136 -208 0
v -136 -207 0
v -135 -207 0
v -121 -208 0
v -122 -208 0
v -122 -207 0
v -121 -207 0
v -114 -208 0
v -115 -208 0
v -115 -207 0
v -114 -207 0

# Texture cooridinates (Count = 16)
vt 0.4390728 0.841195
vt 0.4496689 0.841195
vt 0.4496689 0.8663522
vt 0.4390728 0.8663522
vt 0.4503311 0.8144654
vt 0.4609272 0.8144654
vt 0.4609272 0.8396226
vt 0.4503311 0.8396226
vt 0.4390728 0.8144654
vt 0.4496689 0.8144654
vt 0.4496689 0.8396226
vt 0.4390728 0.8396226
vt 0.4390728 0.7877358
vt 0.4496689 0.7877358
vt 0.4496689 0.8128931
vt 0.4390728 0.8128931

# Normal
vn 0 0 -1

# Mesh description
g tomathensBetaMap_mesh_0102

# Faces
f 1/1/1 2/2/1 3/3/1 4/4/1
f 5/5/1 6/6/1 7/7/1 8/8/1
f 9/9/1 10/10/1 11/11/1 12/12/1
f 13/13/1 14/14/1 15/15/1 16/16/1
f 17/13/1 18/14/1 19/15/1 20/16/1
f 21/1/1 22/2/1 23/3/1 24/4/1
f 25/1/1 26/2/1 27/3/1 28/4/1
f 29/1/1 30/2/1 31/3/1 32/4/1
f 33/9/1 34/10/1 35/11/1 36/12/1
f 37/9/1 38/10/1 39/11/1 40/12/1
f 41/9/1 42/10/1 43/11/1 44/12/1
f 45/9/1 46/10/1 47/11/1 48/12/1
f 49/13/1 50/14/1 51/15/1 52/16/1
f 53/13/1 54/14/1 55/15/1 56/16/1
f 57/13/1 58/14/1 59/15/1 60/16/1
f 61/13/1 62/14/1 63/15/1 64/16/1
f 65/1/1 66/2/1 67/3/1 68/4/1
f 69/1/1 70/2/1 71/3/1 72/4/1
f 73/1/1 74/2/1 75/3/1 76/4/1
f 77/9/1 78/10/1 79/11/1 80/12/1
f 81/9/1 82/10/1 83/11/1 84/12/1
f 85/9/1 86/10/1 87/11/1 88/12/1
f 89/13/1 90/14/1 91/15/1 92/16/1
f 93/13/1 94/14/1 95/15/1 96/16/1
f 97/13/1 98/14/1 99/15/1 100/16/1
f 101/13/1 102/14/1 103/15/1 104/16/1

